G04 #@! TF.FileFunction,Copper,L2,Bot,Signal*
%FSLAX46Y46*%
G04 Gerber Fmt 4.6, Leading zero omitted, Abs format (unit mm)*
G04 Created by KiCad (PCBNEW 4.0.7-e2-6376~58~ubuntu16.04.1) date Mon Mar 26 16:54:40 2018*
%MOMM*%
%LPD*%
G01*
G04 APERTURE LIST*
%ADD10C,0.100000*%
%ADD11R,3.000000X3.000000*%
%ADD12C,3.000000*%
%ADD13C,1.798320*%
%ADD14C,1.795780*%
%ADD15R,1.700000X1.700000*%
%ADD16O,1.700000X1.700000*%
%ADD17C,2.400000*%
%ADD18O,2.400000X2.400000*%
%ADD19C,1.524000*%
%ADD20C,0.609600*%
%ADD21C,0.254000*%
G04 APERTURE END LIST*
D10*
D11*
X135000000Y-27000000D03*
D12*
X139200000Y-27000000D03*
X135000000Y-32500000D03*
X139200000Y-32500000D03*
D13*
X186000000Y-70000000D03*
D14*
X188540000Y-72540000D03*
X188540000Y-67460000D03*
X183460000Y-67460000D03*
X183460000Y-72540000D03*
D15*
X169000000Y-52000000D03*
D16*
X166460000Y-52000000D03*
D11*
X182000000Y-27000000D03*
D12*
X186200000Y-27000000D03*
X182000000Y-32500000D03*
X186200000Y-32500000D03*
D11*
X122000000Y-27000000D03*
D12*
X126200000Y-27000000D03*
X122000000Y-32500000D03*
X126200000Y-32500000D03*
D17*
X185000000Y-42000000D03*
D18*
X192620000Y-42000000D03*
D19*
X140160000Y-72400000D03*
X140160000Y-69860000D03*
X140160000Y-67320000D03*
X140160000Y-64780000D03*
X140160000Y-62240000D03*
X140160000Y-59700000D03*
X140160000Y-57160000D03*
X140160000Y-54620000D03*
X140160000Y-52080000D03*
X140160000Y-49540000D03*
X119840000Y-72400000D03*
X119840000Y-69860000D03*
X119840000Y-67320000D03*
X119840000Y-64780000D03*
X119840000Y-62240000D03*
X119840000Y-59700000D03*
X119840000Y-57160000D03*
X119840000Y-54620000D03*
X119840000Y-52080000D03*
X119840000Y-49540000D03*
D15*
X144000000Y-43000000D03*
D16*
X144000000Y-45540000D03*
D15*
X146000000Y-57000000D03*
D16*
X146000000Y-59540000D03*
D15*
X148000000Y-64000000D03*
D16*
X148000000Y-66540000D03*
D15*
X199898000Y-38100000D03*
D16*
X199898000Y-40640000D03*
X199898000Y-43180000D03*
X199898000Y-45720000D03*
D15*
X200000000Y-58000000D03*
D16*
X200000000Y-60540000D03*
D15*
X196000000Y-30000000D03*
D16*
X196000000Y-32540000D03*
D15*
X174498000Y-50546000D03*
D16*
X174498000Y-53086000D03*
D20*
X167000000Y-68000000D03*
X171000000Y-64000000D03*
X174000000Y-70000000D03*
X167000000Y-70000000D03*
X172974000Y-61214000D03*
X171450000Y-60960000D03*
X163576000Y-69342000D03*
X151892000Y-39878000D03*
X185420000Y-55626000D03*
X181102000Y-52832000D03*
X180340000Y-50038000D03*
X125476000Y-43180000D03*
X198000000Y-63000000D03*
X175000000Y-73000000D03*
X179000000Y-70000000D03*
X176000000Y-70000000D03*
X178000000Y-73000000D03*
X170000000Y-71000000D03*
X182000000Y-73000000D03*
X170000000Y-55000000D03*
X128000000Y-64000000D03*
X141000000Y-41000000D03*
X138000000Y-38000000D03*
X133000000Y-56000000D03*
X131000000Y-57000000D03*
X127000000Y-68000000D03*
X199000000Y-54000000D03*
X199000000Y-51000000D03*
X200000000Y-55000000D03*
X158000000Y-62000000D03*
X164000000Y-63000000D03*
X163000000Y-54000000D03*
X162000000Y-41000000D03*
X148000000Y-42000000D03*
X142000000Y-46000000D03*
X139000000Y-46000000D03*
X179000000Y-51000000D03*
X170000000Y-48000000D03*
X125000000Y-62000000D03*
X125000000Y-46000000D03*
X135128000Y-40132000D03*
X193548000Y-65278000D03*
X197000000Y-61000000D03*
X190000000Y-67000000D03*
X188000000Y-62000000D03*
X184000000Y-62000000D03*
X164000000Y-49000000D03*
X164000000Y-46000000D03*
X165354000Y-29464000D03*
X163576000Y-29464000D03*
X161798000Y-29464000D03*
X160020000Y-29464000D03*
X158242000Y-29464000D03*
X156464000Y-29464000D03*
X154686000Y-29464000D03*
X152908000Y-29464000D03*
X165354000Y-27686000D03*
X163576000Y-27686000D03*
X161798000Y-27686000D03*
X160020000Y-27686000D03*
X158242000Y-27686000D03*
X156464000Y-27686000D03*
X154686000Y-27686000D03*
X152908000Y-27686000D03*
X165354000Y-25908000D03*
X163576000Y-25908000D03*
X161798000Y-25908000D03*
X160020000Y-25908000D03*
X158242000Y-25908000D03*
X156464000Y-25908000D03*
X154686000Y-25908000D03*
X152908000Y-25908000D03*
X165354000Y-24130000D03*
X163576000Y-24130000D03*
X161798000Y-24130000D03*
X160020000Y-24130000D03*
X158242000Y-24130000D03*
X156464000Y-24130000D03*
X154686000Y-24130000D03*
X152908000Y-24130000D03*
X165354000Y-22352000D03*
X163576000Y-22352000D03*
X161798000Y-22352000D03*
X160020000Y-22352000D03*
X158242000Y-22352000D03*
X156464000Y-22352000D03*
X154686000Y-22352000D03*
X152908000Y-22352000D03*
X124968000Y-37592000D03*
X130556000Y-29210000D03*
X147000000Y-50000000D03*
X140000000Y-47000000D03*
X154000000Y-60000000D03*
X157000000Y-60000000D03*
X123444000Y-35052000D03*
X128016000Y-35052000D03*
X150000000Y-61000000D03*
X156000000Y-61000000D03*
X144000000Y-62000000D03*
X143000000Y-58000000D03*
X159000000Y-71000000D03*
X155000000Y-71000000D03*
X143000000Y-61000000D03*
X143000000Y-66000000D03*
X156000000Y-69000000D03*
X158000000Y-69000000D03*
X163000000Y-66000000D03*
X164000000Y-64000000D03*
X156000000Y-70000000D03*
X159000000Y-65000000D03*
X181000000Y-59000000D03*
X177000000Y-59000000D03*
D21*
X170000000Y-68000000D02*
X167000000Y-68000000D01*
X171000000Y-67000000D02*
X170000000Y-68000000D01*
X171000000Y-64000000D02*
X171000000Y-67000000D01*
X167000000Y-70000000D02*
X174000000Y-70000000D01*
X142000000Y-46000000D02*
X139000000Y-46000000D01*
X179000000Y-51000000D02*
X176000000Y-48000000D01*
X176000000Y-48000000D02*
X170000000Y-48000000D01*
X125000000Y-46000000D02*
X125000000Y-62000000D01*
X135128000Y-40132000D02*
X133858000Y-41402000D01*
X133858000Y-41402000D02*
X118618000Y-41402000D01*
X118618000Y-41402000D02*
X117348000Y-42672000D01*
X117348000Y-42672000D02*
X117348000Y-62992000D01*
X116078000Y-64262000D02*
X117348000Y-62992000D01*
X109728000Y-64262000D02*
X116078000Y-64262000D01*
X107696000Y-66294000D02*
X109728000Y-64262000D01*
X107696000Y-74930000D02*
X107696000Y-66294000D01*
X108458000Y-75692000D02*
X179324000Y-75692000D01*
X179324000Y-75692000D02*
X189992000Y-75692000D01*
X189992000Y-75692000D02*
X191008000Y-74676000D01*
X191008000Y-74676000D02*
X191008000Y-67818000D01*
X107696000Y-74930000D02*
X108458000Y-75692000D01*
X191008000Y-67818000D02*
X193548000Y-65278000D01*
X196000000Y-61000000D02*
X197000000Y-61000000D01*
X190000000Y-67000000D02*
X196000000Y-61000000D01*
X184000000Y-62000000D02*
X188000000Y-62000000D01*
X164000000Y-46000000D02*
X164000000Y-49000000D01*
X130556000Y-36322000D02*
X130556000Y-37084000D01*
X130556000Y-37084000D02*
X130048000Y-37592000D01*
X130048000Y-37592000D02*
X128778000Y-37592000D01*
X124968000Y-37592000D02*
X128778000Y-37592000D01*
X130556000Y-36576000D02*
X130556000Y-36322000D01*
X130556000Y-36322000D02*
X130556000Y-29210000D01*
X143000000Y-50000000D02*
X147000000Y-50000000D01*
X140000000Y-47000000D02*
X143000000Y-50000000D01*
X157000000Y-60000000D02*
X154000000Y-60000000D01*
X128016000Y-35052000D02*
X123444000Y-35052000D01*
X156000000Y-61000000D02*
X150000000Y-61000000D01*
X144000000Y-59000000D02*
X144000000Y-62000000D01*
X143000000Y-58000000D02*
X144000000Y-59000000D01*
X155000000Y-71000000D02*
X159000000Y-71000000D01*
X143000000Y-66000000D02*
X143000000Y-61000000D01*
X156000000Y-69000000D02*
X158000000Y-69000000D01*
X164000000Y-65000000D02*
X163000000Y-66000000D01*
X164000000Y-64000000D02*
X164000000Y-65000000D01*
X158000000Y-70000000D02*
X156000000Y-70000000D01*
X159000000Y-69000000D02*
X158000000Y-70000000D01*
X159000000Y-65000000D02*
X159000000Y-69000000D01*
X120000000Y-50000000D02*
X120000000Y-49000000D01*
X177000000Y-59000000D02*
X181000000Y-59000000D01*
G36*
X178181000Y-30861000D02*
X144145000Y-30861000D01*
X144145000Y-18161000D01*
X178181000Y-18161000D01*
X178181000Y-30861000D01*
X178181000Y-30861000D01*
G37*
X178181000Y-30861000D02*
X144145000Y-30861000D01*
X144145000Y-18161000D01*
X178181000Y-18161000D01*
X178181000Y-30861000D01*
G36*
X122892200Y-17888980D02*
X122291091Y-18489041D01*
X121965372Y-19273459D01*
X121964630Y-20122815D01*
X122288980Y-20907800D01*
X122889041Y-21508909D01*
X123673459Y-21834628D01*
X124522815Y-21835370D01*
X125307800Y-21511020D01*
X125908909Y-20910959D01*
X126234628Y-20126541D01*
X126235370Y-19277185D01*
X125911020Y-18492200D01*
X125310959Y-17891091D01*
X124874844Y-17710000D01*
X136325364Y-17710000D01*
X135892200Y-17888980D01*
X135291091Y-18489041D01*
X134965372Y-19273459D01*
X134964630Y-20122815D01*
X135288980Y-20907800D01*
X135889041Y-21508909D01*
X136673459Y-21834628D01*
X137522815Y-21835370D01*
X138307800Y-21511020D01*
X138908909Y-20910959D01*
X139234628Y-20126541D01*
X139235370Y-19277185D01*
X138911020Y-18492200D01*
X138310959Y-17891091D01*
X137874844Y-17710000D01*
X143485606Y-17710000D01*
X143433029Y-17786949D01*
X143383000Y-18034000D01*
X143383000Y-30988000D01*
X143426427Y-31218795D01*
X143562827Y-31430767D01*
X143770949Y-31572971D01*
X144018000Y-31623000D01*
X178308000Y-31623000D01*
X178538795Y-31579573D01*
X178750767Y-31443173D01*
X178892971Y-31235051D01*
X178943000Y-30988000D01*
X178943000Y-25500000D01*
X179852560Y-25500000D01*
X179852560Y-28500000D01*
X179896838Y-28735317D01*
X180035910Y-28951441D01*
X180248110Y-29096431D01*
X180500000Y-29147440D01*
X183500000Y-29147440D01*
X183735317Y-29103162D01*
X183951441Y-28964090D01*
X184096431Y-28751890D01*
X184147440Y-28500000D01*
X184147440Y-27623230D01*
X184388980Y-28207800D01*
X184989041Y-28808909D01*
X185773459Y-29134628D01*
X186622815Y-29135370D01*
X187407800Y-28811020D01*
X188008909Y-28210959D01*
X188334628Y-27426541D01*
X188335370Y-26577185D01*
X188011020Y-25792200D01*
X187410959Y-25191091D01*
X186626541Y-24865372D01*
X185777185Y-24864630D01*
X184992200Y-25188980D01*
X184391091Y-25789041D01*
X184147440Y-26375817D01*
X184147440Y-25500000D01*
X184103162Y-25264683D01*
X183964090Y-25048559D01*
X183751890Y-24903569D01*
X183500000Y-24852560D01*
X180500000Y-24852560D01*
X180264683Y-24896838D01*
X180048559Y-25035910D01*
X179903569Y-25248110D01*
X179852560Y-25500000D01*
X178943000Y-25500000D01*
X178943000Y-23226854D01*
X193714457Y-23226854D01*
X194190727Y-24379515D01*
X195071847Y-25262174D01*
X196223674Y-25740454D01*
X197470854Y-25741543D01*
X198623515Y-25265273D01*
X199506174Y-24384153D01*
X199984454Y-23232326D01*
X199985543Y-21985146D01*
X199509273Y-20832485D01*
X198628153Y-19949826D01*
X197476326Y-19471546D01*
X196229146Y-19470457D01*
X195076485Y-19946727D01*
X194193826Y-20827847D01*
X193715546Y-21979674D01*
X193714457Y-23226854D01*
X178943000Y-23226854D01*
X178943000Y-18034000D01*
X178899573Y-17803205D01*
X178839597Y-17710000D01*
X183325364Y-17710000D01*
X182892200Y-17888980D01*
X182291091Y-18489041D01*
X181965372Y-19273459D01*
X181964630Y-20122815D01*
X182288980Y-20907800D01*
X182889041Y-21508909D01*
X183673459Y-21834628D01*
X184522815Y-21835370D01*
X185307800Y-21511020D01*
X185908909Y-20910959D01*
X186234628Y-20126541D01*
X186235370Y-19277185D01*
X185911020Y-18492200D01*
X185310959Y-17891091D01*
X184874844Y-17710000D01*
X202290000Y-17710000D01*
X202290000Y-75565000D01*
X191196630Y-75565000D01*
X191546815Y-75214815D01*
X191587995Y-75153185D01*
X191711996Y-74967605D01*
X191770000Y-74676000D01*
X191770000Y-70978854D01*
X193714457Y-70978854D01*
X194190727Y-72131515D01*
X195071847Y-73014174D01*
X196223674Y-73492454D01*
X197470854Y-73493543D01*
X198623515Y-73017273D01*
X199506174Y-72136153D01*
X199984454Y-70984326D01*
X199985543Y-69737146D01*
X199509273Y-68584485D01*
X198628153Y-67701826D01*
X197476326Y-67223546D01*
X196229146Y-67222457D01*
X195076485Y-67698727D01*
X194193826Y-68579847D01*
X193715546Y-69731674D01*
X193714457Y-70978854D01*
X191770000Y-70978854D01*
X191770000Y-68133630D01*
X193685710Y-66217921D01*
X193734118Y-66217963D01*
X194079659Y-66075188D01*
X194344259Y-65811049D01*
X194487637Y-65465758D01*
X194487963Y-65091882D01*
X194345188Y-64746341D01*
X194081049Y-64481741D01*
X193738238Y-64339393D01*
X196315631Y-61762000D01*
X196432752Y-61762000D01*
X196466951Y-61796259D01*
X196812242Y-61939637D01*
X197186118Y-61939963D01*
X197531659Y-61797188D01*
X197796259Y-61533049D01*
X197939637Y-61187758D01*
X197939963Y-60813882D01*
X197826797Y-60540000D01*
X198485907Y-60540000D01*
X198598946Y-61108285D01*
X198920853Y-61590054D01*
X199402622Y-61911961D01*
X199970907Y-62025000D01*
X200029093Y-62025000D01*
X200597378Y-61911961D01*
X201079147Y-61590054D01*
X201401054Y-61108285D01*
X201514093Y-60540000D01*
X201401054Y-59971715D01*
X201079147Y-59489946D01*
X201035223Y-59460597D01*
X201209698Y-59388327D01*
X201388327Y-59209699D01*
X201485000Y-58976310D01*
X201485000Y-58285750D01*
X201326250Y-58127000D01*
X200127000Y-58127000D01*
X200127000Y-58147000D01*
X199873000Y-58147000D01*
X199873000Y-58127000D01*
X198673750Y-58127000D01*
X198515000Y-58285750D01*
X198515000Y-58976310D01*
X198611673Y-59209699D01*
X198790302Y-59388327D01*
X198964777Y-59460597D01*
X198920853Y-59489946D01*
X198598946Y-59971715D01*
X198485907Y-60540000D01*
X197826797Y-60540000D01*
X197797188Y-60468341D01*
X197533049Y-60203741D01*
X197187758Y-60060363D01*
X196813882Y-60060037D01*
X196468341Y-60202812D01*
X196433092Y-60238000D01*
X196000000Y-60238000D01*
X195708395Y-60296004D01*
X195461184Y-60461185D01*
X189862291Y-66060079D01*
X189813882Y-66060037D01*
X189468341Y-66202812D01*
X189401450Y-66269587D01*
X189352879Y-66125103D01*
X188780159Y-65915641D01*
X188170878Y-65941293D01*
X187727121Y-66125103D01*
X187640973Y-66381368D01*
X188540000Y-67280395D01*
X188554143Y-67266253D01*
X188733748Y-67445858D01*
X188719605Y-67460000D01*
X189618632Y-68359027D01*
X189874897Y-68272879D01*
X189996715Y-67939798D01*
X190186118Y-67939963D01*
X190246000Y-67915220D01*
X190246000Y-74360370D01*
X189676370Y-74930000D01*
X108773631Y-74930000D01*
X108458000Y-74614370D01*
X108458000Y-70978854D01*
X109640457Y-70978854D01*
X110116727Y-72131515D01*
X110997847Y-73014174D01*
X112149674Y-73492454D01*
X113396854Y-73493543D01*
X114549515Y-73017273D01*
X115432174Y-72136153D01*
X115910454Y-70984326D01*
X115911543Y-69737146D01*
X115435273Y-68584485D01*
X114554153Y-67701826D01*
X113402326Y-67223546D01*
X112155146Y-67222457D01*
X111002485Y-67698727D01*
X110119826Y-68579847D01*
X109641546Y-69731674D01*
X109640457Y-70978854D01*
X108458000Y-70978854D01*
X108458000Y-66609630D01*
X110043630Y-65024000D01*
X116078000Y-65024000D01*
X116369605Y-64965996D01*
X116616815Y-64800815D01*
X117886815Y-63530816D01*
X118051996Y-63283605D01*
X118067882Y-63203741D01*
X118110000Y-62992000D01*
X118110000Y-49816661D01*
X118442758Y-49816661D01*
X118654990Y-50330303D01*
X119047630Y-50723629D01*
X119255512Y-50809949D01*
X119049697Y-50894990D01*
X118656371Y-51287630D01*
X118443243Y-51800900D01*
X118442758Y-52356661D01*
X118654990Y-52870303D01*
X119047630Y-53263629D01*
X119255512Y-53349949D01*
X119049697Y-53434990D01*
X118656371Y-53827630D01*
X118443243Y-54340900D01*
X118442758Y-54896661D01*
X118654990Y-55410303D01*
X119047630Y-55803629D01*
X119255512Y-55889949D01*
X119049697Y-55974990D01*
X118656371Y-56367630D01*
X118443243Y-56880900D01*
X118442758Y-57436661D01*
X118654990Y-57950303D01*
X119047630Y-58343629D01*
X119255512Y-58429949D01*
X119049697Y-58514990D01*
X118656371Y-58907630D01*
X118443243Y-59420900D01*
X118442758Y-59976661D01*
X118654990Y-60490303D01*
X119047630Y-60883629D01*
X119255512Y-60969949D01*
X119049697Y-61054990D01*
X118656371Y-61447630D01*
X118443243Y-61960900D01*
X118442758Y-62516661D01*
X118654990Y-63030303D01*
X119047630Y-63423629D01*
X119255512Y-63509949D01*
X119049697Y-63594990D01*
X118656371Y-63987630D01*
X118443243Y-64500900D01*
X118442758Y-65056661D01*
X118654990Y-65570303D01*
X119047630Y-65963629D01*
X119255512Y-66049949D01*
X119049697Y-66134990D01*
X118656371Y-66527630D01*
X118443243Y-67040900D01*
X118442758Y-67596661D01*
X118654990Y-68110303D01*
X119047630Y-68503629D01*
X119255512Y-68589949D01*
X119049697Y-68674990D01*
X118656371Y-69067630D01*
X118443243Y-69580900D01*
X118442758Y-70136661D01*
X118654990Y-70650303D01*
X119047630Y-71043629D01*
X119255512Y-71129949D01*
X119049697Y-71214990D01*
X118656371Y-71607630D01*
X118443243Y-72120900D01*
X118442758Y-72676661D01*
X118654990Y-73190303D01*
X119047630Y-73583629D01*
X119560900Y-73796757D01*
X120116661Y-73797242D01*
X120630303Y-73585010D01*
X121023629Y-73192370D01*
X121236757Y-72679100D01*
X121236759Y-72676661D01*
X138762758Y-72676661D01*
X138974990Y-73190303D01*
X139367630Y-73583629D01*
X139880900Y-73796757D01*
X140436661Y-73797242D01*
X140868931Y-73618632D01*
X182560973Y-73618632D01*
X182647121Y-73874897D01*
X183219841Y-74084359D01*
X183829122Y-74058707D01*
X184272879Y-73874897D01*
X184359027Y-73618632D01*
X187640973Y-73618632D01*
X187727121Y-73874897D01*
X188299841Y-74084359D01*
X188909122Y-74058707D01*
X189352879Y-73874897D01*
X189439027Y-73618632D01*
X188540000Y-72719605D01*
X187640973Y-73618632D01*
X184359027Y-73618632D01*
X183460000Y-72719605D01*
X182560973Y-73618632D01*
X140868931Y-73618632D01*
X140950303Y-73585010D01*
X141343629Y-73192370D01*
X141556757Y-72679100D01*
X141557087Y-72299841D01*
X181915641Y-72299841D01*
X181941293Y-72909122D01*
X182125103Y-73352879D01*
X182381368Y-73439027D01*
X183280395Y-72540000D01*
X183639605Y-72540000D01*
X184538632Y-73439027D01*
X184794897Y-73352879D01*
X185004359Y-72780159D01*
X184984137Y-72299841D01*
X186995641Y-72299841D01*
X187021293Y-72909122D01*
X187205103Y-73352879D01*
X187461368Y-73439027D01*
X188360395Y-72540000D01*
X188719605Y-72540000D01*
X189618632Y-73439027D01*
X189874897Y-73352879D01*
X190084359Y-72780159D01*
X190058707Y-72170878D01*
X189874897Y-71727121D01*
X189618632Y-71640973D01*
X188719605Y-72540000D01*
X188360395Y-72540000D01*
X187461368Y-71640973D01*
X187205103Y-71727121D01*
X186995641Y-72299841D01*
X184984137Y-72299841D01*
X184978707Y-72170878D01*
X184794897Y-71727121D01*
X184538632Y-71640973D01*
X183639605Y-72540000D01*
X183280395Y-72540000D01*
X182381368Y-71640973D01*
X182125103Y-71727121D01*
X181915641Y-72299841D01*
X141557087Y-72299841D01*
X141557242Y-72123339D01*
X141345010Y-71609697D01*
X140952370Y-71216371D01*
X140879514Y-71186118D01*
X154060037Y-71186118D01*
X154202812Y-71531659D01*
X154466951Y-71796259D01*
X154812242Y-71939637D01*
X155186118Y-71939963D01*
X155531659Y-71797188D01*
X155566908Y-71762000D01*
X158432752Y-71762000D01*
X158466951Y-71796259D01*
X158812242Y-71939637D01*
X159186118Y-71939963D01*
X159531659Y-71797188D01*
X159796259Y-71533049D01*
X159826023Y-71461368D01*
X182560973Y-71461368D01*
X183460000Y-72360395D01*
X184359027Y-71461368D01*
X184272879Y-71205103D01*
X183700159Y-70995641D01*
X183090878Y-71021293D01*
X182647121Y-71205103D01*
X182560973Y-71461368D01*
X159826023Y-71461368D01*
X159939637Y-71187758D01*
X159939963Y-70813882D01*
X159797188Y-70468341D01*
X159533049Y-70203741D01*
X159490609Y-70186118D01*
X166060037Y-70186118D01*
X166202812Y-70531659D01*
X166466951Y-70796259D01*
X166812242Y-70939637D01*
X167186118Y-70939963D01*
X167531659Y-70797188D01*
X167566908Y-70762000D01*
X173432752Y-70762000D01*
X173466951Y-70796259D01*
X173812242Y-70939637D01*
X174186118Y-70939963D01*
X174531659Y-70797188D01*
X174796259Y-70533049D01*
X174891441Y-70303824D01*
X184465574Y-70303824D01*
X184698644Y-70867897D01*
X185129833Y-71299839D01*
X185693498Y-71533893D01*
X186303824Y-71534426D01*
X186480638Y-71461368D01*
X187640973Y-71461368D01*
X188540000Y-72360395D01*
X189439027Y-71461368D01*
X189352879Y-71205103D01*
X188780159Y-70995641D01*
X188170878Y-71021293D01*
X187727121Y-71205103D01*
X187640973Y-71461368D01*
X186480638Y-71461368D01*
X186867897Y-71301356D01*
X187299839Y-70870167D01*
X187533893Y-70306502D01*
X187534426Y-69696176D01*
X187301356Y-69132103D01*
X186870167Y-68700161D01*
X186481162Y-68538632D01*
X187640973Y-68538632D01*
X187727121Y-68794897D01*
X188299841Y-69004359D01*
X188909122Y-68978707D01*
X189352879Y-68794897D01*
X189439027Y-68538632D01*
X188540000Y-67639605D01*
X187640973Y-68538632D01*
X186481162Y-68538632D01*
X186306502Y-68466107D01*
X185696176Y-68465574D01*
X185132103Y-68698644D01*
X184700161Y-69129833D01*
X184466107Y-69693498D01*
X184465574Y-70303824D01*
X174891441Y-70303824D01*
X174939637Y-70187758D01*
X174939963Y-69813882D01*
X174797188Y-69468341D01*
X174533049Y-69203741D01*
X174187758Y-69060363D01*
X173813882Y-69060037D01*
X173468341Y-69202812D01*
X173433092Y-69238000D01*
X167567248Y-69238000D01*
X167533049Y-69203741D01*
X167187758Y-69060363D01*
X166813882Y-69060037D01*
X166468341Y-69202812D01*
X166203741Y-69466951D01*
X166060363Y-69812242D01*
X166060037Y-70186118D01*
X159490609Y-70186118D01*
X159187758Y-70060363D01*
X159017416Y-70060214D01*
X159538816Y-69538815D01*
X159703997Y-69291604D01*
X159762000Y-69000000D01*
X159762000Y-68186118D01*
X166060037Y-68186118D01*
X166202812Y-68531659D01*
X166466951Y-68796259D01*
X166812242Y-68939637D01*
X167186118Y-68939963D01*
X167531659Y-68797188D01*
X167566908Y-68762000D01*
X170000000Y-68762000D01*
X170291605Y-68703996D01*
X170538815Y-68538815D01*
X170538998Y-68538632D01*
X182560973Y-68538632D01*
X182647121Y-68794897D01*
X183219841Y-69004359D01*
X183829122Y-68978707D01*
X184272879Y-68794897D01*
X184359027Y-68538632D01*
X183460000Y-67639605D01*
X182560973Y-68538632D01*
X170538998Y-68538632D01*
X171538816Y-67538815D01*
X171703997Y-67291604D01*
X171718271Y-67219841D01*
X181915641Y-67219841D01*
X181941293Y-67829122D01*
X182125103Y-68272879D01*
X182381368Y-68359027D01*
X183280395Y-67460000D01*
X183639605Y-67460000D01*
X184538632Y-68359027D01*
X184794897Y-68272879D01*
X185004359Y-67700159D01*
X184984137Y-67219841D01*
X186995641Y-67219841D01*
X187021293Y-67829122D01*
X187205103Y-68272879D01*
X187461368Y-68359027D01*
X188360395Y-67460000D01*
X187461368Y-66560973D01*
X187205103Y-66647121D01*
X186995641Y-67219841D01*
X184984137Y-67219841D01*
X184978707Y-67090878D01*
X184794897Y-66647121D01*
X184538632Y-66560973D01*
X183639605Y-67460000D01*
X183280395Y-67460000D01*
X182381368Y-66560973D01*
X182125103Y-66647121D01*
X181915641Y-67219841D01*
X171718271Y-67219841D01*
X171762000Y-67000000D01*
X171762000Y-66381368D01*
X182560973Y-66381368D01*
X183460000Y-67280395D01*
X184359027Y-66381368D01*
X184272879Y-66125103D01*
X183700159Y-65915641D01*
X183090878Y-65941293D01*
X182647121Y-66125103D01*
X182560973Y-66381368D01*
X171762000Y-66381368D01*
X171762000Y-64567248D01*
X171796259Y-64533049D01*
X171939637Y-64187758D01*
X171939963Y-63813882D01*
X171797188Y-63468341D01*
X171533049Y-63203741D01*
X171187758Y-63060363D01*
X170813882Y-63060037D01*
X170468341Y-63202812D01*
X170203741Y-63466951D01*
X170060363Y-63812242D01*
X170060037Y-64186118D01*
X170202812Y-64531659D01*
X170238000Y-64566908D01*
X170238000Y-66684369D01*
X169684370Y-67238000D01*
X167567248Y-67238000D01*
X167533049Y-67203741D01*
X167187758Y-67060363D01*
X166813882Y-67060037D01*
X166468341Y-67202812D01*
X166203741Y-67466951D01*
X166060363Y-67812242D01*
X166060037Y-68186118D01*
X159762000Y-68186118D01*
X159762000Y-66186118D01*
X162060037Y-66186118D01*
X162202812Y-66531659D01*
X162466951Y-66796259D01*
X162812242Y-66939637D01*
X163186118Y-66939963D01*
X163531659Y-66797188D01*
X163796259Y-66533049D01*
X163939637Y-66187758D01*
X163939680Y-66137950D01*
X164538816Y-65538815D01*
X164703997Y-65291604D01*
X164762000Y-65000000D01*
X164762000Y-64567248D01*
X164796259Y-64533049D01*
X164939637Y-64187758D01*
X164939963Y-63813882D01*
X164797188Y-63468341D01*
X164533049Y-63203741D01*
X164187758Y-63060363D01*
X163813882Y-63060037D01*
X163468341Y-63202812D01*
X163203741Y-63466951D01*
X163060363Y-63812242D01*
X163060037Y-64186118D01*
X163202812Y-64531659D01*
X163238000Y-64566908D01*
X163238000Y-64684369D01*
X162862290Y-65060079D01*
X162813882Y-65060037D01*
X162468341Y-65202812D01*
X162203741Y-65466951D01*
X162060363Y-65812242D01*
X162060037Y-66186118D01*
X159762000Y-66186118D01*
X159762000Y-65567248D01*
X159796259Y-65533049D01*
X159939637Y-65187758D01*
X159939963Y-64813882D01*
X159797188Y-64468341D01*
X159533049Y-64203741D01*
X159187758Y-64060363D01*
X158813882Y-64060037D01*
X158468341Y-64202812D01*
X158203741Y-64466951D01*
X158060363Y-64812242D01*
X158060037Y-65186118D01*
X158202812Y-65531659D01*
X158238000Y-65566908D01*
X158238000Y-68081225D01*
X158187758Y-68060363D01*
X157813882Y-68060037D01*
X157468341Y-68202812D01*
X157433092Y-68238000D01*
X156567248Y-68238000D01*
X156533049Y-68203741D01*
X156187758Y-68060363D01*
X155813882Y-68060037D01*
X155468341Y-68202812D01*
X155203741Y-68466951D01*
X155060363Y-68812242D01*
X155060037Y-69186118D01*
X155189874Y-69500347D01*
X155060363Y-69812242D01*
X155060147Y-70060252D01*
X154813882Y-70060037D01*
X154468341Y-70202812D01*
X154203741Y-70466951D01*
X154060363Y-70812242D01*
X154060037Y-71186118D01*
X140879514Y-71186118D01*
X140760273Y-71136605D01*
X140891143Y-71082397D01*
X140960608Y-70840213D01*
X140160000Y-70039605D01*
X139359392Y-70840213D01*
X139428857Y-71082397D01*
X139569318Y-71132509D01*
X139369697Y-71214990D01*
X138976371Y-71607630D01*
X138763243Y-72120900D01*
X138762758Y-72676661D01*
X121236759Y-72676661D01*
X121237242Y-72123339D01*
X121025010Y-71609697D01*
X120632370Y-71216371D01*
X120424488Y-71130051D01*
X120630303Y-71045010D01*
X121023629Y-70652370D01*
X121236757Y-70139100D01*
X121237181Y-69652302D01*
X138750856Y-69652302D01*
X138778638Y-70207368D01*
X138937603Y-70591143D01*
X139179787Y-70660608D01*
X139980395Y-69860000D01*
X140339605Y-69860000D01*
X141140213Y-70660608D01*
X141382397Y-70591143D01*
X141569144Y-70067698D01*
X141541362Y-69512632D01*
X141382397Y-69128857D01*
X141140213Y-69059392D01*
X140339605Y-69860000D01*
X139980395Y-69860000D01*
X139179787Y-69059392D01*
X138937603Y-69128857D01*
X138750856Y-69652302D01*
X121237181Y-69652302D01*
X121237242Y-69583339D01*
X121025010Y-69069697D01*
X120632370Y-68676371D01*
X120424488Y-68590051D01*
X120630303Y-68505010D01*
X121023629Y-68112370D01*
X121236757Y-67599100D01*
X121237242Y-67043339D01*
X121025010Y-66529697D01*
X120632370Y-66136371D01*
X120424488Y-66050051D01*
X120630303Y-65965010D01*
X121023629Y-65572370D01*
X121236757Y-65059100D01*
X121237242Y-64503339D01*
X121025010Y-63989697D01*
X120632370Y-63596371D01*
X120424488Y-63510051D01*
X120630303Y-63425010D01*
X121023629Y-63032370D01*
X121236757Y-62519100D01*
X121237242Y-61963339D01*
X121025010Y-61449697D01*
X120632370Y-61056371D01*
X120424488Y-60970051D01*
X120630303Y-60885010D01*
X121023629Y-60492370D01*
X121236757Y-59979100D01*
X121237242Y-59423339D01*
X121025010Y-58909697D01*
X120632370Y-58516371D01*
X120424488Y-58430051D01*
X120630303Y-58345010D01*
X121023629Y-57952370D01*
X121236757Y-57439100D01*
X121237242Y-56883339D01*
X121025010Y-56369697D01*
X120632370Y-55976371D01*
X120424488Y-55890051D01*
X120630303Y-55805010D01*
X121023629Y-55412370D01*
X121236757Y-54899100D01*
X121237242Y-54343339D01*
X121025010Y-53829697D01*
X120632370Y-53436371D01*
X120424488Y-53350051D01*
X120630303Y-53265010D01*
X121023629Y-52872370D01*
X121236757Y-52359100D01*
X121237242Y-51803339D01*
X121025010Y-51289697D01*
X120632370Y-50896371D01*
X120424488Y-50810051D01*
X120630303Y-50725010D01*
X121023629Y-50332370D01*
X121236757Y-49819100D01*
X121237242Y-49263339D01*
X121025010Y-48749697D01*
X120632370Y-48356371D01*
X120119100Y-48143243D01*
X119563339Y-48142758D01*
X119049697Y-48354990D01*
X118656371Y-48747630D01*
X118443243Y-49260900D01*
X118442758Y-49816661D01*
X118110000Y-49816661D01*
X118110000Y-46186118D01*
X124060037Y-46186118D01*
X124202812Y-46531659D01*
X124238000Y-46566908D01*
X124238000Y-61432752D01*
X124203741Y-61466951D01*
X124060363Y-61812242D01*
X124060037Y-62186118D01*
X124202812Y-62531659D01*
X124466951Y-62796259D01*
X124812242Y-62939637D01*
X125186118Y-62939963D01*
X125531659Y-62797188D01*
X125796259Y-62533049D01*
X125939637Y-62187758D01*
X125939963Y-61813882D01*
X125797188Y-61468341D01*
X125762000Y-61433092D01*
X125762000Y-46567248D01*
X125796259Y-46533049D01*
X125939637Y-46187758D01*
X125939638Y-46186118D01*
X138060037Y-46186118D01*
X138202812Y-46531659D01*
X138466951Y-46796259D01*
X138812242Y-46939637D01*
X139060252Y-46939853D01*
X139060037Y-47186118D01*
X139202812Y-47531659D01*
X139466951Y-47796259D01*
X139812242Y-47939637D01*
X139862050Y-47939680D01*
X140065287Y-48142917D01*
X139883339Y-48142758D01*
X139369697Y-48354990D01*
X138976371Y-48747630D01*
X138763243Y-49260900D01*
X138762758Y-49816661D01*
X138974990Y-50330303D01*
X139367630Y-50723629D01*
X139575512Y-50809949D01*
X139369697Y-50894990D01*
X138976371Y-51287630D01*
X138763243Y-51800900D01*
X138762758Y-52356661D01*
X138974990Y-52870303D01*
X139367630Y-53263629D01*
X139575512Y-53349949D01*
X139369697Y-53434990D01*
X138976371Y-53827630D01*
X138763243Y-54340900D01*
X138762758Y-54896661D01*
X138974990Y-55410303D01*
X139367630Y-55803629D01*
X139575512Y-55889949D01*
X139369697Y-55974990D01*
X138976371Y-56367630D01*
X138763243Y-56880900D01*
X138762758Y-57436661D01*
X138974990Y-57950303D01*
X139367630Y-58343629D01*
X139575512Y-58429949D01*
X139369697Y-58514990D01*
X138976371Y-58907630D01*
X138763243Y-59420900D01*
X138762758Y-59976661D01*
X138974990Y-60490303D01*
X139367630Y-60883629D01*
X139575512Y-60969949D01*
X139369697Y-61054990D01*
X138976371Y-61447630D01*
X138763243Y-61960900D01*
X138762758Y-62516661D01*
X138974990Y-63030303D01*
X139367630Y-63423629D01*
X139575512Y-63509949D01*
X139369697Y-63594990D01*
X138976371Y-63987630D01*
X138763243Y-64500900D01*
X138762758Y-65056661D01*
X138974990Y-65570303D01*
X139367630Y-65963629D01*
X139575512Y-66049949D01*
X139369697Y-66134990D01*
X138976371Y-66527630D01*
X138763243Y-67040900D01*
X138762758Y-67596661D01*
X138974990Y-68110303D01*
X139367630Y-68503629D01*
X139559727Y-68583395D01*
X139428857Y-68637603D01*
X139359392Y-68879787D01*
X140160000Y-69680395D01*
X140960608Y-68879787D01*
X140891143Y-68637603D01*
X140750682Y-68587491D01*
X140950303Y-68505010D01*
X141343629Y-68112370D01*
X141556757Y-67599100D01*
X141557242Y-67043339D01*
X141345010Y-66529697D01*
X140952370Y-66136371D01*
X140744488Y-66050051D01*
X140950303Y-65965010D01*
X141343629Y-65572370D01*
X141556757Y-65059100D01*
X141557242Y-64503339D01*
X141345010Y-63989697D01*
X140952370Y-63596371D01*
X140744488Y-63510051D01*
X140950303Y-63425010D01*
X141343629Y-63032370D01*
X141556757Y-62519100D01*
X141557242Y-61963339D01*
X141345010Y-61449697D01*
X140952370Y-61056371D01*
X140744488Y-60970051D01*
X140950303Y-60885010D01*
X141343629Y-60492370D01*
X141556757Y-59979100D01*
X141557242Y-59423339D01*
X141345010Y-58909697D01*
X140952370Y-58516371D01*
X140744488Y-58430051D01*
X140950303Y-58345010D01*
X141109472Y-58186118D01*
X142060037Y-58186118D01*
X142202812Y-58531659D01*
X142466951Y-58796259D01*
X142812242Y-58939637D01*
X142862050Y-58939680D01*
X143238000Y-59315631D01*
X143238000Y-60081225D01*
X143187758Y-60060363D01*
X142813882Y-60060037D01*
X142468341Y-60202812D01*
X142203741Y-60466951D01*
X142060363Y-60812242D01*
X142060037Y-61186118D01*
X142202812Y-61531659D01*
X142238000Y-61566908D01*
X142238000Y-65432752D01*
X142203741Y-65466951D01*
X142060363Y-65812242D01*
X142060037Y-66186118D01*
X142202812Y-66531659D01*
X142466951Y-66796259D01*
X142812242Y-66939637D01*
X143186118Y-66939963D01*
X143531659Y-66797188D01*
X143789295Y-66540000D01*
X146485907Y-66540000D01*
X146598946Y-67108285D01*
X146920853Y-67590054D01*
X147402622Y-67911961D01*
X147970907Y-68025000D01*
X148029093Y-68025000D01*
X148597378Y-67911961D01*
X149079147Y-67590054D01*
X149401054Y-67108285D01*
X149514093Y-66540000D01*
X149401054Y-65971715D01*
X149079147Y-65489946D01*
X149037548Y-65462150D01*
X149085317Y-65453162D01*
X149301441Y-65314090D01*
X149446431Y-65101890D01*
X149497440Y-64850000D01*
X149497440Y-63150000D01*
X149453162Y-62914683D01*
X149314090Y-62698559D01*
X149101890Y-62553569D01*
X148850000Y-62502560D01*
X147150000Y-62502560D01*
X146914683Y-62546838D01*
X146698559Y-62685910D01*
X146553569Y-62898110D01*
X146502560Y-63150000D01*
X146502560Y-64850000D01*
X146546838Y-65085317D01*
X146685910Y-65301441D01*
X146898110Y-65446431D01*
X146965541Y-65460086D01*
X146920853Y-65489946D01*
X146598946Y-65971715D01*
X146485907Y-66540000D01*
X143789295Y-66540000D01*
X143796259Y-66533049D01*
X143939637Y-66187758D01*
X143939963Y-65813882D01*
X143797188Y-65468341D01*
X143762000Y-65433092D01*
X143762000Y-62918775D01*
X143812242Y-62939637D01*
X144186118Y-62939963D01*
X144531659Y-62797188D01*
X144796259Y-62533049D01*
X144939637Y-62187758D01*
X144939638Y-62186118D01*
X183060037Y-62186118D01*
X183202812Y-62531659D01*
X183466951Y-62796259D01*
X183812242Y-62939637D01*
X184186118Y-62939963D01*
X184531659Y-62797188D01*
X184566908Y-62762000D01*
X187432752Y-62762000D01*
X187466951Y-62796259D01*
X187812242Y-62939637D01*
X188186118Y-62939963D01*
X188531659Y-62797188D01*
X188796259Y-62533049D01*
X188939637Y-62187758D01*
X188939963Y-61813882D01*
X188797188Y-61468341D01*
X188533049Y-61203741D01*
X188187758Y-61060363D01*
X187813882Y-61060037D01*
X187468341Y-61202812D01*
X187433092Y-61238000D01*
X184567248Y-61238000D01*
X184533049Y-61203741D01*
X184187758Y-61060363D01*
X183813882Y-61060037D01*
X183468341Y-61202812D01*
X183203741Y-61466951D01*
X183060363Y-61812242D01*
X183060037Y-62186118D01*
X144939638Y-62186118D01*
X144939963Y-61813882D01*
X144797188Y-61468341D01*
X144762000Y-61433092D01*
X144762000Y-61186118D01*
X149060037Y-61186118D01*
X149202812Y-61531659D01*
X149466951Y-61796259D01*
X149812242Y-61939637D01*
X150186118Y-61939963D01*
X150531659Y-61797188D01*
X150566908Y-61762000D01*
X155432752Y-61762000D01*
X155466951Y-61796259D01*
X155812242Y-61939637D01*
X156186118Y-61939963D01*
X156531659Y-61797188D01*
X156796259Y-61533049D01*
X156939637Y-61187758D01*
X156939853Y-60939748D01*
X157186118Y-60939963D01*
X157531659Y-60797188D01*
X157796259Y-60533049D01*
X157939637Y-60187758D01*
X157939963Y-59813882D01*
X157797188Y-59468341D01*
X157533049Y-59203741D01*
X157490609Y-59186118D01*
X176060037Y-59186118D01*
X176202812Y-59531659D01*
X176466951Y-59796259D01*
X176812242Y-59939637D01*
X177186118Y-59939963D01*
X177531659Y-59797188D01*
X177566908Y-59762000D01*
X180432752Y-59762000D01*
X180466951Y-59796259D01*
X180812242Y-59939637D01*
X181186118Y-59939963D01*
X181531659Y-59797188D01*
X181796259Y-59533049D01*
X181939637Y-59187758D01*
X181939963Y-58813882D01*
X181797188Y-58468341D01*
X181533049Y-58203741D01*
X181187758Y-58060363D01*
X180813882Y-58060037D01*
X180468341Y-58202812D01*
X180433092Y-58238000D01*
X177567248Y-58238000D01*
X177533049Y-58203741D01*
X177187758Y-58060363D01*
X176813882Y-58060037D01*
X176468341Y-58202812D01*
X176203741Y-58466951D01*
X176060363Y-58812242D01*
X176060037Y-59186118D01*
X157490609Y-59186118D01*
X157187758Y-59060363D01*
X156813882Y-59060037D01*
X156468341Y-59202812D01*
X156433092Y-59238000D01*
X154567248Y-59238000D01*
X154533049Y-59203741D01*
X154187758Y-59060363D01*
X153813882Y-59060037D01*
X153468341Y-59202812D01*
X153203741Y-59466951D01*
X153060363Y-59812242D01*
X153060037Y-60186118D01*
X153081474Y-60238000D01*
X150567248Y-60238000D01*
X150533049Y-60203741D01*
X150187758Y-60060363D01*
X149813882Y-60060037D01*
X149468341Y-60202812D01*
X149203741Y-60466951D01*
X149060363Y-60812242D01*
X149060037Y-61186118D01*
X144762000Y-61186118D01*
X144762000Y-60352313D01*
X144920853Y-60590054D01*
X145402622Y-60911961D01*
X145970907Y-61025000D01*
X146029093Y-61025000D01*
X146597378Y-60911961D01*
X147079147Y-60590054D01*
X147401054Y-60108285D01*
X147514093Y-59540000D01*
X147401054Y-58971715D01*
X147079147Y-58489946D01*
X147037548Y-58462150D01*
X147085317Y-58453162D01*
X147301441Y-58314090D01*
X147446431Y-58101890D01*
X147497440Y-57850000D01*
X147497440Y-57023690D01*
X198515000Y-57023690D01*
X198515000Y-57714250D01*
X198673750Y-57873000D01*
X199873000Y-57873000D01*
X199873000Y-56673750D01*
X200127000Y-56673750D01*
X200127000Y-57873000D01*
X201326250Y-57873000D01*
X201485000Y-57714250D01*
X201485000Y-57023690D01*
X201388327Y-56790301D01*
X201209698Y-56611673D01*
X200976309Y-56515000D01*
X200285750Y-56515000D01*
X200127000Y-56673750D01*
X199873000Y-56673750D01*
X199714250Y-56515000D01*
X199023691Y-56515000D01*
X198790302Y-56611673D01*
X198611673Y-56790301D01*
X198515000Y-57023690D01*
X147497440Y-57023690D01*
X147497440Y-56150000D01*
X147453162Y-55914683D01*
X147314090Y-55698559D01*
X147101890Y-55553569D01*
X146850000Y-55502560D01*
X145150000Y-55502560D01*
X144914683Y-55546838D01*
X144698559Y-55685910D01*
X144553569Y-55898110D01*
X144502560Y-56150000D01*
X144502560Y-57850000D01*
X144546838Y-58085317D01*
X144685910Y-58301441D01*
X144898110Y-58446431D01*
X144965541Y-58460086D01*
X144920853Y-58489946D01*
X144720260Y-58790156D01*
X144703997Y-58708396D01*
X144538816Y-58461185D01*
X143939921Y-57862290D01*
X143939963Y-57813882D01*
X143797188Y-57468341D01*
X143533049Y-57203741D01*
X143187758Y-57060363D01*
X142813882Y-57060037D01*
X142468341Y-57202812D01*
X142203741Y-57466951D01*
X142060363Y-57812242D01*
X142060037Y-58186118D01*
X141109472Y-58186118D01*
X141343629Y-57952370D01*
X141556757Y-57439100D01*
X141557242Y-56883339D01*
X141345010Y-56369697D01*
X140952370Y-55976371D01*
X140744488Y-55890051D01*
X140950303Y-55805010D01*
X141343629Y-55412370D01*
X141556757Y-54899100D01*
X141557242Y-54343339D01*
X141345010Y-53829697D01*
X140952370Y-53436371D01*
X140744488Y-53350051D01*
X140950303Y-53265010D01*
X141343629Y-52872370D01*
X141556757Y-52359100D01*
X141557095Y-51970907D01*
X164975000Y-51970907D01*
X164975000Y-52029093D01*
X165088039Y-52597378D01*
X165409946Y-53079147D01*
X165891715Y-53401054D01*
X166460000Y-53514093D01*
X167028285Y-53401054D01*
X167510054Y-53079147D01*
X167539403Y-53035223D01*
X167611673Y-53209698D01*
X167790301Y-53388327D01*
X168023690Y-53485000D01*
X168714250Y-53485000D01*
X168873000Y-53326250D01*
X168873000Y-52127000D01*
X169127000Y-52127000D01*
X169127000Y-53326250D01*
X169285750Y-53485000D01*
X169976310Y-53485000D01*
X170209699Y-53388327D01*
X170388327Y-53209698D01*
X170439564Y-53086000D01*
X172983907Y-53086000D01*
X173096946Y-53654285D01*
X173418853Y-54136054D01*
X173900622Y-54457961D01*
X174468907Y-54571000D01*
X174527093Y-54571000D01*
X175095378Y-54457961D01*
X175577147Y-54136054D01*
X175899054Y-53654285D01*
X176012093Y-53086000D01*
X175899054Y-52517715D01*
X175577147Y-52035946D01*
X175533223Y-52006597D01*
X175707698Y-51934327D01*
X175886327Y-51755699D01*
X175983000Y-51522310D01*
X175983000Y-50831750D01*
X175824250Y-50673000D01*
X174625000Y-50673000D01*
X174625000Y-50693000D01*
X174371000Y-50693000D01*
X174371000Y-50673000D01*
X173171750Y-50673000D01*
X173013000Y-50831750D01*
X173013000Y-51522310D01*
X173109673Y-51755699D01*
X173288302Y-51934327D01*
X173462777Y-52006597D01*
X173418853Y-52035946D01*
X173096946Y-52517715D01*
X172983907Y-53086000D01*
X170439564Y-53086000D01*
X170485000Y-52976309D01*
X170485000Y-52285750D01*
X170326250Y-52127000D01*
X169127000Y-52127000D01*
X168873000Y-52127000D01*
X168853000Y-52127000D01*
X168853000Y-51873000D01*
X168873000Y-51873000D01*
X168873000Y-50673750D01*
X169127000Y-50673750D01*
X169127000Y-51873000D01*
X170326250Y-51873000D01*
X170485000Y-51714250D01*
X170485000Y-51023691D01*
X170388327Y-50790302D01*
X170209699Y-50611673D01*
X169976310Y-50515000D01*
X169285750Y-50515000D01*
X169127000Y-50673750D01*
X168873000Y-50673750D01*
X168714250Y-50515000D01*
X168023690Y-50515000D01*
X167790301Y-50611673D01*
X167611673Y-50790302D01*
X167539403Y-50964777D01*
X167510054Y-50920853D01*
X167028285Y-50598946D01*
X166460000Y-50485907D01*
X165891715Y-50598946D01*
X165409946Y-50920853D01*
X165088039Y-51402622D01*
X164975000Y-51970907D01*
X141557095Y-51970907D01*
X141557242Y-51803339D01*
X141345010Y-51289697D01*
X140952370Y-50896371D01*
X140744488Y-50810051D01*
X140950303Y-50725010D01*
X141343629Y-50332370D01*
X141556757Y-49819100D01*
X141556918Y-49634549D01*
X142461185Y-50538816D01*
X142551177Y-50598946D01*
X142708395Y-50703996D01*
X143000000Y-50762000D01*
X146432752Y-50762000D01*
X146466951Y-50796259D01*
X146812242Y-50939637D01*
X147186118Y-50939963D01*
X147531659Y-50797188D01*
X147796259Y-50533049D01*
X147939637Y-50187758D01*
X147939963Y-49813882D01*
X147797188Y-49468341D01*
X147533049Y-49203741D01*
X147187758Y-49060363D01*
X146813882Y-49060037D01*
X146468341Y-49202812D01*
X146433092Y-49238000D01*
X143315631Y-49238000D01*
X140939921Y-46862291D01*
X140939963Y-46813882D01*
X140918526Y-46762000D01*
X141432752Y-46762000D01*
X141466951Y-46796259D01*
X141812242Y-46939637D01*
X142186118Y-46939963D01*
X142531659Y-46797188D01*
X142796259Y-46533049D01*
X142829413Y-46453205D01*
X142920853Y-46590054D01*
X143402622Y-46911961D01*
X143970907Y-47025000D01*
X144029093Y-47025000D01*
X144597378Y-46911961D01*
X145079147Y-46590054D01*
X145349047Y-46186118D01*
X163060037Y-46186118D01*
X163202812Y-46531659D01*
X163238000Y-46566908D01*
X163238000Y-48432752D01*
X163203741Y-48466951D01*
X163060363Y-48812242D01*
X163060037Y-49186118D01*
X163202812Y-49531659D01*
X163466951Y-49796259D01*
X163812242Y-49939637D01*
X164186118Y-49939963D01*
X164531659Y-49797188D01*
X164759554Y-49569690D01*
X173013000Y-49569690D01*
X173013000Y-50260250D01*
X173171750Y-50419000D01*
X174371000Y-50419000D01*
X174371000Y-49219750D01*
X174625000Y-49219750D01*
X174625000Y-50419000D01*
X175824250Y-50419000D01*
X175983000Y-50260250D01*
X175983000Y-49569690D01*
X175886327Y-49336301D01*
X175707698Y-49157673D01*
X175474309Y-49061000D01*
X174783750Y-49061000D01*
X174625000Y-49219750D01*
X174371000Y-49219750D01*
X174212250Y-49061000D01*
X173521691Y-49061000D01*
X173288302Y-49157673D01*
X173109673Y-49336301D01*
X173013000Y-49569690D01*
X164759554Y-49569690D01*
X164796259Y-49533049D01*
X164939637Y-49187758D01*
X164939963Y-48813882D01*
X164797188Y-48468341D01*
X164762000Y-48433092D01*
X164762000Y-48186118D01*
X169060037Y-48186118D01*
X169202812Y-48531659D01*
X169466951Y-48796259D01*
X169812242Y-48939637D01*
X170186118Y-48939963D01*
X170531659Y-48797188D01*
X170566908Y-48762000D01*
X175684370Y-48762000D01*
X178060079Y-51137710D01*
X178060037Y-51186118D01*
X178202812Y-51531659D01*
X178466951Y-51796259D01*
X178812242Y-51939637D01*
X179186118Y-51939963D01*
X179531659Y-51797188D01*
X179796259Y-51533049D01*
X179939637Y-51187758D01*
X179939963Y-50813882D01*
X179797188Y-50468341D01*
X179533049Y-50203741D01*
X179187758Y-50060363D01*
X179137950Y-50060320D01*
X176538815Y-47461185D01*
X176291605Y-47296004D01*
X176000000Y-47238000D01*
X170567248Y-47238000D01*
X170533049Y-47203741D01*
X170187758Y-47060363D01*
X169813882Y-47060037D01*
X169468341Y-47202812D01*
X169203741Y-47466951D01*
X169060363Y-47812242D01*
X169060037Y-48186118D01*
X164762000Y-48186118D01*
X164762000Y-46567248D01*
X164796259Y-46533049D01*
X164939637Y-46187758D01*
X164939733Y-46076890D01*
X198456524Y-46076890D01*
X198626355Y-46486924D01*
X199016642Y-46915183D01*
X199541108Y-47161486D01*
X199771000Y-47040819D01*
X199771000Y-45847000D01*
X200025000Y-45847000D01*
X200025000Y-47040819D01*
X200254892Y-47161486D01*
X200779358Y-46915183D01*
X201169645Y-46486924D01*
X201339476Y-46076890D01*
X201218155Y-45847000D01*
X200025000Y-45847000D01*
X199771000Y-45847000D01*
X198577845Y-45847000D01*
X198456524Y-46076890D01*
X164939733Y-46076890D01*
X164939963Y-45813882D01*
X164797188Y-45468341D01*
X164533049Y-45203741D01*
X164187758Y-45060363D01*
X163813882Y-45060037D01*
X163468341Y-45202812D01*
X163203741Y-45466951D01*
X163060363Y-45812242D01*
X163060037Y-46186118D01*
X145349047Y-46186118D01*
X145401054Y-46108285D01*
X145514093Y-45540000D01*
X145401054Y-44971715D01*
X145079147Y-44489946D01*
X145035223Y-44460597D01*
X145209698Y-44388327D01*
X145388327Y-44209699D01*
X145485000Y-43976310D01*
X145485000Y-43285750D01*
X145326250Y-43127000D01*
X144127000Y-43127000D01*
X144127000Y-43147000D01*
X143873000Y-43147000D01*
X143873000Y-43127000D01*
X142673750Y-43127000D01*
X142515000Y-43285750D01*
X142515000Y-43976310D01*
X142611673Y-44209699D01*
X142790302Y-44388327D01*
X142964777Y-44460597D01*
X142920853Y-44489946D01*
X142598946Y-44971715D01*
X142549513Y-45220233D01*
X142533049Y-45203741D01*
X142187758Y-45060363D01*
X141813882Y-45060037D01*
X141468341Y-45202812D01*
X141433092Y-45238000D01*
X139567248Y-45238000D01*
X139533049Y-45203741D01*
X139187758Y-45060363D01*
X138813882Y-45060037D01*
X138468341Y-45202812D01*
X138203741Y-45466951D01*
X138060363Y-45812242D01*
X138060037Y-46186118D01*
X125939638Y-46186118D01*
X125939963Y-45813882D01*
X125797188Y-45468341D01*
X125533049Y-45203741D01*
X125187758Y-45060363D01*
X124813882Y-45060037D01*
X124468341Y-45202812D01*
X124203741Y-45466951D01*
X124060363Y-45812242D01*
X124060037Y-46186118D01*
X118110000Y-46186118D01*
X118110000Y-42987630D01*
X118933631Y-42164000D01*
X133858000Y-42164000D01*
X134149605Y-42105996D01*
X134272784Y-42023690D01*
X142515000Y-42023690D01*
X142515000Y-42714250D01*
X142673750Y-42873000D01*
X143873000Y-42873000D01*
X143873000Y-41673750D01*
X144127000Y-41673750D01*
X144127000Y-42873000D01*
X145326250Y-42873000D01*
X145485000Y-42714250D01*
X145485000Y-42363403D01*
X183164682Y-42363403D01*
X183443455Y-43038086D01*
X183959199Y-43554730D01*
X184633395Y-43834681D01*
X185363403Y-43835318D01*
X186038086Y-43556545D01*
X186554730Y-43040801D01*
X186834681Y-42366605D01*
X186835000Y-42000000D01*
X190749050Y-42000000D01*
X190888731Y-42702224D01*
X191286509Y-43297541D01*
X191881826Y-43695319D01*
X192584050Y-43835000D01*
X192655950Y-43835000D01*
X193358174Y-43695319D01*
X193595279Y-43536890D01*
X198456524Y-43536890D01*
X198626355Y-43946924D01*
X199016642Y-44375183D01*
X199175954Y-44450000D01*
X199016642Y-44524817D01*
X198626355Y-44953076D01*
X198456524Y-45363110D01*
X198577845Y-45593000D01*
X199771000Y-45593000D01*
X199771000Y-43307000D01*
X200025000Y-43307000D01*
X200025000Y-45593000D01*
X201218155Y-45593000D01*
X201339476Y-45363110D01*
X201169645Y-44953076D01*
X200779358Y-44524817D01*
X200620046Y-44450000D01*
X200779358Y-44375183D01*
X201169645Y-43946924D01*
X201339476Y-43536890D01*
X201218155Y-43307000D01*
X200025000Y-43307000D01*
X199771000Y-43307000D01*
X198577845Y-43307000D01*
X198456524Y-43536890D01*
X193595279Y-43536890D01*
X193953491Y-43297541D01*
X194351269Y-42702224D01*
X194490950Y-42000000D01*
X194351269Y-41297776D01*
X194150224Y-40996890D01*
X198456524Y-40996890D01*
X198626355Y-41406924D01*
X199016642Y-41835183D01*
X199175954Y-41910000D01*
X199016642Y-41984817D01*
X198626355Y-42413076D01*
X198456524Y-42823110D01*
X198577845Y-43053000D01*
X199771000Y-43053000D01*
X199771000Y-40767000D01*
X200025000Y-40767000D01*
X200025000Y-43053000D01*
X201218155Y-43053000D01*
X201339476Y-42823110D01*
X201169645Y-42413076D01*
X200779358Y-41984817D01*
X200620046Y-41910000D01*
X200779358Y-41835183D01*
X201169645Y-41406924D01*
X201339476Y-40996890D01*
X201218155Y-40767000D01*
X200025000Y-40767000D01*
X199771000Y-40767000D01*
X198577845Y-40767000D01*
X198456524Y-40996890D01*
X194150224Y-40996890D01*
X193953491Y-40702459D01*
X193358174Y-40304681D01*
X192655950Y-40165000D01*
X192584050Y-40165000D01*
X191881826Y-40304681D01*
X191286509Y-40702459D01*
X190888731Y-41297776D01*
X190749050Y-42000000D01*
X186835000Y-42000000D01*
X186835318Y-41636597D01*
X186556545Y-40961914D01*
X186040801Y-40445270D01*
X185366605Y-40165319D01*
X184636597Y-40164682D01*
X183961914Y-40443455D01*
X183445270Y-40959199D01*
X183165319Y-41633395D01*
X183164682Y-42363403D01*
X145485000Y-42363403D01*
X145485000Y-42023690D01*
X145388327Y-41790301D01*
X145209698Y-41611673D01*
X144976309Y-41515000D01*
X144285750Y-41515000D01*
X144127000Y-41673750D01*
X143873000Y-41673750D01*
X143714250Y-41515000D01*
X143023691Y-41515000D01*
X142790302Y-41611673D01*
X142611673Y-41790301D01*
X142515000Y-42023690D01*
X134272784Y-42023690D01*
X134396815Y-41940815D01*
X135265710Y-41071921D01*
X135314118Y-41071963D01*
X135659659Y-40929188D01*
X135924259Y-40665049D01*
X136067637Y-40319758D01*
X136067963Y-39945882D01*
X135925188Y-39600341D01*
X135661049Y-39335741D01*
X135315758Y-39192363D01*
X134941882Y-39192037D01*
X134596341Y-39334812D01*
X134331741Y-39598951D01*
X134188363Y-39944242D01*
X134188320Y-39994050D01*
X133542370Y-40640000D01*
X118618000Y-40640000D01*
X118326395Y-40698004D01*
X118079184Y-40863185D01*
X116809185Y-42133185D01*
X116644004Y-42380395D01*
X116586000Y-42672000D01*
X116586000Y-62676369D01*
X115762370Y-63500000D01*
X109728000Y-63500000D01*
X109436395Y-63558004D01*
X109229876Y-63695996D01*
X109189185Y-63723185D01*
X107710000Y-65202370D01*
X107710000Y-37778118D01*
X124028037Y-37778118D01*
X124170812Y-38123659D01*
X124434951Y-38388259D01*
X124780242Y-38531637D01*
X125154118Y-38531963D01*
X125499659Y-38389188D01*
X125503102Y-38385750D01*
X198413000Y-38385750D01*
X198413000Y-39076310D01*
X198509673Y-39309699D01*
X198688302Y-39488327D01*
X198897878Y-39575136D01*
X198626355Y-39873076D01*
X198456524Y-40283110D01*
X198577845Y-40513000D01*
X199771000Y-40513000D01*
X199771000Y-38227000D01*
X200025000Y-38227000D01*
X200025000Y-40513000D01*
X201218155Y-40513000D01*
X201339476Y-40283110D01*
X201169645Y-39873076D01*
X200898122Y-39575136D01*
X201107698Y-39488327D01*
X201286327Y-39309699D01*
X201383000Y-39076310D01*
X201383000Y-38385750D01*
X201224250Y-38227000D01*
X200025000Y-38227000D01*
X199771000Y-38227000D01*
X198571750Y-38227000D01*
X198413000Y-38385750D01*
X125503102Y-38385750D01*
X125534908Y-38354000D01*
X130048000Y-38354000D01*
X130339605Y-38295996D01*
X130586815Y-38130815D01*
X131094815Y-37622816D01*
X131259996Y-37375605D01*
X131279014Y-37279996D01*
X131310105Y-37123690D01*
X198413000Y-37123690D01*
X198413000Y-37814250D01*
X198571750Y-37973000D01*
X199771000Y-37973000D01*
X199771000Y-36773750D01*
X200025000Y-36773750D01*
X200025000Y-37973000D01*
X201224250Y-37973000D01*
X201383000Y-37814250D01*
X201383000Y-37123690D01*
X201286327Y-36890301D01*
X201107698Y-36711673D01*
X200874309Y-36615000D01*
X200183750Y-36615000D01*
X200025000Y-36773750D01*
X199771000Y-36773750D01*
X199612250Y-36615000D01*
X198921691Y-36615000D01*
X198688302Y-36711673D01*
X198509673Y-36890301D01*
X198413000Y-37123690D01*
X131310105Y-37123690D01*
X131318000Y-37084000D01*
X131318000Y-32922815D01*
X132864630Y-32922815D01*
X133188980Y-33707800D01*
X133789041Y-34308909D01*
X134573459Y-34634628D01*
X135422815Y-34635370D01*
X136207800Y-34311020D01*
X136808909Y-33710959D01*
X137100314Y-33009177D01*
X137388980Y-33707800D01*
X137989041Y-34308909D01*
X138773459Y-34634628D01*
X139622815Y-34635370D01*
X140407800Y-34311020D01*
X141008909Y-33710959D01*
X141334628Y-32926541D01*
X141334631Y-32922815D01*
X179864630Y-32922815D01*
X180188980Y-33707800D01*
X180789041Y-34308909D01*
X181573459Y-34634628D01*
X182422815Y-34635370D01*
X183207800Y-34311020D01*
X183808909Y-33710959D01*
X184100314Y-33009177D01*
X184388980Y-33707800D01*
X184989041Y-34308909D01*
X185773459Y-34634628D01*
X186622815Y-34635370D01*
X187407800Y-34311020D01*
X188008909Y-33710959D01*
X188334628Y-32926541D01*
X188334965Y-32540000D01*
X194485907Y-32540000D01*
X194598946Y-33108285D01*
X194920853Y-33590054D01*
X195402622Y-33911961D01*
X195970907Y-34025000D01*
X196029093Y-34025000D01*
X196597378Y-33911961D01*
X197079147Y-33590054D01*
X197401054Y-33108285D01*
X197514093Y-32540000D01*
X197401054Y-31971715D01*
X197079147Y-31489946D01*
X197037548Y-31462150D01*
X197085317Y-31453162D01*
X197301441Y-31314090D01*
X197446431Y-31101890D01*
X197497440Y-30850000D01*
X197497440Y-29150000D01*
X197453162Y-28914683D01*
X197314090Y-28698559D01*
X197101890Y-28553569D01*
X196850000Y-28502560D01*
X195150000Y-28502560D01*
X194914683Y-28546838D01*
X194698559Y-28685910D01*
X194553569Y-28898110D01*
X194502560Y-29150000D01*
X194502560Y-30850000D01*
X194546838Y-31085317D01*
X194685910Y-31301441D01*
X194898110Y-31446431D01*
X194965541Y-31460086D01*
X194920853Y-31489946D01*
X194598946Y-31971715D01*
X194485907Y-32540000D01*
X188334965Y-32540000D01*
X188335370Y-32077185D01*
X188011020Y-31292200D01*
X187410959Y-30691091D01*
X186626541Y-30365372D01*
X185777185Y-30364630D01*
X184992200Y-30688980D01*
X184391091Y-31289041D01*
X184099686Y-31990823D01*
X183811020Y-31292200D01*
X183210959Y-30691091D01*
X182426541Y-30365372D01*
X181577185Y-30364630D01*
X180792200Y-30688980D01*
X180191091Y-31289041D01*
X179865372Y-32073459D01*
X179864630Y-32922815D01*
X141334631Y-32922815D01*
X141335370Y-32077185D01*
X141011020Y-31292200D01*
X140410959Y-30691091D01*
X139626541Y-30365372D01*
X138777185Y-30364630D01*
X137992200Y-30688980D01*
X137391091Y-31289041D01*
X137099686Y-31990823D01*
X136811020Y-31292200D01*
X136210959Y-30691091D01*
X135426541Y-30365372D01*
X134577185Y-30364630D01*
X133792200Y-30688980D01*
X133191091Y-31289041D01*
X132865372Y-32073459D01*
X132864630Y-32922815D01*
X131318000Y-32922815D01*
X131318000Y-29777248D01*
X131352259Y-29743049D01*
X131495637Y-29397758D01*
X131495963Y-29023882D01*
X131353188Y-28678341D01*
X131089049Y-28413741D01*
X130743758Y-28270363D01*
X130369882Y-28270037D01*
X130024341Y-28412812D01*
X129759741Y-28676951D01*
X129616363Y-29022242D01*
X129616037Y-29396118D01*
X129758812Y-29741659D01*
X129794000Y-29776908D01*
X129794000Y-36768369D01*
X129732370Y-36830000D01*
X125535248Y-36830000D01*
X125501049Y-36795741D01*
X125155758Y-36652363D01*
X124781882Y-36652037D01*
X124436341Y-36794812D01*
X124171741Y-37058951D01*
X124028363Y-37404242D01*
X124028037Y-37778118D01*
X107710000Y-37778118D01*
X107710000Y-32922815D01*
X119864630Y-32922815D01*
X120188980Y-33707800D01*
X120789041Y-34308909D01*
X121573459Y-34634628D01*
X122422815Y-34635370D01*
X122635971Y-34547295D01*
X122504363Y-34864242D01*
X122504037Y-35238118D01*
X122646812Y-35583659D01*
X122910951Y-35848259D01*
X123256242Y-35991637D01*
X123630118Y-35991963D01*
X123975659Y-35849188D01*
X124010908Y-35814000D01*
X127448752Y-35814000D01*
X127482951Y-35848259D01*
X127828242Y-35991637D01*
X128202118Y-35991963D01*
X128547659Y-35849188D01*
X128812259Y-35585049D01*
X128955637Y-35239758D01*
X128955963Y-34865882D01*
X128813188Y-34520341D01*
X128549049Y-34255741D01*
X128203758Y-34112363D01*
X127829882Y-34112037D01*
X127484341Y-34254812D01*
X127449092Y-34290000D01*
X127428857Y-34290000D01*
X128008909Y-33710959D01*
X128334628Y-32926541D01*
X128335370Y-32077185D01*
X128011020Y-31292200D01*
X127410959Y-30691091D01*
X126626541Y-30365372D01*
X125777185Y-30364630D01*
X124992200Y-30688980D01*
X124391091Y-31289041D01*
X124099686Y-31990823D01*
X123811020Y-31292200D01*
X123210959Y-30691091D01*
X122426541Y-30365372D01*
X121577185Y-30364630D01*
X120792200Y-30688980D01*
X120191091Y-31289041D01*
X119865372Y-32073459D01*
X119864630Y-32922815D01*
X107710000Y-32922815D01*
X107710000Y-27285750D01*
X119865000Y-27285750D01*
X119865000Y-28626310D01*
X119961673Y-28859699D01*
X120140302Y-29038327D01*
X120373691Y-29135000D01*
X121714250Y-29135000D01*
X121873000Y-28976250D01*
X121873000Y-27127000D01*
X120023750Y-27127000D01*
X119865000Y-27285750D01*
X107710000Y-27285750D01*
X107710000Y-23226854D01*
X109640457Y-23226854D01*
X110116727Y-24379515D01*
X110997847Y-25262174D01*
X112149674Y-25740454D01*
X113396854Y-25741543D01*
X114287125Y-25373690D01*
X119865000Y-25373690D01*
X119865000Y-26714250D01*
X120023750Y-26873000D01*
X121873000Y-26873000D01*
X121873000Y-25023750D01*
X122127000Y-25023750D01*
X122127000Y-26873000D01*
X122147000Y-26873000D01*
X122147000Y-27127000D01*
X122127000Y-27127000D01*
X122127000Y-28976250D01*
X122285750Y-29135000D01*
X123626309Y-29135000D01*
X123859698Y-29038327D01*
X124038327Y-28859699D01*
X124135000Y-28626310D01*
X124135000Y-27593123D01*
X124388980Y-28207800D01*
X124989041Y-28808909D01*
X125773459Y-29134628D01*
X126622815Y-29135370D01*
X127407800Y-28811020D01*
X128008909Y-28210959D01*
X128334628Y-27426541D01*
X128334750Y-27285750D01*
X132865000Y-27285750D01*
X132865000Y-28626310D01*
X132961673Y-28859699D01*
X133140302Y-29038327D01*
X133373691Y-29135000D01*
X134714250Y-29135000D01*
X134873000Y-28976250D01*
X134873000Y-27127000D01*
X133023750Y-27127000D01*
X132865000Y-27285750D01*
X128334750Y-27285750D01*
X128335370Y-26577185D01*
X128011020Y-25792200D01*
X127593240Y-25373690D01*
X132865000Y-25373690D01*
X132865000Y-26714250D01*
X133023750Y-26873000D01*
X134873000Y-26873000D01*
X134873000Y-25023750D01*
X135127000Y-25023750D01*
X135127000Y-26873000D01*
X135147000Y-26873000D01*
X135147000Y-27127000D01*
X135127000Y-27127000D01*
X135127000Y-28976250D01*
X135285750Y-29135000D01*
X136626309Y-29135000D01*
X136859698Y-29038327D01*
X137038327Y-28859699D01*
X137135000Y-28626310D01*
X137135000Y-28513970D01*
X137865635Y-28513970D01*
X138025418Y-28832739D01*
X138816187Y-29142723D01*
X139665387Y-29126497D01*
X140374582Y-28832739D01*
X140534365Y-28513970D01*
X139200000Y-27179605D01*
X137865635Y-28513970D01*
X137135000Y-28513970D01*
X137135000Y-27613854D01*
X137367261Y-28174582D01*
X137686030Y-28334365D01*
X139020395Y-27000000D01*
X139379605Y-27000000D01*
X140713970Y-28334365D01*
X141032739Y-28174582D01*
X141342723Y-27383813D01*
X141326497Y-26534613D01*
X141032739Y-25825418D01*
X140713970Y-25665635D01*
X139379605Y-27000000D01*
X139020395Y-27000000D01*
X137686030Y-25665635D01*
X137367261Y-25825418D01*
X137135000Y-26417916D01*
X137135000Y-25486030D01*
X137865635Y-25486030D01*
X139200000Y-26820395D01*
X140534365Y-25486030D01*
X140374582Y-25167261D01*
X139583813Y-24857277D01*
X138734613Y-24873503D01*
X138025418Y-25167261D01*
X137865635Y-25486030D01*
X137135000Y-25486030D01*
X137135000Y-25373690D01*
X137038327Y-25140301D01*
X136859698Y-24961673D01*
X136626309Y-24865000D01*
X135285750Y-24865000D01*
X135127000Y-25023750D01*
X134873000Y-25023750D01*
X134714250Y-24865000D01*
X133373691Y-24865000D01*
X133140302Y-24961673D01*
X132961673Y-25140301D01*
X132865000Y-25373690D01*
X127593240Y-25373690D01*
X127410959Y-25191091D01*
X126626541Y-24865372D01*
X125777185Y-24864630D01*
X124992200Y-25188980D01*
X124391091Y-25789041D01*
X124135000Y-26405776D01*
X124135000Y-25373690D01*
X124038327Y-25140301D01*
X123859698Y-24961673D01*
X123626309Y-24865000D01*
X122285750Y-24865000D01*
X122127000Y-25023750D01*
X121873000Y-25023750D01*
X121714250Y-24865000D01*
X120373691Y-24865000D01*
X120140302Y-24961673D01*
X119961673Y-25140301D01*
X119865000Y-25373690D01*
X114287125Y-25373690D01*
X114549515Y-25265273D01*
X115432174Y-24384153D01*
X115910454Y-23232326D01*
X115911543Y-21985146D01*
X115435273Y-20832485D01*
X114554153Y-19949826D01*
X113402326Y-19471546D01*
X112155146Y-19470457D01*
X111002485Y-19946727D01*
X110119826Y-20827847D01*
X109641546Y-21979674D01*
X109640457Y-23226854D01*
X107710000Y-23226854D01*
X107710000Y-17710000D01*
X123325364Y-17710000D01*
X122892200Y-17888980D01*
X122892200Y-17888980D01*
G37*
X122892200Y-17888980D02*
X122291091Y-18489041D01*
X121965372Y-19273459D01*
X121964630Y-20122815D01*
X122288980Y-20907800D01*
X122889041Y-21508909D01*
X123673459Y-21834628D01*
X124522815Y-21835370D01*
X125307800Y-21511020D01*
X125908909Y-20910959D01*
X126234628Y-20126541D01*
X126235370Y-19277185D01*
X125911020Y-18492200D01*
X125310959Y-17891091D01*
X124874844Y-17710000D01*
X136325364Y-17710000D01*
X135892200Y-17888980D01*
X135291091Y-18489041D01*
X134965372Y-19273459D01*
X134964630Y-20122815D01*
X135288980Y-20907800D01*
X135889041Y-21508909D01*
X136673459Y-21834628D01*
X137522815Y-21835370D01*
X138307800Y-21511020D01*
X138908909Y-20910959D01*
X139234628Y-20126541D01*
X139235370Y-19277185D01*
X138911020Y-18492200D01*
X138310959Y-17891091D01*
X137874844Y-17710000D01*
X143485606Y-17710000D01*
X143433029Y-17786949D01*
X143383000Y-18034000D01*
X143383000Y-30988000D01*
X143426427Y-31218795D01*
X143562827Y-31430767D01*
X143770949Y-31572971D01*
X144018000Y-31623000D01*
X178308000Y-31623000D01*
X178538795Y-31579573D01*
X178750767Y-31443173D01*
X178892971Y-31235051D01*
X178943000Y-30988000D01*
X178943000Y-25500000D01*
X179852560Y-25500000D01*
X179852560Y-28500000D01*
X179896838Y-28735317D01*
X180035910Y-28951441D01*
X180248110Y-29096431D01*
X180500000Y-29147440D01*
X183500000Y-29147440D01*
X183735317Y-29103162D01*
X183951441Y-28964090D01*
X184096431Y-28751890D01*
X184147440Y-28500000D01*
X184147440Y-27623230D01*
X184388980Y-28207800D01*
X184989041Y-28808909D01*
X185773459Y-29134628D01*
X186622815Y-29135370D01*
X187407800Y-28811020D01*
X188008909Y-28210959D01*
X188334628Y-27426541D01*
X188335370Y-26577185D01*
X188011020Y-25792200D01*
X187410959Y-25191091D01*
X186626541Y-24865372D01*
X185777185Y-24864630D01*
X184992200Y-25188980D01*
X184391091Y-25789041D01*
X184147440Y-26375817D01*
X184147440Y-25500000D01*
X184103162Y-25264683D01*
X183964090Y-25048559D01*
X183751890Y-24903569D01*
X183500000Y-24852560D01*
X180500000Y-24852560D01*
X180264683Y-24896838D01*
X180048559Y-25035910D01*
X179903569Y-25248110D01*
X179852560Y-25500000D01*
X178943000Y-25500000D01*
X178943000Y-23226854D01*
X193714457Y-23226854D01*
X194190727Y-24379515D01*
X195071847Y-25262174D01*
X196223674Y-25740454D01*
X197470854Y-25741543D01*
X198623515Y-25265273D01*
X199506174Y-24384153D01*
X199984454Y-23232326D01*
X199985543Y-21985146D01*
X199509273Y-20832485D01*
X198628153Y-19949826D01*
X197476326Y-19471546D01*
X196229146Y-19470457D01*
X195076485Y-19946727D01*
X194193826Y-20827847D01*
X193715546Y-21979674D01*
X193714457Y-23226854D01*
X178943000Y-23226854D01*
X178943000Y-18034000D01*
X178899573Y-17803205D01*
X178839597Y-17710000D01*
X183325364Y-17710000D01*
X182892200Y-17888980D01*
X182291091Y-18489041D01*
X181965372Y-19273459D01*
X181964630Y-20122815D01*
X182288980Y-20907800D01*
X182889041Y-21508909D01*
X183673459Y-21834628D01*
X184522815Y-21835370D01*
X185307800Y-21511020D01*
X185908909Y-20910959D01*
X186234628Y-20126541D01*
X186235370Y-19277185D01*
X185911020Y-18492200D01*
X185310959Y-17891091D01*
X184874844Y-17710000D01*
X202290000Y-17710000D01*
X202290000Y-75565000D01*
X191196630Y-75565000D01*
X191546815Y-75214815D01*
X191587995Y-75153185D01*
X191711996Y-74967605D01*
X191770000Y-74676000D01*
X191770000Y-70978854D01*
X193714457Y-70978854D01*
X194190727Y-72131515D01*
X195071847Y-73014174D01*
X196223674Y-73492454D01*
X197470854Y-73493543D01*
X198623515Y-73017273D01*
X199506174Y-72136153D01*
X199984454Y-70984326D01*
X199985543Y-69737146D01*
X199509273Y-68584485D01*
X198628153Y-67701826D01*
X197476326Y-67223546D01*
X196229146Y-67222457D01*
X195076485Y-67698727D01*
X194193826Y-68579847D01*
X193715546Y-69731674D01*
X193714457Y-70978854D01*
X191770000Y-70978854D01*
X191770000Y-68133630D01*
X193685710Y-66217921D01*
X193734118Y-66217963D01*
X194079659Y-66075188D01*
X194344259Y-65811049D01*
X194487637Y-65465758D01*
X194487963Y-65091882D01*
X194345188Y-64746341D01*
X194081049Y-64481741D01*
X193738238Y-64339393D01*
X196315631Y-61762000D01*
X196432752Y-61762000D01*
X196466951Y-61796259D01*
X196812242Y-61939637D01*
X197186118Y-61939963D01*
X197531659Y-61797188D01*
X197796259Y-61533049D01*
X197939637Y-61187758D01*
X197939963Y-60813882D01*
X197826797Y-60540000D01*
X198485907Y-60540000D01*
X198598946Y-61108285D01*
X198920853Y-61590054D01*
X199402622Y-61911961D01*
X199970907Y-62025000D01*
X200029093Y-62025000D01*
X200597378Y-61911961D01*
X201079147Y-61590054D01*
X201401054Y-61108285D01*
X201514093Y-60540000D01*
X201401054Y-59971715D01*
X201079147Y-59489946D01*
X201035223Y-59460597D01*
X201209698Y-59388327D01*
X201388327Y-59209699D01*
X201485000Y-58976310D01*
X201485000Y-58285750D01*
X201326250Y-58127000D01*
X200127000Y-58127000D01*
X200127000Y-58147000D01*
X199873000Y-58147000D01*
X199873000Y-58127000D01*
X198673750Y-58127000D01*
X198515000Y-58285750D01*
X198515000Y-58976310D01*
X198611673Y-59209699D01*
X198790302Y-59388327D01*
X198964777Y-59460597D01*
X198920853Y-59489946D01*
X198598946Y-59971715D01*
X198485907Y-60540000D01*
X197826797Y-60540000D01*
X197797188Y-60468341D01*
X197533049Y-60203741D01*
X197187758Y-60060363D01*
X196813882Y-60060037D01*
X196468341Y-60202812D01*
X196433092Y-60238000D01*
X196000000Y-60238000D01*
X195708395Y-60296004D01*
X195461184Y-60461185D01*
X189862291Y-66060079D01*
X189813882Y-66060037D01*
X189468341Y-66202812D01*
X189401450Y-66269587D01*
X189352879Y-66125103D01*
X188780159Y-65915641D01*
X188170878Y-65941293D01*
X187727121Y-66125103D01*
X187640973Y-66381368D01*
X188540000Y-67280395D01*
X188554143Y-67266253D01*
X188733748Y-67445858D01*
X188719605Y-67460000D01*
X189618632Y-68359027D01*
X189874897Y-68272879D01*
X189996715Y-67939798D01*
X190186118Y-67939963D01*
X190246000Y-67915220D01*
X190246000Y-74360370D01*
X189676370Y-74930000D01*
X108773631Y-74930000D01*
X108458000Y-74614370D01*
X108458000Y-70978854D01*
X109640457Y-70978854D01*
X110116727Y-72131515D01*
X110997847Y-73014174D01*
X112149674Y-73492454D01*
X113396854Y-73493543D01*
X114549515Y-73017273D01*
X115432174Y-72136153D01*
X115910454Y-70984326D01*
X115911543Y-69737146D01*
X115435273Y-68584485D01*
X114554153Y-67701826D01*
X113402326Y-67223546D01*
X112155146Y-67222457D01*
X111002485Y-67698727D01*
X110119826Y-68579847D01*
X109641546Y-69731674D01*
X109640457Y-70978854D01*
X108458000Y-70978854D01*
X108458000Y-66609630D01*
X110043630Y-65024000D01*
X116078000Y-65024000D01*
X116369605Y-64965996D01*
X116616815Y-64800815D01*
X117886815Y-63530816D01*
X118051996Y-63283605D01*
X118067882Y-63203741D01*
X118110000Y-62992000D01*
X118110000Y-49816661D01*
X118442758Y-49816661D01*
X118654990Y-50330303D01*
X119047630Y-50723629D01*
X119255512Y-50809949D01*
X119049697Y-50894990D01*
X118656371Y-51287630D01*
X118443243Y-51800900D01*
X118442758Y-52356661D01*
X118654990Y-52870303D01*
X119047630Y-53263629D01*
X119255512Y-53349949D01*
X119049697Y-53434990D01*
X118656371Y-53827630D01*
X118443243Y-54340900D01*
X118442758Y-54896661D01*
X118654990Y-55410303D01*
X119047630Y-55803629D01*
X119255512Y-55889949D01*
X119049697Y-55974990D01*
X118656371Y-56367630D01*
X118443243Y-56880900D01*
X118442758Y-57436661D01*
X118654990Y-57950303D01*
X119047630Y-58343629D01*
X119255512Y-58429949D01*
X119049697Y-58514990D01*
X118656371Y-58907630D01*
X118443243Y-59420900D01*
X118442758Y-59976661D01*
X118654990Y-60490303D01*
X119047630Y-60883629D01*
X119255512Y-60969949D01*
X119049697Y-61054990D01*
X118656371Y-61447630D01*
X118443243Y-61960900D01*
X118442758Y-62516661D01*
X118654990Y-63030303D01*
X119047630Y-63423629D01*
X119255512Y-63509949D01*
X119049697Y-63594990D01*
X118656371Y-63987630D01*
X118443243Y-64500900D01*
X118442758Y-65056661D01*
X118654990Y-65570303D01*
X119047630Y-65963629D01*
X119255512Y-66049949D01*
X119049697Y-66134990D01*
X118656371Y-66527630D01*
X118443243Y-67040900D01*
X118442758Y-67596661D01*
X118654990Y-68110303D01*
X119047630Y-68503629D01*
X119255512Y-68589949D01*
X119049697Y-68674990D01*
X118656371Y-69067630D01*
X118443243Y-69580900D01*
X118442758Y-70136661D01*
X118654990Y-70650303D01*
X119047630Y-71043629D01*
X119255512Y-71129949D01*
X119049697Y-71214990D01*
X118656371Y-71607630D01*
X118443243Y-72120900D01*
X118442758Y-72676661D01*
X118654990Y-73190303D01*
X119047630Y-73583629D01*
X119560900Y-73796757D01*
X120116661Y-73797242D01*
X120630303Y-73585010D01*
X121023629Y-73192370D01*
X121236757Y-72679100D01*
X121236759Y-72676661D01*
X138762758Y-72676661D01*
X138974990Y-73190303D01*
X139367630Y-73583629D01*
X139880900Y-73796757D01*
X140436661Y-73797242D01*
X140868931Y-73618632D01*
X182560973Y-73618632D01*
X182647121Y-73874897D01*
X183219841Y-74084359D01*
X183829122Y-74058707D01*
X184272879Y-73874897D01*
X184359027Y-73618632D01*
X187640973Y-73618632D01*
X187727121Y-73874897D01*
X188299841Y-74084359D01*
X188909122Y-74058707D01*
X189352879Y-73874897D01*
X189439027Y-73618632D01*
X188540000Y-72719605D01*
X187640973Y-73618632D01*
X184359027Y-73618632D01*
X183460000Y-72719605D01*
X182560973Y-73618632D01*
X140868931Y-73618632D01*
X140950303Y-73585010D01*
X141343629Y-73192370D01*
X141556757Y-72679100D01*
X141557087Y-72299841D01*
X181915641Y-72299841D01*
X181941293Y-72909122D01*
X182125103Y-73352879D01*
X182381368Y-73439027D01*
X183280395Y-72540000D01*
X183639605Y-72540000D01*
X184538632Y-73439027D01*
X184794897Y-73352879D01*
X185004359Y-72780159D01*
X184984137Y-72299841D01*
X186995641Y-72299841D01*
X187021293Y-72909122D01*
X187205103Y-73352879D01*
X187461368Y-73439027D01*
X188360395Y-72540000D01*
X188719605Y-72540000D01*
X189618632Y-73439027D01*
X189874897Y-73352879D01*
X190084359Y-72780159D01*
X190058707Y-72170878D01*
X189874897Y-71727121D01*
X189618632Y-71640973D01*
X188719605Y-72540000D01*
X188360395Y-72540000D01*
X187461368Y-71640973D01*
X187205103Y-71727121D01*
X186995641Y-72299841D01*
X184984137Y-72299841D01*
X184978707Y-72170878D01*
X184794897Y-71727121D01*
X184538632Y-71640973D01*
X183639605Y-72540000D01*
X183280395Y-72540000D01*
X182381368Y-71640973D01*
X182125103Y-71727121D01*
X181915641Y-72299841D01*
X141557087Y-72299841D01*
X141557242Y-72123339D01*
X141345010Y-71609697D01*
X140952370Y-71216371D01*
X140879514Y-71186118D01*
X154060037Y-71186118D01*
X154202812Y-71531659D01*
X154466951Y-71796259D01*
X154812242Y-71939637D01*
X155186118Y-71939963D01*
X155531659Y-71797188D01*
X155566908Y-71762000D01*
X158432752Y-71762000D01*
X158466951Y-71796259D01*
X158812242Y-71939637D01*
X159186118Y-71939963D01*
X159531659Y-71797188D01*
X159796259Y-71533049D01*
X159826023Y-71461368D01*
X182560973Y-71461368D01*
X183460000Y-72360395D01*
X184359027Y-71461368D01*
X184272879Y-71205103D01*
X183700159Y-70995641D01*
X183090878Y-71021293D01*
X182647121Y-71205103D01*
X182560973Y-71461368D01*
X159826023Y-71461368D01*
X159939637Y-71187758D01*
X159939963Y-70813882D01*
X159797188Y-70468341D01*
X159533049Y-70203741D01*
X159490609Y-70186118D01*
X166060037Y-70186118D01*
X166202812Y-70531659D01*
X166466951Y-70796259D01*
X166812242Y-70939637D01*
X167186118Y-70939963D01*
X167531659Y-70797188D01*
X167566908Y-70762000D01*
X173432752Y-70762000D01*
X173466951Y-70796259D01*
X173812242Y-70939637D01*
X174186118Y-70939963D01*
X174531659Y-70797188D01*
X174796259Y-70533049D01*
X174891441Y-70303824D01*
X184465574Y-70303824D01*
X184698644Y-70867897D01*
X185129833Y-71299839D01*
X185693498Y-71533893D01*
X186303824Y-71534426D01*
X186480638Y-71461368D01*
X187640973Y-71461368D01*
X188540000Y-72360395D01*
X189439027Y-71461368D01*
X189352879Y-71205103D01*
X188780159Y-70995641D01*
X188170878Y-71021293D01*
X187727121Y-71205103D01*
X187640973Y-71461368D01*
X186480638Y-71461368D01*
X186867897Y-71301356D01*
X187299839Y-70870167D01*
X187533893Y-70306502D01*
X187534426Y-69696176D01*
X187301356Y-69132103D01*
X186870167Y-68700161D01*
X186481162Y-68538632D01*
X187640973Y-68538632D01*
X187727121Y-68794897D01*
X188299841Y-69004359D01*
X188909122Y-68978707D01*
X189352879Y-68794897D01*
X189439027Y-68538632D01*
X188540000Y-67639605D01*
X187640973Y-68538632D01*
X186481162Y-68538632D01*
X186306502Y-68466107D01*
X185696176Y-68465574D01*
X185132103Y-68698644D01*
X184700161Y-69129833D01*
X184466107Y-69693498D01*
X184465574Y-70303824D01*
X174891441Y-70303824D01*
X174939637Y-70187758D01*
X174939963Y-69813882D01*
X174797188Y-69468341D01*
X174533049Y-69203741D01*
X174187758Y-69060363D01*
X173813882Y-69060037D01*
X173468341Y-69202812D01*
X173433092Y-69238000D01*
X167567248Y-69238000D01*
X167533049Y-69203741D01*
X167187758Y-69060363D01*
X166813882Y-69060037D01*
X166468341Y-69202812D01*
X166203741Y-69466951D01*
X166060363Y-69812242D01*
X166060037Y-70186118D01*
X159490609Y-70186118D01*
X159187758Y-70060363D01*
X159017416Y-70060214D01*
X159538816Y-69538815D01*
X159703997Y-69291604D01*
X159762000Y-69000000D01*
X159762000Y-68186118D01*
X166060037Y-68186118D01*
X166202812Y-68531659D01*
X166466951Y-68796259D01*
X166812242Y-68939637D01*
X167186118Y-68939963D01*
X167531659Y-68797188D01*
X167566908Y-68762000D01*
X170000000Y-68762000D01*
X170291605Y-68703996D01*
X170538815Y-68538815D01*
X170538998Y-68538632D01*
X182560973Y-68538632D01*
X182647121Y-68794897D01*
X183219841Y-69004359D01*
X183829122Y-68978707D01*
X184272879Y-68794897D01*
X184359027Y-68538632D01*
X183460000Y-67639605D01*
X182560973Y-68538632D01*
X170538998Y-68538632D01*
X171538816Y-67538815D01*
X171703997Y-67291604D01*
X171718271Y-67219841D01*
X181915641Y-67219841D01*
X181941293Y-67829122D01*
X182125103Y-68272879D01*
X182381368Y-68359027D01*
X183280395Y-67460000D01*
X183639605Y-67460000D01*
X184538632Y-68359027D01*
X184794897Y-68272879D01*
X185004359Y-67700159D01*
X184984137Y-67219841D01*
X186995641Y-67219841D01*
X187021293Y-67829122D01*
X187205103Y-68272879D01*
X187461368Y-68359027D01*
X188360395Y-67460000D01*
X187461368Y-66560973D01*
X187205103Y-66647121D01*
X186995641Y-67219841D01*
X184984137Y-67219841D01*
X184978707Y-67090878D01*
X184794897Y-66647121D01*
X184538632Y-66560973D01*
X183639605Y-67460000D01*
X183280395Y-67460000D01*
X182381368Y-66560973D01*
X182125103Y-66647121D01*
X181915641Y-67219841D01*
X171718271Y-67219841D01*
X171762000Y-67000000D01*
X171762000Y-66381368D01*
X182560973Y-66381368D01*
X183460000Y-67280395D01*
X184359027Y-66381368D01*
X184272879Y-66125103D01*
X183700159Y-65915641D01*
X183090878Y-65941293D01*
X182647121Y-66125103D01*
X182560973Y-66381368D01*
X171762000Y-66381368D01*
X171762000Y-64567248D01*
X171796259Y-64533049D01*
X171939637Y-64187758D01*
X171939963Y-63813882D01*
X171797188Y-63468341D01*
X171533049Y-63203741D01*
X171187758Y-63060363D01*
X170813882Y-63060037D01*
X170468341Y-63202812D01*
X170203741Y-63466951D01*
X170060363Y-63812242D01*
X170060037Y-64186118D01*
X170202812Y-64531659D01*
X170238000Y-64566908D01*
X170238000Y-66684369D01*
X169684370Y-67238000D01*
X167567248Y-67238000D01*
X167533049Y-67203741D01*
X167187758Y-67060363D01*
X166813882Y-67060037D01*
X166468341Y-67202812D01*
X166203741Y-67466951D01*
X166060363Y-67812242D01*
X166060037Y-68186118D01*
X159762000Y-68186118D01*
X159762000Y-66186118D01*
X162060037Y-66186118D01*
X162202812Y-66531659D01*
X162466951Y-66796259D01*
X162812242Y-66939637D01*
X163186118Y-66939963D01*
X163531659Y-66797188D01*
X163796259Y-66533049D01*
X163939637Y-66187758D01*
X163939680Y-66137950D01*
X164538816Y-65538815D01*
X164703997Y-65291604D01*
X164762000Y-65000000D01*
X164762000Y-64567248D01*
X164796259Y-64533049D01*
X164939637Y-64187758D01*
X164939963Y-63813882D01*
X164797188Y-63468341D01*
X164533049Y-63203741D01*
X164187758Y-63060363D01*
X163813882Y-63060037D01*
X163468341Y-63202812D01*
X163203741Y-63466951D01*
X163060363Y-63812242D01*
X163060037Y-64186118D01*
X163202812Y-64531659D01*
X163238000Y-64566908D01*
X163238000Y-64684369D01*
X162862290Y-65060079D01*
X162813882Y-65060037D01*
X162468341Y-65202812D01*
X162203741Y-65466951D01*
X162060363Y-65812242D01*
X162060037Y-66186118D01*
X159762000Y-66186118D01*
X159762000Y-65567248D01*
X159796259Y-65533049D01*
X159939637Y-65187758D01*
X159939963Y-64813882D01*
X159797188Y-64468341D01*
X159533049Y-64203741D01*
X159187758Y-64060363D01*
X158813882Y-64060037D01*
X158468341Y-64202812D01*
X158203741Y-64466951D01*
X158060363Y-64812242D01*
X158060037Y-65186118D01*
X158202812Y-65531659D01*
X158238000Y-65566908D01*
X158238000Y-68081225D01*
X158187758Y-68060363D01*
X157813882Y-68060037D01*
X157468341Y-68202812D01*
X157433092Y-68238000D01*
X156567248Y-68238000D01*
X156533049Y-68203741D01*
X156187758Y-68060363D01*
X155813882Y-68060037D01*
X155468341Y-68202812D01*
X155203741Y-68466951D01*
X155060363Y-68812242D01*
X155060037Y-69186118D01*
X155189874Y-69500347D01*
X155060363Y-69812242D01*
X155060147Y-70060252D01*
X154813882Y-70060037D01*
X154468341Y-70202812D01*
X154203741Y-70466951D01*
X154060363Y-70812242D01*
X154060037Y-71186118D01*
X140879514Y-71186118D01*
X140760273Y-71136605D01*
X140891143Y-71082397D01*
X140960608Y-70840213D01*
X140160000Y-70039605D01*
X139359392Y-70840213D01*
X139428857Y-71082397D01*
X139569318Y-71132509D01*
X139369697Y-71214990D01*
X138976371Y-71607630D01*
X138763243Y-72120900D01*
X138762758Y-72676661D01*
X121236759Y-72676661D01*
X121237242Y-72123339D01*
X121025010Y-71609697D01*
X120632370Y-71216371D01*
X120424488Y-71130051D01*
X120630303Y-71045010D01*
X121023629Y-70652370D01*
X121236757Y-70139100D01*
X121237181Y-69652302D01*
X138750856Y-69652302D01*
X138778638Y-70207368D01*
X138937603Y-70591143D01*
X139179787Y-70660608D01*
X139980395Y-69860000D01*
X140339605Y-69860000D01*
X141140213Y-70660608D01*
X141382397Y-70591143D01*
X141569144Y-70067698D01*
X141541362Y-69512632D01*
X141382397Y-69128857D01*
X141140213Y-69059392D01*
X140339605Y-69860000D01*
X139980395Y-69860000D01*
X139179787Y-69059392D01*
X138937603Y-69128857D01*
X138750856Y-69652302D01*
X121237181Y-69652302D01*
X121237242Y-69583339D01*
X121025010Y-69069697D01*
X120632370Y-68676371D01*
X120424488Y-68590051D01*
X120630303Y-68505010D01*
X121023629Y-68112370D01*
X121236757Y-67599100D01*
X121237242Y-67043339D01*
X121025010Y-66529697D01*
X120632370Y-66136371D01*
X120424488Y-66050051D01*
X120630303Y-65965010D01*
X121023629Y-65572370D01*
X121236757Y-65059100D01*
X121237242Y-64503339D01*
X121025010Y-63989697D01*
X120632370Y-63596371D01*
X120424488Y-63510051D01*
X120630303Y-63425010D01*
X121023629Y-63032370D01*
X121236757Y-62519100D01*
X121237242Y-61963339D01*
X121025010Y-61449697D01*
X120632370Y-61056371D01*
X120424488Y-60970051D01*
X120630303Y-60885010D01*
X121023629Y-60492370D01*
X121236757Y-59979100D01*
X121237242Y-59423339D01*
X121025010Y-58909697D01*
X120632370Y-58516371D01*
X120424488Y-58430051D01*
X120630303Y-58345010D01*
X121023629Y-57952370D01*
X121236757Y-57439100D01*
X121237242Y-56883339D01*
X121025010Y-56369697D01*
X120632370Y-55976371D01*
X120424488Y-55890051D01*
X120630303Y-55805010D01*
X121023629Y-55412370D01*
X121236757Y-54899100D01*
X121237242Y-54343339D01*
X121025010Y-53829697D01*
X120632370Y-53436371D01*
X120424488Y-53350051D01*
X120630303Y-53265010D01*
X121023629Y-52872370D01*
X121236757Y-52359100D01*
X121237242Y-51803339D01*
X121025010Y-51289697D01*
X120632370Y-50896371D01*
X120424488Y-50810051D01*
X120630303Y-50725010D01*
X121023629Y-50332370D01*
X121236757Y-49819100D01*
X121237242Y-49263339D01*
X121025010Y-48749697D01*
X120632370Y-48356371D01*
X120119100Y-48143243D01*
X119563339Y-48142758D01*
X119049697Y-48354990D01*
X118656371Y-48747630D01*
X118443243Y-49260900D01*
X118442758Y-49816661D01*
X118110000Y-49816661D01*
X118110000Y-46186118D01*
X124060037Y-46186118D01*
X124202812Y-46531659D01*
X124238000Y-46566908D01*
X124238000Y-61432752D01*
X124203741Y-61466951D01*
X124060363Y-61812242D01*
X124060037Y-62186118D01*
X124202812Y-62531659D01*
X124466951Y-62796259D01*
X124812242Y-62939637D01*
X125186118Y-62939963D01*
X125531659Y-62797188D01*
X125796259Y-62533049D01*
X125939637Y-62187758D01*
X125939963Y-61813882D01*
X125797188Y-61468341D01*
X125762000Y-61433092D01*
X125762000Y-46567248D01*
X125796259Y-46533049D01*
X125939637Y-46187758D01*
X125939638Y-46186118D01*
X138060037Y-46186118D01*
X138202812Y-46531659D01*
X138466951Y-46796259D01*
X138812242Y-46939637D01*
X139060252Y-46939853D01*
X139060037Y-47186118D01*
X139202812Y-47531659D01*
X139466951Y-47796259D01*
X139812242Y-47939637D01*
X139862050Y-47939680D01*
X140065287Y-48142917D01*
X139883339Y-48142758D01*
X139369697Y-48354990D01*
X138976371Y-48747630D01*
X138763243Y-49260900D01*
X138762758Y-49816661D01*
X138974990Y-50330303D01*
X139367630Y-50723629D01*
X139575512Y-50809949D01*
X139369697Y-50894990D01*
X138976371Y-51287630D01*
X138763243Y-51800900D01*
X138762758Y-52356661D01*
X138974990Y-52870303D01*
X139367630Y-53263629D01*
X139575512Y-53349949D01*
X139369697Y-53434990D01*
X138976371Y-53827630D01*
X138763243Y-54340900D01*
X138762758Y-54896661D01*
X138974990Y-55410303D01*
X139367630Y-55803629D01*
X139575512Y-55889949D01*
X139369697Y-55974990D01*
X138976371Y-56367630D01*
X138763243Y-56880900D01*
X138762758Y-57436661D01*
X138974990Y-57950303D01*
X139367630Y-58343629D01*
X139575512Y-58429949D01*
X139369697Y-58514990D01*
X138976371Y-58907630D01*
X138763243Y-59420900D01*
X138762758Y-59976661D01*
X138974990Y-60490303D01*
X139367630Y-60883629D01*
X139575512Y-60969949D01*
X139369697Y-61054990D01*
X138976371Y-61447630D01*
X138763243Y-61960900D01*
X138762758Y-62516661D01*
X138974990Y-63030303D01*
X139367630Y-63423629D01*
X139575512Y-63509949D01*
X139369697Y-63594990D01*
X138976371Y-63987630D01*
X138763243Y-64500900D01*
X138762758Y-65056661D01*
X138974990Y-65570303D01*
X139367630Y-65963629D01*
X139575512Y-66049949D01*
X139369697Y-66134990D01*
X138976371Y-66527630D01*
X138763243Y-67040900D01*
X138762758Y-67596661D01*
X138974990Y-68110303D01*
X139367630Y-68503629D01*
X139559727Y-68583395D01*
X139428857Y-68637603D01*
X139359392Y-68879787D01*
X140160000Y-69680395D01*
X140960608Y-68879787D01*
X140891143Y-68637603D01*
X140750682Y-68587491D01*
X140950303Y-68505010D01*
X141343629Y-68112370D01*
X141556757Y-67599100D01*
X141557242Y-67043339D01*
X141345010Y-66529697D01*
X140952370Y-66136371D01*
X140744488Y-66050051D01*
X140950303Y-65965010D01*
X141343629Y-65572370D01*
X141556757Y-65059100D01*
X141557242Y-64503339D01*
X141345010Y-63989697D01*
X140952370Y-63596371D01*
X140744488Y-63510051D01*
X140950303Y-63425010D01*
X141343629Y-63032370D01*
X141556757Y-62519100D01*
X141557242Y-61963339D01*
X141345010Y-61449697D01*
X140952370Y-61056371D01*
X140744488Y-60970051D01*
X140950303Y-60885010D01*
X141343629Y-60492370D01*
X141556757Y-59979100D01*
X141557242Y-59423339D01*
X141345010Y-58909697D01*
X140952370Y-58516371D01*
X140744488Y-58430051D01*
X140950303Y-58345010D01*
X141109472Y-58186118D01*
X142060037Y-58186118D01*
X142202812Y-58531659D01*
X142466951Y-58796259D01*
X142812242Y-58939637D01*
X142862050Y-58939680D01*
X143238000Y-59315631D01*
X143238000Y-60081225D01*
X143187758Y-60060363D01*
X142813882Y-60060037D01*
X142468341Y-60202812D01*
X142203741Y-60466951D01*
X142060363Y-60812242D01*
X142060037Y-61186118D01*
X142202812Y-61531659D01*
X142238000Y-61566908D01*
X142238000Y-65432752D01*
X142203741Y-65466951D01*
X142060363Y-65812242D01*
X142060037Y-66186118D01*
X142202812Y-66531659D01*
X142466951Y-66796259D01*
X142812242Y-66939637D01*
X143186118Y-66939963D01*
X143531659Y-66797188D01*
X143789295Y-66540000D01*
X146485907Y-66540000D01*
X146598946Y-67108285D01*
X146920853Y-67590054D01*
X147402622Y-67911961D01*
X147970907Y-68025000D01*
X148029093Y-68025000D01*
X148597378Y-67911961D01*
X149079147Y-67590054D01*
X149401054Y-67108285D01*
X149514093Y-66540000D01*
X149401054Y-65971715D01*
X149079147Y-65489946D01*
X149037548Y-65462150D01*
X149085317Y-65453162D01*
X149301441Y-65314090D01*
X149446431Y-65101890D01*
X149497440Y-64850000D01*
X149497440Y-63150000D01*
X149453162Y-62914683D01*
X149314090Y-62698559D01*
X149101890Y-62553569D01*
X148850000Y-62502560D01*
X147150000Y-62502560D01*
X146914683Y-62546838D01*
X146698559Y-62685910D01*
X146553569Y-62898110D01*
X146502560Y-63150000D01*
X146502560Y-64850000D01*
X146546838Y-65085317D01*
X146685910Y-65301441D01*
X146898110Y-65446431D01*
X146965541Y-65460086D01*
X146920853Y-65489946D01*
X146598946Y-65971715D01*
X146485907Y-66540000D01*
X143789295Y-66540000D01*
X143796259Y-66533049D01*
X143939637Y-66187758D01*
X143939963Y-65813882D01*
X143797188Y-65468341D01*
X143762000Y-65433092D01*
X143762000Y-62918775D01*
X143812242Y-62939637D01*
X144186118Y-62939963D01*
X144531659Y-62797188D01*
X144796259Y-62533049D01*
X144939637Y-62187758D01*
X144939638Y-62186118D01*
X183060037Y-62186118D01*
X183202812Y-62531659D01*
X183466951Y-62796259D01*
X183812242Y-62939637D01*
X184186118Y-62939963D01*
X184531659Y-62797188D01*
X184566908Y-62762000D01*
X187432752Y-62762000D01*
X187466951Y-62796259D01*
X187812242Y-62939637D01*
X188186118Y-62939963D01*
X188531659Y-62797188D01*
X188796259Y-62533049D01*
X188939637Y-62187758D01*
X188939963Y-61813882D01*
X188797188Y-61468341D01*
X188533049Y-61203741D01*
X188187758Y-61060363D01*
X187813882Y-61060037D01*
X187468341Y-61202812D01*
X187433092Y-61238000D01*
X184567248Y-61238000D01*
X184533049Y-61203741D01*
X184187758Y-61060363D01*
X183813882Y-61060037D01*
X183468341Y-61202812D01*
X183203741Y-61466951D01*
X183060363Y-61812242D01*
X183060037Y-62186118D01*
X144939638Y-62186118D01*
X144939963Y-61813882D01*
X144797188Y-61468341D01*
X144762000Y-61433092D01*
X144762000Y-61186118D01*
X149060037Y-61186118D01*
X149202812Y-61531659D01*
X149466951Y-61796259D01*
X149812242Y-61939637D01*
X150186118Y-61939963D01*
X150531659Y-61797188D01*
X150566908Y-61762000D01*
X155432752Y-61762000D01*
X155466951Y-61796259D01*
X155812242Y-61939637D01*
X156186118Y-61939963D01*
X156531659Y-61797188D01*
X156796259Y-61533049D01*
X156939637Y-61187758D01*
X156939853Y-60939748D01*
X157186118Y-60939963D01*
X157531659Y-60797188D01*
X157796259Y-60533049D01*
X157939637Y-60187758D01*
X157939963Y-59813882D01*
X157797188Y-59468341D01*
X157533049Y-59203741D01*
X157490609Y-59186118D01*
X176060037Y-59186118D01*
X176202812Y-59531659D01*
X176466951Y-59796259D01*
X176812242Y-59939637D01*
X177186118Y-59939963D01*
X177531659Y-59797188D01*
X177566908Y-59762000D01*
X180432752Y-59762000D01*
X180466951Y-59796259D01*
X180812242Y-59939637D01*
X181186118Y-59939963D01*
X181531659Y-59797188D01*
X181796259Y-59533049D01*
X181939637Y-59187758D01*
X181939963Y-58813882D01*
X181797188Y-58468341D01*
X181533049Y-58203741D01*
X181187758Y-58060363D01*
X180813882Y-58060037D01*
X180468341Y-58202812D01*
X180433092Y-58238000D01*
X177567248Y-58238000D01*
X177533049Y-58203741D01*
X177187758Y-58060363D01*
X176813882Y-58060037D01*
X176468341Y-58202812D01*
X176203741Y-58466951D01*
X176060363Y-58812242D01*
X176060037Y-59186118D01*
X157490609Y-59186118D01*
X157187758Y-59060363D01*
X156813882Y-59060037D01*
X156468341Y-59202812D01*
X156433092Y-59238000D01*
X154567248Y-59238000D01*
X154533049Y-59203741D01*
X154187758Y-59060363D01*
X153813882Y-59060037D01*
X153468341Y-59202812D01*
X153203741Y-59466951D01*
X153060363Y-59812242D01*
X153060037Y-60186118D01*
X153081474Y-60238000D01*
X150567248Y-60238000D01*
X150533049Y-60203741D01*
X150187758Y-60060363D01*
X149813882Y-60060037D01*
X149468341Y-60202812D01*
X149203741Y-60466951D01*
X149060363Y-60812242D01*
X149060037Y-61186118D01*
X144762000Y-61186118D01*
X144762000Y-60352313D01*
X144920853Y-60590054D01*
X145402622Y-60911961D01*
X145970907Y-61025000D01*
X146029093Y-61025000D01*
X146597378Y-60911961D01*
X147079147Y-60590054D01*
X147401054Y-60108285D01*
X147514093Y-59540000D01*
X147401054Y-58971715D01*
X147079147Y-58489946D01*
X147037548Y-58462150D01*
X147085317Y-58453162D01*
X147301441Y-58314090D01*
X147446431Y-58101890D01*
X147497440Y-57850000D01*
X147497440Y-57023690D01*
X198515000Y-57023690D01*
X198515000Y-57714250D01*
X198673750Y-57873000D01*
X199873000Y-57873000D01*
X199873000Y-56673750D01*
X200127000Y-56673750D01*
X200127000Y-57873000D01*
X201326250Y-57873000D01*
X201485000Y-57714250D01*
X201485000Y-57023690D01*
X201388327Y-56790301D01*
X201209698Y-56611673D01*
X200976309Y-56515000D01*
X200285750Y-56515000D01*
X200127000Y-56673750D01*
X199873000Y-56673750D01*
X199714250Y-56515000D01*
X199023691Y-56515000D01*
X198790302Y-56611673D01*
X198611673Y-56790301D01*
X198515000Y-57023690D01*
X147497440Y-57023690D01*
X147497440Y-56150000D01*
X147453162Y-55914683D01*
X147314090Y-55698559D01*
X147101890Y-55553569D01*
X146850000Y-55502560D01*
X145150000Y-55502560D01*
X144914683Y-55546838D01*
X144698559Y-55685910D01*
X144553569Y-55898110D01*
X144502560Y-56150000D01*
X144502560Y-57850000D01*
X144546838Y-58085317D01*
X144685910Y-58301441D01*
X144898110Y-58446431D01*
X144965541Y-58460086D01*
X144920853Y-58489946D01*
X144720260Y-58790156D01*
X144703997Y-58708396D01*
X144538816Y-58461185D01*
X143939921Y-57862290D01*
X143939963Y-57813882D01*
X143797188Y-57468341D01*
X143533049Y-57203741D01*
X143187758Y-57060363D01*
X142813882Y-57060037D01*
X142468341Y-57202812D01*
X142203741Y-57466951D01*
X142060363Y-57812242D01*
X142060037Y-58186118D01*
X141109472Y-58186118D01*
X141343629Y-57952370D01*
X141556757Y-57439100D01*
X141557242Y-56883339D01*
X141345010Y-56369697D01*
X140952370Y-55976371D01*
X140744488Y-55890051D01*
X140950303Y-55805010D01*
X141343629Y-55412370D01*
X141556757Y-54899100D01*
X141557242Y-54343339D01*
X141345010Y-53829697D01*
X140952370Y-53436371D01*
X140744488Y-53350051D01*
X140950303Y-53265010D01*
X141343629Y-52872370D01*
X141556757Y-52359100D01*
X141557095Y-51970907D01*
X164975000Y-51970907D01*
X164975000Y-52029093D01*
X165088039Y-52597378D01*
X165409946Y-53079147D01*
X165891715Y-53401054D01*
X166460000Y-53514093D01*
X167028285Y-53401054D01*
X167510054Y-53079147D01*
X167539403Y-53035223D01*
X167611673Y-53209698D01*
X167790301Y-53388327D01*
X168023690Y-53485000D01*
X168714250Y-53485000D01*
X168873000Y-53326250D01*
X168873000Y-52127000D01*
X169127000Y-52127000D01*
X169127000Y-53326250D01*
X169285750Y-53485000D01*
X169976310Y-53485000D01*
X170209699Y-53388327D01*
X170388327Y-53209698D01*
X170439564Y-53086000D01*
X172983907Y-53086000D01*
X173096946Y-53654285D01*
X173418853Y-54136054D01*
X173900622Y-54457961D01*
X174468907Y-54571000D01*
X174527093Y-54571000D01*
X175095378Y-54457961D01*
X175577147Y-54136054D01*
X175899054Y-53654285D01*
X176012093Y-53086000D01*
X175899054Y-52517715D01*
X175577147Y-52035946D01*
X175533223Y-52006597D01*
X175707698Y-51934327D01*
X175886327Y-51755699D01*
X175983000Y-51522310D01*
X175983000Y-50831750D01*
X175824250Y-50673000D01*
X174625000Y-50673000D01*
X174625000Y-50693000D01*
X174371000Y-50693000D01*
X174371000Y-50673000D01*
X173171750Y-50673000D01*
X173013000Y-50831750D01*
X173013000Y-51522310D01*
X173109673Y-51755699D01*
X173288302Y-51934327D01*
X173462777Y-52006597D01*
X173418853Y-52035946D01*
X173096946Y-52517715D01*
X172983907Y-53086000D01*
X170439564Y-53086000D01*
X170485000Y-52976309D01*
X170485000Y-52285750D01*
X170326250Y-52127000D01*
X169127000Y-52127000D01*
X168873000Y-52127000D01*
X168853000Y-52127000D01*
X168853000Y-51873000D01*
X168873000Y-51873000D01*
X168873000Y-50673750D01*
X169127000Y-50673750D01*
X169127000Y-51873000D01*
X170326250Y-51873000D01*
X170485000Y-51714250D01*
X170485000Y-51023691D01*
X170388327Y-50790302D01*
X170209699Y-50611673D01*
X169976310Y-50515000D01*
X169285750Y-50515000D01*
X169127000Y-50673750D01*
X168873000Y-50673750D01*
X168714250Y-50515000D01*
X168023690Y-50515000D01*
X167790301Y-50611673D01*
X167611673Y-50790302D01*
X167539403Y-50964777D01*
X167510054Y-50920853D01*
X167028285Y-50598946D01*
X166460000Y-50485907D01*
X165891715Y-50598946D01*
X165409946Y-50920853D01*
X165088039Y-51402622D01*
X164975000Y-51970907D01*
X141557095Y-51970907D01*
X141557242Y-51803339D01*
X141345010Y-51289697D01*
X140952370Y-50896371D01*
X140744488Y-50810051D01*
X140950303Y-50725010D01*
X141343629Y-50332370D01*
X141556757Y-49819100D01*
X141556918Y-49634549D01*
X142461185Y-50538816D01*
X142551177Y-50598946D01*
X142708395Y-50703996D01*
X143000000Y-50762000D01*
X146432752Y-50762000D01*
X146466951Y-50796259D01*
X146812242Y-50939637D01*
X147186118Y-50939963D01*
X147531659Y-50797188D01*
X147796259Y-50533049D01*
X147939637Y-50187758D01*
X147939963Y-49813882D01*
X147797188Y-49468341D01*
X147533049Y-49203741D01*
X147187758Y-49060363D01*
X146813882Y-49060037D01*
X146468341Y-49202812D01*
X146433092Y-49238000D01*
X143315631Y-49238000D01*
X140939921Y-46862291D01*
X140939963Y-46813882D01*
X140918526Y-46762000D01*
X141432752Y-46762000D01*
X141466951Y-46796259D01*
X141812242Y-46939637D01*
X142186118Y-46939963D01*
X142531659Y-46797188D01*
X142796259Y-46533049D01*
X142829413Y-46453205D01*
X142920853Y-46590054D01*
X143402622Y-46911961D01*
X143970907Y-47025000D01*
X144029093Y-47025000D01*
X144597378Y-46911961D01*
X145079147Y-46590054D01*
X145349047Y-46186118D01*
X163060037Y-46186118D01*
X163202812Y-46531659D01*
X163238000Y-46566908D01*
X163238000Y-48432752D01*
X163203741Y-48466951D01*
X163060363Y-48812242D01*
X163060037Y-49186118D01*
X163202812Y-49531659D01*
X163466951Y-49796259D01*
X163812242Y-49939637D01*
X164186118Y-49939963D01*
X164531659Y-49797188D01*
X164759554Y-49569690D01*
X173013000Y-49569690D01*
X173013000Y-50260250D01*
X173171750Y-50419000D01*
X174371000Y-50419000D01*
X174371000Y-49219750D01*
X174625000Y-49219750D01*
X174625000Y-50419000D01*
X175824250Y-50419000D01*
X175983000Y-50260250D01*
X175983000Y-49569690D01*
X175886327Y-49336301D01*
X175707698Y-49157673D01*
X175474309Y-49061000D01*
X174783750Y-49061000D01*
X174625000Y-49219750D01*
X174371000Y-49219750D01*
X174212250Y-49061000D01*
X173521691Y-49061000D01*
X173288302Y-49157673D01*
X173109673Y-49336301D01*
X173013000Y-49569690D01*
X164759554Y-49569690D01*
X164796259Y-49533049D01*
X164939637Y-49187758D01*
X164939963Y-48813882D01*
X164797188Y-48468341D01*
X164762000Y-48433092D01*
X164762000Y-48186118D01*
X169060037Y-48186118D01*
X169202812Y-48531659D01*
X169466951Y-48796259D01*
X169812242Y-48939637D01*
X170186118Y-48939963D01*
X170531659Y-48797188D01*
X170566908Y-48762000D01*
X175684370Y-48762000D01*
X178060079Y-51137710D01*
X178060037Y-51186118D01*
X178202812Y-51531659D01*
X178466951Y-51796259D01*
X178812242Y-51939637D01*
X179186118Y-51939963D01*
X179531659Y-51797188D01*
X179796259Y-51533049D01*
X179939637Y-51187758D01*
X179939963Y-50813882D01*
X179797188Y-50468341D01*
X179533049Y-50203741D01*
X179187758Y-50060363D01*
X179137950Y-50060320D01*
X176538815Y-47461185D01*
X176291605Y-47296004D01*
X176000000Y-47238000D01*
X170567248Y-47238000D01*
X170533049Y-47203741D01*
X170187758Y-47060363D01*
X169813882Y-47060037D01*
X169468341Y-47202812D01*
X169203741Y-47466951D01*
X169060363Y-47812242D01*
X169060037Y-48186118D01*
X164762000Y-48186118D01*
X164762000Y-46567248D01*
X164796259Y-46533049D01*
X164939637Y-46187758D01*
X164939733Y-46076890D01*
X198456524Y-46076890D01*
X198626355Y-46486924D01*
X199016642Y-46915183D01*
X199541108Y-47161486D01*
X199771000Y-47040819D01*
X199771000Y-45847000D01*
X200025000Y-45847000D01*
X200025000Y-47040819D01*
X200254892Y-47161486D01*
X200779358Y-46915183D01*
X201169645Y-46486924D01*
X201339476Y-46076890D01*
X201218155Y-45847000D01*
X200025000Y-45847000D01*
X199771000Y-45847000D01*
X198577845Y-45847000D01*
X198456524Y-46076890D01*
X164939733Y-46076890D01*
X164939963Y-45813882D01*
X164797188Y-45468341D01*
X164533049Y-45203741D01*
X164187758Y-45060363D01*
X163813882Y-45060037D01*
X163468341Y-45202812D01*
X163203741Y-45466951D01*
X163060363Y-45812242D01*
X163060037Y-46186118D01*
X145349047Y-46186118D01*
X145401054Y-46108285D01*
X145514093Y-45540000D01*
X145401054Y-44971715D01*
X145079147Y-44489946D01*
X145035223Y-44460597D01*
X145209698Y-44388327D01*
X145388327Y-44209699D01*
X145485000Y-43976310D01*
X145485000Y-43285750D01*
X145326250Y-43127000D01*
X144127000Y-43127000D01*
X144127000Y-43147000D01*
X143873000Y-43147000D01*
X143873000Y-43127000D01*
X142673750Y-43127000D01*
X142515000Y-43285750D01*
X142515000Y-43976310D01*
X142611673Y-44209699D01*
X142790302Y-44388327D01*
X142964777Y-44460597D01*
X142920853Y-44489946D01*
X142598946Y-44971715D01*
X142549513Y-45220233D01*
X142533049Y-45203741D01*
X142187758Y-45060363D01*
X141813882Y-45060037D01*
X141468341Y-45202812D01*
X141433092Y-45238000D01*
X139567248Y-45238000D01*
X139533049Y-45203741D01*
X139187758Y-45060363D01*
X138813882Y-45060037D01*
X138468341Y-45202812D01*
X138203741Y-45466951D01*
X138060363Y-45812242D01*
X138060037Y-46186118D01*
X125939638Y-46186118D01*
X125939963Y-45813882D01*
X125797188Y-45468341D01*
X125533049Y-45203741D01*
X125187758Y-45060363D01*
X124813882Y-45060037D01*
X124468341Y-45202812D01*
X124203741Y-45466951D01*
X124060363Y-45812242D01*
X124060037Y-46186118D01*
X118110000Y-46186118D01*
X118110000Y-42987630D01*
X118933631Y-42164000D01*
X133858000Y-42164000D01*
X134149605Y-42105996D01*
X134272784Y-42023690D01*
X142515000Y-42023690D01*
X142515000Y-42714250D01*
X142673750Y-42873000D01*
X143873000Y-42873000D01*
X143873000Y-41673750D01*
X144127000Y-41673750D01*
X144127000Y-42873000D01*
X145326250Y-42873000D01*
X145485000Y-42714250D01*
X145485000Y-42363403D01*
X183164682Y-42363403D01*
X183443455Y-43038086D01*
X183959199Y-43554730D01*
X184633395Y-43834681D01*
X185363403Y-43835318D01*
X186038086Y-43556545D01*
X186554730Y-43040801D01*
X186834681Y-42366605D01*
X186835000Y-42000000D01*
X190749050Y-42000000D01*
X190888731Y-42702224D01*
X191286509Y-43297541D01*
X191881826Y-43695319D01*
X192584050Y-43835000D01*
X192655950Y-43835000D01*
X193358174Y-43695319D01*
X193595279Y-43536890D01*
X198456524Y-43536890D01*
X198626355Y-43946924D01*
X199016642Y-44375183D01*
X199175954Y-44450000D01*
X199016642Y-44524817D01*
X198626355Y-44953076D01*
X198456524Y-45363110D01*
X198577845Y-45593000D01*
X199771000Y-45593000D01*
X199771000Y-43307000D01*
X200025000Y-43307000D01*
X200025000Y-45593000D01*
X201218155Y-45593000D01*
X201339476Y-45363110D01*
X201169645Y-44953076D01*
X200779358Y-44524817D01*
X200620046Y-44450000D01*
X200779358Y-44375183D01*
X201169645Y-43946924D01*
X201339476Y-43536890D01*
X201218155Y-43307000D01*
X200025000Y-43307000D01*
X199771000Y-43307000D01*
X198577845Y-43307000D01*
X198456524Y-43536890D01*
X193595279Y-43536890D01*
X193953491Y-43297541D01*
X194351269Y-42702224D01*
X194490950Y-42000000D01*
X194351269Y-41297776D01*
X194150224Y-40996890D01*
X198456524Y-40996890D01*
X198626355Y-41406924D01*
X199016642Y-41835183D01*
X199175954Y-41910000D01*
X199016642Y-41984817D01*
X198626355Y-42413076D01*
X198456524Y-42823110D01*
X198577845Y-43053000D01*
X199771000Y-43053000D01*
X199771000Y-40767000D01*
X200025000Y-40767000D01*
X200025000Y-43053000D01*
X201218155Y-43053000D01*
X201339476Y-42823110D01*
X201169645Y-42413076D01*
X200779358Y-41984817D01*
X200620046Y-41910000D01*
X200779358Y-41835183D01*
X201169645Y-41406924D01*
X201339476Y-40996890D01*
X201218155Y-40767000D01*
X200025000Y-40767000D01*
X199771000Y-40767000D01*
X198577845Y-40767000D01*
X198456524Y-40996890D01*
X194150224Y-40996890D01*
X193953491Y-40702459D01*
X193358174Y-40304681D01*
X192655950Y-40165000D01*
X192584050Y-40165000D01*
X191881826Y-40304681D01*
X191286509Y-40702459D01*
X190888731Y-41297776D01*
X190749050Y-42000000D01*
X186835000Y-42000000D01*
X186835318Y-41636597D01*
X186556545Y-40961914D01*
X186040801Y-40445270D01*
X185366605Y-40165319D01*
X184636597Y-40164682D01*
X183961914Y-40443455D01*
X183445270Y-40959199D01*
X183165319Y-41633395D01*
X183164682Y-42363403D01*
X145485000Y-42363403D01*
X145485000Y-42023690D01*
X145388327Y-41790301D01*
X145209698Y-41611673D01*
X144976309Y-41515000D01*
X144285750Y-41515000D01*
X144127000Y-41673750D01*
X143873000Y-41673750D01*
X143714250Y-41515000D01*
X143023691Y-41515000D01*
X142790302Y-41611673D01*
X142611673Y-41790301D01*
X142515000Y-42023690D01*
X134272784Y-42023690D01*
X134396815Y-41940815D01*
X135265710Y-41071921D01*
X135314118Y-41071963D01*
X135659659Y-40929188D01*
X135924259Y-40665049D01*
X136067637Y-40319758D01*
X136067963Y-39945882D01*
X135925188Y-39600341D01*
X135661049Y-39335741D01*
X135315758Y-39192363D01*
X134941882Y-39192037D01*
X134596341Y-39334812D01*
X134331741Y-39598951D01*
X134188363Y-39944242D01*
X134188320Y-39994050D01*
X133542370Y-40640000D01*
X118618000Y-40640000D01*
X118326395Y-40698004D01*
X118079184Y-40863185D01*
X116809185Y-42133185D01*
X116644004Y-42380395D01*
X116586000Y-42672000D01*
X116586000Y-62676369D01*
X115762370Y-63500000D01*
X109728000Y-63500000D01*
X109436395Y-63558004D01*
X109229876Y-63695996D01*
X109189185Y-63723185D01*
X107710000Y-65202370D01*
X107710000Y-37778118D01*
X124028037Y-37778118D01*
X124170812Y-38123659D01*
X124434951Y-38388259D01*
X124780242Y-38531637D01*
X125154118Y-38531963D01*
X125499659Y-38389188D01*
X125503102Y-38385750D01*
X198413000Y-38385750D01*
X198413000Y-39076310D01*
X198509673Y-39309699D01*
X198688302Y-39488327D01*
X198897878Y-39575136D01*
X198626355Y-39873076D01*
X198456524Y-40283110D01*
X198577845Y-40513000D01*
X199771000Y-40513000D01*
X199771000Y-38227000D01*
X200025000Y-38227000D01*
X200025000Y-40513000D01*
X201218155Y-40513000D01*
X201339476Y-40283110D01*
X201169645Y-39873076D01*
X200898122Y-39575136D01*
X201107698Y-39488327D01*
X201286327Y-39309699D01*
X201383000Y-39076310D01*
X201383000Y-38385750D01*
X201224250Y-38227000D01*
X200025000Y-38227000D01*
X199771000Y-38227000D01*
X198571750Y-38227000D01*
X198413000Y-38385750D01*
X125503102Y-38385750D01*
X125534908Y-38354000D01*
X130048000Y-38354000D01*
X130339605Y-38295996D01*
X130586815Y-38130815D01*
X131094815Y-37622816D01*
X131259996Y-37375605D01*
X131279014Y-37279996D01*
X131310105Y-37123690D01*
X198413000Y-37123690D01*
X198413000Y-37814250D01*
X198571750Y-37973000D01*
X199771000Y-37973000D01*
X199771000Y-36773750D01*
X200025000Y-36773750D01*
X200025000Y-37973000D01*
X201224250Y-37973000D01*
X201383000Y-37814250D01*
X201383000Y-37123690D01*
X201286327Y-36890301D01*
X201107698Y-36711673D01*
X200874309Y-36615000D01*
X200183750Y-36615000D01*
X200025000Y-36773750D01*
X199771000Y-36773750D01*
X199612250Y-36615000D01*
X198921691Y-36615000D01*
X198688302Y-36711673D01*
X198509673Y-36890301D01*
X198413000Y-37123690D01*
X131310105Y-37123690D01*
X131318000Y-37084000D01*
X131318000Y-32922815D01*
X132864630Y-32922815D01*
X133188980Y-33707800D01*
X133789041Y-34308909D01*
X134573459Y-34634628D01*
X135422815Y-34635370D01*
X136207800Y-34311020D01*
X136808909Y-33710959D01*
X137100314Y-33009177D01*
X137388980Y-33707800D01*
X137989041Y-34308909D01*
X138773459Y-34634628D01*
X139622815Y-34635370D01*
X140407800Y-34311020D01*
X141008909Y-33710959D01*
X141334628Y-32926541D01*
X141334631Y-32922815D01*
X179864630Y-32922815D01*
X180188980Y-33707800D01*
X180789041Y-34308909D01*
X181573459Y-34634628D01*
X182422815Y-34635370D01*
X183207800Y-34311020D01*
X183808909Y-33710959D01*
X184100314Y-33009177D01*
X184388980Y-33707800D01*
X184989041Y-34308909D01*
X185773459Y-34634628D01*
X186622815Y-34635370D01*
X187407800Y-34311020D01*
X188008909Y-33710959D01*
X188334628Y-32926541D01*
X188334965Y-32540000D01*
X194485907Y-32540000D01*
X194598946Y-33108285D01*
X194920853Y-33590054D01*
X195402622Y-33911961D01*
X195970907Y-34025000D01*
X196029093Y-34025000D01*
X196597378Y-33911961D01*
X197079147Y-33590054D01*
X197401054Y-33108285D01*
X197514093Y-32540000D01*
X197401054Y-31971715D01*
X197079147Y-31489946D01*
X197037548Y-31462150D01*
X197085317Y-31453162D01*
X197301441Y-31314090D01*
X197446431Y-31101890D01*
X197497440Y-30850000D01*
X197497440Y-29150000D01*
X197453162Y-28914683D01*
X197314090Y-28698559D01*
X197101890Y-28553569D01*
X196850000Y-28502560D01*
X195150000Y-28502560D01*
X194914683Y-28546838D01*
X194698559Y-28685910D01*
X194553569Y-28898110D01*
X194502560Y-29150000D01*
X194502560Y-30850000D01*
X194546838Y-31085317D01*
X194685910Y-31301441D01*
X194898110Y-31446431D01*
X194965541Y-31460086D01*
X194920853Y-31489946D01*
X194598946Y-31971715D01*
X194485907Y-32540000D01*
X188334965Y-32540000D01*
X188335370Y-32077185D01*
X188011020Y-31292200D01*
X187410959Y-30691091D01*
X186626541Y-30365372D01*
X185777185Y-30364630D01*
X184992200Y-30688980D01*
X184391091Y-31289041D01*
X184099686Y-31990823D01*
X183811020Y-31292200D01*
X183210959Y-30691091D01*
X182426541Y-30365372D01*
X181577185Y-30364630D01*
X180792200Y-30688980D01*
X180191091Y-31289041D01*
X179865372Y-32073459D01*
X179864630Y-32922815D01*
X141334631Y-32922815D01*
X141335370Y-32077185D01*
X141011020Y-31292200D01*
X140410959Y-30691091D01*
X139626541Y-30365372D01*
X138777185Y-30364630D01*
X137992200Y-30688980D01*
X137391091Y-31289041D01*
X137099686Y-31990823D01*
X136811020Y-31292200D01*
X136210959Y-30691091D01*
X135426541Y-30365372D01*
X134577185Y-30364630D01*
X133792200Y-30688980D01*
X133191091Y-31289041D01*
X132865372Y-32073459D01*
X132864630Y-32922815D01*
X131318000Y-32922815D01*
X131318000Y-29777248D01*
X131352259Y-29743049D01*
X131495637Y-29397758D01*
X131495963Y-29023882D01*
X131353188Y-28678341D01*
X131089049Y-28413741D01*
X130743758Y-28270363D01*
X130369882Y-28270037D01*
X130024341Y-28412812D01*
X129759741Y-28676951D01*
X129616363Y-29022242D01*
X129616037Y-29396118D01*
X129758812Y-29741659D01*
X129794000Y-29776908D01*
X129794000Y-36768369D01*
X129732370Y-36830000D01*
X125535248Y-36830000D01*
X125501049Y-36795741D01*
X125155758Y-36652363D01*
X124781882Y-36652037D01*
X124436341Y-36794812D01*
X124171741Y-37058951D01*
X124028363Y-37404242D01*
X124028037Y-37778118D01*
X107710000Y-37778118D01*
X107710000Y-32922815D01*
X119864630Y-32922815D01*
X120188980Y-33707800D01*
X120789041Y-34308909D01*
X121573459Y-34634628D01*
X122422815Y-34635370D01*
X122635971Y-34547295D01*
X122504363Y-34864242D01*
X122504037Y-35238118D01*
X122646812Y-35583659D01*
X122910951Y-35848259D01*
X123256242Y-35991637D01*
X123630118Y-35991963D01*
X123975659Y-35849188D01*
X124010908Y-35814000D01*
X127448752Y-35814000D01*
X127482951Y-35848259D01*
X127828242Y-35991637D01*
X128202118Y-35991963D01*
X128547659Y-35849188D01*
X128812259Y-35585049D01*
X128955637Y-35239758D01*
X128955963Y-34865882D01*
X128813188Y-34520341D01*
X128549049Y-34255741D01*
X128203758Y-34112363D01*
X127829882Y-34112037D01*
X127484341Y-34254812D01*
X127449092Y-34290000D01*
X127428857Y-34290000D01*
X128008909Y-33710959D01*
X128334628Y-32926541D01*
X128335370Y-32077185D01*
X128011020Y-31292200D01*
X127410959Y-30691091D01*
X126626541Y-30365372D01*
X125777185Y-30364630D01*
X124992200Y-30688980D01*
X124391091Y-31289041D01*
X124099686Y-31990823D01*
X123811020Y-31292200D01*
X123210959Y-30691091D01*
X122426541Y-30365372D01*
X121577185Y-30364630D01*
X120792200Y-30688980D01*
X120191091Y-31289041D01*
X119865372Y-32073459D01*
X119864630Y-32922815D01*
X107710000Y-32922815D01*
X107710000Y-27285750D01*
X119865000Y-27285750D01*
X119865000Y-28626310D01*
X119961673Y-28859699D01*
X120140302Y-29038327D01*
X120373691Y-29135000D01*
X121714250Y-29135000D01*
X121873000Y-28976250D01*
X121873000Y-27127000D01*
X120023750Y-27127000D01*
X119865000Y-27285750D01*
X107710000Y-27285750D01*
X107710000Y-23226854D01*
X109640457Y-23226854D01*
X110116727Y-24379515D01*
X110997847Y-25262174D01*
X112149674Y-25740454D01*
X113396854Y-25741543D01*
X114287125Y-25373690D01*
X119865000Y-25373690D01*
X119865000Y-26714250D01*
X120023750Y-26873000D01*
X121873000Y-26873000D01*
X121873000Y-25023750D01*
X122127000Y-25023750D01*
X122127000Y-26873000D01*
X122147000Y-26873000D01*
X122147000Y-27127000D01*
X122127000Y-27127000D01*
X122127000Y-28976250D01*
X122285750Y-29135000D01*
X123626309Y-29135000D01*
X123859698Y-29038327D01*
X124038327Y-28859699D01*
X124135000Y-28626310D01*
X124135000Y-27593123D01*
X124388980Y-28207800D01*
X124989041Y-28808909D01*
X125773459Y-29134628D01*
X126622815Y-29135370D01*
X127407800Y-28811020D01*
X128008909Y-28210959D01*
X128334628Y-27426541D01*
X128334750Y-27285750D01*
X132865000Y-27285750D01*
X132865000Y-28626310D01*
X132961673Y-28859699D01*
X133140302Y-29038327D01*
X133373691Y-29135000D01*
X134714250Y-29135000D01*
X134873000Y-28976250D01*
X134873000Y-27127000D01*
X133023750Y-27127000D01*
X132865000Y-27285750D01*
X128334750Y-27285750D01*
X128335370Y-26577185D01*
X128011020Y-25792200D01*
X127593240Y-25373690D01*
X132865000Y-25373690D01*
X132865000Y-26714250D01*
X133023750Y-26873000D01*
X134873000Y-26873000D01*
X134873000Y-25023750D01*
X135127000Y-25023750D01*
X135127000Y-26873000D01*
X135147000Y-26873000D01*
X135147000Y-27127000D01*
X135127000Y-27127000D01*
X135127000Y-28976250D01*
X135285750Y-29135000D01*
X136626309Y-29135000D01*
X136859698Y-29038327D01*
X137038327Y-28859699D01*
X137135000Y-28626310D01*
X137135000Y-28513970D01*
X137865635Y-28513970D01*
X138025418Y-28832739D01*
X138816187Y-29142723D01*
X139665387Y-29126497D01*
X140374582Y-28832739D01*
X140534365Y-28513970D01*
X139200000Y-27179605D01*
X137865635Y-28513970D01*
X137135000Y-28513970D01*
X137135000Y-27613854D01*
X137367261Y-28174582D01*
X137686030Y-28334365D01*
X139020395Y-27000000D01*
X139379605Y-27000000D01*
X140713970Y-28334365D01*
X141032739Y-28174582D01*
X141342723Y-27383813D01*
X141326497Y-26534613D01*
X141032739Y-25825418D01*
X140713970Y-25665635D01*
X139379605Y-27000000D01*
X139020395Y-27000000D01*
X137686030Y-25665635D01*
X137367261Y-25825418D01*
X137135000Y-26417916D01*
X137135000Y-25486030D01*
X137865635Y-25486030D01*
X139200000Y-26820395D01*
X140534365Y-25486030D01*
X140374582Y-25167261D01*
X139583813Y-24857277D01*
X138734613Y-24873503D01*
X138025418Y-25167261D01*
X137865635Y-25486030D01*
X137135000Y-25486030D01*
X137135000Y-25373690D01*
X137038327Y-25140301D01*
X136859698Y-24961673D01*
X136626309Y-24865000D01*
X135285750Y-24865000D01*
X135127000Y-25023750D01*
X134873000Y-25023750D01*
X134714250Y-24865000D01*
X133373691Y-24865000D01*
X133140302Y-24961673D01*
X132961673Y-25140301D01*
X132865000Y-25373690D01*
X127593240Y-25373690D01*
X127410959Y-25191091D01*
X126626541Y-24865372D01*
X125777185Y-24864630D01*
X124992200Y-25188980D01*
X124391091Y-25789041D01*
X124135000Y-26405776D01*
X124135000Y-25373690D01*
X124038327Y-25140301D01*
X123859698Y-24961673D01*
X123626309Y-24865000D01*
X122285750Y-24865000D01*
X122127000Y-25023750D01*
X121873000Y-25023750D01*
X121714250Y-24865000D01*
X120373691Y-24865000D01*
X120140302Y-24961673D01*
X119961673Y-25140301D01*
X119865000Y-25373690D01*
X114287125Y-25373690D01*
X114549515Y-25265273D01*
X115432174Y-24384153D01*
X115910454Y-23232326D01*
X115911543Y-21985146D01*
X115435273Y-20832485D01*
X114554153Y-19949826D01*
X113402326Y-19471546D01*
X112155146Y-19470457D01*
X111002485Y-19946727D01*
X110119826Y-20827847D01*
X109641546Y-21979674D01*
X109640457Y-23226854D01*
X107710000Y-23226854D01*
X107710000Y-17710000D01*
X123325364Y-17710000D01*
X122892200Y-17888980D01*
M02*
