G04 #@! TF.FileFunction,Soldermask,Bot*
%FSLAX46Y46*%
G04 Gerber Fmt 4.6, Leading zero omitted, Abs format (unit mm)*
G04 Created by KiCad (PCBNEW 4.0.7-e2-6376~58~ubuntu16.04.1) date Fri Mar 30 11:42:14 2018*
%MOMM*%
%LPD*%
G01*
G04 APERTURE LIST*
%ADD10C,0.100000*%
%ADD11C,5.000000*%
%ADD12R,3.000000X3.000000*%
%ADD13C,3.000000*%
%ADD14C,1.798320*%
%ADD15C,1.795780*%
%ADD16R,1.700000X1.700000*%
%ADD17O,1.700000X1.700000*%
%ADD18C,2.400000*%
%ADD19O,2.400000X2.400000*%
%ADD20C,1.524000*%
%ADD21C,0.254000*%
G04 APERTURE END LIST*
D10*
D11*
X112776000Y-70358000D03*
X112776000Y-22606000D03*
X196850000Y-70358000D03*
D12*
X135000000Y-27000000D03*
D13*
X139200000Y-27000000D03*
X135000000Y-32500000D03*
X139200000Y-32500000D03*
X137100000Y-19700000D03*
D14*
X186000000Y-70000000D03*
D15*
X188540000Y-72540000D03*
X188540000Y-67460000D03*
X183460000Y-67460000D03*
X183460000Y-72540000D03*
D16*
X169000000Y-52000000D03*
D17*
X166460000Y-52000000D03*
D12*
X182000000Y-27000000D03*
D13*
X186200000Y-27000000D03*
X182000000Y-32500000D03*
X186200000Y-32500000D03*
X184100000Y-19700000D03*
D12*
X122000000Y-27000000D03*
D13*
X126200000Y-27000000D03*
X122000000Y-32500000D03*
X126200000Y-32500000D03*
X124100000Y-19700000D03*
D18*
X185000000Y-42000000D03*
D19*
X192620000Y-42000000D03*
D20*
X140160000Y-72400000D03*
X140160000Y-69860000D03*
X140160000Y-67320000D03*
X140160000Y-64780000D03*
X140160000Y-62240000D03*
X140160000Y-59700000D03*
X140160000Y-57160000D03*
X140160000Y-54620000D03*
X140160000Y-52080000D03*
X140160000Y-49540000D03*
X119840000Y-72400000D03*
X119840000Y-69860000D03*
X119840000Y-67320000D03*
X119840000Y-64780000D03*
X119840000Y-62240000D03*
X119840000Y-59700000D03*
X119840000Y-57160000D03*
X119840000Y-54620000D03*
X119840000Y-52080000D03*
X119840000Y-49540000D03*
D16*
X144000000Y-43000000D03*
D17*
X144000000Y-45540000D03*
D16*
X146000000Y-57000000D03*
D17*
X146000000Y-59540000D03*
D16*
X148000000Y-64000000D03*
D17*
X148000000Y-66540000D03*
D16*
X199898000Y-38100000D03*
D17*
X199898000Y-40640000D03*
X199898000Y-43180000D03*
X199898000Y-45720000D03*
D16*
X200000000Y-58000000D03*
D17*
X200000000Y-60540000D03*
D16*
X196000000Y-30000000D03*
D17*
X196000000Y-32540000D03*
D11*
X196850000Y-22606000D03*
D16*
X174498000Y-50546000D03*
D17*
X174498000Y-53086000D03*
D21*
G36*
X166497000Y-30861000D02*
X152527000Y-30861000D01*
X152527000Y-21971000D01*
X166497000Y-21971000D01*
X166497000Y-30861000D01*
X166497000Y-30861000D01*
G37*
X166497000Y-30861000D02*
X152527000Y-30861000D01*
X152527000Y-21971000D01*
X166497000Y-21971000D01*
X166497000Y-30861000D01*
M02*
