M48
;DRILL file {KiCad 4.0.7-e2-6376~58~ubuntu16.04.1} date Mon Mar 26 17:22:28 2018
;FORMAT={-:-/ absolute / inch / decimal}
FMAT,2
INCH,TZ
T1C0.016
T2C0.030
T3C0.035
T4C0.039
T5C0.047
T6C0.071
%
G90
G05
M72
T1
X4.86Y-1.38
X4.92Y-1.48
X4.9213Y-1.811
X4.9213Y-2.4409
X4.94Y-1.7
X5.Y-2.6772
X5.0394Y-2.5197
X5.04Y-1.38
X5.14Y-1.15
X5.1575Y-2.2441
X5.2362Y-2.2047
X5.32Y-1.58
X5.4331Y-1.4961
X5.4724Y-1.811
X5.5118Y-1.8504
X5.5512Y-1.6142
X5.5906Y-1.811
X5.6299Y-2.2835
X5.6299Y-2.4016
X5.6299Y-2.5984
X5.6693Y-2.4409
X5.7874Y-1.9685
X5.8268Y-1.6535
X5.9055Y-2.4016
X5.98Y-1.57
X6.02Y-0.88
X6.02Y-0.95
X6.02Y-1.02
X6.02Y-1.09
X6.02Y-1.16
X6.063Y-2.3622
X6.09Y-0.88
X6.09Y-0.95
X6.09Y-1.02
X6.09Y-1.09
X6.09Y-1.16
X6.1024Y-2.7953
X6.1417Y-2.4016
X6.1417Y-2.7165
X6.1417Y-2.7559
X6.16Y-0.88
X6.16Y-0.95
X6.16Y-1.02
X6.16Y-1.09
X6.16Y-1.16
X6.1811Y-2.3622
X6.2205Y-2.4409
X6.2205Y-2.7165
X6.23Y-0.88
X6.23Y-0.95
X6.23Y-1.02
X6.23Y-1.09
X6.23Y-1.16
X6.2598Y-2.5591
X6.2598Y-2.7953
X6.3Y-0.88
X6.3Y-0.95
X6.3Y-1.02
X6.3Y-1.09
X6.3Y-1.16
X6.37Y-0.88
X6.37Y-0.95
X6.37Y-1.02
X6.37Y-1.09
X6.37Y-1.16
X6.378Y-1.6142
X6.4173Y-2.126
X6.4173Y-2.5984
X6.44Y-0.88
X6.44Y-0.95
X6.44Y-1.02
X6.44Y-1.09
X6.44Y-1.16
X6.44Y-2.73
X6.4567Y-1.811
X6.4567Y-1.9291
X6.4567Y-2.4803
X6.4567Y-2.5197
X6.51Y-0.88
X6.51Y-0.95
X6.51Y-1.02
X6.51Y-1.09
X6.51Y-1.16
X6.5748Y-2.6772
X6.5748Y-2.7559
X6.6929Y-1.8898
X6.6929Y-2.1654
X6.6929Y-2.7953
X6.7323Y-2.5197
X6.75Y-2.4
X6.81Y-2.41
X6.8504Y-2.7559
X6.8898Y-2.874
X6.9291Y-2.7559
X6.9685Y-2.3228
X7.0079Y-2.874
X7.0472Y-2.0079
X7.0472Y-2.7559
X7.1Y-1.97
X7.126Y-2.3228
X7.13Y-2.08
X7.17Y-2.93
X7.2441Y-2.4409
X7.3Y-2.19
X7.4016Y-2.4409
X7.4803Y-2.6378
X7.62Y-2.57
X7.7559Y-2.4016
X7.7953Y-2.4803
X7.8346Y-2.0079
X7.8346Y-2.126
X7.874Y-2.1654
T2
X4.7181Y-1.9504
X4.7181Y-2.0504
X4.7181Y-2.1504
X4.7181Y-2.2504
X4.7181Y-2.3504
X4.7181Y-2.4504
X4.7181Y-2.5504
X4.7181Y-2.6504
X4.7181Y-2.7504
X4.7181Y-2.8504
X5.5181Y-1.9504
X5.5181Y-2.0504
X5.5181Y-2.1504
X5.5181Y-2.2504
X5.5181Y-2.3504
X5.5181Y-2.4504
X5.5181Y-2.5504
X5.5181Y-2.6504
X5.5181Y-2.7504
X5.5181Y-2.8504
T3
X7.2228Y-2.6559
X7.2228Y-2.8559
X7.3228Y-2.7559
X7.4228Y-2.6559
X7.4228Y-2.8559
T4
X5.6693Y-1.6929
X5.6693Y-1.7929
X5.748Y-2.2441
X5.748Y-2.3441
X5.8268Y-2.5197
X5.8268Y-2.6197
X6.5535Y-2.0472
X6.6535Y-2.0472
X6.87Y-1.99
X6.87Y-2.09
X7.7165Y-1.1811
X7.7165Y-1.2811
X7.87Y-1.5
X7.87Y-1.6
X7.87Y-1.7
X7.87Y-1.8
X7.874Y-2.2835
X7.874Y-2.3835
T5
X7.2835Y-1.6535
X7.5835Y-1.6535
T6
X4.8031Y-1.063
X4.8031Y-1.2795
X4.9685Y-1.063
X4.9685Y-1.2795
X5.315Y-1.063
X5.315Y-1.2795
X5.4803Y-1.063
X5.4803Y-1.2795
X7.1654Y-1.063
X7.1654Y-1.2795
X7.3307Y-1.063
X7.3307Y-1.2795
T0
M30
