G04 #@! TF.FileFunction,Soldermask,Top*
%FSLAX46Y46*%
G04 Gerber Fmt 4.6, Leading zero omitted, Abs format (unit mm)*
G04 Created by KiCad (PCBNEW 4.0.7-e2-6376~58~ubuntu16.04.1) date Fri Mar 30 11:42:14 2018*
%MOMM*%
%LPD*%
G01*
G04 APERTURE LIST*
%ADD10C,0.100000*%
%ADD11C,5.000000*%
%ADD12R,1.250000X1.000000*%
%ADD13R,1.000000X1.250000*%
%ADD14R,3.000000X3.000000*%
%ADD15C,3.000000*%
%ADD16C,1.798320*%
%ADD17C,1.795780*%
%ADD18R,1.700000X1.700000*%
%ADD19O,1.700000X1.700000*%
%ADD20R,1.270000X0.970000*%
%ADD21R,1.200000X2.200000*%
%ADD22R,5.800000X6.400000*%
%ADD23R,0.700000X1.300000*%
%ADD24R,1.300000X0.700000*%
%ADD25C,2.400000*%
%ADD26O,2.400000X2.400000*%
%ADD27R,1.500000X0.450000*%
%ADD28R,0.600000X1.500000*%
%ADD29R,2.000000X3.800000*%
%ADD30R,2.000000X1.500000*%
%ADD31R,0.300000X1.600000*%
%ADD32C,1.524000*%
%ADD33R,0.650000X2.000000*%
%ADD34R,2.000000X1.700000*%
%ADD35C,0.254000*%
G04 APERTURE END LIST*
D10*
D11*
X112776000Y-70358000D03*
X112776000Y-22606000D03*
X196850000Y-70358000D03*
D12*
X168000000Y-57000000D03*
X168000000Y-55000000D03*
X165000000Y-57000000D03*
X165000000Y-55000000D03*
D13*
X139000000Y-36000000D03*
X141000000Y-36000000D03*
X139000000Y-39000000D03*
X141000000Y-39000000D03*
X135000000Y-36000000D03*
X137000000Y-36000000D03*
X135000000Y-39000000D03*
X137000000Y-39000000D03*
D12*
X177000000Y-74000000D03*
X177000000Y-72000000D03*
X180000000Y-74000000D03*
X180000000Y-72000000D03*
X181000000Y-69000000D03*
X181000000Y-67000000D03*
X178000000Y-67000000D03*
X178000000Y-69000000D03*
D13*
X182388000Y-56134000D03*
X184388000Y-56134000D03*
X194000000Y-62000000D03*
X196000000Y-62000000D03*
D12*
X196000000Y-58000000D03*
X196000000Y-60000000D03*
D13*
X175000000Y-60000000D03*
X173000000Y-60000000D03*
D12*
X148000000Y-46000000D03*
X148000000Y-44000000D03*
X178000000Y-52000000D03*
X178000000Y-54000000D03*
D13*
X188000000Y-51000000D03*
X190000000Y-51000000D03*
X183626000Y-50800000D03*
X181626000Y-50800000D03*
X173974000Y-46228000D03*
X171974000Y-46228000D03*
X195000000Y-51000000D03*
X197000000Y-51000000D03*
D12*
X162000000Y-45000000D03*
X162000000Y-43000000D03*
X191000000Y-30000000D03*
X191000000Y-32000000D03*
X162000000Y-70000000D03*
X162000000Y-72000000D03*
D13*
X129000000Y-66000000D03*
X127000000Y-66000000D03*
X127000000Y-56000000D03*
X129000000Y-56000000D03*
D14*
X135000000Y-27000000D03*
D15*
X139200000Y-27000000D03*
X135000000Y-32500000D03*
X139200000Y-32500000D03*
X137100000Y-19700000D03*
D16*
X186000000Y-70000000D03*
D17*
X188540000Y-72540000D03*
X188540000Y-67460000D03*
X183460000Y-67460000D03*
X183460000Y-72540000D03*
D18*
X169000000Y-52000000D03*
D19*
X166460000Y-52000000D03*
D20*
X162000000Y-49730000D03*
X162000000Y-51000000D03*
X162000000Y-52270000D03*
D14*
X182000000Y-27000000D03*
D15*
X186200000Y-27000000D03*
X182000000Y-32500000D03*
X186200000Y-32500000D03*
X184100000Y-19700000D03*
D14*
X122000000Y-27000000D03*
D15*
X126200000Y-27000000D03*
X122000000Y-32500000D03*
X126200000Y-32500000D03*
X124100000Y-19700000D03*
D21*
X156720000Y-33200000D03*
X161280000Y-33200000D03*
D22*
X159000000Y-26900000D03*
D23*
X170050000Y-73000000D03*
X171950000Y-73000000D03*
D24*
X161000000Y-56950000D03*
X161000000Y-55050000D03*
X174000000Y-72050000D03*
X174000000Y-73950000D03*
X172000000Y-66950000D03*
X172000000Y-65050000D03*
X175000000Y-67050000D03*
X175000000Y-68950000D03*
D23*
X176950000Y-63000000D03*
X175050000Y-63000000D03*
D24*
X179000000Y-60050000D03*
X179000000Y-61950000D03*
X193000000Y-58050000D03*
X193000000Y-59950000D03*
D23*
X182438000Y-53340000D03*
X184338000Y-53340000D03*
D24*
X187000000Y-54050000D03*
X187000000Y-55950000D03*
X191000000Y-54050000D03*
X191000000Y-55950000D03*
X172720000Y-56200000D03*
X172720000Y-58100000D03*
D25*
X185000000Y-42000000D03*
D26*
X192620000Y-42000000D03*
D23*
X195050000Y-54000000D03*
X196950000Y-54000000D03*
X153050000Y-58000000D03*
X154950000Y-58000000D03*
X150950000Y-58000000D03*
X149050000Y-58000000D03*
D24*
X165000000Y-70050000D03*
X165000000Y-71950000D03*
X165000000Y-67950000D03*
X165000000Y-66050000D03*
X162000000Y-67950000D03*
X162000000Y-66050000D03*
D23*
X127050000Y-53000000D03*
X128950000Y-53000000D03*
D24*
X132000000Y-53050000D03*
X132000000Y-54950000D03*
D27*
X167950000Y-64275000D03*
X167950000Y-63625000D03*
X167950000Y-62975000D03*
X167950000Y-62325000D03*
X167950000Y-61675000D03*
X167950000Y-61025000D03*
X167950000Y-60375000D03*
X167950000Y-59725000D03*
X162050000Y-59725000D03*
X162050000Y-60375000D03*
X162050000Y-61025000D03*
X162050000Y-61675000D03*
X162050000Y-62325000D03*
X162050000Y-62975000D03*
X162050000Y-63625000D03*
X162050000Y-64275000D03*
D28*
X190810000Y-59300000D03*
X189540000Y-59300000D03*
X188270000Y-59300000D03*
X187000000Y-59300000D03*
X185730000Y-59300000D03*
X184460000Y-59300000D03*
X183190000Y-59300000D03*
X183190000Y-64700000D03*
X184460000Y-64700000D03*
X185730000Y-64700000D03*
X187000000Y-64700000D03*
X188270000Y-64700000D03*
X189540000Y-64700000D03*
X190810000Y-64700000D03*
D29*
X158150000Y-44000000D03*
D30*
X151850000Y-44000000D03*
X151850000Y-46300000D03*
X151850000Y-41700000D03*
D31*
X156975000Y-63300000D03*
X156325000Y-63300000D03*
X155675000Y-63300000D03*
X155025000Y-63300000D03*
X155025000Y-66700000D03*
X155675000Y-66700000D03*
X156325000Y-66700000D03*
X156975000Y-66700000D03*
D32*
X140160000Y-72400000D03*
X140160000Y-69860000D03*
X140160000Y-67320000D03*
X140160000Y-64780000D03*
X140160000Y-62240000D03*
X140160000Y-59700000D03*
X140160000Y-57160000D03*
X140160000Y-54620000D03*
X140160000Y-52080000D03*
X140160000Y-49540000D03*
X119840000Y-72400000D03*
X119840000Y-69860000D03*
X119840000Y-67320000D03*
X119840000Y-64780000D03*
X119840000Y-62240000D03*
X119840000Y-59700000D03*
X119840000Y-57160000D03*
X119840000Y-54620000D03*
X119840000Y-52080000D03*
X119840000Y-49540000D03*
D33*
X127050000Y-62710000D03*
X128000000Y-62710000D03*
X128950000Y-62710000D03*
X128950000Y-59290000D03*
X127050000Y-59290000D03*
D18*
X144000000Y-43000000D03*
D19*
X144000000Y-45540000D03*
D18*
X146000000Y-57000000D03*
D19*
X146000000Y-59540000D03*
D18*
X148000000Y-64000000D03*
D19*
X148000000Y-66540000D03*
D18*
X199898000Y-38100000D03*
D19*
X199898000Y-40640000D03*
X199898000Y-43180000D03*
X199898000Y-45720000D03*
D34*
X128000000Y-43000000D03*
X132000000Y-43000000D03*
D18*
X200000000Y-58000000D03*
D19*
X200000000Y-60540000D03*
D24*
X136000000Y-44950000D03*
X136000000Y-43050000D03*
D18*
X196000000Y-30000000D03*
D19*
X196000000Y-32540000D03*
D11*
X196850000Y-22606000D03*
D12*
X170180000Y-60944000D03*
X170180000Y-58944000D03*
D18*
X174498000Y-50546000D03*
D19*
X174498000Y-53086000D03*
D35*
G36*
X170561000Y-30861000D02*
X164211000Y-30861000D01*
X164211000Y-18161000D01*
X170561000Y-18161000D01*
X170561000Y-30861000D01*
X170561000Y-30861000D01*
G37*
X170561000Y-30861000D02*
X164211000Y-30861000D01*
X164211000Y-18161000D01*
X170561000Y-18161000D01*
X170561000Y-30861000D01*
G36*
X153797000Y-30861000D02*
X147447000Y-30861000D01*
X147447000Y-18161000D01*
X153797000Y-18161000D01*
X153797000Y-30861000D01*
X153797000Y-30861000D01*
G37*
X153797000Y-30861000D02*
X147447000Y-30861000D01*
X147447000Y-18161000D01*
X153797000Y-18161000D01*
X153797000Y-30861000D01*
M02*
