G04 #@! TF.FileFunction,Copper,L1,Top,Signal*
%FSLAX46Y46*%
G04 Gerber Fmt 4.6, Leading zero omitted, Abs format (unit mm)*
G04 Created by KiCad (PCBNEW 4.0.7-e2-6376~58~ubuntu16.04.1) date Mon Mar 26 16:54:40 2018*
%MOMM*%
%LPD*%
G01*
G04 APERTURE LIST*
%ADD10C,0.100000*%
%ADD11R,1.250000X1.000000*%
%ADD12R,1.000000X1.250000*%
%ADD13R,3.000000X3.000000*%
%ADD14C,3.000000*%
%ADD15C,1.798320*%
%ADD16C,1.795780*%
%ADD17R,1.700000X1.700000*%
%ADD18O,1.700000X1.700000*%
%ADD19R,1.270000X0.970000*%
%ADD20R,1.200000X2.200000*%
%ADD21R,5.800000X6.400000*%
%ADD22R,2.750000X3.050000*%
%ADD23R,0.700000X1.300000*%
%ADD24R,1.300000X0.700000*%
%ADD25C,2.400000*%
%ADD26O,2.400000X2.400000*%
%ADD27R,1.500000X0.450000*%
%ADD28R,0.600000X1.500000*%
%ADD29R,2.000000X3.800000*%
%ADD30R,2.000000X1.500000*%
%ADD31R,0.300000X1.600000*%
%ADD32C,1.524000*%
%ADD33R,0.650000X2.000000*%
%ADD34R,2.000000X1.700000*%
%ADD35C,0.609600*%
%ADD36C,0.254000*%
%ADD37C,1.016000*%
G04 APERTURE END LIST*
D10*
D11*
X168000000Y-57000000D03*
X168000000Y-55000000D03*
X165000000Y-57000000D03*
X165000000Y-55000000D03*
D12*
X139000000Y-36000000D03*
X141000000Y-36000000D03*
X139000000Y-39000000D03*
X141000000Y-39000000D03*
X135000000Y-36000000D03*
X137000000Y-36000000D03*
X135000000Y-39000000D03*
X137000000Y-39000000D03*
D11*
X177000000Y-74000000D03*
X177000000Y-72000000D03*
X180000000Y-74000000D03*
X180000000Y-72000000D03*
X181000000Y-69000000D03*
X181000000Y-67000000D03*
X178000000Y-67000000D03*
X178000000Y-69000000D03*
D12*
X182388000Y-56134000D03*
X184388000Y-56134000D03*
X194000000Y-62000000D03*
X196000000Y-62000000D03*
D11*
X196000000Y-58000000D03*
X196000000Y-60000000D03*
D12*
X175000000Y-60000000D03*
X173000000Y-60000000D03*
D11*
X148000000Y-46000000D03*
X148000000Y-44000000D03*
X178000000Y-52000000D03*
X178000000Y-54000000D03*
D12*
X188000000Y-51000000D03*
X190000000Y-51000000D03*
X183626000Y-50800000D03*
X181626000Y-50800000D03*
X173974000Y-46228000D03*
X171974000Y-46228000D03*
X195000000Y-51000000D03*
X197000000Y-51000000D03*
D11*
X162000000Y-45000000D03*
X162000000Y-43000000D03*
X191000000Y-30000000D03*
X191000000Y-32000000D03*
X162000000Y-70000000D03*
X162000000Y-72000000D03*
D12*
X129000000Y-66000000D03*
X127000000Y-66000000D03*
X127000000Y-56000000D03*
X129000000Y-56000000D03*
D13*
X135000000Y-27000000D03*
D14*
X139200000Y-27000000D03*
X135000000Y-32500000D03*
X139200000Y-32500000D03*
D15*
X186000000Y-70000000D03*
D16*
X188540000Y-72540000D03*
X188540000Y-67460000D03*
X183460000Y-67460000D03*
X183460000Y-72540000D03*
D17*
X169000000Y-52000000D03*
D18*
X166460000Y-52000000D03*
D19*
X162000000Y-49730000D03*
X162000000Y-51000000D03*
X162000000Y-52270000D03*
D13*
X182000000Y-27000000D03*
D14*
X186200000Y-27000000D03*
X182000000Y-32500000D03*
X186200000Y-32500000D03*
D13*
X122000000Y-27000000D03*
D14*
X126200000Y-27000000D03*
X122000000Y-32500000D03*
X126200000Y-32500000D03*
D20*
X156720000Y-33200000D03*
X161280000Y-33200000D03*
D21*
X159000000Y-26900000D03*
D22*
X160525000Y-25225000D03*
X157475000Y-28575000D03*
X157475000Y-25225000D03*
X160525000Y-28575000D03*
D23*
X170050000Y-73000000D03*
X171950000Y-73000000D03*
D24*
X161000000Y-56950000D03*
X161000000Y-55050000D03*
X174000000Y-72050000D03*
X174000000Y-73950000D03*
X172000000Y-66950000D03*
X172000000Y-65050000D03*
X175000000Y-67050000D03*
X175000000Y-68950000D03*
D23*
X176950000Y-63000000D03*
X175050000Y-63000000D03*
D24*
X179000000Y-60050000D03*
X179000000Y-61950000D03*
X193000000Y-58050000D03*
X193000000Y-59950000D03*
D23*
X182438000Y-53340000D03*
X184338000Y-53340000D03*
D24*
X187000000Y-54050000D03*
X187000000Y-55950000D03*
X191000000Y-54050000D03*
X191000000Y-55950000D03*
X172720000Y-56200000D03*
X172720000Y-58100000D03*
D25*
X185000000Y-42000000D03*
D26*
X192620000Y-42000000D03*
D23*
X195050000Y-54000000D03*
X196950000Y-54000000D03*
X153050000Y-58000000D03*
X154950000Y-58000000D03*
X150950000Y-58000000D03*
X149050000Y-58000000D03*
D24*
X165000000Y-70050000D03*
X165000000Y-71950000D03*
X165000000Y-67950000D03*
X165000000Y-66050000D03*
X162000000Y-67950000D03*
X162000000Y-66050000D03*
D23*
X127050000Y-53000000D03*
X128950000Y-53000000D03*
D24*
X132000000Y-53050000D03*
X132000000Y-54950000D03*
D27*
X167950000Y-64275000D03*
X167950000Y-63625000D03*
X167950000Y-62975000D03*
X167950000Y-62325000D03*
X167950000Y-61675000D03*
X167950000Y-61025000D03*
X167950000Y-60375000D03*
X167950000Y-59725000D03*
X162050000Y-59725000D03*
X162050000Y-60375000D03*
X162050000Y-61025000D03*
X162050000Y-61675000D03*
X162050000Y-62325000D03*
X162050000Y-62975000D03*
X162050000Y-63625000D03*
X162050000Y-64275000D03*
D28*
X190810000Y-59300000D03*
X189540000Y-59300000D03*
X188270000Y-59300000D03*
X187000000Y-59300000D03*
X185730000Y-59300000D03*
X184460000Y-59300000D03*
X183190000Y-59300000D03*
X183190000Y-64700000D03*
X184460000Y-64700000D03*
X185730000Y-64700000D03*
X187000000Y-64700000D03*
X188270000Y-64700000D03*
X189540000Y-64700000D03*
X190810000Y-64700000D03*
D29*
X158150000Y-44000000D03*
D30*
X151850000Y-44000000D03*
X151850000Y-46300000D03*
X151850000Y-41700000D03*
D31*
X156975000Y-63300000D03*
X156325000Y-63300000D03*
X155675000Y-63300000D03*
X155025000Y-63300000D03*
X155025000Y-66700000D03*
X155675000Y-66700000D03*
X156325000Y-66700000D03*
X156975000Y-66700000D03*
D32*
X140160000Y-72400000D03*
X140160000Y-69860000D03*
X140160000Y-67320000D03*
X140160000Y-64780000D03*
X140160000Y-62240000D03*
X140160000Y-59700000D03*
X140160000Y-57160000D03*
X140160000Y-54620000D03*
X140160000Y-52080000D03*
X140160000Y-49540000D03*
X119840000Y-72400000D03*
X119840000Y-69860000D03*
X119840000Y-67320000D03*
X119840000Y-64780000D03*
X119840000Y-62240000D03*
X119840000Y-59700000D03*
X119840000Y-57160000D03*
X119840000Y-54620000D03*
X119840000Y-52080000D03*
X119840000Y-49540000D03*
D33*
X127050000Y-62710000D03*
X128000000Y-62710000D03*
X128950000Y-62710000D03*
X128950000Y-59290000D03*
X127050000Y-59290000D03*
D17*
X144000000Y-43000000D03*
D18*
X144000000Y-45540000D03*
D17*
X146000000Y-57000000D03*
D18*
X146000000Y-59540000D03*
D17*
X148000000Y-64000000D03*
D18*
X148000000Y-66540000D03*
D17*
X199898000Y-38100000D03*
D18*
X199898000Y-40640000D03*
X199898000Y-43180000D03*
X199898000Y-45720000D03*
D34*
X128000000Y-43000000D03*
X132000000Y-43000000D03*
D17*
X200000000Y-58000000D03*
D18*
X200000000Y-60540000D03*
D24*
X136000000Y-44950000D03*
X136000000Y-43050000D03*
D17*
X196000000Y-30000000D03*
D18*
X196000000Y-32540000D03*
D11*
X170180000Y-60944000D03*
X170180000Y-58944000D03*
D17*
X174498000Y-50546000D03*
D18*
X174498000Y-53086000D03*
D35*
X167000000Y-68000000D03*
X171000000Y-64000000D03*
X174000000Y-70000000D03*
X167000000Y-70000000D03*
X172974000Y-61214000D03*
X171450000Y-60960000D03*
X163576000Y-69342000D03*
X151892000Y-39878000D03*
X185420000Y-55626000D03*
X181102000Y-52832000D03*
X180340000Y-50038000D03*
X125476000Y-43180000D03*
X198000000Y-63000000D03*
X175000000Y-73000000D03*
X179000000Y-70000000D03*
X176000000Y-70000000D03*
X178000000Y-73000000D03*
X170000000Y-71000000D03*
X182000000Y-73000000D03*
X170000000Y-55000000D03*
X128000000Y-64000000D03*
X141000000Y-41000000D03*
X138000000Y-38000000D03*
X133000000Y-56000000D03*
X131000000Y-57000000D03*
X127000000Y-68000000D03*
X199000000Y-54000000D03*
X199000000Y-51000000D03*
X200000000Y-55000000D03*
X158000000Y-62000000D03*
X164000000Y-63000000D03*
X163000000Y-54000000D03*
X162000000Y-41000000D03*
X148000000Y-42000000D03*
X142000000Y-46000000D03*
X139000000Y-46000000D03*
X179000000Y-51000000D03*
X170000000Y-48000000D03*
X125000000Y-62000000D03*
X125000000Y-46000000D03*
X135128000Y-40132000D03*
X193548000Y-65278000D03*
X197000000Y-61000000D03*
X190000000Y-67000000D03*
X188000000Y-62000000D03*
X184000000Y-62000000D03*
X164000000Y-49000000D03*
X164000000Y-46000000D03*
X165354000Y-29464000D03*
X163576000Y-29464000D03*
X161798000Y-29464000D03*
X160020000Y-29464000D03*
X158242000Y-29464000D03*
X156464000Y-29464000D03*
X154686000Y-29464000D03*
X152908000Y-29464000D03*
X165354000Y-27686000D03*
X163576000Y-27686000D03*
X161798000Y-27686000D03*
X160020000Y-27686000D03*
X158242000Y-27686000D03*
X156464000Y-27686000D03*
X154686000Y-27686000D03*
X152908000Y-27686000D03*
X165354000Y-25908000D03*
X163576000Y-25908000D03*
X161798000Y-25908000D03*
X160020000Y-25908000D03*
X158242000Y-25908000D03*
X156464000Y-25908000D03*
X154686000Y-25908000D03*
X152908000Y-25908000D03*
X165354000Y-24130000D03*
X163576000Y-24130000D03*
X161798000Y-24130000D03*
X160020000Y-24130000D03*
X158242000Y-24130000D03*
X156464000Y-24130000D03*
X154686000Y-24130000D03*
X152908000Y-24130000D03*
X165354000Y-22352000D03*
X163576000Y-22352000D03*
X161798000Y-22352000D03*
X160020000Y-22352000D03*
X158242000Y-22352000D03*
X156464000Y-22352000D03*
X154686000Y-22352000D03*
X152908000Y-22352000D03*
X124968000Y-37592000D03*
X130556000Y-29210000D03*
X147000000Y-50000000D03*
X140000000Y-47000000D03*
X154000000Y-60000000D03*
X157000000Y-60000000D03*
X123444000Y-35052000D03*
X128016000Y-35052000D03*
X150000000Y-61000000D03*
X156000000Y-61000000D03*
X144000000Y-62000000D03*
X143000000Y-58000000D03*
X159000000Y-71000000D03*
X155000000Y-71000000D03*
X143000000Y-61000000D03*
X143000000Y-66000000D03*
X156000000Y-69000000D03*
X158000000Y-69000000D03*
X163000000Y-66000000D03*
X164000000Y-64000000D03*
X156000000Y-70000000D03*
X159000000Y-65000000D03*
X181000000Y-59000000D03*
X177000000Y-59000000D03*
D36*
X162000000Y-51000000D02*
X161000000Y-51000000D01*
X160000000Y-54050000D02*
X161000000Y-55050000D01*
X160000000Y-52000000D02*
X160000000Y-54050000D01*
X161000000Y-51000000D02*
X160000000Y-52000000D01*
X167950000Y-62975000D02*
X169975000Y-62975000D01*
X166950000Y-67950000D02*
X165000000Y-67950000D01*
X167000000Y-68000000D02*
X166950000Y-67950000D01*
X169975000Y-62975000D02*
X171000000Y-64000000D01*
X167950000Y-59725000D02*
X166843000Y-59725000D01*
X166607000Y-62975000D02*
X167950000Y-62975000D01*
X166116000Y-62484000D02*
X166607000Y-62975000D01*
X166116000Y-60452000D02*
X166116000Y-62484000D01*
X166843000Y-59725000D02*
X166116000Y-60452000D01*
X165000000Y-70050000D02*
X166950000Y-70050000D01*
X174000000Y-70000000D02*
X177000000Y-72000000D01*
X166950000Y-70050000D02*
X167000000Y-70000000D01*
X165000000Y-67950000D02*
X162000000Y-67950000D01*
X165000000Y-70050000D02*
X165000000Y-67950000D01*
X161000000Y-55050000D02*
X161950000Y-55050000D01*
X164000000Y-57000000D02*
X165000000Y-57000000D01*
X163000000Y-56000000D02*
X164000000Y-57000000D01*
X162900000Y-56000000D02*
X163000000Y-56000000D01*
X161950000Y-55050000D02*
X162900000Y-56000000D01*
X165000000Y-57000000D02*
X168000000Y-57000000D01*
X168000000Y-57000000D02*
X168000000Y-59675000D01*
X168000000Y-59675000D02*
X167950000Y-59725000D01*
X180000000Y-72000000D02*
X177000000Y-72000000D01*
X168000000Y-59675000D02*
X167950000Y-59725000D01*
X173000000Y-60000000D02*
X173000000Y-61188000D01*
X173000000Y-61188000D02*
X172974000Y-61214000D01*
X170180000Y-60944000D02*
X171434000Y-60944000D01*
X171434000Y-60944000D02*
X171450000Y-60960000D01*
X162000000Y-70000000D02*
X162918000Y-70000000D01*
X162918000Y-70000000D02*
X163576000Y-69342000D01*
X151850000Y-41700000D02*
X151850000Y-39920000D01*
X151850000Y-39920000D02*
X151892000Y-39878000D01*
X184388000Y-56134000D02*
X184912000Y-56134000D01*
X184912000Y-56134000D02*
X185420000Y-55626000D01*
X182438000Y-53340000D02*
X181610000Y-53340000D01*
X181610000Y-53340000D02*
X181102000Y-52832000D01*
X181626000Y-50800000D02*
X181102000Y-50800000D01*
X181102000Y-50800000D02*
X180340000Y-50038000D01*
X128000000Y-43000000D02*
X125656000Y-43000000D01*
X125656000Y-43000000D02*
X125476000Y-43180000D01*
X196000000Y-62000000D02*
X197000000Y-62000000D01*
X197000000Y-62000000D02*
X198000000Y-63000000D01*
X174000000Y-73950000D02*
X174050000Y-73950000D01*
X174050000Y-73950000D02*
X175000000Y-73000000D01*
X178000000Y-69000000D02*
X179000000Y-70000000D01*
X175000000Y-68950000D02*
X175000000Y-69000000D01*
X175000000Y-69000000D02*
X176000000Y-70000000D01*
X177000000Y-74000000D02*
X178000000Y-73000000D01*
X171950000Y-73000000D02*
X171950000Y-72950000D01*
X171950000Y-72950000D02*
X170000000Y-71000000D01*
X180000000Y-74000000D02*
X181000000Y-74000000D01*
X181000000Y-74000000D02*
X182000000Y-73000000D01*
X182438000Y-53340000D02*
X182438000Y-53390000D01*
X168000000Y-55000000D02*
X170000000Y-55000000D01*
X128000000Y-62710000D02*
X128000000Y-64000000D01*
X139000000Y-39000000D02*
X141000000Y-41000000D01*
X137000000Y-39000000D02*
X138000000Y-38000000D01*
X132000000Y-54950000D02*
X132000000Y-55000000D01*
X132000000Y-55000000D02*
X133000000Y-56000000D01*
X129000000Y-56000000D02*
X130000000Y-57000000D01*
X130000000Y-57000000D02*
X131000000Y-57000000D01*
X127000000Y-66000000D02*
X127000000Y-68000000D01*
X196950000Y-54000000D02*
X199000000Y-54000000D01*
X197000000Y-51000000D02*
X199000000Y-51000000D01*
X200000000Y-58000000D02*
X200000000Y-55000000D01*
X156975000Y-63300000D02*
X156975000Y-63025000D01*
X156975000Y-63025000D02*
X158000000Y-62000000D01*
X162050000Y-62975000D02*
X163975000Y-62975000D01*
X163975000Y-62975000D02*
X164000000Y-63000000D01*
X165000000Y-55000000D02*
X164000000Y-55000000D01*
X164000000Y-55000000D02*
X163000000Y-54000000D01*
X162000000Y-43000000D02*
X162000000Y-41000000D01*
X148000000Y-44000000D02*
X148000000Y-42000000D01*
X196950000Y-51050000D02*
X197000000Y-51000000D01*
X197000000Y-54050000D02*
X196950000Y-54000000D01*
X144000000Y-43540000D02*
X144540000Y-43540000D01*
X144540000Y-43540000D02*
X144000000Y-43000000D01*
X142540000Y-45540000D02*
X142460000Y-45540000D01*
X142460000Y-45540000D02*
X142000000Y-46000000D01*
X139000000Y-46000000D02*
X137950000Y-44950000D01*
X137950000Y-44950000D02*
X136000000Y-44950000D01*
X127050000Y-62710000D02*
X127050000Y-61418000D01*
X128950000Y-61386000D02*
X128950000Y-62710000D01*
X128778000Y-61214000D02*
X128950000Y-61386000D01*
X127254000Y-61214000D02*
X128778000Y-61214000D01*
X127050000Y-61418000D02*
X127254000Y-61214000D01*
X127050000Y-62710000D02*
X127050000Y-64058000D01*
X127770000Y-64770000D02*
X129000000Y-66000000D01*
X127762000Y-64770000D02*
X127770000Y-64770000D01*
X127050000Y-64058000D02*
X127762000Y-64770000D01*
X182388000Y-56134000D02*
X182388000Y-56404000D01*
X182388000Y-56404000D02*
X183388000Y-57404000D01*
X187000000Y-57968000D02*
X187000000Y-59300000D01*
X186436000Y-57404000D02*
X187000000Y-57968000D01*
X183388000Y-57404000D02*
X186436000Y-57404000D01*
X179000000Y-51000000D02*
X179000000Y-51238000D01*
X170000000Y-48000000D02*
X155000000Y-48000000D01*
X155000000Y-48000000D02*
X153300000Y-46300000D01*
X151850000Y-46300000D02*
X153300000Y-46300000D01*
X180848000Y-56134000D02*
X182388000Y-56134000D01*
X180086000Y-55372000D02*
X180848000Y-56134000D01*
X180086000Y-52324000D02*
X180086000Y-55372000D01*
X179000000Y-51238000D02*
X180086000Y-52324000D01*
X136000000Y-44950000D02*
X136000000Y-45000000D01*
X144000000Y-45540000D02*
X147540000Y-45540000D01*
X147540000Y-45540000D02*
X148000000Y-46000000D01*
X141000000Y-39000000D02*
X142000000Y-40000000D01*
X142000000Y-40000000D02*
X142000000Y-45000000D01*
X142000000Y-45000000D02*
X142540000Y-45540000D01*
X142540000Y-45540000D02*
X144000000Y-45540000D01*
X136000000Y-44950000D02*
X126050000Y-44950000D01*
X126000000Y-63000000D02*
X126760000Y-63000000D01*
X125000000Y-62000000D02*
X126000000Y-63000000D01*
X126050000Y-44950000D02*
X125000000Y-46000000D01*
X126760000Y-63000000D02*
X127050000Y-62710000D01*
X141000000Y-36000000D02*
X141000000Y-39000000D01*
X139200000Y-32500000D02*
X142500000Y-32500000D01*
X142000000Y-36000000D02*
X141000000Y-36000000D01*
X143000000Y-35000000D02*
X142000000Y-36000000D01*
X143000000Y-33000000D02*
X143000000Y-35000000D01*
X142500000Y-32500000D02*
X143000000Y-33000000D01*
X151850000Y-46850000D02*
X151850000Y-46300000D01*
X148000000Y-46000000D02*
X151550000Y-46000000D01*
X151550000Y-46000000D02*
X151850000Y-46300000D01*
X141500000Y-36500000D02*
X141000000Y-36000000D01*
X129000000Y-62760000D02*
X128950000Y-62710000D01*
X129000000Y-63000000D02*
X128950000Y-62710000D01*
X135000000Y-39000000D02*
X135000000Y-40004000D01*
X135000000Y-40004000D02*
X135128000Y-40132000D01*
X194000000Y-64826000D02*
X194000000Y-62000000D01*
X193548000Y-65278000D02*
X194000000Y-64826000D01*
X135000000Y-39000000D02*
X134990000Y-39000000D01*
X187000000Y-64700000D02*
X187000000Y-64000000D01*
X187000000Y-64000000D02*
X188000000Y-63000000D01*
X193000000Y-63000000D02*
X194000000Y-62000000D01*
X188000000Y-63000000D02*
X193000000Y-63000000D01*
X135000000Y-32500000D02*
X135000000Y-36000000D01*
X135000000Y-36000000D02*
X135000000Y-39000000D01*
X186000000Y-70000000D02*
X189000000Y-70000000D01*
X197460000Y-60540000D02*
X200000000Y-60540000D01*
X197000000Y-61000000D02*
X197460000Y-60540000D01*
X190000000Y-69000000D02*
X190000000Y-67000000D01*
X189000000Y-70000000D02*
X190000000Y-69000000D01*
X181000000Y-69000000D02*
X185000000Y-69000000D01*
X185000000Y-69000000D02*
X186000000Y-70000000D01*
X175000000Y-67050000D02*
X177950000Y-67050000D01*
X177950000Y-67050000D02*
X178000000Y-67000000D01*
X175050000Y-63000000D02*
X175050000Y-67000000D01*
X175050000Y-67000000D02*
X175000000Y-67050000D01*
X172000000Y-66950000D02*
X174950000Y-67000000D01*
X174950000Y-67000000D02*
X175000000Y-67050000D01*
X178000000Y-67000000D02*
X181000000Y-67000000D01*
X175000000Y-67050000D02*
X175000000Y-67000000D01*
X171950000Y-67000000D02*
X172000000Y-66950000D01*
X175050000Y-67000000D02*
X175000000Y-67050000D01*
X193000000Y-58050000D02*
X195950000Y-58050000D01*
X195950000Y-58050000D02*
X196000000Y-58000000D01*
X191000000Y-55950000D02*
X191000000Y-56050000D01*
X191000000Y-56050000D02*
X193000000Y-58050000D01*
X191000000Y-55950000D02*
X191000000Y-56000000D01*
X191000000Y-56000000D02*
X189540000Y-57460000D01*
X189540000Y-57460000D02*
X189540000Y-59300000D01*
X193000000Y-58000000D02*
X193000000Y-58050000D01*
X195950000Y-58050000D02*
X196000000Y-58000000D01*
X191000000Y-61000000D02*
X191950000Y-61000000D01*
X191950000Y-61000000D02*
X193000000Y-59950000D01*
X179000000Y-61950000D02*
X183950000Y-61950000D01*
X191000000Y-61000000D02*
X191000000Y-59490000D01*
X190000000Y-62000000D02*
X191000000Y-61000000D01*
X188000000Y-62000000D02*
X190000000Y-62000000D01*
X183950000Y-61950000D02*
X184000000Y-62000000D01*
X191000000Y-59490000D02*
X190810000Y-59300000D01*
X190900000Y-59390000D02*
X190810000Y-59300000D01*
X193000000Y-59950000D02*
X195950000Y-59950000D01*
X195950000Y-59950000D02*
X196000000Y-60000000D01*
X195950000Y-59950000D02*
X196000000Y-60000000D01*
X180000000Y-58000000D02*
X179000000Y-58000000D01*
X178000000Y-57000000D02*
X178000000Y-54000000D01*
X179000000Y-58000000D02*
X178000000Y-57000000D01*
X184460000Y-59300000D02*
X184460000Y-58460000D01*
X179000000Y-59000000D02*
X179000000Y-60050000D01*
X180000000Y-58000000D02*
X179000000Y-59000000D01*
X184000000Y-58000000D02*
X180000000Y-58000000D01*
X184460000Y-58460000D02*
X184000000Y-58000000D01*
X175000000Y-60000000D02*
X178950000Y-60000000D01*
X178950000Y-60000000D02*
X179000000Y-60050000D01*
X174950000Y-59950000D02*
X175000000Y-60000000D01*
X183626000Y-50800000D02*
X184404000Y-50800000D01*
X184404000Y-50800000D02*
X185602000Y-49602000D01*
X174000000Y-42920000D02*
X164280000Y-33200000D01*
X164280000Y-33200000D02*
X161280000Y-33200000D01*
X173974000Y-46228000D02*
X174000000Y-42920000D01*
X185000000Y-42000000D02*
X185000000Y-49000000D01*
X178000000Y-52000000D02*
X178000000Y-51000000D01*
X178000000Y-51000000D02*
X180000000Y-49000000D01*
X180000000Y-49000000D02*
X185000000Y-49000000D01*
X186950000Y-54000000D02*
X187000000Y-54050000D01*
X188000000Y-51000000D02*
X188000000Y-53050000D01*
X188000000Y-53050000D02*
X187000000Y-54050000D01*
X187000000Y-51000000D02*
X188000000Y-51000000D01*
X185000000Y-49000000D02*
X185602000Y-49602000D01*
X185602000Y-49602000D02*
X187000000Y-51000000D01*
X182000000Y-32500000D02*
X186200000Y-32500000D01*
X186200000Y-32500000D02*
X190500000Y-32500000D01*
X190500000Y-32500000D02*
X191000000Y-32000000D01*
X191000000Y-32000000D02*
X195460000Y-32000000D01*
X195460000Y-32000000D02*
X196000000Y-32540000D01*
X192620000Y-42000000D02*
X192620000Y-33620000D01*
X192620000Y-33620000D02*
X191000000Y-32000000D01*
X192620000Y-42000000D02*
X192620000Y-48620000D01*
X192620000Y-48620000D02*
X193000000Y-49000000D01*
X192620000Y-48620000D02*
X193000000Y-49000000D01*
X191000000Y-54050000D02*
X195000000Y-54050000D01*
X195000000Y-54050000D02*
X195050000Y-54000000D01*
X190000000Y-51000000D02*
X190240000Y-51000000D01*
X190240000Y-51000000D02*
X192620000Y-48620000D01*
X190000000Y-51000000D02*
X190000000Y-53000000D01*
X190000000Y-53000000D02*
X191000000Y-54000000D01*
X191000000Y-54000000D02*
X191000000Y-54050000D01*
X192620000Y-48620000D02*
X193000000Y-49000000D01*
X193000000Y-49000000D02*
X195000000Y-51000000D01*
X181500000Y-32500000D02*
X182000000Y-32500000D01*
X195050000Y-51050000D02*
X195000000Y-51000000D01*
X162000000Y-45000000D02*
X159150000Y-45000000D01*
X159150000Y-45000000D02*
X158150000Y-44000000D01*
X162000000Y-45000000D02*
X163000000Y-45000000D01*
X163270000Y-49730000D02*
X162000000Y-49730000D01*
X164000000Y-49000000D02*
X163270000Y-49730000D01*
X163000000Y-45000000D02*
X164000000Y-46000000D01*
D37*
X151850000Y-44000000D02*
X158150000Y-44000000D01*
D36*
X165354000Y-29464000D02*
X167132000Y-29464000D01*
X167132000Y-29464000D02*
X167132000Y-22352000D01*
X167132000Y-22352000D02*
X165354000Y-22352000D01*
X163576000Y-29464000D02*
X165354000Y-29464000D01*
X161798000Y-29464000D02*
X163576000Y-29464000D01*
X160020000Y-29464000D02*
X161798000Y-29464000D01*
X158242000Y-29464000D02*
X160020000Y-29464000D01*
X156464000Y-29464000D02*
X158242000Y-29464000D01*
X154686000Y-29464000D02*
X156464000Y-29464000D01*
X152908000Y-29464000D02*
X154686000Y-29464000D01*
X165354000Y-27686000D02*
X167132000Y-27686000D01*
X163576000Y-27686000D02*
X165354000Y-27686000D01*
X161798000Y-27686000D02*
X163576000Y-27686000D01*
X160020000Y-27686000D02*
X161798000Y-27686000D01*
X158242000Y-27686000D02*
X160020000Y-27686000D01*
X156464000Y-27686000D02*
X158242000Y-27686000D01*
X154686000Y-27686000D02*
X156464000Y-27686000D01*
X152908000Y-27686000D02*
X154686000Y-27686000D01*
X165354000Y-25908000D02*
X167132000Y-25908000D01*
X163576000Y-25908000D02*
X165354000Y-25908000D01*
X161798000Y-25908000D02*
X163576000Y-25908000D01*
X160020000Y-25908000D02*
X161798000Y-25908000D01*
X158242000Y-25908000D02*
X160020000Y-25908000D01*
X156464000Y-25908000D02*
X158242000Y-25908000D01*
X154686000Y-25908000D02*
X156464000Y-25908000D01*
X152908000Y-25908000D02*
X154686000Y-25908000D01*
X165354000Y-24130000D02*
X167132000Y-24130000D01*
X163576000Y-24130000D02*
X165354000Y-24130000D01*
X161798000Y-24130000D02*
X163576000Y-24130000D01*
X160020000Y-24130000D02*
X161798000Y-24130000D01*
X158242000Y-24130000D02*
X160020000Y-24130000D01*
X156464000Y-24130000D02*
X158242000Y-24130000D01*
X154686000Y-24130000D02*
X156464000Y-24130000D01*
X152908000Y-24130000D02*
X154686000Y-24130000D01*
X163576000Y-22352000D02*
X165354000Y-22352000D01*
X161798000Y-22352000D02*
X163576000Y-22352000D01*
X160020000Y-22352000D02*
X161798000Y-22352000D01*
X158242000Y-22352000D02*
X160020000Y-22352000D01*
X156464000Y-22352000D02*
X158242000Y-22352000D01*
X154686000Y-22352000D02*
X156464000Y-22352000D01*
X152908000Y-22352000D02*
X154686000Y-22352000D01*
X191000000Y-30000000D02*
X196000000Y-30000000D01*
X182000000Y-27000000D02*
X177900000Y-27000000D01*
X177900000Y-27000000D02*
X166115928Y-26937650D01*
X166115928Y-26937650D02*
X159000000Y-26900000D01*
X186200000Y-27000000D02*
X190000000Y-27000000D01*
X191000000Y-28000000D02*
X191000000Y-30000000D01*
X190000000Y-27000000D02*
X191000000Y-28000000D01*
X159100000Y-27000000D02*
X159000000Y-26900000D01*
X162000000Y-72000000D02*
X158000000Y-72000000D01*
X156975000Y-70975000D02*
X156975000Y-66700000D01*
X158000000Y-72000000D02*
X156975000Y-70975000D01*
X162000000Y-72000000D02*
X164950000Y-72000000D01*
X164950000Y-72000000D02*
X165000000Y-71950000D01*
X156325000Y-66700000D02*
X156975000Y-66700000D01*
X122428000Y-38862000D02*
X123698000Y-37592000D01*
X123698000Y-37592000D02*
X124968000Y-37592000D01*
X126238000Y-47000000D02*
X124216000Y-47000000D01*
X124216000Y-47000000D02*
X122428000Y-45212000D01*
X122428000Y-45212000D02*
X122428000Y-38862000D01*
X128346000Y-27000000D02*
X126200000Y-27000000D01*
X130556000Y-29210000D02*
X128346000Y-27000000D01*
X126000000Y-47000000D02*
X126238000Y-47000000D01*
X126238000Y-47000000D02*
X140000000Y-47000000D01*
X151000000Y-51000000D02*
X151000000Y-57950000D01*
X150000000Y-50000000D02*
X151000000Y-51000000D01*
X147000000Y-50000000D02*
X150000000Y-50000000D01*
X151000000Y-57950000D02*
X150950000Y-58000000D01*
X127050000Y-48050000D02*
X127050000Y-53000000D01*
X126000000Y-47000000D02*
X127050000Y-48050000D01*
X127000000Y-56000000D02*
X127000000Y-59240000D01*
X127000000Y-59240000D02*
X127050000Y-59290000D01*
X156325000Y-63300000D02*
X156325000Y-61675000D01*
X153050000Y-59050000D02*
X153050000Y-58000000D01*
X154000000Y-60000000D02*
X153050000Y-59050000D01*
X157000000Y-61000000D02*
X157000000Y-60000000D01*
X156325000Y-61675000D02*
X157000000Y-61000000D01*
X150950000Y-58000000D02*
X153050000Y-58000000D01*
X127050000Y-53000000D02*
X127050000Y-55950000D01*
X127050000Y-55950000D02*
X127000000Y-56000000D01*
X127050000Y-56050000D02*
X127000000Y-56000000D01*
X151000000Y-58000000D02*
X150950000Y-58000000D01*
X153050000Y-58000000D02*
X153000000Y-58000000D01*
X150950000Y-57950000D02*
X150950000Y-58000000D01*
X162000000Y-52270000D02*
X166190000Y-52270000D01*
X166190000Y-52270000D02*
X166460000Y-52000000D01*
X131058000Y-35058000D02*
X128022000Y-35058000D01*
X123444000Y-35052000D02*
X122000000Y-33608000D01*
X128022000Y-35058000D02*
X128016000Y-35052000D01*
X122000000Y-33608000D02*
X122000000Y-32500000D01*
X146000000Y-51000000D02*
X146000000Y-57000000D01*
X141000000Y-46000000D02*
X146000000Y-51000000D01*
X141000000Y-42000000D02*
X141000000Y-46000000D01*
X140000000Y-41000000D02*
X141000000Y-42000000D01*
X134000000Y-41000000D02*
X140000000Y-41000000D01*
X133000000Y-40000000D02*
X134000000Y-41000000D01*
X133000000Y-37000000D02*
X133000000Y-40000000D01*
X131000000Y-35000000D02*
X131058000Y-35058000D01*
X131058000Y-35058000D02*
X133000000Y-37000000D01*
X146000000Y-57000000D02*
X148050000Y-57000000D01*
X148050000Y-57000000D02*
X149050000Y-58000000D01*
X155675000Y-63300000D02*
X155675000Y-61325000D01*
X149000000Y-60000000D02*
X149000000Y-58050000D01*
X150000000Y-61000000D02*
X149000000Y-60000000D01*
X155675000Y-61325000D02*
X156000000Y-61000000D01*
X149000000Y-58050000D02*
X149050000Y-58000000D01*
X149050000Y-58000000D02*
X149050000Y-58050000D01*
X130082000Y-39082000D02*
X127474000Y-39082000D01*
X126200000Y-37808000D02*
X126200000Y-32500000D01*
X127474000Y-39082000D02*
X126200000Y-37808000D01*
X146000000Y-64000000D02*
X148000000Y-64000000D01*
X144000000Y-62000000D02*
X146000000Y-64000000D01*
X143000000Y-49000000D02*
X143000000Y-58000000D01*
X140000000Y-46000000D02*
X143000000Y-49000000D01*
X140000000Y-43000000D02*
X140000000Y-46000000D01*
X139000000Y-42000000D02*
X140000000Y-43000000D01*
X134000000Y-42000000D02*
X139000000Y-42000000D01*
X133000000Y-41000000D02*
X134000000Y-42000000D01*
X132000000Y-41000000D02*
X133000000Y-41000000D01*
X130000000Y-39000000D02*
X130082000Y-39082000D01*
X130082000Y-39082000D02*
X132000000Y-41000000D01*
X148000000Y-64000000D02*
X150884000Y-64000000D01*
X151584000Y-63300000D02*
X154875000Y-63300000D01*
X150884000Y-64000000D02*
X151584000Y-63300000D01*
X154875000Y-63300000D02*
X154950000Y-63225000D01*
X154950000Y-63225000D02*
X155025000Y-63300000D01*
X154950000Y-58000000D02*
X154950000Y-63225000D01*
X154950000Y-63225000D02*
X155025000Y-63300000D01*
X160725000Y-64275000D02*
X162050000Y-64275000D01*
X160000000Y-65000000D02*
X160725000Y-64275000D01*
X160000000Y-66000000D02*
X160000000Y-65000000D01*
X160000000Y-67000000D02*
X160000000Y-66000000D01*
X159000000Y-68000000D02*
X160000000Y-67000000D01*
X142000000Y-67000000D02*
X142000000Y-68000000D01*
X160000000Y-69000000D02*
X159000000Y-68000000D01*
X160000000Y-70000000D02*
X160000000Y-69000000D01*
X159000000Y-71000000D02*
X160000000Y-70000000D01*
X145000000Y-71000000D02*
X155000000Y-71000000D01*
X142000000Y-68000000D02*
X145000000Y-71000000D01*
X140160000Y-67320000D02*
X141680000Y-67320000D01*
X144460000Y-59540000D02*
X146000000Y-59540000D01*
X143000000Y-61000000D02*
X144460000Y-59540000D01*
X141680000Y-67320000D02*
X142000000Y-67000000D01*
X142000000Y-67000000D02*
X143000000Y-66000000D01*
X155675000Y-66700000D02*
X155675000Y-68675000D01*
X155675000Y-68675000D02*
X156000000Y-69000000D01*
X158000000Y-69000000D02*
X159000000Y-68000000D01*
X162050000Y-64275000D02*
X163225000Y-64275000D01*
X163225000Y-64275000D02*
X165000000Y-66050000D01*
X139840000Y-67000000D02*
X140160000Y-67320000D01*
X145680000Y-59860000D02*
X146000000Y-59540000D01*
X146540000Y-59000000D02*
X146000000Y-59540000D01*
X162000000Y-64325000D02*
X162050000Y-64275000D01*
X140000000Y-68000000D02*
X140000000Y-67000000D01*
X162050000Y-63625000D02*
X163625000Y-63625000D01*
X162950000Y-66050000D02*
X162000000Y-66050000D01*
X163000000Y-66000000D02*
X162950000Y-66050000D01*
X163625000Y-63625000D02*
X164000000Y-64000000D01*
X148000000Y-66540000D02*
X151376000Y-66540000D01*
X151536000Y-66700000D02*
X155025000Y-66700000D01*
X151376000Y-66540000D02*
X151536000Y-66700000D01*
X140160000Y-64780000D02*
X142780000Y-64780000D01*
X144540000Y-66540000D02*
X148000000Y-66540000D01*
X142780000Y-64780000D02*
X144540000Y-66540000D01*
X162050000Y-63625000D02*
X160375000Y-63625000D01*
X155000000Y-69000000D02*
X155000000Y-66725000D01*
X156000000Y-70000000D02*
X155000000Y-69000000D01*
X160375000Y-63625000D02*
X159000000Y-65000000D01*
X155000000Y-66725000D02*
X155025000Y-66700000D01*
X155000000Y-66725000D02*
X155025000Y-66700000D01*
X155025000Y-66700000D02*
X155025000Y-66975000D01*
X147760000Y-66780000D02*
X148000000Y-66540000D01*
X140160000Y-62240000D02*
X140160000Y-64780000D01*
X167950000Y-64275000D02*
X167950000Y-71950000D01*
X169000000Y-73000000D02*
X170050000Y-73000000D01*
X167950000Y-71950000D02*
X169000000Y-73000000D01*
X161000000Y-56950000D02*
X161000000Y-58675000D01*
X161000000Y-58675000D02*
X162050000Y-59725000D01*
X167950000Y-63625000D02*
X169625000Y-63625000D01*
X172950000Y-71000000D02*
X174000000Y-72050000D01*
X171000000Y-71000000D02*
X172950000Y-71000000D01*
X170000000Y-70000000D02*
X171000000Y-71000000D01*
X170000000Y-64000000D02*
X170000000Y-70000000D01*
X169625000Y-63625000D02*
X170000000Y-64000000D01*
X174000000Y-72050000D02*
X174000000Y-72000000D01*
X167950000Y-62325000D02*
X170325000Y-62325000D01*
X172000000Y-64000000D02*
X172000000Y-65050000D01*
X170325000Y-62325000D02*
X172000000Y-64000000D01*
X176950000Y-63000000D02*
X177000000Y-63000000D01*
X177000000Y-63000000D02*
X181000000Y-63000000D01*
X181000000Y-63000000D02*
X185000000Y-63000000D01*
X185000000Y-63000000D02*
X185730000Y-62270000D01*
X185730000Y-62270000D02*
X185730000Y-59300000D01*
X184338000Y-53340000D02*
X184390000Y-53340000D01*
X184390000Y-53340000D02*
X187000000Y-55950000D01*
X187000000Y-55950000D02*
X187000000Y-56000000D01*
X187000000Y-56000000D02*
X188270000Y-57270000D01*
X188270000Y-57270000D02*
X188270000Y-59300000D01*
X132000000Y-53050000D02*
X133050000Y-53050000D01*
X132710000Y-59290000D02*
X128950000Y-59290000D01*
X134000000Y-58000000D02*
X132710000Y-59290000D01*
X134000000Y-54000000D02*
X134000000Y-58000000D01*
X133050000Y-53050000D02*
X134000000Y-54000000D01*
X128950000Y-53000000D02*
X131950000Y-53000000D01*
X131950000Y-53000000D02*
X132000000Y-53050000D01*
X132000000Y-43000000D02*
X136000000Y-43000000D01*
X136000000Y-43000000D02*
X136000000Y-43050000D01*
X120000000Y-54000000D02*
X119950000Y-54050000D01*
X120050000Y-52000000D02*
X120000000Y-52000000D01*
X172720000Y-56200000D02*
X172720000Y-55626000D01*
X172720000Y-55626000D02*
X171974000Y-54880000D01*
X171974000Y-54880000D02*
X171974000Y-46228000D01*
X170180000Y-58944000D02*
X170180000Y-58740000D01*
X170180000Y-58740000D02*
X172720000Y-56200000D01*
X171974000Y-46228000D02*
X172000000Y-45000000D01*
X172000000Y-45000000D02*
X165100000Y-38100000D01*
X165100000Y-38100000D02*
X157988000Y-38100000D01*
X157988000Y-38100000D02*
X156720000Y-36832000D01*
X156720000Y-36832000D02*
X156720000Y-33200000D01*
X175044000Y-57950000D02*
X172870000Y-57950000D01*
X172870000Y-57950000D02*
X172720000Y-58100000D01*
X174498000Y-53086000D02*
X174498000Y-57150000D01*
X174498000Y-57150000D02*
X175298000Y-57950000D01*
X175298000Y-57950000D02*
X175044000Y-57950000D01*
X175044000Y-57950000D02*
X175006000Y-57912000D01*
X175006000Y-57912000D02*
X175006000Y-57950000D01*
X174498000Y-53086000D02*
X174070000Y-53086000D01*
X175006000Y-57950000D02*
X175950000Y-57950000D01*
X181000000Y-59000000D02*
X183190000Y-59190000D01*
X175950000Y-57950000D02*
X177000000Y-59000000D01*
X183190000Y-59190000D02*
X183190000Y-59300000D01*
G36*
X182291091Y-18489041D02*
X181965372Y-19273459D01*
X181964630Y-20122815D01*
X182288980Y-20907800D01*
X182889041Y-21508909D01*
X183673459Y-21834628D01*
X184522815Y-21835370D01*
X185307800Y-21511020D01*
X185908909Y-20910959D01*
X186234628Y-20126541D01*
X186235370Y-19277185D01*
X185911020Y-18492200D01*
X185580397Y-18161000D01*
X187833000Y-18161000D01*
X187833000Y-28829000D01*
X175260000Y-28829000D01*
X175210590Y-28839006D01*
X175168965Y-28867447D01*
X175141685Y-28909841D01*
X175133000Y-28956000D01*
X175133000Y-30861000D01*
X144145000Y-30861000D01*
X144145000Y-18161000D01*
X182619705Y-18161000D01*
X182291091Y-18489041D01*
X182291091Y-18489041D01*
G37*
X182291091Y-18489041D02*
X181965372Y-19273459D01*
X181964630Y-20122815D01*
X182288980Y-20907800D01*
X182889041Y-21508909D01*
X183673459Y-21834628D01*
X184522815Y-21835370D01*
X185307800Y-21511020D01*
X185908909Y-20910959D01*
X186234628Y-20126541D01*
X186235370Y-19277185D01*
X185911020Y-18492200D01*
X185580397Y-18161000D01*
X187833000Y-18161000D01*
X187833000Y-28829000D01*
X175260000Y-28829000D01*
X175210590Y-28839006D01*
X175168965Y-28867447D01*
X175141685Y-28909841D01*
X175133000Y-28956000D01*
X175133000Y-30861000D01*
X144145000Y-30861000D01*
X144145000Y-18161000D01*
X182619705Y-18161000D01*
X182291091Y-18489041D01*
G36*
X179996197Y-38189803D02*
X180038211Y-38217666D01*
X180086000Y-38227000D01*
X187833000Y-38227000D01*
X187833000Y-45593000D01*
X176149000Y-45593000D01*
X176149000Y-40132000D01*
X176138994Y-40082590D01*
X176111803Y-40042197D01*
X172809803Y-36740197D01*
X172767789Y-36712334D01*
X172720000Y-36703000D01*
X159893000Y-36703000D01*
X159893000Y-32131000D01*
X173937394Y-32131000D01*
X179996197Y-38189803D01*
X179996197Y-38189803D01*
G37*
X179996197Y-38189803D02*
X180038211Y-38217666D01*
X180086000Y-38227000D01*
X187833000Y-38227000D01*
X187833000Y-45593000D01*
X176149000Y-45593000D01*
X176149000Y-40132000D01*
X176138994Y-40082590D01*
X176111803Y-40042197D01*
X172809803Y-36740197D01*
X172767789Y-36712334D01*
X172720000Y-36703000D01*
X159893000Y-36703000D01*
X159893000Y-32131000D01*
X173937394Y-32131000D01*
X179996197Y-38189803D01*
G36*
X188886197Y-31077803D02*
X188928211Y-31105666D01*
X188976000Y-31115000D01*
X190214806Y-31115000D01*
X190375000Y-31147440D01*
X191625000Y-31147440D01*
X191797404Y-31115000D01*
X192987394Y-31115000D01*
X193421000Y-31548606D01*
X193421000Y-35052000D01*
X193431006Y-35101410D01*
X193458197Y-35141803D01*
X194437000Y-36120606D01*
X194437000Y-45593000D01*
X190627000Y-45593000D01*
X190627000Y-36576000D01*
X190616994Y-36526590D01*
X190589803Y-36486197D01*
X189065803Y-34962197D01*
X189023789Y-34934334D01*
X188976000Y-34925000D01*
X179959000Y-34925000D01*
X179959000Y-30099000D01*
X187907394Y-30099000D01*
X188886197Y-31077803D01*
X188886197Y-31077803D01*
G37*
X188886197Y-31077803D02*
X188928211Y-31105666D01*
X188976000Y-31115000D01*
X190214806Y-31115000D01*
X190375000Y-31147440D01*
X191625000Y-31147440D01*
X191797404Y-31115000D01*
X192987394Y-31115000D01*
X193421000Y-31548606D01*
X193421000Y-35052000D01*
X193431006Y-35101410D01*
X193458197Y-35141803D01*
X194437000Y-36120606D01*
X194437000Y-45593000D01*
X190627000Y-45593000D01*
X190627000Y-36576000D01*
X190616994Y-36526590D01*
X190589803Y-36486197D01*
X189065803Y-34962197D01*
X189023789Y-34934334D01*
X188976000Y-34925000D01*
X179959000Y-34925000D01*
X179959000Y-30099000D01*
X187907394Y-30099000D01*
X188886197Y-31077803D01*
M02*
