G04 #@! TF.FileFunction,Legend,Top*
%FSLAX46Y46*%
G04 Gerber Fmt 4.6, Leading zero omitted, Abs format (unit mm)*
G04 Created by KiCad (PCBNEW 4.0.7-e2-6376~58~ubuntu16.04.1) date Fri Mar 30 11:42:14 2018*
%MOMM*%
%LPD*%
G01*
G04 APERTURE LIST*
%ADD10C,0.100000*%
%ADD11C,0.190500*%
%ADD12C,0.120000*%
%ADD13C,0.150000*%
%ADD14C,0.010000*%
%ADD15C,0.304800*%
G04 APERTURE END LIST*
D10*
D11*
X130356429Y-34435142D02*
X130392714Y-34326285D01*
X130392714Y-34144856D01*
X130356429Y-34072285D01*
X130320143Y-34035999D01*
X130247571Y-33999714D01*
X130175000Y-33999714D01*
X130102429Y-34035999D01*
X130066143Y-34072285D01*
X130029857Y-34144856D01*
X129993571Y-34289999D01*
X129957286Y-34362571D01*
X129921000Y-34398856D01*
X129848429Y-34435142D01*
X129775857Y-34435142D01*
X129703286Y-34398856D01*
X129667000Y-34362571D01*
X129630714Y-34289999D01*
X129630714Y-34108571D01*
X129667000Y-33999714D01*
X130392714Y-33673142D02*
X129630714Y-33673142D01*
X129630714Y-33491714D01*
X129667000Y-33382857D01*
X129739571Y-33310285D01*
X129812143Y-33274000D01*
X129957286Y-33237714D01*
X130066143Y-33237714D01*
X130211286Y-33274000D01*
X130283857Y-33310285D01*
X130356429Y-33382857D01*
X130392714Y-33491714D01*
X130392714Y-33673142D01*
X130175000Y-32947428D02*
X130175000Y-32584571D01*
X130392714Y-33020000D02*
X129630714Y-32766000D01*
X130392714Y-32512000D01*
X130465286Y-32439428D02*
X130465286Y-31858857D01*
X130392714Y-31314571D02*
X130392714Y-31677428D01*
X129630714Y-31677428D01*
X129630714Y-30915429D02*
X129630714Y-30770286D01*
X129667000Y-30697714D01*
X129739571Y-30625143D01*
X129884714Y-30588857D01*
X130138714Y-30588857D01*
X130283857Y-30625143D01*
X130356429Y-30697714D01*
X130392714Y-30770286D01*
X130392714Y-30915429D01*
X130356429Y-30988000D01*
X130283857Y-31060571D01*
X130138714Y-31096857D01*
X129884714Y-31096857D01*
X129739571Y-31060571D01*
X129667000Y-30988000D01*
X129630714Y-30915429D01*
X130465286Y-26125714D02*
X129703286Y-26379714D01*
X130465286Y-26633714D01*
X129703286Y-27323143D02*
X130066143Y-27069143D01*
X129703286Y-26887715D02*
X130465286Y-26887715D01*
X130465286Y-27178000D01*
X130429000Y-27250572D01*
X130392714Y-27286857D01*
X130320143Y-27323143D01*
X130211286Y-27323143D01*
X130138714Y-27286857D01*
X130102429Y-27250572D01*
X130066143Y-27178000D01*
X130066143Y-26887715D01*
X130102429Y-27649715D02*
X130102429Y-27903715D01*
X129703286Y-28012572D02*
X129703286Y-27649715D01*
X130465286Y-27649715D01*
X130465286Y-28012572D01*
X130102429Y-28593144D02*
X130102429Y-28339144D01*
X129703286Y-28339144D02*
X130465286Y-28339144D01*
X130465286Y-28702001D01*
X117656429Y-34416999D02*
X117692714Y-34308142D01*
X117692714Y-34126713D01*
X117656429Y-34054142D01*
X117620143Y-34017856D01*
X117547571Y-33981571D01*
X117475000Y-33981571D01*
X117402429Y-34017856D01*
X117366143Y-34054142D01*
X117329857Y-34126713D01*
X117293571Y-34271856D01*
X117257286Y-34344428D01*
X117221000Y-34380713D01*
X117148429Y-34416999D01*
X117075857Y-34416999D01*
X117003286Y-34380713D01*
X116967000Y-34344428D01*
X116930714Y-34271856D01*
X116930714Y-34090428D01*
X116967000Y-33981571D01*
X117620143Y-33219571D02*
X117656429Y-33255857D01*
X117692714Y-33364714D01*
X117692714Y-33437285D01*
X117656429Y-33546142D01*
X117583857Y-33618714D01*
X117511286Y-33654999D01*
X117366143Y-33691285D01*
X117257286Y-33691285D01*
X117112143Y-33654999D01*
X117039571Y-33618714D01*
X116967000Y-33546142D01*
X116930714Y-33437285D01*
X116930714Y-33364714D01*
X116967000Y-33255857D01*
X117003286Y-33219571D01*
X117692714Y-32530142D02*
X117692714Y-32892999D01*
X116930714Y-32892999D01*
X117765286Y-32457571D02*
X117765286Y-31877000D01*
X117692714Y-31332714D02*
X117692714Y-31695571D01*
X116930714Y-31695571D01*
X116930714Y-30933572D02*
X116930714Y-30788429D01*
X116967000Y-30715857D01*
X117039571Y-30643286D01*
X117184714Y-30607000D01*
X117438714Y-30607000D01*
X117583857Y-30643286D01*
X117656429Y-30715857D01*
X117692714Y-30788429D01*
X117692714Y-30933572D01*
X117656429Y-31006143D01*
X117583857Y-31078714D01*
X117438714Y-31115000D01*
X117184714Y-31115000D01*
X117039571Y-31078714D01*
X116967000Y-31006143D01*
X116930714Y-30933572D01*
X116967000Y-28012572D02*
X116930714Y-28085143D01*
X116930714Y-28194000D01*
X116967000Y-28302857D01*
X117039571Y-28375429D01*
X117112143Y-28411714D01*
X117257286Y-28448000D01*
X117366143Y-28448000D01*
X117511286Y-28411714D01*
X117583857Y-28375429D01*
X117656429Y-28302857D01*
X117692714Y-28194000D01*
X117692714Y-28121429D01*
X117656429Y-28012572D01*
X117620143Y-27976286D01*
X117366143Y-27976286D01*
X117366143Y-28121429D01*
X117692714Y-27649714D02*
X116930714Y-27649714D01*
X117692714Y-27214286D01*
X116930714Y-27214286D01*
X117692714Y-26851428D02*
X116930714Y-26851428D01*
X116930714Y-26670000D01*
X116967000Y-26561143D01*
X117039571Y-26488571D01*
X117112143Y-26452286D01*
X117257286Y-26416000D01*
X117366143Y-26416000D01*
X117511286Y-26452286D01*
X117583857Y-26488571D01*
X117656429Y-26561143D01*
X117692714Y-26670000D01*
X117692714Y-26851428D01*
X142802429Y-31242000D02*
X142802429Y-30661429D01*
X143092714Y-30951715D02*
X142512143Y-30951715D01*
X142330714Y-30407429D02*
X143092714Y-30153429D01*
X142330714Y-29899429D01*
X143056429Y-29318857D02*
X143092714Y-29391428D01*
X143092714Y-29536571D01*
X143056429Y-29609143D01*
X143020143Y-29645428D01*
X142947571Y-29681714D01*
X142729857Y-29681714D01*
X142657286Y-29645428D01*
X142621000Y-29609143D01*
X142584714Y-29536571D01*
X142584714Y-29391428D01*
X142621000Y-29318857D01*
X143056429Y-28665714D02*
X143092714Y-28738285D01*
X143092714Y-28883428D01*
X143056429Y-28956000D01*
X143020143Y-28992285D01*
X142947571Y-29028571D01*
X142729857Y-29028571D01*
X142657286Y-28992285D01*
X142621000Y-28956000D01*
X142584714Y-28883428D01*
X142584714Y-28738285D01*
X142621000Y-28665714D01*
X131372429Y-31242000D02*
X131372429Y-30661429D01*
X130900714Y-30407429D02*
X131662714Y-30153429D01*
X130900714Y-29899429D01*
X131626429Y-29318857D02*
X131662714Y-29391428D01*
X131662714Y-29536571D01*
X131626429Y-29609143D01*
X131590143Y-29645428D01*
X131517571Y-29681714D01*
X131299857Y-29681714D01*
X131227286Y-29645428D01*
X131191000Y-29609143D01*
X131154714Y-29536571D01*
X131154714Y-29391428D01*
X131191000Y-29318857D01*
X131626429Y-28665714D02*
X131662714Y-28738285D01*
X131662714Y-28883428D01*
X131626429Y-28956000D01*
X131590143Y-28992285D01*
X131517571Y-29028571D01*
X131299857Y-29028571D01*
X131227286Y-28992285D01*
X131191000Y-28956000D01*
X131154714Y-28883428D01*
X131154714Y-28738285D01*
X131191000Y-28665714D01*
X143129000Y-25581428D02*
X143165286Y-25508857D01*
X143165286Y-25400000D01*
X143129000Y-25291143D01*
X143056429Y-25218571D01*
X142983857Y-25182286D01*
X142838714Y-25146000D01*
X142729857Y-25146000D01*
X142584714Y-25182286D01*
X142512143Y-25218571D01*
X142439571Y-25291143D01*
X142403286Y-25400000D01*
X142403286Y-25472571D01*
X142439571Y-25581428D01*
X142475857Y-25617714D01*
X142729857Y-25617714D01*
X142729857Y-25472571D01*
X142403286Y-25944286D02*
X143165286Y-25944286D01*
X142403286Y-26379714D01*
X143165286Y-26379714D01*
X142403286Y-26742572D02*
X143165286Y-26742572D01*
X143165286Y-26924000D01*
X143129000Y-27032857D01*
X143056429Y-27105429D01*
X142983857Y-27141714D01*
X142838714Y-27178000D01*
X142729857Y-27178000D01*
X142584714Y-27141714D01*
X142512143Y-27105429D01*
X142439571Y-27032857D01*
X142403286Y-26924000D01*
X142403286Y-26742572D01*
X130937000Y-26742572D02*
X130900714Y-26815143D01*
X130900714Y-26924000D01*
X130937000Y-27032857D01*
X131009571Y-27105429D01*
X131082143Y-27141714D01*
X131227286Y-27178000D01*
X131336143Y-27178000D01*
X131481286Y-27141714D01*
X131553857Y-27105429D01*
X131626429Y-27032857D01*
X131662714Y-26924000D01*
X131662714Y-26851429D01*
X131626429Y-26742572D01*
X131590143Y-26706286D01*
X131336143Y-26706286D01*
X131336143Y-26851429D01*
X131662714Y-26379714D02*
X130900714Y-26379714D01*
X131662714Y-25944286D01*
X130900714Y-25944286D01*
X131662714Y-25581428D02*
X130900714Y-25581428D01*
X130900714Y-25400000D01*
X130937000Y-25291143D01*
X131009571Y-25218571D01*
X131082143Y-25182286D01*
X131227286Y-25146000D01*
X131336143Y-25146000D01*
X131481286Y-25182286D01*
X131553857Y-25218571D01*
X131626429Y-25291143D01*
X131662714Y-25400000D01*
X131662714Y-25581428D01*
X107768573Y-58943119D02*
X108107240Y-59959119D01*
X108445906Y-58943119D01*
X109220001Y-59959119D02*
X109220001Y-59426929D01*
X109171620Y-59330167D01*
X109074858Y-59281786D01*
X108881335Y-59281786D01*
X108784573Y-59330167D01*
X109220001Y-59910738D02*
X109123239Y-59959119D01*
X108881335Y-59959119D01*
X108784573Y-59910738D01*
X108736192Y-59813976D01*
X108736192Y-59717214D01*
X108784573Y-59620452D01*
X108881335Y-59572071D01*
X109123239Y-59572071D01*
X109220001Y-59523690D01*
X109703811Y-59959119D02*
X109703811Y-59281786D01*
X109703811Y-59475310D02*
X109752192Y-59378548D01*
X109800573Y-59330167D01*
X109897335Y-59281786D01*
X109994096Y-59281786D01*
X110332763Y-59959119D02*
X110332763Y-59281786D01*
X110332763Y-58943119D02*
X110284382Y-58991500D01*
X110332763Y-59039881D01*
X110381144Y-58991500D01*
X110332763Y-58943119D01*
X110332763Y-59039881D01*
X111252001Y-59959119D02*
X111252001Y-59426929D01*
X111203620Y-59330167D01*
X111106858Y-59281786D01*
X110913335Y-59281786D01*
X110816573Y-59330167D01*
X111252001Y-59910738D02*
X111155239Y-59959119D01*
X110913335Y-59959119D01*
X110816573Y-59910738D01*
X110768192Y-59813976D01*
X110768192Y-59717214D01*
X110816573Y-59620452D01*
X110913335Y-59572071D01*
X111155239Y-59572071D01*
X111252001Y-59523690D01*
X111735811Y-59959119D02*
X111735811Y-58943119D01*
X111735811Y-59330167D02*
X111832573Y-59281786D01*
X112026096Y-59281786D01*
X112122858Y-59330167D01*
X112171239Y-59378548D01*
X112219620Y-59475310D01*
X112219620Y-59765595D01*
X112171239Y-59862357D01*
X112122858Y-59910738D01*
X112026096Y-59959119D01*
X111832573Y-59959119D01*
X111735811Y-59910738D01*
X112800192Y-59959119D02*
X112703430Y-59910738D01*
X112655049Y-59813976D01*
X112655049Y-58943119D01*
X113574286Y-59910738D02*
X113477524Y-59959119D01*
X113284001Y-59959119D01*
X113187239Y-59910738D01*
X113138858Y-59813976D01*
X113138858Y-59426929D01*
X113187239Y-59330167D01*
X113284001Y-59281786D01*
X113477524Y-59281786D01*
X113574286Y-59330167D01*
X113622667Y-59426929D01*
X113622667Y-59523690D01*
X113138858Y-59620452D01*
X114977334Y-59959119D02*
X114880572Y-59910738D01*
X114832191Y-59813976D01*
X114832191Y-58943119D01*
X115509524Y-59959119D02*
X115412762Y-59910738D01*
X115364381Y-59862357D01*
X115316000Y-59765595D01*
X115316000Y-59475310D01*
X115364381Y-59378548D01*
X115412762Y-59330167D01*
X115509524Y-59281786D01*
X115654666Y-59281786D01*
X115751428Y-59330167D01*
X115799809Y-59378548D01*
X115848190Y-59475310D01*
X115848190Y-59765595D01*
X115799809Y-59862357D01*
X115751428Y-59910738D01*
X115654666Y-59959119D01*
X115509524Y-59959119D01*
X116719047Y-59959119D02*
X116719047Y-59426929D01*
X116670666Y-59330167D01*
X116573904Y-59281786D01*
X116380381Y-59281786D01*
X116283619Y-59330167D01*
X116719047Y-59910738D02*
X116622285Y-59959119D01*
X116380381Y-59959119D01*
X116283619Y-59910738D01*
X116235238Y-59813976D01*
X116235238Y-59717214D01*
X116283619Y-59620452D01*
X116380381Y-59572071D01*
X116622285Y-59572071D01*
X116719047Y-59523690D01*
X117638285Y-59959119D02*
X117638285Y-58943119D01*
X117638285Y-59910738D02*
X117541523Y-59959119D01*
X117348000Y-59959119D01*
X117251238Y-59910738D01*
X117202857Y-59862357D01*
X117154476Y-59765595D01*
X117154476Y-59475310D01*
X117202857Y-59378548D01*
X117251238Y-59330167D01*
X117348000Y-59281786D01*
X117541523Y-59281786D01*
X117638285Y-59330167D01*
X107816954Y-61673619D02*
X107816954Y-60657619D01*
X108397525Y-61673619D01*
X108397525Y-60657619D01*
X109268382Y-61625238D02*
X109171620Y-61673619D01*
X108978097Y-61673619D01*
X108881335Y-61625238D01*
X108832954Y-61528476D01*
X108832954Y-61141429D01*
X108881335Y-61044667D01*
X108978097Y-60996286D01*
X109171620Y-60996286D01*
X109268382Y-61044667D01*
X109316763Y-61141429D01*
X109316763Y-61238190D01*
X108832954Y-61334952D01*
X109752192Y-61673619D02*
X109752192Y-60657619D01*
X110187620Y-61673619D02*
X110187620Y-61141429D01*
X110139239Y-61044667D01*
X110042477Y-60996286D01*
X109897335Y-60996286D01*
X109800573Y-61044667D01*
X109752192Y-61093048D01*
X111106858Y-61673619D02*
X111106858Y-61141429D01*
X111058477Y-61044667D01*
X110961715Y-60996286D01*
X110768192Y-60996286D01*
X110671430Y-61044667D01*
X111106858Y-61625238D02*
X111010096Y-61673619D01*
X110768192Y-61673619D01*
X110671430Y-61625238D01*
X110623049Y-61528476D01*
X110623049Y-61431714D01*
X110671430Y-61334952D01*
X110768192Y-61286571D01*
X111010096Y-61286571D01*
X111106858Y-61238190D01*
X112316382Y-61625238D02*
X112461525Y-61673619D01*
X112703429Y-61673619D01*
X112800191Y-61625238D01*
X112848572Y-61576857D01*
X112896953Y-61480095D01*
X112896953Y-61383333D01*
X112848572Y-61286571D01*
X112800191Y-61238190D01*
X112703429Y-61189810D01*
X112509906Y-61141429D01*
X112413144Y-61093048D01*
X112364763Y-61044667D01*
X112316382Y-60947905D01*
X112316382Y-60851143D01*
X112364763Y-60754381D01*
X112413144Y-60706000D01*
X112509906Y-60657619D01*
X112751810Y-60657619D01*
X112896953Y-60706000D01*
X113767810Y-61673619D02*
X113767810Y-61141429D01*
X113719429Y-61044667D01*
X113622667Y-60996286D01*
X113429144Y-60996286D01*
X113332382Y-61044667D01*
X113767810Y-61625238D02*
X113671048Y-61673619D01*
X113429144Y-61673619D01*
X113332382Y-61625238D01*
X113284001Y-61528476D01*
X113284001Y-61431714D01*
X113332382Y-61334952D01*
X113429144Y-61286571D01*
X113671048Y-61286571D01*
X113767810Y-61238190D01*
X114251620Y-60996286D02*
X114251620Y-61673619D01*
X114251620Y-61093048D02*
X114300001Y-61044667D01*
X114396763Y-60996286D01*
X114541905Y-60996286D01*
X114638667Y-61044667D01*
X114687048Y-61141429D01*
X114687048Y-61673619D01*
X115025715Y-60996286D02*
X115412763Y-60996286D01*
X115170858Y-60657619D02*
X115170858Y-61528476D01*
X115219239Y-61625238D01*
X115316001Y-61673619D01*
X115412763Y-61673619D01*
X115751429Y-60996286D02*
X115751429Y-62012286D01*
X115751429Y-61044667D02*
X115848191Y-60996286D01*
X116041714Y-60996286D01*
X116138476Y-61044667D01*
X116186857Y-61093048D01*
X116235238Y-61189810D01*
X116235238Y-61480095D01*
X116186857Y-61576857D01*
X116138476Y-61625238D01*
X116041714Y-61673619D01*
X115848191Y-61673619D01*
X115751429Y-61625238D01*
X117106095Y-60996286D02*
X117106095Y-61673619D01*
X116670667Y-60996286D02*
X116670667Y-61528476D01*
X116719048Y-61625238D01*
X116815810Y-61673619D01*
X116960952Y-61673619D01*
X117057714Y-61625238D01*
X117106095Y-61576857D01*
X117589905Y-61673619D02*
X117589905Y-60996286D01*
X117589905Y-61189810D02*
X117638286Y-61093048D01*
X117686667Y-61044667D01*
X117783429Y-60996286D01*
X117880190Y-60996286D01*
X107937906Y-62468881D02*
X107986287Y-62420500D01*
X108083049Y-62372119D01*
X108324953Y-62372119D01*
X108421715Y-62420500D01*
X108470096Y-62468881D01*
X108518477Y-62565643D01*
X108518477Y-62662405D01*
X108470096Y-62807548D01*
X107889525Y-63388119D01*
X108518477Y-63388119D01*
X109389334Y-62372119D02*
X109195811Y-62372119D01*
X109099049Y-62420500D01*
X109050668Y-62468881D01*
X108953906Y-62614024D01*
X108905525Y-62807548D01*
X108905525Y-63194595D01*
X108953906Y-63291357D01*
X109002287Y-63339738D01*
X109099049Y-63388119D01*
X109292572Y-63388119D01*
X109389334Y-63339738D01*
X109437715Y-63291357D01*
X109486096Y-63194595D01*
X109486096Y-62952690D01*
X109437715Y-62855929D01*
X109389334Y-62807548D01*
X109292572Y-62759167D01*
X109099049Y-62759167D01*
X109002287Y-62807548D01*
X108953906Y-62855929D01*
X108905525Y-62952690D01*
X110695620Y-63388119D02*
X110695620Y-62372119D01*
X111034286Y-63097833D01*
X111372953Y-62372119D01*
X111372953Y-63388119D01*
X112292191Y-63388119D02*
X112292191Y-62855929D01*
X112243810Y-62759167D01*
X112147048Y-62710786D01*
X111953525Y-62710786D01*
X111856763Y-62759167D01*
X112292191Y-63339738D02*
X112195429Y-63388119D01*
X111953525Y-63388119D01*
X111856763Y-63339738D01*
X111808382Y-63242976D01*
X111808382Y-63146214D01*
X111856763Y-63049452D01*
X111953525Y-63001071D01*
X112195429Y-63001071D01*
X112292191Y-62952690D01*
X112776001Y-63388119D02*
X112776001Y-62710786D01*
X112776001Y-62904310D02*
X112824382Y-62807548D01*
X112872763Y-62759167D01*
X112969525Y-62710786D01*
X113066286Y-62710786D01*
X114130667Y-62468881D02*
X114179048Y-62420500D01*
X114275810Y-62372119D01*
X114517714Y-62372119D01*
X114614476Y-62420500D01*
X114662857Y-62468881D01*
X114711238Y-62565643D01*
X114711238Y-62662405D01*
X114662857Y-62807548D01*
X114082286Y-63388119D01*
X114711238Y-63388119D01*
X115340191Y-62372119D02*
X115436952Y-62372119D01*
X115533714Y-62420500D01*
X115582095Y-62468881D01*
X115630476Y-62565643D01*
X115678857Y-62759167D01*
X115678857Y-63001071D01*
X115630476Y-63194595D01*
X115582095Y-63291357D01*
X115533714Y-63339738D01*
X115436952Y-63388119D01*
X115340191Y-63388119D01*
X115243429Y-63339738D01*
X115195048Y-63291357D01*
X115146667Y-63194595D01*
X115098286Y-63001071D01*
X115098286Y-62759167D01*
X115146667Y-62565643D01*
X115195048Y-62468881D01*
X115243429Y-62420500D01*
X115340191Y-62372119D01*
X116646476Y-63388119D02*
X116065905Y-63388119D01*
X116356191Y-63388119D02*
X116356191Y-62372119D01*
X116259429Y-62517262D01*
X116162667Y-62614024D01*
X116065905Y-62662405D01*
X117227048Y-62807548D02*
X117130286Y-62759167D01*
X117081905Y-62710786D01*
X117033524Y-62614024D01*
X117033524Y-62565643D01*
X117081905Y-62468881D01*
X117130286Y-62420500D01*
X117227048Y-62372119D01*
X117420571Y-62372119D01*
X117517333Y-62420500D01*
X117565714Y-62468881D01*
X117614095Y-62565643D01*
X117614095Y-62614024D01*
X117565714Y-62710786D01*
X117517333Y-62759167D01*
X117420571Y-62807548D01*
X117227048Y-62807548D01*
X117130286Y-62855929D01*
X117081905Y-62904310D01*
X117033524Y-63001071D01*
X117033524Y-63194595D01*
X117081905Y-63291357D01*
X117130286Y-63339738D01*
X117227048Y-63388119D01*
X117420571Y-63388119D01*
X117517333Y-63339738D01*
X117565714Y-63291357D01*
X117614095Y-63194595D01*
X117614095Y-63001071D01*
X117565714Y-62904310D01*
X117517333Y-62855929D01*
X117420571Y-62807548D01*
D12*
X167150000Y-55500000D02*
X167150000Y-56500000D01*
X168850000Y-56500000D02*
X168850000Y-55500000D01*
X164150000Y-55500000D02*
X164150000Y-56500000D01*
X165850000Y-56500000D02*
X165850000Y-55500000D01*
X140500000Y-35150000D02*
X139500000Y-35150000D01*
X139500000Y-36850000D02*
X140500000Y-36850000D01*
X140500000Y-38150000D02*
X139500000Y-38150000D01*
X139500000Y-39850000D02*
X140500000Y-39850000D01*
X136500000Y-35150000D02*
X135500000Y-35150000D01*
X135500000Y-36850000D02*
X136500000Y-36850000D01*
X136500000Y-38150000D02*
X135500000Y-38150000D01*
X135500000Y-39850000D02*
X136500000Y-39850000D01*
X176150000Y-72500000D02*
X176150000Y-73500000D01*
X177850000Y-73500000D02*
X177850000Y-72500000D01*
X179150000Y-72500000D02*
X179150000Y-73500000D01*
X180850000Y-73500000D02*
X180850000Y-72500000D01*
X180150000Y-67500000D02*
X180150000Y-68500000D01*
X181850000Y-68500000D02*
X181850000Y-67500000D01*
X178850000Y-68500000D02*
X178850000Y-67500000D01*
X177150000Y-67500000D02*
X177150000Y-68500000D01*
X183888000Y-55284000D02*
X182888000Y-55284000D01*
X182888000Y-56984000D02*
X183888000Y-56984000D01*
X195500000Y-61150000D02*
X194500000Y-61150000D01*
X194500000Y-62850000D02*
X195500000Y-62850000D01*
X196850000Y-59500000D02*
X196850000Y-58500000D01*
X195150000Y-58500000D02*
X195150000Y-59500000D01*
X173500000Y-60850000D02*
X174500000Y-60850000D01*
X174500000Y-59150000D02*
X173500000Y-59150000D01*
X147150000Y-44500000D02*
X147150000Y-45500000D01*
X148850000Y-45500000D02*
X148850000Y-44500000D01*
X178850000Y-53500000D02*
X178850000Y-52500000D01*
X177150000Y-52500000D02*
X177150000Y-53500000D01*
X189500000Y-50150000D02*
X188500000Y-50150000D01*
X188500000Y-51850000D02*
X189500000Y-51850000D01*
X182126000Y-51650000D02*
X183126000Y-51650000D01*
X183126000Y-49950000D02*
X182126000Y-49950000D01*
X172474000Y-47078000D02*
X173474000Y-47078000D01*
X173474000Y-45378000D02*
X172474000Y-45378000D01*
X196500000Y-50150000D02*
X195500000Y-50150000D01*
X195500000Y-51850000D02*
X196500000Y-51850000D01*
X161150000Y-43500000D02*
X161150000Y-44500000D01*
X162850000Y-44500000D02*
X162850000Y-43500000D01*
X191850000Y-31500000D02*
X191850000Y-30500000D01*
X190150000Y-30500000D02*
X190150000Y-31500000D01*
X162850000Y-71500000D02*
X162850000Y-70500000D01*
X161150000Y-70500000D02*
X161150000Y-71500000D01*
X127500000Y-66850000D02*
X128500000Y-66850000D01*
X128500000Y-65150000D02*
X127500000Y-65150000D01*
X128500000Y-55150000D02*
X127500000Y-55150000D01*
X127500000Y-56850000D02*
X128500000Y-56850000D01*
X133000000Y-26050000D02*
X132150000Y-26050000D01*
X132150000Y-26050000D02*
X132150000Y-12950000D01*
X132150000Y-12950000D02*
X137100000Y-12950000D01*
X141200000Y-26050000D02*
X142050000Y-26050000D01*
X142050000Y-26050000D02*
X142050000Y-12950000D01*
X142050000Y-12950000D02*
X137100000Y-12950000D01*
X134700000Y-28800000D02*
X134700000Y-30700000D01*
X135300000Y-28800000D02*
X135300000Y-30700000D01*
X138900000Y-28800000D02*
X138900000Y-30700000D01*
X139500000Y-28800000D02*
X139500000Y-30700000D01*
X136800000Y-26000000D02*
X137400000Y-26000000D01*
X133000000Y-27000000D02*
X132400000Y-27300000D01*
X132400000Y-27300000D02*
X132400000Y-26700000D01*
X132400000Y-26700000D02*
X133000000Y-27000000D01*
X165130000Y-50670000D02*
X165130000Y-53330000D01*
X167730000Y-50670000D02*
X165130000Y-50670000D01*
X167730000Y-53330000D02*
X165130000Y-53330000D01*
X167730000Y-50670000D02*
X167730000Y-53330000D01*
X169000000Y-50670000D02*
X170330000Y-50670000D01*
X170330000Y-50670000D02*
X170330000Y-52000000D01*
X161110000Y-49090000D02*
X161110000Y-52910000D01*
X161110000Y-52910000D02*
X162890000Y-52910000D01*
X162890000Y-52910000D02*
X162890000Y-49090000D01*
X161110000Y-49090000D02*
X162890000Y-49090000D01*
X180000000Y-26050000D02*
X179150000Y-26050000D01*
X179150000Y-26050000D02*
X179150000Y-12950000D01*
X179150000Y-12950000D02*
X184100000Y-12950000D01*
X188200000Y-26050000D02*
X189050000Y-26050000D01*
X189050000Y-26050000D02*
X189050000Y-12950000D01*
X189050000Y-12950000D02*
X184100000Y-12950000D01*
X181700000Y-28800000D02*
X181700000Y-30700000D01*
X182300000Y-28800000D02*
X182300000Y-30700000D01*
X185900000Y-28800000D02*
X185900000Y-30700000D01*
X186500000Y-28800000D02*
X186500000Y-30700000D01*
X183800000Y-26000000D02*
X184400000Y-26000000D01*
X180000000Y-27000000D02*
X179400000Y-27300000D01*
X179400000Y-27300000D02*
X179400000Y-26700000D01*
X179400000Y-26700000D02*
X180000000Y-27000000D01*
X120000000Y-26050000D02*
X119150000Y-26050000D01*
X119150000Y-26050000D02*
X119150000Y-12950000D01*
X119150000Y-12950000D02*
X124100000Y-12950000D01*
X128200000Y-26050000D02*
X129050000Y-26050000D01*
X129050000Y-26050000D02*
X129050000Y-12950000D01*
X129050000Y-12950000D02*
X124100000Y-12950000D01*
X121700000Y-28800000D02*
X121700000Y-30700000D01*
X122300000Y-28800000D02*
X122300000Y-30700000D01*
X125900000Y-28800000D02*
X125900000Y-30700000D01*
X126500000Y-28800000D02*
X126500000Y-30700000D01*
X123800000Y-26000000D02*
X124400000Y-26000000D01*
X120000000Y-27000000D02*
X119400000Y-27300000D01*
X119400000Y-27300000D02*
X119400000Y-26700000D01*
X119400000Y-26700000D02*
X120000000Y-27000000D01*
X155550000Y-29970000D02*
X155550000Y-31470000D01*
X155550000Y-31470000D02*
X155820000Y-31470000D01*
X155820000Y-31470000D02*
X155820000Y-34300000D01*
X162450000Y-29970000D02*
X162450000Y-31470000D01*
X162450000Y-31470000D02*
X162180000Y-31470000D01*
X162180000Y-31470000D02*
X162180000Y-32570000D01*
X171600000Y-73880000D02*
X170400000Y-73880000D01*
X170400000Y-72120000D02*
X171600000Y-72120000D01*
X161880000Y-55400000D02*
X161880000Y-56600000D01*
X160120000Y-56600000D02*
X160120000Y-55400000D01*
X173120000Y-73600000D02*
X173120000Y-72400000D01*
X174880000Y-72400000D02*
X174880000Y-73600000D01*
X172880000Y-65400000D02*
X172880000Y-66600000D01*
X171120000Y-66600000D02*
X171120000Y-65400000D01*
X174120000Y-68600000D02*
X174120000Y-67400000D01*
X175880000Y-67400000D02*
X175880000Y-68600000D01*
X175400000Y-62120000D02*
X176600000Y-62120000D01*
X176600000Y-63880000D02*
X175400000Y-63880000D01*
X178120000Y-61600000D02*
X178120000Y-60400000D01*
X179880000Y-60400000D02*
X179880000Y-61600000D01*
X192120000Y-59600000D02*
X192120000Y-58400000D01*
X193880000Y-58400000D02*
X193880000Y-59600000D01*
X183988000Y-54220000D02*
X182788000Y-54220000D01*
X182788000Y-52460000D02*
X183988000Y-52460000D01*
X186120000Y-55600000D02*
X186120000Y-54400000D01*
X187880000Y-54400000D02*
X187880000Y-55600000D01*
X190120000Y-55600000D02*
X190120000Y-54400000D01*
X191880000Y-54400000D02*
X191880000Y-55600000D01*
X171840000Y-57750000D02*
X171840000Y-56550000D01*
X173600000Y-56550000D02*
X173600000Y-57750000D01*
X180440000Y-37440000D02*
X180440000Y-46560000D01*
X180440000Y-46560000D02*
X189560000Y-46560000D01*
X189560000Y-46560000D02*
X189560000Y-37440000D01*
X189560000Y-37440000D02*
X180440000Y-37440000D01*
X189560000Y-42000000D02*
X191120000Y-42000000D01*
X196600000Y-54880000D02*
X195400000Y-54880000D01*
X195400000Y-53120000D02*
X196600000Y-53120000D01*
X154600000Y-58880000D02*
X153400000Y-58880000D01*
X153400000Y-57120000D02*
X154600000Y-57120000D01*
X149400000Y-57120000D02*
X150600000Y-57120000D01*
X150600000Y-58880000D02*
X149400000Y-58880000D01*
X164120000Y-71600000D02*
X164120000Y-70400000D01*
X165880000Y-70400000D02*
X165880000Y-71600000D01*
X165880000Y-66400000D02*
X165880000Y-67600000D01*
X164120000Y-67600000D02*
X164120000Y-66400000D01*
X162880000Y-66400000D02*
X162880000Y-67600000D01*
X161120000Y-67600000D02*
X161120000Y-66400000D01*
X128600000Y-53880000D02*
X127400000Y-53880000D01*
X127400000Y-52120000D02*
X128600000Y-52120000D01*
X131120000Y-54600000D02*
X131120000Y-53400000D01*
X132880000Y-53400000D02*
X132880000Y-54600000D01*
D13*
X167200000Y-59275000D02*
X162800000Y-59275000D01*
X168775000Y-64800000D02*
X162800000Y-64800000D01*
X191450000Y-59925000D02*
X191425000Y-59925000D01*
X191450000Y-64075000D02*
X191335000Y-64075000D01*
X182550000Y-64075000D02*
X182665000Y-64075000D01*
X182550000Y-59925000D02*
X182665000Y-59925000D01*
X191450000Y-59925000D02*
X191450000Y-64075000D01*
X182550000Y-59925000D02*
X182550000Y-64075000D01*
X191425000Y-59925000D02*
X191425000Y-58550000D01*
D12*
X156910000Y-47410000D02*
X156910000Y-46150000D01*
X156910000Y-40590000D02*
X156910000Y-41850000D01*
X153150000Y-47410000D02*
X156910000Y-47410000D01*
X150900000Y-40590000D02*
X156910000Y-40590000D01*
X154500000Y-66500000D02*
X154500000Y-63500000D01*
X157500000Y-66500000D02*
X157500000Y-62500000D01*
D13*
X141430000Y-48270000D02*
X141430000Y-73670000D01*
X118570000Y-48270000D02*
X141430000Y-48270000D01*
X118570000Y-73670000D02*
X118570000Y-48270000D01*
X141430000Y-73670000D02*
X118570000Y-73670000D01*
D12*
X129560000Y-61880000D02*
X129560000Y-60120000D01*
X126490000Y-60120000D02*
X126490000Y-62550000D01*
X142670000Y-46870000D02*
X145330000Y-46870000D01*
X142670000Y-44270000D02*
X142670000Y-46870000D01*
X145330000Y-44270000D02*
X145330000Y-46870000D01*
X142670000Y-44270000D02*
X145330000Y-44270000D01*
X142670000Y-43000000D02*
X142670000Y-41670000D01*
X142670000Y-41670000D02*
X144000000Y-41670000D01*
X144670000Y-60870000D02*
X147330000Y-60870000D01*
X144670000Y-58270000D02*
X144670000Y-60870000D01*
X147330000Y-58270000D02*
X147330000Y-60870000D01*
X144670000Y-58270000D02*
X147330000Y-58270000D01*
X144670000Y-57000000D02*
X144670000Y-55670000D01*
X144670000Y-55670000D02*
X146000000Y-55670000D01*
X146670000Y-67870000D02*
X149330000Y-67870000D01*
X146670000Y-65270000D02*
X146670000Y-67870000D01*
X149330000Y-65270000D02*
X149330000Y-67870000D01*
X146670000Y-65270000D02*
X149330000Y-65270000D01*
X146670000Y-64000000D02*
X146670000Y-62670000D01*
X146670000Y-62670000D02*
X148000000Y-62670000D01*
X198568000Y-47050000D02*
X201228000Y-47050000D01*
X198568000Y-39370000D02*
X198568000Y-47050000D01*
X201228000Y-39370000D02*
X201228000Y-47050000D01*
X198568000Y-39370000D02*
X201228000Y-39370000D01*
X198568000Y-38100000D02*
X198568000Y-36770000D01*
X198568000Y-36770000D02*
X199898000Y-36770000D01*
X126900000Y-42050000D02*
X126900000Y-43950000D01*
X126900000Y-43950000D02*
X131600000Y-43950000D01*
X126900000Y-42050000D02*
X131600000Y-42050000D01*
X198670000Y-61870000D02*
X201330000Y-61870000D01*
X198670000Y-59270000D02*
X198670000Y-61870000D01*
X201330000Y-59270000D02*
X201330000Y-61870000D01*
X198670000Y-59270000D02*
X201330000Y-59270000D01*
X198670000Y-58000000D02*
X198670000Y-56670000D01*
X198670000Y-56670000D02*
X200000000Y-56670000D01*
X136880000Y-43400000D02*
X136880000Y-44600000D01*
X135120000Y-44600000D02*
X135120000Y-43400000D01*
X194670000Y-33870000D02*
X197330000Y-33870000D01*
X194670000Y-31270000D02*
X194670000Y-33870000D01*
X197330000Y-31270000D02*
X197330000Y-33870000D01*
X194670000Y-31270000D02*
X197330000Y-31270000D01*
X194670000Y-30000000D02*
X194670000Y-28670000D01*
X194670000Y-28670000D02*
X196000000Y-28670000D01*
D14*
G36*
X115963700Y-58051700D02*
X109601000Y-58051700D01*
X109601000Y-55564186D01*
X109713919Y-55564186D01*
X109713941Y-55773467D01*
X109714087Y-55981699D01*
X109714359Y-56187326D01*
X109714755Y-56388792D01*
X109715275Y-56584541D01*
X109715921Y-56773018D01*
X109716691Y-56952667D01*
X109717587Y-57121931D01*
X109718606Y-57279255D01*
X109719751Y-57423084D01*
X109721021Y-57551861D01*
X109722415Y-57664031D01*
X109723934Y-57758037D01*
X109725578Y-57832325D01*
X109727346Y-57885337D01*
X109729239Y-57915519D01*
X109730539Y-57922160D01*
X109737714Y-57923884D01*
X109756165Y-57925485D01*
X109786646Y-57926966D01*
X109829909Y-57928330D01*
X109886709Y-57929582D01*
X109957799Y-57930724D01*
X110043931Y-57931762D01*
X110145861Y-57932698D01*
X110264340Y-57933537D01*
X110400123Y-57934282D01*
X110553963Y-57934937D01*
X110726613Y-57935505D01*
X110918826Y-57935991D01*
X111131357Y-57936399D01*
X111364958Y-57936731D01*
X111620384Y-57936992D01*
X111898386Y-57937185D01*
X112199720Y-57937315D01*
X112525137Y-57937384D01*
X112784169Y-57937400D01*
X115822559Y-57937400D01*
X115842329Y-57909174D01*
X115844810Y-57903782D01*
X115847076Y-57894275D01*
X115849138Y-57879564D01*
X115851006Y-57858556D01*
X115852688Y-57830161D01*
X115854193Y-57793289D01*
X115855533Y-57746849D01*
X115856715Y-57689750D01*
X115857750Y-57620902D01*
X115858647Y-57539213D01*
X115859415Y-57443594D01*
X115860064Y-57332953D01*
X115860603Y-57206199D01*
X115861042Y-57062243D01*
X115861389Y-56899993D01*
X115861656Y-56718358D01*
X115861850Y-56516249D01*
X115861982Y-56292573D01*
X115862060Y-56046241D01*
X115862095Y-55776162D01*
X115862100Y-55627349D01*
X115862087Y-55345667D01*
X115862043Y-55088286D01*
X115861956Y-54854103D01*
X115861817Y-54642018D01*
X115861616Y-54450931D01*
X115861343Y-54279742D01*
X115860987Y-54127349D01*
X115860538Y-53992652D01*
X115859986Y-53874550D01*
X115859321Y-53771944D01*
X115858532Y-53683732D01*
X115857610Y-53608814D01*
X115856545Y-53546089D01*
X115855325Y-53494456D01*
X115853942Y-53452816D01*
X115852384Y-53420068D01*
X115850643Y-53395110D01*
X115848707Y-53376844D01*
X115846566Y-53364167D01*
X115844210Y-53355979D01*
X115841630Y-53351180D01*
X115841081Y-53350525D01*
X115838154Y-53348017D01*
X115833447Y-53345696D01*
X115826010Y-53343556D01*
X115814888Y-53341588D01*
X115799128Y-53339785D01*
X115777777Y-53338140D01*
X115749883Y-53336646D01*
X115714492Y-53335296D01*
X115670651Y-53334082D01*
X115617406Y-53332998D01*
X115553806Y-53332035D01*
X115478896Y-53331187D01*
X115391725Y-53330446D01*
X115291337Y-53329805D01*
X115176782Y-53329258D01*
X115047105Y-53328796D01*
X114901353Y-53328413D01*
X114738574Y-53328101D01*
X114557814Y-53327852D01*
X114358120Y-53327661D01*
X114138539Y-53327519D01*
X113898118Y-53327420D01*
X113635905Y-53327355D01*
X113350945Y-53327319D01*
X113042286Y-53327302D01*
X112782921Y-53327300D01*
X112439109Y-53327327D01*
X112119943Y-53327411D01*
X111824671Y-53327557D01*
X111552537Y-53327767D01*
X111302789Y-53328046D01*
X111074673Y-53328397D01*
X110867436Y-53328824D01*
X110680324Y-53329331D01*
X110512583Y-53329921D01*
X110363460Y-53330599D01*
X110232201Y-53331367D01*
X110118053Y-53332231D01*
X110020262Y-53333193D01*
X109938075Y-53334258D01*
X109870737Y-53335428D01*
X109817496Y-53336709D01*
X109777598Y-53338103D01*
X109750290Y-53339614D01*
X109734817Y-53341247D01*
X109730539Y-53342540D01*
X109728565Y-53357017D01*
X109726715Y-53395338D01*
X109724990Y-53455948D01*
X109723390Y-53537289D01*
X109721914Y-53637807D01*
X109720564Y-53755946D01*
X109719338Y-53890150D01*
X109718237Y-54038862D01*
X109717260Y-54200528D01*
X109716409Y-54373590D01*
X109715682Y-54556495D01*
X109715080Y-54747685D01*
X109714602Y-54945605D01*
X109714250Y-55148699D01*
X109714022Y-55355411D01*
X109713919Y-55564186D01*
X109601000Y-55564186D01*
X109601000Y-53213000D01*
X115963700Y-53213000D01*
X115963700Y-58051700D01*
X115963700Y-58051700D01*
G37*
X115963700Y-58051700D02*
X109601000Y-58051700D01*
X109601000Y-55564186D01*
X109713919Y-55564186D01*
X109713941Y-55773467D01*
X109714087Y-55981699D01*
X109714359Y-56187326D01*
X109714755Y-56388792D01*
X109715275Y-56584541D01*
X109715921Y-56773018D01*
X109716691Y-56952667D01*
X109717587Y-57121931D01*
X109718606Y-57279255D01*
X109719751Y-57423084D01*
X109721021Y-57551861D01*
X109722415Y-57664031D01*
X109723934Y-57758037D01*
X109725578Y-57832325D01*
X109727346Y-57885337D01*
X109729239Y-57915519D01*
X109730539Y-57922160D01*
X109737714Y-57923884D01*
X109756165Y-57925485D01*
X109786646Y-57926966D01*
X109829909Y-57928330D01*
X109886709Y-57929582D01*
X109957799Y-57930724D01*
X110043931Y-57931762D01*
X110145861Y-57932698D01*
X110264340Y-57933537D01*
X110400123Y-57934282D01*
X110553963Y-57934937D01*
X110726613Y-57935505D01*
X110918826Y-57935991D01*
X111131357Y-57936399D01*
X111364958Y-57936731D01*
X111620384Y-57936992D01*
X111898386Y-57937185D01*
X112199720Y-57937315D01*
X112525137Y-57937384D01*
X112784169Y-57937400D01*
X115822559Y-57937400D01*
X115842329Y-57909174D01*
X115844810Y-57903782D01*
X115847076Y-57894275D01*
X115849138Y-57879564D01*
X115851006Y-57858556D01*
X115852688Y-57830161D01*
X115854193Y-57793289D01*
X115855533Y-57746849D01*
X115856715Y-57689750D01*
X115857750Y-57620902D01*
X115858647Y-57539213D01*
X115859415Y-57443594D01*
X115860064Y-57332953D01*
X115860603Y-57206199D01*
X115861042Y-57062243D01*
X115861389Y-56899993D01*
X115861656Y-56718358D01*
X115861850Y-56516249D01*
X115861982Y-56292573D01*
X115862060Y-56046241D01*
X115862095Y-55776162D01*
X115862100Y-55627349D01*
X115862087Y-55345667D01*
X115862043Y-55088286D01*
X115861956Y-54854103D01*
X115861817Y-54642018D01*
X115861616Y-54450931D01*
X115861343Y-54279742D01*
X115860987Y-54127349D01*
X115860538Y-53992652D01*
X115859986Y-53874550D01*
X115859321Y-53771944D01*
X115858532Y-53683732D01*
X115857610Y-53608814D01*
X115856545Y-53546089D01*
X115855325Y-53494456D01*
X115853942Y-53452816D01*
X115852384Y-53420068D01*
X115850643Y-53395110D01*
X115848707Y-53376844D01*
X115846566Y-53364167D01*
X115844210Y-53355979D01*
X115841630Y-53351180D01*
X115841081Y-53350525D01*
X115838154Y-53348017D01*
X115833447Y-53345696D01*
X115826010Y-53343556D01*
X115814888Y-53341588D01*
X115799128Y-53339785D01*
X115777777Y-53338140D01*
X115749883Y-53336646D01*
X115714492Y-53335296D01*
X115670651Y-53334082D01*
X115617406Y-53332998D01*
X115553806Y-53332035D01*
X115478896Y-53331187D01*
X115391725Y-53330446D01*
X115291337Y-53329805D01*
X115176782Y-53329258D01*
X115047105Y-53328796D01*
X114901353Y-53328413D01*
X114738574Y-53328101D01*
X114557814Y-53327852D01*
X114358120Y-53327661D01*
X114138539Y-53327519D01*
X113898118Y-53327420D01*
X113635905Y-53327355D01*
X113350945Y-53327319D01*
X113042286Y-53327302D01*
X112782921Y-53327300D01*
X112439109Y-53327327D01*
X112119943Y-53327411D01*
X111824671Y-53327557D01*
X111552537Y-53327767D01*
X111302789Y-53328046D01*
X111074673Y-53328397D01*
X110867436Y-53328824D01*
X110680324Y-53329331D01*
X110512583Y-53329921D01*
X110363460Y-53330599D01*
X110232201Y-53331367D01*
X110118053Y-53332231D01*
X110020262Y-53333193D01*
X109938075Y-53334258D01*
X109870737Y-53335428D01*
X109817496Y-53336709D01*
X109777598Y-53338103D01*
X109750290Y-53339614D01*
X109734817Y-53341247D01*
X109730539Y-53342540D01*
X109728565Y-53357017D01*
X109726715Y-53395338D01*
X109724990Y-53455948D01*
X109723390Y-53537289D01*
X109721914Y-53637807D01*
X109720564Y-53755946D01*
X109719338Y-53890150D01*
X109718237Y-54038862D01*
X109717260Y-54200528D01*
X109716409Y-54373590D01*
X109715682Y-54556495D01*
X109715080Y-54747685D01*
X109714602Y-54945605D01*
X109714250Y-55148699D01*
X109714022Y-55355411D01*
X109713919Y-55564186D01*
X109601000Y-55564186D01*
X109601000Y-53213000D01*
X115963700Y-53213000D01*
X115963700Y-58051700D01*
G36*
X110302675Y-56898724D02*
X110388955Y-56904326D01*
X110453656Y-56913882D01*
X110500464Y-56928740D01*
X110533064Y-56950247D01*
X110555144Y-56979752D01*
X110561551Y-56993363D01*
X110574945Y-57051578D01*
X110568421Y-57107711D01*
X110542954Y-57154005D01*
X110541105Y-57156024D01*
X110515005Y-57183806D01*
X110540656Y-57207020D01*
X110570032Y-57249369D01*
X110582937Y-57302903D01*
X110579477Y-57359561D01*
X110559754Y-57411283D01*
X110537644Y-57439022D01*
X110508366Y-57461751D01*
X110474064Y-57477331D01*
X110429538Y-57486931D01*
X110369591Y-57491726D01*
X110298673Y-57492900D01*
X110159800Y-57492900D01*
X110159800Y-57238900D01*
X110286800Y-57238900D01*
X110286800Y-57391300D01*
X110341124Y-57391300D01*
X110382466Y-57386692D01*
X110417389Y-57375251D01*
X110423674Y-57371529D01*
X110446566Y-57341770D01*
X110450499Y-57303776D01*
X110434858Y-57266882D01*
X110430881Y-57262125D01*
X110403849Y-57245418D01*
X110359577Y-57239066D01*
X110348331Y-57238900D01*
X110286800Y-57238900D01*
X110159800Y-57238900D01*
X110159800Y-57010300D01*
X110286800Y-57010300D01*
X110286800Y-57137300D01*
X110334774Y-57137300D01*
X110374753Y-57132047D01*
X110408367Y-57119231D01*
X110410974Y-57117529D01*
X110433427Y-57089389D01*
X110438160Y-57055138D01*
X110423960Y-57025540D01*
X110402883Y-57016481D01*
X110366991Y-57011022D01*
X110347760Y-57010300D01*
X110286800Y-57010300D01*
X110159800Y-57010300D01*
X110159800Y-56892803D01*
X110302675Y-56898724D01*
X110302675Y-56898724D01*
G37*
X110302675Y-56898724D02*
X110388955Y-56904326D01*
X110453656Y-56913882D01*
X110500464Y-56928740D01*
X110533064Y-56950247D01*
X110555144Y-56979752D01*
X110561551Y-56993363D01*
X110574945Y-57051578D01*
X110568421Y-57107711D01*
X110542954Y-57154005D01*
X110541105Y-57156024D01*
X110515005Y-57183806D01*
X110540656Y-57207020D01*
X110570032Y-57249369D01*
X110582937Y-57302903D01*
X110579477Y-57359561D01*
X110559754Y-57411283D01*
X110537644Y-57439022D01*
X110508366Y-57461751D01*
X110474064Y-57477331D01*
X110429538Y-57486931D01*
X110369591Y-57491726D01*
X110298673Y-57492900D01*
X110159800Y-57492900D01*
X110159800Y-57238900D01*
X110286800Y-57238900D01*
X110286800Y-57391300D01*
X110341124Y-57391300D01*
X110382466Y-57386692D01*
X110417389Y-57375251D01*
X110423674Y-57371529D01*
X110446566Y-57341770D01*
X110450499Y-57303776D01*
X110434858Y-57266882D01*
X110430881Y-57262125D01*
X110403849Y-57245418D01*
X110359577Y-57239066D01*
X110348331Y-57238900D01*
X110286800Y-57238900D01*
X110159800Y-57238900D01*
X110159800Y-57010300D01*
X110286800Y-57010300D01*
X110286800Y-57137300D01*
X110334774Y-57137300D01*
X110374753Y-57132047D01*
X110408367Y-57119231D01*
X110410974Y-57117529D01*
X110433427Y-57089389D01*
X110438160Y-57055138D01*
X110423960Y-57025540D01*
X110402883Y-57016481D01*
X110366991Y-57011022D01*
X110347760Y-57010300D01*
X110286800Y-57010300D01*
X110159800Y-57010300D01*
X110159800Y-56892803D01*
X110302675Y-56898724D01*
G36*
X110985300Y-57010300D02*
X110744000Y-57010300D01*
X110744000Y-57137300D01*
X110947200Y-57137300D01*
X110947200Y-57251600D01*
X110744000Y-57251600D01*
X110744000Y-57378600D01*
X110998000Y-57378600D01*
X110998000Y-57492900D01*
X110617000Y-57492900D01*
X110617000Y-56896000D01*
X110985300Y-56896000D01*
X110985300Y-57010300D01*
X110985300Y-57010300D01*
G37*
X110985300Y-57010300D02*
X110744000Y-57010300D01*
X110744000Y-57137300D01*
X110947200Y-57137300D01*
X110947200Y-57251600D01*
X110744000Y-57251600D01*
X110744000Y-57378600D01*
X110998000Y-57378600D01*
X110998000Y-57492900D01*
X110617000Y-57492900D01*
X110617000Y-56896000D01*
X110985300Y-56896000D01*
X110985300Y-57010300D01*
G36*
X111153575Y-56896070D02*
X111235871Y-56897849D01*
X111297862Y-56903898D01*
X111344460Y-56915440D01*
X111380577Y-56933697D01*
X111411124Y-56959891D01*
X111411471Y-56960253D01*
X111433265Y-56986414D01*
X111444508Y-57012807D01*
X111448518Y-57049528D01*
X111448850Y-57073928D01*
X111447274Y-57118663D01*
X111440111Y-57148438D01*
X111423706Y-57173618D01*
X111407461Y-57191291D01*
X111366072Y-57233994D01*
X111416986Y-57351382D01*
X111438486Y-57402151D01*
X111455496Y-57444597D01*
X111465818Y-57473103D01*
X111467900Y-57481498D01*
X111456325Y-57488301D01*
X111425676Y-57491010D01*
X111401698Y-57490388D01*
X111335497Y-57486550D01*
X111285351Y-57369075D01*
X111261944Y-57315487D01*
X111244845Y-57281213D01*
X111230924Y-57261985D01*
X111217048Y-57253537D01*
X111200087Y-57251602D01*
X111199152Y-57251600D01*
X111163100Y-57251600D01*
X111163100Y-57492900D01*
X111023400Y-57492900D01*
X111023400Y-57010300D01*
X111163100Y-57010300D01*
X111163100Y-57137300D01*
X111225879Y-57137300D01*
X111267647Y-57134783D01*
X111293020Y-57125255D01*
X111308429Y-57109074D01*
X111324927Y-57081116D01*
X111323894Y-57060993D01*
X111304460Y-57037367D01*
X111302800Y-57035700D01*
X111270514Y-57016487D01*
X111222080Y-57010305D01*
X111220250Y-57010300D01*
X111163100Y-57010300D01*
X111023400Y-57010300D01*
X111023400Y-56896000D01*
X111153575Y-56896070D01*
X111153575Y-56896070D01*
G37*
X111153575Y-56896070D02*
X111235871Y-56897849D01*
X111297862Y-56903898D01*
X111344460Y-56915440D01*
X111380577Y-56933697D01*
X111411124Y-56959891D01*
X111411471Y-56960253D01*
X111433265Y-56986414D01*
X111444508Y-57012807D01*
X111448518Y-57049528D01*
X111448850Y-57073928D01*
X111447274Y-57118663D01*
X111440111Y-57148438D01*
X111423706Y-57173618D01*
X111407461Y-57191291D01*
X111366072Y-57233994D01*
X111416986Y-57351382D01*
X111438486Y-57402151D01*
X111455496Y-57444597D01*
X111465818Y-57473103D01*
X111467900Y-57481498D01*
X111456325Y-57488301D01*
X111425676Y-57491010D01*
X111401698Y-57490388D01*
X111335497Y-57486550D01*
X111285351Y-57369075D01*
X111261944Y-57315487D01*
X111244845Y-57281213D01*
X111230924Y-57261985D01*
X111217048Y-57253537D01*
X111200087Y-57251602D01*
X111199152Y-57251600D01*
X111163100Y-57251600D01*
X111163100Y-57492900D01*
X111023400Y-57492900D01*
X111023400Y-57010300D01*
X111163100Y-57010300D01*
X111163100Y-57137300D01*
X111225879Y-57137300D01*
X111267647Y-57134783D01*
X111293020Y-57125255D01*
X111308429Y-57109074D01*
X111324927Y-57081116D01*
X111323894Y-57060993D01*
X111304460Y-57037367D01*
X111302800Y-57035700D01*
X111270514Y-57016487D01*
X111222080Y-57010305D01*
X111220250Y-57010300D01*
X111163100Y-57010300D01*
X111023400Y-57010300D01*
X111023400Y-56896000D01*
X111153575Y-56896070D01*
G36*
X111931353Y-56897772D02*
X111939866Y-56905006D01*
X111935186Y-56920932D01*
X111916867Y-56948897D01*
X111884464Y-56992246D01*
X111859292Y-57025425D01*
X111827476Y-57068783D01*
X111802533Y-57105257D01*
X111787862Y-57129738D01*
X111785400Y-57136391D01*
X111791262Y-57151734D01*
X111807378Y-57184883D01*
X111831538Y-57231514D01*
X111861535Y-57287300D01*
X111874300Y-57310533D01*
X111905939Y-57368530D01*
X111932614Y-57418855D01*
X111952121Y-57457241D01*
X111962260Y-57479424D01*
X111963200Y-57482776D01*
X111951723Y-57488291D01*
X111921997Y-57490874D01*
X111890268Y-57490358D01*
X111817336Y-57486550D01*
X111752207Y-57368163D01*
X111687077Y-57249776D01*
X111660038Y-57284150D01*
X111644494Y-57309750D01*
X111636132Y-57341815D01*
X111633129Y-57388555D01*
X111633000Y-57405712D01*
X111633000Y-57492900D01*
X111506000Y-57492900D01*
X111506000Y-56896000D01*
X111632011Y-56896000D01*
X111635680Y-57007125D01*
X111639350Y-57118250D01*
X111720205Y-57007125D01*
X111801061Y-56896000D01*
X111876530Y-56896000D01*
X111910092Y-56895885D01*
X111931353Y-56897772D01*
X111931353Y-56897772D01*
G37*
X111931353Y-56897772D02*
X111939866Y-56905006D01*
X111935186Y-56920932D01*
X111916867Y-56948897D01*
X111884464Y-56992246D01*
X111859292Y-57025425D01*
X111827476Y-57068783D01*
X111802533Y-57105257D01*
X111787862Y-57129738D01*
X111785400Y-57136391D01*
X111791262Y-57151734D01*
X111807378Y-57184883D01*
X111831538Y-57231514D01*
X111861535Y-57287300D01*
X111874300Y-57310533D01*
X111905939Y-57368530D01*
X111932614Y-57418855D01*
X111952121Y-57457241D01*
X111962260Y-57479424D01*
X111963200Y-57482776D01*
X111951723Y-57488291D01*
X111921997Y-57490874D01*
X111890268Y-57490358D01*
X111817336Y-57486550D01*
X111752207Y-57368163D01*
X111687077Y-57249776D01*
X111660038Y-57284150D01*
X111644494Y-57309750D01*
X111636132Y-57341815D01*
X111633129Y-57388555D01*
X111633000Y-57405712D01*
X111633000Y-57492900D01*
X111506000Y-57492900D01*
X111506000Y-56896000D01*
X111632011Y-56896000D01*
X111635680Y-57007125D01*
X111639350Y-57118250D01*
X111720205Y-57007125D01*
X111801061Y-56896000D01*
X111876530Y-56896000D01*
X111910092Y-56895885D01*
X111931353Y-56897772D01*
G36*
X112356900Y-57010300D02*
X112115600Y-57010300D01*
X112115600Y-57137300D01*
X112318800Y-57137300D01*
X112318800Y-57251600D01*
X112115600Y-57251600D01*
X112115600Y-57378600D01*
X112369600Y-57378600D01*
X112369600Y-57492900D01*
X111988600Y-57492900D01*
X111988600Y-56896000D01*
X112356900Y-56896000D01*
X112356900Y-57010300D01*
X112356900Y-57010300D01*
G37*
X112356900Y-57010300D02*
X112115600Y-57010300D01*
X112115600Y-57137300D01*
X112318800Y-57137300D01*
X112318800Y-57251600D01*
X112115600Y-57251600D01*
X112115600Y-57378600D01*
X112369600Y-57378600D01*
X112369600Y-57492900D01*
X111988600Y-57492900D01*
X111988600Y-56896000D01*
X112356900Y-56896000D01*
X112356900Y-57010300D01*
G36*
X112547400Y-57378600D02*
X112788700Y-57378600D01*
X112788700Y-57492900D01*
X112420400Y-57492900D01*
X112420400Y-56896000D01*
X112547400Y-56896000D01*
X112547400Y-57378600D01*
X112547400Y-57378600D01*
G37*
X112547400Y-57378600D02*
X112788700Y-57378600D01*
X112788700Y-57492900D01*
X112420400Y-57492900D01*
X112420400Y-56896000D01*
X112547400Y-56896000D01*
X112547400Y-57378600D01*
G36*
X113207800Y-57010300D02*
X112966500Y-57010300D01*
X112966500Y-57137300D01*
X113169700Y-57137300D01*
X113169700Y-57251600D01*
X112966500Y-57251600D01*
X112966500Y-57378600D01*
X113220500Y-57378600D01*
X113220500Y-57492900D01*
X112839500Y-57492900D01*
X112839500Y-56896000D01*
X113207800Y-56896000D01*
X113207800Y-57010300D01*
X113207800Y-57010300D01*
G37*
X113207800Y-57010300D02*
X112966500Y-57010300D01*
X112966500Y-57137300D01*
X113169700Y-57137300D01*
X113169700Y-57251600D01*
X112966500Y-57251600D01*
X112966500Y-57378600D01*
X113220500Y-57378600D01*
X113220500Y-57492900D01*
X112839500Y-57492900D01*
X112839500Y-56896000D01*
X113207800Y-56896000D01*
X113207800Y-57010300D01*
G36*
X113490155Y-57143586D02*
X113614447Y-56896000D01*
X113677823Y-56896000D01*
X113714006Y-56898280D01*
X113736950Y-56904109D01*
X113741200Y-56908654D01*
X113735281Y-56923616D01*
X113718964Y-56956514D01*
X113694407Y-57003200D01*
X113663768Y-57059532D01*
X113645950Y-57091614D01*
X113550700Y-57261920D01*
X113550700Y-57492900D01*
X113423700Y-57492900D01*
X113423700Y-57258850D01*
X113328450Y-57084868D01*
X113295810Y-57024796D01*
X113267990Y-56972731D01*
X113247079Y-56932651D01*
X113235164Y-56908534D01*
X113233200Y-56903443D01*
X113244662Y-56899291D01*
X113274117Y-56896590D01*
X113300183Y-56896000D01*
X113367167Y-56896000D01*
X113490155Y-57143586D01*
X113490155Y-57143586D01*
G37*
X113490155Y-57143586D02*
X113614447Y-56896000D01*
X113677823Y-56896000D01*
X113714006Y-56898280D01*
X113736950Y-56904109D01*
X113741200Y-56908654D01*
X113735281Y-56923616D01*
X113718964Y-56956514D01*
X113694407Y-57003200D01*
X113663768Y-57059532D01*
X113645950Y-57091614D01*
X113550700Y-57261920D01*
X113550700Y-57492900D01*
X113423700Y-57492900D01*
X113423700Y-57258850D01*
X113328450Y-57084868D01*
X113295810Y-57024796D01*
X113267990Y-56972731D01*
X113247079Y-56932651D01*
X113235164Y-56908534D01*
X113233200Y-56903443D01*
X113244662Y-56899291D01*
X113274117Y-56896590D01*
X113300183Y-56896000D01*
X113367167Y-56896000D01*
X113490155Y-57143586D01*
G36*
X114122200Y-57378600D02*
X114363500Y-57378600D01*
X114363500Y-57492900D01*
X113995200Y-57492900D01*
X113995200Y-56896000D01*
X114122200Y-56896000D01*
X114122200Y-57378600D01*
X114122200Y-57378600D01*
G37*
X114122200Y-57378600D02*
X114363500Y-57378600D01*
X114363500Y-57492900D01*
X113995200Y-57492900D01*
X113995200Y-56896000D01*
X114122200Y-56896000D01*
X114122200Y-57378600D01*
G36*
X114806721Y-57172225D02*
X114829756Y-57253061D01*
X114850722Y-57326554D01*
X114868526Y-57388886D01*
X114882079Y-57436238D01*
X114890289Y-57464794D01*
X114892003Y-57470675D01*
X114892571Y-57483554D01*
X114880884Y-57490264D01*
X114851655Y-57492696D01*
X114829926Y-57492900D01*
X114761241Y-57492900D01*
X114745610Y-57423050D01*
X114729978Y-57353200D01*
X114567409Y-57353200D01*
X114526797Y-57492900D01*
X114464198Y-57492900D01*
X114428131Y-57491159D01*
X114405230Y-57486716D01*
X114401033Y-57483375D01*
X114404125Y-57468935D01*
X114413110Y-57433550D01*
X114427052Y-57380740D01*
X114445016Y-57314023D01*
X114465522Y-57238900D01*
X114594147Y-57238900D01*
X114643923Y-57238900D01*
X114675281Y-57236748D01*
X114692349Y-57231384D01*
X114693409Y-57229375D01*
X114690255Y-57213186D01*
X114682220Y-57179464D01*
X114670979Y-57135213D01*
X114669867Y-57130950D01*
X114646614Y-57042050D01*
X114631244Y-57099200D01*
X114619063Y-57144692D01*
X114607612Y-57187766D01*
X114605010Y-57197625D01*
X114594147Y-57238900D01*
X114465522Y-57238900D01*
X114466064Y-57236918D01*
X114480396Y-57184925D01*
X114560327Y-56896000D01*
X114728047Y-56896000D01*
X114806721Y-57172225D01*
X114806721Y-57172225D01*
G37*
X114806721Y-57172225D02*
X114829756Y-57253061D01*
X114850722Y-57326554D01*
X114868526Y-57388886D01*
X114882079Y-57436238D01*
X114890289Y-57464794D01*
X114892003Y-57470675D01*
X114892571Y-57483554D01*
X114880884Y-57490264D01*
X114851655Y-57492696D01*
X114829926Y-57492900D01*
X114761241Y-57492900D01*
X114745610Y-57423050D01*
X114729978Y-57353200D01*
X114567409Y-57353200D01*
X114526797Y-57492900D01*
X114464198Y-57492900D01*
X114428131Y-57491159D01*
X114405230Y-57486716D01*
X114401033Y-57483375D01*
X114404125Y-57468935D01*
X114413110Y-57433550D01*
X114427052Y-57380740D01*
X114445016Y-57314023D01*
X114465522Y-57238900D01*
X114594147Y-57238900D01*
X114643923Y-57238900D01*
X114675281Y-57236748D01*
X114692349Y-57231384D01*
X114693409Y-57229375D01*
X114690255Y-57213186D01*
X114682220Y-57179464D01*
X114670979Y-57135213D01*
X114669867Y-57130950D01*
X114646614Y-57042050D01*
X114631244Y-57099200D01*
X114619063Y-57144692D01*
X114607612Y-57187766D01*
X114605010Y-57197625D01*
X114594147Y-57238900D01*
X114465522Y-57238900D01*
X114466064Y-57236918D01*
X114480396Y-57184925D01*
X114560327Y-56896000D01*
X114728047Y-56896000D01*
X114806721Y-57172225D01*
G36*
X115136273Y-56899777D02*
X115215140Y-56911754D01*
X115273277Y-56932898D01*
X115312492Y-56964176D01*
X115334596Y-57006555D01*
X115341400Y-57059893D01*
X115334065Y-57118815D01*
X115317892Y-57150817D01*
X115303879Y-57170356D01*
X115302305Y-57186313D01*
X115314030Y-57208585D01*
X115324242Y-57223846D01*
X115348616Y-57279349D01*
X115352674Y-57338371D01*
X115338030Y-57394713D01*
X115306296Y-57442179D01*
X115259085Y-57474569D01*
X115258979Y-57474614D01*
X115215244Y-57485356D01*
X115146753Y-57491424D01*
X115075107Y-57492900D01*
X114935000Y-57492900D01*
X114935000Y-57238900D01*
X115062000Y-57238900D01*
X115062000Y-57391300D01*
X115119150Y-57391300D01*
X115168188Y-57385489D01*
X115200876Y-57366711D01*
X115201700Y-57365900D01*
X115224126Y-57330401D01*
X115224050Y-57295814D01*
X115204162Y-57266280D01*
X115167153Y-57245939D01*
X115119150Y-57238900D01*
X115062000Y-57238900D01*
X114935000Y-57238900D01*
X114935000Y-57010300D01*
X115062000Y-57010300D01*
X115062000Y-57137300D01*
X115109974Y-57137300D01*
X115149953Y-57132047D01*
X115183567Y-57119231D01*
X115186174Y-57117529D01*
X115211305Y-57089644D01*
X115214223Y-57060787D01*
X115197583Y-57035151D01*
X115164040Y-57016928D01*
X115118242Y-57010300D01*
X115062000Y-57010300D01*
X114935000Y-57010300D01*
X114935000Y-56896000D01*
X115034866Y-56896000D01*
X115136273Y-56899777D01*
X115136273Y-56899777D01*
G37*
X115136273Y-56899777D02*
X115215140Y-56911754D01*
X115273277Y-56932898D01*
X115312492Y-56964176D01*
X115334596Y-57006555D01*
X115341400Y-57059893D01*
X115334065Y-57118815D01*
X115317892Y-57150817D01*
X115303879Y-57170356D01*
X115302305Y-57186313D01*
X115314030Y-57208585D01*
X115324242Y-57223846D01*
X115348616Y-57279349D01*
X115352674Y-57338371D01*
X115338030Y-57394713D01*
X115306296Y-57442179D01*
X115259085Y-57474569D01*
X115258979Y-57474614D01*
X115215244Y-57485356D01*
X115146753Y-57491424D01*
X115075107Y-57492900D01*
X114935000Y-57492900D01*
X114935000Y-57238900D01*
X115062000Y-57238900D01*
X115062000Y-57391300D01*
X115119150Y-57391300D01*
X115168188Y-57385489D01*
X115200876Y-57366711D01*
X115201700Y-57365900D01*
X115224126Y-57330401D01*
X115224050Y-57295814D01*
X115204162Y-57266280D01*
X115167153Y-57245939D01*
X115119150Y-57238900D01*
X115062000Y-57238900D01*
X114935000Y-57238900D01*
X114935000Y-57010300D01*
X115062000Y-57010300D01*
X115062000Y-57137300D01*
X115109974Y-57137300D01*
X115149953Y-57132047D01*
X115183567Y-57119231D01*
X115186174Y-57117529D01*
X115211305Y-57089644D01*
X115214223Y-57060787D01*
X115197583Y-57035151D01*
X115164040Y-57016928D01*
X115118242Y-57010300D01*
X115062000Y-57010300D01*
X114935000Y-57010300D01*
X114935000Y-56896000D01*
X115034866Y-56896000D01*
X115136273Y-56899777D01*
G36*
X112228679Y-54197038D02*
X112462902Y-54231556D01*
X112521103Y-54243374D01*
X112715589Y-54294039D01*
X112913309Y-54362050D01*
X113109978Y-54445141D01*
X113301310Y-54541051D01*
X113483021Y-54647515D01*
X113650826Y-54762271D01*
X113800438Y-54883054D01*
X113886909Y-54964745D01*
X113975468Y-55054500D01*
X114261900Y-55054500D01*
X114261900Y-56642000D01*
X114134900Y-56642000D01*
X114134900Y-55168800D01*
X113878348Y-55168800D01*
X113787549Y-55088488D01*
X113587541Y-54923867D01*
X113378767Y-54775413D01*
X113164192Y-54644766D01*
X112946780Y-54533571D01*
X112729496Y-54443468D01*
X112515304Y-54376100D01*
X112489709Y-54369561D01*
X112232703Y-54317709D01*
X111973035Y-54289636D01*
X111709465Y-54285368D01*
X111440757Y-54304927D01*
X111165671Y-54348340D01*
X110940044Y-54400296D01*
X110791767Y-54442378D01*
X110645093Y-54490301D01*
X110508093Y-54541266D01*
X110395912Y-54589180D01*
X110350208Y-54609299D01*
X110313786Y-54623443D01*
X110292263Y-54629514D01*
X110289020Y-54629153D01*
X110285998Y-54625359D01*
X110287201Y-54620972D01*
X110295739Y-54614182D01*
X110314717Y-54603182D01*
X110347243Y-54586162D01*
X110396424Y-54561314D01*
X110461530Y-54528748D01*
X110622143Y-54452938D01*
X110785209Y-54384312D01*
X110945326Y-54324852D01*
X111097090Y-54276539D01*
X111235098Y-54241355D01*
X111258350Y-54236512D01*
X111492756Y-54199940D01*
X111737010Y-54181195D01*
X111984517Y-54180239D01*
X112228679Y-54197038D01*
X112228679Y-54197038D01*
G37*
X112228679Y-54197038D02*
X112462902Y-54231556D01*
X112521103Y-54243374D01*
X112715589Y-54294039D01*
X112913309Y-54362050D01*
X113109978Y-54445141D01*
X113301310Y-54541051D01*
X113483021Y-54647515D01*
X113650826Y-54762271D01*
X113800438Y-54883054D01*
X113886909Y-54964745D01*
X113975468Y-55054500D01*
X114261900Y-55054500D01*
X114261900Y-56642000D01*
X114134900Y-56642000D01*
X114134900Y-55168800D01*
X113878348Y-55168800D01*
X113787549Y-55088488D01*
X113587541Y-54923867D01*
X113378767Y-54775413D01*
X113164192Y-54644766D01*
X112946780Y-54533571D01*
X112729496Y-54443468D01*
X112515304Y-54376100D01*
X112489709Y-54369561D01*
X112232703Y-54317709D01*
X111973035Y-54289636D01*
X111709465Y-54285368D01*
X111440757Y-54304927D01*
X111165671Y-54348340D01*
X110940044Y-54400296D01*
X110791767Y-54442378D01*
X110645093Y-54490301D01*
X110508093Y-54541266D01*
X110395912Y-54589180D01*
X110350208Y-54609299D01*
X110313786Y-54623443D01*
X110292263Y-54629514D01*
X110289020Y-54629153D01*
X110285998Y-54625359D01*
X110287201Y-54620972D01*
X110295739Y-54614182D01*
X110314717Y-54603182D01*
X110347243Y-54586162D01*
X110396424Y-54561314D01*
X110461530Y-54528748D01*
X110622143Y-54452938D01*
X110785209Y-54384312D01*
X110945326Y-54324852D01*
X111097090Y-54276539D01*
X111235098Y-54241355D01*
X111258350Y-54236512D01*
X111492756Y-54199940D01*
X111737010Y-54181195D01*
X111984517Y-54180239D01*
X112228679Y-54197038D01*
G36*
X114655871Y-54719232D02*
X114662736Y-54743350D01*
X114666108Y-54763910D01*
X114669043Y-54797631D01*
X114671566Y-54845897D01*
X114673702Y-54910095D01*
X114675478Y-54991611D01*
X114676917Y-55091831D01*
X114678046Y-55212141D01*
X114678890Y-55353928D01*
X114679474Y-55518576D01*
X114679780Y-55673625D01*
X114681000Y-56540400D01*
X114604800Y-56540400D01*
X114604800Y-55696475D01*
X114604901Y-55518656D01*
X114605250Y-55364375D01*
X114605909Y-55231771D01*
X114606945Y-55118982D01*
X114608421Y-55024147D01*
X114610401Y-54945405D01*
X114612951Y-54880894D01*
X114616135Y-54828753D01*
X114620017Y-54787120D01*
X114624663Y-54754134D01*
X114630136Y-54727934D01*
X114636501Y-54706659D01*
X114639395Y-54698900D01*
X114646316Y-54698057D01*
X114655871Y-54719232D01*
X114655871Y-54719232D01*
G37*
X114655871Y-54719232D02*
X114662736Y-54743350D01*
X114666108Y-54763910D01*
X114669043Y-54797631D01*
X114671566Y-54845897D01*
X114673702Y-54910095D01*
X114675478Y-54991611D01*
X114676917Y-55091831D01*
X114678046Y-55212141D01*
X114678890Y-55353928D01*
X114679474Y-55518576D01*
X114679780Y-55673625D01*
X114681000Y-56540400D01*
X114604800Y-56540400D01*
X114604800Y-55696475D01*
X114604901Y-55518656D01*
X114605250Y-55364375D01*
X114605909Y-55231771D01*
X114606945Y-55118982D01*
X114608421Y-55024147D01*
X114610401Y-54945405D01*
X114612951Y-54880894D01*
X114616135Y-54828753D01*
X114620017Y-54787120D01*
X114624663Y-54754134D01*
X114630136Y-54727934D01*
X114636501Y-54706659D01*
X114639395Y-54698900D01*
X114646316Y-54698057D01*
X114655871Y-54719232D01*
G36*
X115245810Y-54706344D02*
X115259867Y-54738796D01*
X115269861Y-54767837D01*
X115273996Y-54782521D01*
X115277551Y-54801040D01*
X115280568Y-54825283D01*
X115283091Y-54857141D01*
X115285162Y-54898506D01*
X115286823Y-54951266D01*
X115288118Y-55017314D01*
X115289090Y-55098540D01*
X115289780Y-55196833D01*
X115290232Y-55314086D01*
X115290488Y-55452188D01*
X115290591Y-55613030D01*
X115290600Y-55685412D01*
X115290600Y-56540400D01*
X115189000Y-56540400D01*
X115189000Y-55672712D01*
X115189053Y-55500707D01*
X115189239Y-55352235D01*
X115189601Y-55225428D01*
X115190180Y-55118419D01*
X115191017Y-55029340D01*
X115192153Y-54956323D01*
X115193630Y-54897502D01*
X115195489Y-54851009D01*
X115197772Y-54814977D01*
X115200520Y-54787538D01*
X115203775Y-54766825D01*
X115207578Y-54750970D01*
X115209585Y-54744608D01*
X115223016Y-54710154D01*
X115234309Y-54697098D01*
X115245810Y-54706344D01*
X115245810Y-54706344D01*
G37*
X115245810Y-54706344D02*
X115259867Y-54738796D01*
X115269861Y-54767837D01*
X115273996Y-54782521D01*
X115277551Y-54801040D01*
X115280568Y-54825283D01*
X115283091Y-54857141D01*
X115285162Y-54898506D01*
X115286823Y-54951266D01*
X115288118Y-55017314D01*
X115289090Y-55098540D01*
X115289780Y-55196833D01*
X115290232Y-55314086D01*
X115290488Y-55452188D01*
X115290591Y-55613030D01*
X115290600Y-55685412D01*
X115290600Y-56540400D01*
X115189000Y-56540400D01*
X115189000Y-55672712D01*
X115189053Y-55500707D01*
X115189239Y-55352235D01*
X115189601Y-55225428D01*
X115190180Y-55118419D01*
X115191017Y-55029340D01*
X115192153Y-54956323D01*
X115193630Y-54897502D01*
X115195489Y-54851009D01*
X115197772Y-54814977D01*
X115200520Y-54787538D01*
X115203775Y-54766825D01*
X115207578Y-54750970D01*
X115209585Y-54744608D01*
X115223016Y-54710154D01*
X115234309Y-54697098D01*
X115245810Y-54706344D01*
G36*
X110469752Y-55299688D02*
X110522529Y-55304831D01*
X110561910Y-55313339D01*
X110572280Y-55317748D01*
X110581858Y-55325827D01*
X110575069Y-55332656D01*
X110548557Y-55340063D01*
X110520881Y-55345720D01*
X110475456Y-55354586D01*
X110436840Y-55362252D01*
X110418768Y-55365941D01*
X110401968Y-55374236D01*
X110391602Y-55394510D01*
X110384610Y-55433142D01*
X110383954Y-55438466D01*
X110379353Y-55490702D01*
X110376394Y-55550977D01*
X110375810Y-55583824D01*
X110375700Y-55662299D01*
X110302675Y-55676399D01*
X110257276Y-55685265D01*
X110218202Y-55693067D01*
X110200796Y-55696661D01*
X110175049Y-55695310D01*
X110165608Y-55686318D01*
X110164084Y-55667515D01*
X110164857Y-55629369D01*
X110167708Y-55577812D01*
X110171371Y-55530501D01*
X110177098Y-55468860D01*
X110182623Y-55426962D01*
X110189572Y-55399220D01*
X110199574Y-55380042D01*
X110214254Y-55363839D01*
X110221936Y-55356818D01*
X110260083Y-55330927D01*
X110305555Y-55310552D01*
X110314877Y-55307716D01*
X110357543Y-55300804D01*
X110411962Y-55298237D01*
X110469752Y-55299688D01*
X110469752Y-55299688D01*
G37*
X110469752Y-55299688D02*
X110522529Y-55304831D01*
X110561910Y-55313339D01*
X110572280Y-55317748D01*
X110581858Y-55325827D01*
X110575069Y-55332656D01*
X110548557Y-55340063D01*
X110520881Y-55345720D01*
X110475456Y-55354586D01*
X110436840Y-55362252D01*
X110418768Y-55365941D01*
X110401968Y-55374236D01*
X110391602Y-55394510D01*
X110384610Y-55433142D01*
X110383954Y-55438466D01*
X110379353Y-55490702D01*
X110376394Y-55550977D01*
X110375810Y-55583824D01*
X110375700Y-55662299D01*
X110302675Y-55676399D01*
X110257276Y-55685265D01*
X110218202Y-55693067D01*
X110200796Y-55696661D01*
X110175049Y-55695310D01*
X110165608Y-55686318D01*
X110164084Y-55667515D01*
X110164857Y-55629369D01*
X110167708Y-55577812D01*
X110171371Y-55530501D01*
X110177098Y-55468860D01*
X110182623Y-55426962D01*
X110189572Y-55399220D01*
X110199574Y-55380042D01*
X110214254Y-55363839D01*
X110221936Y-55356818D01*
X110260083Y-55330927D01*
X110305555Y-55310552D01*
X110314877Y-55307716D01*
X110357543Y-55300804D01*
X110411962Y-55298237D01*
X110469752Y-55299688D01*
G36*
X111576069Y-55304478D02*
X111628213Y-55309436D01*
X111668868Y-55317053D01*
X111692611Y-55326444D01*
X111696500Y-55332198D01*
X111684920Y-55338638D01*
X111654216Y-55346874D01*
X111610443Y-55355356D01*
X111598943Y-55357212D01*
X111552469Y-55364776D01*
X111517064Y-55371177D01*
X111499043Y-55375257D01*
X111498028Y-55375737D01*
X111495994Y-55388967D01*
X111492982Y-55422410D01*
X111489408Y-55470920D01*
X111485908Y-55525658D01*
X111477146Y-55672222D01*
X111389737Y-55687211D01*
X111343951Y-55694727D01*
X111307455Y-55700106D01*
X111288048Y-55702199D01*
X111287925Y-55702200D01*
X111281733Y-55693780D01*
X111278617Y-55666996D01*
X111278478Y-55619558D01*
X111281216Y-55549176D01*
X111281244Y-55548608D01*
X111285382Y-55487481D01*
X111290925Y-55434863D01*
X111297145Y-55396398D01*
X111303261Y-55377794D01*
X111339798Y-55348986D01*
X111393783Y-55325101D01*
X111457356Y-55308875D01*
X111517859Y-55303062D01*
X111576069Y-55304478D01*
X111576069Y-55304478D01*
G37*
X111576069Y-55304478D02*
X111628213Y-55309436D01*
X111668868Y-55317053D01*
X111692611Y-55326444D01*
X111696500Y-55332198D01*
X111684920Y-55338638D01*
X111654216Y-55346874D01*
X111610443Y-55355356D01*
X111598943Y-55357212D01*
X111552469Y-55364776D01*
X111517064Y-55371177D01*
X111499043Y-55375257D01*
X111498028Y-55375737D01*
X111495994Y-55388967D01*
X111492982Y-55422410D01*
X111489408Y-55470920D01*
X111485908Y-55525658D01*
X111477146Y-55672222D01*
X111389737Y-55687211D01*
X111343951Y-55694727D01*
X111307455Y-55700106D01*
X111288048Y-55702199D01*
X111287925Y-55702200D01*
X111281733Y-55693780D01*
X111278617Y-55666996D01*
X111278478Y-55619558D01*
X111281216Y-55549176D01*
X111281244Y-55548608D01*
X111285382Y-55487481D01*
X111290925Y-55434863D01*
X111297145Y-55396398D01*
X111303261Y-55377794D01*
X111339798Y-55348986D01*
X111393783Y-55325101D01*
X111457356Y-55308875D01*
X111517859Y-55303062D01*
X111576069Y-55304478D01*
G36*
X113849647Y-55301817D02*
X113880355Y-55308283D01*
X113912848Y-55319603D01*
X113921258Y-55329775D01*
X113905209Y-55339163D01*
X113864324Y-55348127D01*
X113834257Y-55352589D01*
X113791505Y-55359447D01*
X113762153Y-55369464D01*
X113743288Y-55387123D01*
X113731994Y-55416908D01*
X113725359Y-55463302D01*
X113720685Y-55527307D01*
X113716001Y-55590192D01*
X113710835Y-55631803D01*
X113704347Y-55656265D01*
X113695696Y-55667701D01*
X113691721Y-55669474D01*
X113670841Y-55674257D01*
X113635156Y-55681382D01*
X113593151Y-55689281D01*
X113553310Y-55696385D01*
X113524118Y-55701126D01*
X113514678Y-55702200D01*
X113512985Y-55690334D01*
X113512730Y-55657989D01*
X113513856Y-55610042D01*
X113516307Y-55551368D01*
X113516444Y-55548608D01*
X113521119Y-55480030D01*
X113527308Y-55425356D01*
X113534437Y-55388828D01*
X113539759Y-55376230D01*
X113579658Y-55344719D01*
X113637468Y-55320151D01*
X113706317Y-55303898D01*
X113779333Y-55297330D01*
X113849647Y-55301817D01*
X113849647Y-55301817D01*
G37*
X113849647Y-55301817D02*
X113880355Y-55308283D01*
X113912848Y-55319603D01*
X113921258Y-55329775D01*
X113905209Y-55339163D01*
X113864324Y-55348127D01*
X113834257Y-55352589D01*
X113791505Y-55359447D01*
X113762153Y-55369464D01*
X113743288Y-55387123D01*
X113731994Y-55416908D01*
X113725359Y-55463302D01*
X113720685Y-55527307D01*
X113716001Y-55590192D01*
X113710835Y-55631803D01*
X113704347Y-55656265D01*
X113695696Y-55667701D01*
X113691721Y-55669474D01*
X113670841Y-55674257D01*
X113635156Y-55681382D01*
X113593151Y-55689281D01*
X113553310Y-55696385D01*
X113524118Y-55701126D01*
X113514678Y-55702200D01*
X113512985Y-55690334D01*
X113512730Y-55657989D01*
X113513856Y-55610042D01*
X113516307Y-55551368D01*
X113516444Y-55548608D01*
X113521119Y-55480030D01*
X113527308Y-55425356D01*
X113534437Y-55388828D01*
X113539759Y-55376230D01*
X113579658Y-55344719D01*
X113637468Y-55320151D01*
X113706317Y-55303898D01*
X113779333Y-55297330D01*
X113849647Y-55301817D01*
G36*
X111002722Y-55297630D02*
X111067452Y-55302166D01*
X111109053Y-55309041D01*
X111127059Y-55317690D01*
X111121004Y-55327545D01*
X111090424Y-55338039D01*
X111043478Y-55347253D01*
X110996829Y-55355681D01*
X110960978Y-55363855D01*
X110942420Y-55370251D01*
X110941331Y-55371220D01*
X110938507Y-55386547D01*
X110934781Y-55421741D01*
X110930671Y-55471311D01*
X110927251Y-55520819D01*
X110918311Y-55662100D01*
X110839640Y-55675800D01*
X110786941Y-55685194D01*
X110751586Y-55689222D01*
X110730419Y-55684260D01*
X110720287Y-55666685D01*
X110718033Y-55632877D01*
X110720502Y-55579211D01*
X110722647Y-55541476D01*
X110726713Y-55475886D01*
X110731310Y-55430493D01*
X110737479Y-55400099D01*
X110746265Y-55379505D01*
X110758253Y-55363996D01*
X110806570Y-55327689D01*
X110871122Y-55305582D01*
X110954237Y-55297042D01*
X111002722Y-55297630D01*
X111002722Y-55297630D01*
G37*
X111002722Y-55297630D02*
X111067452Y-55302166D01*
X111109053Y-55309041D01*
X111127059Y-55317690D01*
X111121004Y-55327545D01*
X111090424Y-55338039D01*
X111043478Y-55347253D01*
X110996829Y-55355681D01*
X110960978Y-55363855D01*
X110942420Y-55370251D01*
X110941331Y-55371220D01*
X110938507Y-55386547D01*
X110934781Y-55421741D01*
X110930671Y-55471311D01*
X110927251Y-55520819D01*
X110918311Y-55662100D01*
X110839640Y-55675800D01*
X110786941Y-55685194D01*
X110751586Y-55689222D01*
X110730419Y-55684260D01*
X110720287Y-55666685D01*
X110718033Y-55632877D01*
X110720502Y-55579211D01*
X110722647Y-55541476D01*
X110726713Y-55475886D01*
X110731310Y-55430493D01*
X110737479Y-55400099D01*
X110746265Y-55379505D01*
X110758253Y-55363996D01*
X110806570Y-55327689D01*
X110871122Y-55305582D01*
X110954237Y-55297042D01*
X111002722Y-55297630D01*
G36*
X112121922Y-55298279D02*
X112185759Y-55303374D01*
X112226753Y-55310457D01*
X112244351Y-55319048D01*
X112237998Y-55328666D01*
X112207139Y-55338830D01*
X112175937Y-55345112D01*
X112130655Y-55352502D01*
X112093760Y-55357633D01*
X112075121Y-55359300D01*
X112063292Y-55371434D01*
X112053322Y-55405645D01*
X112045705Y-55458649D01*
X112040937Y-55527160D01*
X112039490Y-55596121D01*
X112039400Y-55661492D01*
X111958984Y-55675496D01*
X111905511Y-55685029D01*
X111869664Y-55689145D01*
X111848203Y-55684223D01*
X111837889Y-55666642D01*
X111835482Y-55632780D01*
X111837744Y-55579017D01*
X111839683Y-55542136D01*
X111843414Y-55476986D01*
X111847729Y-55431976D01*
X111853681Y-55401849D01*
X111862322Y-55381350D01*
X111874705Y-55365221D01*
X111875233Y-55364655D01*
X111923711Y-55327827D01*
X111987530Y-55305590D01*
X112069284Y-55297247D01*
X112121922Y-55298279D01*
X112121922Y-55298279D01*
G37*
X112121922Y-55298279D02*
X112185759Y-55303374D01*
X112226753Y-55310457D01*
X112244351Y-55319048D01*
X112237998Y-55328666D01*
X112207139Y-55338830D01*
X112175937Y-55345112D01*
X112130655Y-55352502D01*
X112093760Y-55357633D01*
X112075121Y-55359300D01*
X112063292Y-55371434D01*
X112053322Y-55405645D01*
X112045705Y-55458649D01*
X112040937Y-55527160D01*
X112039490Y-55596121D01*
X112039400Y-55661492D01*
X111958984Y-55675496D01*
X111905511Y-55685029D01*
X111869664Y-55689145D01*
X111848203Y-55684223D01*
X111837889Y-55666642D01*
X111835482Y-55632780D01*
X111837744Y-55579017D01*
X111839683Y-55542136D01*
X111843414Y-55476986D01*
X111847729Y-55431976D01*
X111853681Y-55401849D01*
X111862322Y-55381350D01*
X111874705Y-55365221D01*
X111875233Y-55364655D01*
X111923711Y-55327827D01*
X111987530Y-55305590D01*
X112069284Y-55297247D01*
X112121922Y-55298279D01*
G36*
X112683874Y-55298392D02*
X112750030Y-55302851D01*
X112793941Y-55309436D01*
X112814948Y-55317664D01*
X112812391Y-55327049D01*
X112785610Y-55337106D01*
X112747437Y-55345112D01*
X112702150Y-55352502D01*
X112665243Y-55357633D01*
X112646593Y-55359300D01*
X112634051Y-55371481D01*
X112623774Y-55406079D01*
X112616217Y-55460177D01*
X112611835Y-55530856D01*
X112610900Y-55588459D01*
X112610900Y-55661492D01*
X112530484Y-55675496D01*
X112473918Y-55684694D01*
X112437727Y-55688320D01*
X112417441Y-55686079D01*
X112408589Y-55677673D01*
X112406770Y-55667275D01*
X112406284Y-55620210D01*
X112407722Y-55561744D01*
X112410637Y-55501419D01*
X112414585Y-55448780D01*
X112418447Y-55417052D01*
X112425739Y-55387535D01*
X112439454Y-55366548D01*
X112465752Y-55347254D01*
X112496717Y-55330160D01*
X112531876Y-55312706D01*
X112561405Y-55302242D01*
X112593439Y-55297386D01*
X112636113Y-55296758D01*
X112683874Y-55298392D01*
X112683874Y-55298392D01*
G37*
X112683874Y-55298392D02*
X112750030Y-55302851D01*
X112793941Y-55309436D01*
X112814948Y-55317664D01*
X112812391Y-55327049D01*
X112785610Y-55337106D01*
X112747437Y-55345112D01*
X112702150Y-55352502D01*
X112665243Y-55357633D01*
X112646593Y-55359300D01*
X112634051Y-55371481D01*
X112623774Y-55406079D01*
X112616217Y-55460177D01*
X112611835Y-55530856D01*
X112610900Y-55588459D01*
X112610900Y-55661492D01*
X112530484Y-55675496D01*
X112473918Y-55684694D01*
X112437727Y-55688320D01*
X112417441Y-55686079D01*
X112408589Y-55677673D01*
X112406770Y-55667275D01*
X112406284Y-55620210D01*
X112407722Y-55561744D01*
X112410637Y-55501419D01*
X112414585Y-55448780D01*
X112418447Y-55417052D01*
X112425739Y-55387535D01*
X112439454Y-55366548D01*
X112465752Y-55347254D01*
X112496717Y-55330160D01*
X112531876Y-55312706D01*
X112561405Y-55302242D01*
X112593439Y-55297386D01*
X112636113Y-55296758D01*
X112683874Y-55298392D01*
G36*
X113299875Y-55294901D02*
X113338841Y-55304600D01*
X113365335Y-55314031D01*
X113372900Y-55319844D01*
X113361358Y-55326292D01*
X113330940Y-55334400D01*
X113287949Y-55342523D01*
X113282909Y-55343317D01*
X113237571Y-55351197D01*
X113202754Y-55358856D01*
X113185504Y-55364726D01*
X113185105Y-55365060D01*
X113178689Y-55382695D01*
X113172016Y-55419218D01*
X113165872Y-55468141D01*
X113161043Y-55522974D01*
X113158313Y-55577226D01*
X113158071Y-55588489D01*
X113157000Y-55658929D01*
X113067864Y-55674214D01*
X113021648Y-55681811D01*
X112984697Y-55687283D01*
X112964706Y-55689495D01*
X112964321Y-55689500D01*
X112957961Y-55680965D01*
X112954900Y-55653819D01*
X112955029Y-55605748D01*
X112957601Y-55546068D01*
X112961300Y-55486811D01*
X112965445Y-55435950D01*
X112969490Y-55399442D01*
X112972442Y-55384143D01*
X112997238Y-55352079D01*
X113041573Y-55324862D01*
X113099804Y-55304031D01*
X113166286Y-55291124D01*
X113235376Y-55287678D01*
X113299875Y-55294901D01*
X113299875Y-55294901D01*
G37*
X113299875Y-55294901D02*
X113338841Y-55304600D01*
X113365335Y-55314031D01*
X113372900Y-55319844D01*
X113361358Y-55326292D01*
X113330940Y-55334400D01*
X113287949Y-55342523D01*
X113282909Y-55343317D01*
X113237571Y-55351197D01*
X113202754Y-55358856D01*
X113185504Y-55364726D01*
X113185105Y-55365060D01*
X113178689Y-55382695D01*
X113172016Y-55419218D01*
X113165872Y-55468141D01*
X113161043Y-55522974D01*
X113158313Y-55577226D01*
X113158071Y-55588489D01*
X113157000Y-55658929D01*
X113067864Y-55674214D01*
X113021648Y-55681811D01*
X112984697Y-55687283D01*
X112964706Y-55689495D01*
X112964321Y-55689500D01*
X112957961Y-55680965D01*
X112954900Y-55653819D01*
X112955029Y-55605748D01*
X112957601Y-55546068D01*
X112961300Y-55486811D01*
X112965445Y-55435950D01*
X112969490Y-55399442D01*
X112972442Y-55384143D01*
X112997238Y-55352079D01*
X113041573Y-55324862D01*
X113099804Y-55304031D01*
X113166286Y-55291124D01*
X113235376Y-55287678D01*
X113299875Y-55294901D01*
G36*
X114797378Y-54883709D02*
X114805941Y-54887934D01*
X114812081Y-54896731D01*
X114816116Y-54913690D01*
X114818360Y-54942403D01*
X114819130Y-54986459D01*
X114818743Y-55049450D01*
X114817814Y-55115772D01*
X114814350Y-55340250D01*
X114782124Y-55344008D01*
X114754383Y-55343669D01*
X114740849Y-55338716D01*
X114737885Y-55323627D01*
X114735328Y-55287464D01*
X114733351Y-55234553D01*
X114732124Y-55169219D01*
X114731800Y-55110892D01*
X114732060Y-55030446D01*
X114733059Y-54971846D01*
X114735123Y-54931537D01*
X114738579Y-54905969D01*
X114743753Y-54891590D01*
X114750971Y-54884846D01*
X114752639Y-54884120D01*
X114782290Y-54880969D01*
X114797378Y-54883709D01*
X114797378Y-54883709D01*
G37*
X114797378Y-54883709D02*
X114805941Y-54887934D01*
X114812081Y-54896731D01*
X114816116Y-54913690D01*
X114818360Y-54942403D01*
X114819130Y-54986459D01*
X114818743Y-55049450D01*
X114817814Y-55115772D01*
X114814350Y-55340250D01*
X114782124Y-55344008D01*
X114754383Y-55343669D01*
X114740849Y-55338716D01*
X114737885Y-55323627D01*
X114735328Y-55287464D01*
X114733351Y-55234553D01*
X114732124Y-55169219D01*
X114731800Y-55110892D01*
X114732060Y-55030446D01*
X114733059Y-54971846D01*
X114735123Y-54931537D01*
X114738579Y-54905969D01*
X114743753Y-54891590D01*
X114750971Y-54884846D01*
X114752639Y-54884120D01*
X114782290Y-54880969D01*
X114797378Y-54883709D01*
G36*
X114957225Y-54884482D02*
X114965655Y-54892516D01*
X114971836Y-54906926D01*
X114976212Y-54931512D01*
X114979224Y-54970071D01*
X114981318Y-55026404D01*
X114982935Y-55104310D01*
X114982946Y-55104978D01*
X114983845Y-55189577D01*
X114982833Y-55252055D01*
X114979268Y-55295662D01*
X114972504Y-55323646D01*
X114961897Y-55339256D01*
X114946802Y-55345739D01*
X114935000Y-55346600D01*
X114907844Y-55337441D01*
X114898133Y-55329036D01*
X114891977Y-55309612D01*
X114888086Y-55268228D01*
X114886407Y-55203803D01*
X114886887Y-55115255D01*
X114887053Y-55104978D01*
X114888668Y-55026898D01*
X114890756Y-54970419D01*
X114893761Y-54931742D01*
X114898124Y-54907067D01*
X114904291Y-54892595D01*
X114912703Y-54884527D01*
X114912775Y-54884482D01*
X114940104Y-54877271D01*
X114957225Y-54884482D01*
X114957225Y-54884482D01*
G37*
X114957225Y-54884482D02*
X114965655Y-54892516D01*
X114971836Y-54906926D01*
X114976212Y-54931512D01*
X114979224Y-54970071D01*
X114981318Y-55026404D01*
X114982935Y-55104310D01*
X114982946Y-55104978D01*
X114983845Y-55189577D01*
X114982833Y-55252055D01*
X114979268Y-55295662D01*
X114972504Y-55323646D01*
X114961897Y-55339256D01*
X114946802Y-55345739D01*
X114935000Y-55346600D01*
X114907844Y-55337441D01*
X114898133Y-55329036D01*
X114891977Y-55309612D01*
X114888086Y-55268228D01*
X114886407Y-55203803D01*
X114886887Y-55115255D01*
X114887053Y-55104978D01*
X114888668Y-55026898D01*
X114890756Y-54970419D01*
X114893761Y-54931742D01*
X114898124Y-54907067D01*
X114904291Y-54892595D01*
X114912703Y-54884527D01*
X114912775Y-54884482D01*
X114940104Y-54877271D01*
X114957225Y-54884482D01*
G36*
X115108993Y-54888448D02*
X115118242Y-54896657D01*
X115126219Y-54908899D01*
X115131827Y-54929676D01*
X115135438Y-54962918D01*
X115137427Y-55012554D01*
X115138166Y-55082514D01*
X115138200Y-55107042D01*
X115137340Y-55177839D01*
X115134960Y-55239704D01*
X115131361Y-55287735D01*
X115126841Y-55317030D01*
X115125053Y-55322034D01*
X115104139Y-55339908D01*
X115074106Y-55346999D01*
X115048080Y-55340666D01*
X115045066Y-55338133D01*
X115040831Y-55321393D01*
X115037934Y-55284518D01*
X115036294Y-55232732D01*
X115035834Y-55171258D01*
X115036473Y-55105323D01*
X115038131Y-55040150D01*
X115040731Y-54980963D01*
X115044192Y-54932989D01*
X115048435Y-54901450D01*
X115051839Y-54891940D01*
X115079552Y-54877566D01*
X115108993Y-54888448D01*
X115108993Y-54888448D01*
G37*
X115108993Y-54888448D02*
X115118242Y-54896657D01*
X115126219Y-54908899D01*
X115131827Y-54929676D01*
X115135438Y-54962918D01*
X115137427Y-55012554D01*
X115138166Y-55082514D01*
X115138200Y-55107042D01*
X115137340Y-55177839D01*
X115134960Y-55239704D01*
X115131361Y-55287735D01*
X115126841Y-55317030D01*
X115125053Y-55322034D01*
X115104139Y-55339908D01*
X115074106Y-55346999D01*
X115048080Y-55340666D01*
X115045066Y-55338133D01*
X115040831Y-55321393D01*
X115037934Y-55284518D01*
X115036294Y-55232732D01*
X115035834Y-55171258D01*
X115036473Y-55105323D01*
X115038131Y-55040150D01*
X115040731Y-54980963D01*
X115044192Y-54932989D01*
X115048435Y-54901450D01*
X115051839Y-54891940D01*
X115079552Y-54877566D01*
X115108993Y-54888448D01*
G36*
X114940642Y-54145769D02*
X114955752Y-54174825D01*
X114977591Y-54221280D01*
X115004748Y-54282067D01*
X115035812Y-54354118D01*
X115060172Y-54412131D01*
X115097352Y-54502054D01*
X115125652Y-54571959D01*
X115146142Y-54625198D01*
X115159891Y-54665124D01*
X115167968Y-54695090D01*
X115171442Y-54718447D01*
X115171384Y-54738547D01*
X115169477Y-54754774D01*
X115162129Y-54789231D01*
X115153449Y-54810215D01*
X115149457Y-54813200D01*
X115138336Y-54804084D01*
X115138200Y-54802408D01*
X115133549Y-54787987D01*
X115120535Y-54753661D01*
X115100559Y-54702974D01*
X115075024Y-54639468D01*
X115045334Y-54566686D01*
X115032144Y-54534642D01*
X114926088Y-54277666D01*
X114838469Y-54475558D01*
X114802236Y-54556075D01*
X114774516Y-54614409D01*
X114754461Y-54651989D01*
X114741223Y-54670243D01*
X114733952Y-54670599D01*
X114731800Y-54655182D01*
X114736300Y-54638609D01*
X114748670Y-54602861D01*
X114767213Y-54552294D01*
X114790231Y-54491263D01*
X114816027Y-54424121D01*
X114842904Y-54355224D01*
X114869165Y-54288928D01*
X114893112Y-54229586D01*
X114913049Y-54181554D01*
X114927278Y-54149187D01*
X114933673Y-54137181D01*
X114940642Y-54145769D01*
X114940642Y-54145769D01*
G37*
X114940642Y-54145769D02*
X114955752Y-54174825D01*
X114977591Y-54221280D01*
X115004748Y-54282067D01*
X115035812Y-54354118D01*
X115060172Y-54412131D01*
X115097352Y-54502054D01*
X115125652Y-54571959D01*
X115146142Y-54625198D01*
X115159891Y-54665124D01*
X115167968Y-54695090D01*
X115171442Y-54718447D01*
X115171384Y-54738547D01*
X115169477Y-54754774D01*
X115162129Y-54789231D01*
X115153449Y-54810215D01*
X115149457Y-54813200D01*
X115138336Y-54804084D01*
X115138200Y-54802408D01*
X115133549Y-54787987D01*
X115120535Y-54753661D01*
X115100559Y-54702974D01*
X115075024Y-54639468D01*
X115045334Y-54566686D01*
X115032144Y-54534642D01*
X114926088Y-54277666D01*
X114838469Y-54475558D01*
X114802236Y-54556075D01*
X114774516Y-54614409D01*
X114754461Y-54651989D01*
X114741223Y-54670243D01*
X114733952Y-54670599D01*
X114731800Y-54655182D01*
X114736300Y-54638609D01*
X114748670Y-54602861D01*
X114767213Y-54552294D01*
X114790231Y-54491263D01*
X114816027Y-54424121D01*
X114842904Y-54355224D01*
X114869165Y-54288928D01*
X114893112Y-54229586D01*
X114913049Y-54181554D01*
X114927278Y-54149187D01*
X114933673Y-54137181D01*
X114940642Y-54145769D01*
G36*
X111956874Y-53828511D02*
X111989877Y-53844777D01*
X112036454Y-53869197D01*
X112092351Y-53899571D01*
X112118629Y-53914158D01*
X112282529Y-54005716D01*
X112274211Y-54050052D01*
X112265890Y-54079911D01*
X112250389Y-54102908D01*
X112221947Y-54125550D01*
X112189488Y-54145719D01*
X112165696Y-54158320D01*
X112155619Y-54154887D01*
X112151388Y-54132846D01*
X112146836Y-54118279D01*
X112134676Y-54103138D01*
X112111630Y-54085061D01*
X112074419Y-54061687D01*
X112019766Y-54030653D01*
X111977396Y-54007458D01*
X111807442Y-53915139D01*
X111628515Y-53995180D01*
X111566633Y-54022360D01*
X111513280Y-54044842D01*
X111472550Y-54060975D01*
X111448539Y-54069109D01*
X111443927Y-54069561D01*
X111443558Y-54059414D01*
X111458128Y-54051161D01*
X111491245Y-54034356D01*
X111538773Y-54010965D01*
X111596580Y-53982953D01*
X111660528Y-53952286D01*
X111726485Y-53920929D01*
X111790314Y-53890848D01*
X111847882Y-53864009D01*
X111895054Y-53842378D01*
X111927694Y-53827920D01*
X111941669Y-53822600D01*
X111941696Y-53822600D01*
X111956874Y-53828511D01*
X111956874Y-53828511D01*
G37*
X111956874Y-53828511D02*
X111989877Y-53844777D01*
X112036454Y-53869197D01*
X112092351Y-53899571D01*
X112118629Y-53914158D01*
X112282529Y-54005716D01*
X112274211Y-54050052D01*
X112265890Y-54079911D01*
X112250389Y-54102908D01*
X112221947Y-54125550D01*
X112189488Y-54145719D01*
X112165696Y-54158320D01*
X112155619Y-54154887D01*
X112151388Y-54132846D01*
X112146836Y-54118279D01*
X112134676Y-54103138D01*
X112111630Y-54085061D01*
X112074419Y-54061687D01*
X112019766Y-54030653D01*
X111977396Y-54007458D01*
X111807442Y-53915139D01*
X111628515Y-53995180D01*
X111566633Y-54022360D01*
X111513280Y-54044842D01*
X111472550Y-54060975D01*
X111448539Y-54069109D01*
X111443927Y-54069561D01*
X111443558Y-54059414D01*
X111458128Y-54051161D01*
X111491245Y-54034356D01*
X111538773Y-54010965D01*
X111596580Y-53982953D01*
X111660528Y-53952286D01*
X111726485Y-53920929D01*
X111790314Y-53890848D01*
X111847882Y-53864009D01*
X111895054Y-53842378D01*
X111927694Y-53827920D01*
X111941669Y-53822600D01*
X111941696Y-53822600D01*
X111956874Y-53828511D01*
D12*
X169330000Y-59444000D02*
X169330000Y-60444000D01*
X171030000Y-60444000D02*
X171030000Y-59444000D01*
X173168000Y-54416000D02*
X175828000Y-54416000D01*
X173168000Y-51816000D02*
X173168000Y-54416000D01*
X175828000Y-51816000D02*
X175828000Y-54416000D01*
X173168000Y-51816000D02*
X175828000Y-51816000D01*
X173168000Y-50546000D02*
X173168000Y-49216000D01*
X173168000Y-49216000D02*
X174498000Y-49216000D01*
D13*
X169775143Y-56808666D02*
X169822762Y-56856285D01*
X169870381Y-56999142D01*
X169870381Y-57094380D01*
X169822762Y-57237238D01*
X169727524Y-57332476D01*
X169632286Y-57380095D01*
X169441810Y-57427714D01*
X169298952Y-57427714D01*
X169108476Y-57380095D01*
X169013238Y-57332476D01*
X168918000Y-57237238D01*
X168870381Y-57094380D01*
X168870381Y-56999142D01*
X168918000Y-56856285D01*
X168965619Y-56808666D01*
X169870381Y-55856285D02*
X169870381Y-56427714D01*
X169870381Y-56142000D02*
X168870381Y-56142000D01*
X169013238Y-56237238D01*
X169108476Y-56332476D01*
X169156095Y-56427714D01*
X164679334Y-58777143D02*
X164631715Y-58824762D01*
X164488858Y-58872381D01*
X164393620Y-58872381D01*
X164250762Y-58824762D01*
X164155524Y-58729524D01*
X164107905Y-58634286D01*
X164060286Y-58443810D01*
X164060286Y-58300952D01*
X164107905Y-58110476D01*
X164155524Y-58015238D01*
X164250762Y-57920000D01*
X164393620Y-57872381D01*
X164488858Y-57872381D01*
X164631715Y-57920000D01*
X164679334Y-57967619D01*
X165060286Y-57967619D02*
X165107905Y-57920000D01*
X165203143Y-57872381D01*
X165441239Y-57872381D01*
X165536477Y-57920000D01*
X165584096Y-57967619D01*
X165631715Y-58062857D01*
X165631715Y-58158095D01*
X165584096Y-58300952D01*
X165012667Y-58872381D01*
X165631715Y-58872381D01*
X143597334Y-36425143D02*
X143549715Y-36472762D01*
X143406858Y-36520381D01*
X143311620Y-36520381D01*
X143168762Y-36472762D01*
X143073524Y-36377524D01*
X143025905Y-36282286D01*
X142978286Y-36091810D01*
X142978286Y-35948952D01*
X143025905Y-35758476D01*
X143073524Y-35663238D01*
X143168762Y-35568000D01*
X143311620Y-35520381D01*
X143406858Y-35520381D01*
X143549715Y-35568000D01*
X143597334Y-35615619D01*
X143930667Y-35520381D02*
X144549715Y-35520381D01*
X144216381Y-35901333D01*
X144359239Y-35901333D01*
X144454477Y-35948952D01*
X144502096Y-35996571D01*
X144549715Y-36091810D01*
X144549715Y-36329905D01*
X144502096Y-36425143D01*
X144454477Y-36472762D01*
X144359239Y-36520381D01*
X144073524Y-36520381D01*
X143978286Y-36472762D01*
X143930667Y-36425143D01*
X139533334Y-37949143D02*
X139485715Y-37996762D01*
X139342858Y-38044381D01*
X139247620Y-38044381D01*
X139104762Y-37996762D01*
X139009524Y-37901524D01*
X138961905Y-37806286D01*
X138914286Y-37615810D01*
X138914286Y-37472952D01*
X138961905Y-37282476D01*
X139009524Y-37187238D01*
X139104762Y-37092000D01*
X139247620Y-37044381D01*
X139342858Y-37044381D01*
X139485715Y-37092000D01*
X139533334Y-37139619D01*
X140390477Y-37377714D02*
X140390477Y-38044381D01*
X140152381Y-36996762D02*
X139914286Y-37711048D01*
X140533334Y-37711048D01*
X132929334Y-35663143D02*
X132881715Y-35710762D01*
X132738858Y-35758381D01*
X132643620Y-35758381D01*
X132500762Y-35710762D01*
X132405524Y-35615524D01*
X132357905Y-35520286D01*
X132310286Y-35329810D01*
X132310286Y-35186952D01*
X132357905Y-34996476D01*
X132405524Y-34901238D01*
X132500762Y-34806000D01*
X132643620Y-34758381D01*
X132738858Y-34758381D01*
X132881715Y-34806000D01*
X132929334Y-34853619D01*
X133834096Y-34758381D02*
X133357905Y-34758381D01*
X133310286Y-35234571D01*
X133357905Y-35186952D01*
X133453143Y-35139333D01*
X133691239Y-35139333D01*
X133786477Y-35186952D01*
X133834096Y-35234571D01*
X133881715Y-35329810D01*
X133881715Y-35567905D01*
X133834096Y-35663143D01*
X133786477Y-35710762D01*
X133691239Y-35758381D01*
X133453143Y-35758381D01*
X133357905Y-35710762D01*
X133310286Y-35663143D01*
X135723334Y-37949143D02*
X135675715Y-37996762D01*
X135532858Y-38044381D01*
X135437620Y-38044381D01*
X135294762Y-37996762D01*
X135199524Y-37901524D01*
X135151905Y-37806286D01*
X135104286Y-37615810D01*
X135104286Y-37472952D01*
X135151905Y-37282476D01*
X135199524Y-37187238D01*
X135294762Y-37092000D01*
X135437620Y-37044381D01*
X135532858Y-37044381D01*
X135675715Y-37092000D01*
X135723334Y-37139619D01*
X136580477Y-37044381D02*
X136390000Y-37044381D01*
X136294762Y-37092000D01*
X136247143Y-37139619D01*
X136151905Y-37282476D01*
X136104286Y-37472952D01*
X136104286Y-37853905D01*
X136151905Y-37949143D01*
X136199524Y-37996762D01*
X136294762Y-38044381D01*
X136485239Y-38044381D01*
X136580477Y-37996762D01*
X136628096Y-37949143D01*
X136675715Y-37853905D01*
X136675715Y-37615810D01*
X136628096Y-37520571D01*
X136580477Y-37472952D01*
X136485239Y-37425333D01*
X136294762Y-37425333D01*
X136199524Y-37472952D01*
X136151905Y-37520571D01*
X136104286Y-37615810D01*
X176871334Y-75795143D02*
X176823715Y-75842762D01*
X176680858Y-75890381D01*
X176585620Y-75890381D01*
X176442762Y-75842762D01*
X176347524Y-75747524D01*
X176299905Y-75652286D01*
X176252286Y-75461810D01*
X176252286Y-75318952D01*
X176299905Y-75128476D01*
X176347524Y-75033238D01*
X176442762Y-74938000D01*
X176585620Y-74890381D01*
X176680858Y-74890381D01*
X176823715Y-74938000D01*
X176871334Y-74985619D01*
X177204667Y-74890381D02*
X177871334Y-74890381D01*
X177442762Y-75890381D01*
X179919334Y-75795143D02*
X179871715Y-75842762D01*
X179728858Y-75890381D01*
X179633620Y-75890381D01*
X179490762Y-75842762D01*
X179395524Y-75747524D01*
X179347905Y-75652286D01*
X179300286Y-75461810D01*
X179300286Y-75318952D01*
X179347905Y-75128476D01*
X179395524Y-75033238D01*
X179490762Y-74938000D01*
X179633620Y-74890381D01*
X179728858Y-74890381D01*
X179871715Y-74938000D01*
X179919334Y-74985619D01*
X180490762Y-75318952D02*
X180395524Y-75271333D01*
X180347905Y-75223714D01*
X180300286Y-75128476D01*
X180300286Y-75080857D01*
X180347905Y-74985619D01*
X180395524Y-74938000D01*
X180490762Y-74890381D01*
X180681239Y-74890381D01*
X180776477Y-74938000D01*
X180824096Y-74985619D01*
X180871715Y-75080857D01*
X180871715Y-75128476D01*
X180824096Y-75223714D01*
X180776477Y-75271333D01*
X180681239Y-75318952D01*
X180490762Y-75318952D01*
X180395524Y-75366571D01*
X180347905Y-75414190D01*
X180300286Y-75509429D01*
X180300286Y-75699905D01*
X180347905Y-75795143D01*
X180395524Y-75842762D01*
X180490762Y-75890381D01*
X180681239Y-75890381D01*
X180776477Y-75842762D01*
X180824096Y-75795143D01*
X180871715Y-75699905D01*
X180871715Y-75509429D01*
X180824096Y-75414190D01*
X180776477Y-75366571D01*
X180681239Y-75318952D01*
X180681334Y-65889143D02*
X180633715Y-65936762D01*
X180490858Y-65984381D01*
X180395620Y-65984381D01*
X180252762Y-65936762D01*
X180157524Y-65841524D01*
X180109905Y-65746286D01*
X180062286Y-65555810D01*
X180062286Y-65412952D01*
X180109905Y-65222476D01*
X180157524Y-65127238D01*
X180252762Y-65032000D01*
X180395620Y-64984381D01*
X180490858Y-64984381D01*
X180633715Y-65032000D01*
X180681334Y-65079619D01*
X181157524Y-65984381D02*
X181348000Y-65984381D01*
X181443239Y-65936762D01*
X181490858Y-65889143D01*
X181586096Y-65746286D01*
X181633715Y-65555810D01*
X181633715Y-65174857D01*
X181586096Y-65079619D01*
X181538477Y-65032000D01*
X181443239Y-64984381D01*
X181252762Y-64984381D01*
X181157524Y-65032000D01*
X181109905Y-65079619D01*
X181062286Y-65174857D01*
X181062286Y-65412952D01*
X181109905Y-65508190D01*
X181157524Y-65555810D01*
X181252762Y-65603429D01*
X181443239Y-65603429D01*
X181538477Y-65555810D01*
X181586096Y-65508190D01*
X181633715Y-65412952D01*
X177411143Y-65889143D02*
X177363524Y-65936762D01*
X177220667Y-65984381D01*
X177125429Y-65984381D01*
X176982571Y-65936762D01*
X176887333Y-65841524D01*
X176839714Y-65746286D01*
X176792095Y-65555810D01*
X176792095Y-65412952D01*
X176839714Y-65222476D01*
X176887333Y-65127238D01*
X176982571Y-65032000D01*
X177125429Y-64984381D01*
X177220667Y-64984381D01*
X177363524Y-65032000D01*
X177411143Y-65079619D01*
X178363524Y-65984381D02*
X177792095Y-65984381D01*
X178077809Y-65984381D02*
X178077809Y-64984381D01*
X177982571Y-65127238D01*
X177887333Y-65222476D01*
X177792095Y-65270095D01*
X178982571Y-64984381D02*
X179077810Y-64984381D01*
X179173048Y-65032000D01*
X179220667Y-65079619D01*
X179268286Y-65174857D01*
X179315905Y-65365333D01*
X179315905Y-65603429D01*
X179268286Y-65793905D01*
X179220667Y-65889143D01*
X179173048Y-65936762D01*
X179077810Y-65984381D01*
X178982571Y-65984381D01*
X178887333Y-65936762D01*
X178839714Y-65889143D01*
X178792095Y-65793905D01*
X178744476Y-65603429D01*
X178744476Y-65365333D01*
X178792095Y-65174857D01*
X178839714Y-65079619D01*
X178887333Y-65032000D01*
X178982571Y-64984381D01*
X180951143Y-56776857D02*
X180998762Y-56824476D01*
X181046381Y-56967333D01*
X181046381Y-57062571D01*
X180998762Y-57205429D01*
X180903524Y-57300667D01*
X180808286Y-57348286D01*
X180617810Y-57395905D01*
X180474952Y-57395905D01*
X180284476Y-57348286D01*
X180189238Y-57300667D01*
X180094000Y-57205429D01*
X180046381Y-57062571D01*
X180046381Y-56967333D01*
X180094000Y-56824476D01*
X180141619Y-56776857D01*
X181046381Y-55824476D02*
X181046381Y-56395905D01*
X181046381Y-56110191D02*
X180046381Y-56110191D01*
X180189238Y-56205429D01*
X180284476Y-56300667D01*
X180332095Y-56395905D01*
X181046381Y-54872095D02*
X181046381Y-55443524D01*
X181046381Y-55157810D02*
X180046381Y-55157810D01*
X180189238Y-55253048D01*
X180284476Y-55348286D01*
X180332095Y-55443524D01*
X194937143Y-64111143D02*
X194889524Y-64158762D01*
X194746667Y-64206381D01*
X194651429Y-64206381D01*
X194508571Y-64158762D01*
X194413333Y-64063524D01*
X194365714Y-63968286D01*
X194318095Y-63777810D01*
X194318095Y-63634952D01*
X194365714Y-63444476D01*
X194413333Y-63349238D01*
X194508571Y-63254000D01*
X194651429Y-63206381D01*
X194746667Y-63206381D01*
X194889524Y-63254000D01*
X194937143Y-63301619D01*
X195889524Y-64206381D02*
X195318095Y-64206381D01*
X195603809Y-64206381D02*
X195603809Y-63206381D01*
X195508571Y-63349238D01*
X195413333Y-63444476D01*
X195318095Y-63492095D01*
X196270476Y-63301619D02*
X196318095Y-63254000D01*
X196413333Y-63206381D01*
X196651429Y-63206381D01*
X196746667Y-63254000D01*
X196794286Y-63301619D01*
X196841905Y-63396857D01*
X196841905Y-63492095D01*
X196794286Y-63634952D01*
X196222857Y-64206381D01*
X196841905Y-64206381D01*
X195445143Y-56999143D02*
X195397524Y-57046762D01*
X195254667Y-57094381D01*
X195159429Y-57094381D01*
X195016571Y-57046762D01*
X194921333Y-56951524D01*
X194873714Y-56856286D01*
X194826095Y-56665810D01*
X194826095Y-56522952D01*
X194873714Y-56332476D01*
X194921333Y-56237238D01*
X195016571Y-56142000D01*
X195159429Y-56094381D01*
X195254667Y-56094381D01*
X195397524Y-56142000D01*
X195445143Y-56189619D01*
X196397524Y-57094381D02*
X195826095Y-57094381D01*
X196111809Y-57094381D02*
X196111809Y-56094381D01*
X196016571Y-56237238D01*
X195921333Y-56332476D01*
X195826095Y-56380095D01*
X196730857Y-56094381D02*
X197349905Y-56094381D01*
X197016571Y-56475333D01*
X197159429Y-56475333D01*
X197254667Y-56522952D01*
X197302286Y-56570571D01*
X197349905Y-56665810D01*
X197349905Y-56903905D01*
X197302286Y-56999143D01*
X197254667Y-57046762D01*
X197159429Y-57094381D01*
X196873714Y-57094381D01*
X196778476Y-57046762D01*
X196730857Y-56999143D01*
X172077143Y-61825143D02*
X172029524Y-61872762D01*
X171886667Y-61920381D01*
X171791429Y-61920381D01*
X171648571Y-61872762D01*
X171553333Y-61777524D01*
X171505714Y-61682286D01*
X171458095Y-61491810D01*
X171458095Y-61348952D01*
X171505714Y-61158476D01*
X171553333Y-61063238D01*
X171648571Y-60968000D01*
X171791429Y-60920381D01*
X171886667Y-60920381D01*
X172029524Y-60968000D01*
X172077143Y-61015619D01*
X173029524Y-61920381D02*
X172458095Y-61920381D01*
X172743809Y-61920381D02*
X172743809Y-60920381D01*
X172648571Y-61063238D01*
X172553333Y-61158476D01*
X172458095Y-61206095D01*
X173886667Y-61253714D02*
X173886667Y-61920381D01*
X173648571Y-60872762D02*
X173410476Y-61587048D01*
X174029524Y-61587048D01*
X146931143Y-48109143D02*
X146883524Y-48156762D01*
X146740667Y-48204381D01*
X146645429Y-48204381D01*
X146502571Y-48156762D01*
X146407333Y-48061524D01*
X146359714Y-47966286D01*
X146312095Y-47775810D01*
X146312095Y-47632952D01*
X146359714Y-47442476D01*
X146407333Y-47347238D01*
X146502571Y-47252000D01*
X146645429Y-47204381D01*
X146740667Y-47204381D01*
X146883524Y-47252000D01*
X146931143Y-47299619D01*
X147883524Y-48204381D02*
X147312095Y-48204381D01*
X147597809Y-48204381D02*
X147597809Y-47204381D01*
X147502571Y-47347238D01*
X147407333Y-47442476D01*
X147312095Y-47490095D01*
X148788286Y-47204381D02*
X148312095Y-47204381D01*
X148264476Y-47680571D01*
X148312095Y-47632952D01*
X148407333Y-47585333D01*
X148645429Y-47585333D01*
X148740667Y-47632952D01*
X148788286Y-47680571D01*
X148835905Y-47775810D01*
X148835905Y-48013905D01*
X148788286Y-48109143D01*
X148740667Y-48156762D01*
X148645429Y-48204381D01*
X148407333Y-48204381D01*
X148312095Y-48156762D01*
X148264476Y-48109143D01*
X178665143Y-49664857D02*
X178712762Y-49712476D01*
X178760381Y-49855333D01*
X178760381Y-49950571D01*
X178712762Y-50093429D01*
X178617524Y-50188667D01*
X178522286Y-50236286D01*
X178331810Y-50283905D01*
X178188952Y-50283905D01*
X177998476Y-50236286D01*
X177903238Y-50188667D01*
X177808000Y-50093429D01*
X177760381Y-49950571D01*
X177760381Y-49855333D01*
X177808000Y-49712476D01*
X177855619Y-49664857D01*
X178760381Y-48712476D02*
X178760381Y-49283905D01*
X178760381Y-48998191D02*
X177760381Y-48998191D01*
X177903238Y-49093429D01*
X177998476Y-49188667D01*
X178046095Y-49283905D01*
X178188952Y-48141048D02*
X178141333Y-48236286D01*
X178093714Y-48283905D01*
X177998476Y-48331524D01*
X177950857Y-48331524D01*
X177855619Y-48283905D01*
X177808000Y-48236286D01*
X177760381Y-48141048D01*
X177760381Y-47950571D01*
X177808000Y-47855333D01*
X177855619Y-47807714D01*
X177950857Y-47760095D01*
X177998476Y-47760095D01*
X178093714Y-47807714D01*
X178141333Y-47855333D01*
X178188952Y-47950571D01*
X178188952Y-48141048D01*
X178236571Y-48236286D01*
X178284190Y-48283905D01*
X178379429Y-48331524D01*
X178569905Y-48331524D01*
X178665143Y-48283905D01*
X178712762Y-48236286D01*
X178760381Y-48141048D01*
X178760381Y-47950571D01*
X178712762Y-47855333D01*
X178665143Y-47807714D01*
X178569905Y-47760095D01*
X178379429Y-47760095D01*
X178284190Y-47807714D01*
X178236571Y-47855333D01*
X178188952Y-47950571D01*
X188333143Y-49887143D02*
X188285524Y-49934762D01*
X188142667Y-49982381D01*
X188047429Y-49982381D01*
X187904571Y-49934762D01*
X187809333Y-49839524D01*
X187761714Y-49744286D01*
X187714095Y-49553810D01*
X187714095Y-49410952D01*
X187761714Y-49220476D01*
X187809333Y-49125238D01*
X187904571Y-49030000D01*
X188047429Y-48982381D01*
X188142667Y-48982381D01*
X188285524Y-49030000D01*
X188333143Y-49077619D01*
X189285524Y-49982381D02*
X188714095Y-49982381D01*
X188999809Y-49982381D02*
X188999809Y-48982381D01*
X188904571Y-49125238D01*
X188809333Y-49220476D01*
X188714095Y-49268095D01*
X189761714Y-49982381D02*
X189952190Y-49982381D01*
X190047429Y-49934762D01*
X190095048Y-49887143D01*
X190190286Y-49744286D01*
X190237905Y-49553810D01*
X190237905Y-49172857D01*
X190190286Y-49077619D01*
X190142667Y-49030000D01*
X190047429Y-48982381D01*
X189856952Y-48982381D01*
X189761714Y-49030000D01*
X189714095Y-49077619D01*
X189666476Y-49172857D01*
X189666476Y-49410952D01*
X189714095Y-49506190D01*
X189761714Y-49553810D01*
X189856952Y-49601429D01*
X190047429Y-49601429D01*
X190142667Y-49553810D01*
X190190286Y-49506190D01*
X190237905Y-49410952D01*
X181983143Y-49633143D02*
X181935524Y-49680762D01*
X181792667Y-49728381D01*
X181697429Y-49728381D01*
X181554571Y-49680762D01*
X181459333Y-49585524D01*
X181411714Y-49490286D01*
X181364095Y-49299810D01*
X181364095Y-49156952D01*
X181411714Y-48966476D01*
X181459333Y-48871238D01*
X181554571Y-48776000D01*
X181697429Y-48728381D01*
X181792667Y-48728381D01*
X181935524Y-48776000D01*
X181983143Y-48823619D01*
X182364095Y-48823619D02*
X182411714Y-48776000D01*
X182506952Y-48728381D01*
X182745048Y-48728381D01*
X182840286Y-48776000D01*
X182887905Y-48823619D01*
X182935524Y-48918857D01*
X182935524Y-49014095D01*
X182887905Y-49156952D01*
X182316476Y-49728381D01*
X182935524Y-49728381D01*
X183554571Y-48728381D02*
X183649810Y-48728381D01*
X183745048Y-48776000D01*
X183792667Y-48823619D01*
X183840286Y-48918857D01*
X183887905Y-49109333D01*
X183887905Y-49347429D01*
X183840286Y-49537905D01*
X183792667Y-49633143D01*
X183745048Y-49680762D01*
X183649810Y-49728381D01*
X183554571Y-49728381D01*
X183459333Y-49680762D01*
X183411714Y-49633143D01*
X183364095Y-49537905D01*
X183316476Y-49347429D01*
X183316476Y-49109333D01*
X183364095Y-48918857D01*
X183411714Y-48823619D01*
X183459333Y-48776000D01*
X183554571Y-48728381D01*
X169775143Y-45854857D02*
X169822762Y-45902476D01*
X169870381Y-46045333D01*
X169870381Y-46140571D01*
X169822762Y-46283429D01*
X169727524Y-46378667D01*
X169632286Y-46426286D01*
X169441810Y-46473905D01*
X169298952Y-46473905D01*
X169108476Y-46426286D01*
X169013238Y-46378667D01*
X168918000Y-46283429D01*
X168870381Y-46140571D01*
X168870381Y-46045333D01*
X168918000Y-45902476D01*
X168965619Y-45854857D01*
X168965619Y-45473905D02*
X168918000Y-45426286D01*
X168870381Y-45331048D01*
X168870381Y-45092952D01*
X168918000Y-44997714D01*
X168965619Y-44950095D01*
X169060857Y-44902476D01*
X169156095Y-44902476D01*
X169298952Y-44950095D01*
X169870381Y-45521524D01*
X169870381Y-44902476D01*
X169870381Y-43950095D02*
X169870381Y-44521524D01*
X169870381Y-44235810D02*
X168870381Y-44235810D01*
X169013238Y-44331048D01*
X169108476Y-44426286D01*
X169156095Y-44521524D01*
X195191143Y-49887143D02*
X195143524Y-49934762D01*
X195000667Y-49982381D01*
X194905429Y-49982381D01*
X194762571Y-49934762D01*
X194667333Y-49839524D01*
X194619714Y-49744286D01*
X194572095Y-49553810D01*
X194572095Y-49410952D01*
X194619714Y-49220476D01*
X194667333Y-49125238D01*
X194762571Y-49030000D01*
X194905429Y-48982381D01*
X195000667Y-48982381D01*
X195143524Y-49030000D01*
X195191143Y-49077619D01*
X195572095Y-49077619D02*
X195619714Y-49030000D01*
X195714952Y-48982381D01*
X195953048Y-48982381D01*
X196048286Y-49030000D01*
X196095905Y-49077619D01*
X196143524Y-49172857D01*
X196143524Y-49268095D01*
X196095905Y-49410952D01*
X195524476Y-49982381D01*
X196143524Y-49982381D01*
X196524476Y-49077619D02*
X196572095Y-49030000D01*
X196667333Y-48982381D01*
X196905429Y-48982381D01*
X197000667Y-49030000D01*
X197048286Y-49077619D01*
X197095905Y-49172857D01*
X197095905Y-49268095D01*
X197048286Y-49410952D01*
X196476857Y-49982381D01*
X197095905Y-49982381D01*
X164695143Y-44584857D02*
X164742762Y-44632476D01*
X164790381Y-44775333D01*
X164790381Y-44870571D01*
X164742762Y-45013429D01*
X164647524Y-45108667D01*
X164552286Y-45156286D01*
X164361810Y-45203905D01*
X164218952Y-45203905D01*
X164028476Y-45156286D01*
X163933238Y-45108667D01*
X163838000Y-45013429D01*
X163790381Y-44870571D01*
X163790381Y-44775333D01*
X163838000Y-44632476D01*
X163885619Y-44584857D01*
X163885619Y-44203905D02*
X163838000Y-44156286D01*
X163790381Y-44061048D01*
X163790381Y-43822952D01*
X163838000Y-43727714D01*
X163885619Y-43680095D01*
X163980857Y-43632476D01*
X164076095Y-43632476D01*
X164218952Y-43680095D01*
X164790381Y-44251524D01*
X164790381Y-43632476D01*
X163790381Y-43299143D02*
X163790381Y-42680095D01*
X164171333Y-43013429D01*
X164171333Y-42870571D01*
X164218952Y-42775333D01*
X164266571Y-42727714D01*
X164361810Y-42680095D01*
X164599905Y-42680095D01*
X164695143Y-42727714D01*
X164742762Y-42775333D01*
X164790381Y-42870571D01*
X164790381Y-43156286D01*
X164742762Y-43251524D01*
X164695143Y-43299143D01*
X192857143Y-31642857D02*
X192904762Y-31690476D01*
X192952381Y-31833333D01*
X192952381Y-31928571D01*
X192904762Y-32071429D01*
X192809524Y-32166667D01*
X192714286Y-32214286D01*
X192523810Y-32261905D01*
X192380952Y-32261905D01*
X192190476Y-32214286D01*
X192095238Y-32166667D01*
X192000000Y-32071429D01*
X191952381Y-31928571D01*
X191952381Y-31833333D01*
X192000000Y-31690476D01*
X192047619Y-31642857D01*
X192047619Y-31261905D02*
X192000000Y-31214286D01*
X191952381Y-31119048D01*
X191952381Y-30880952D01*
X192000000Y-30785714D01*
X192047619Y-30738095D01*
X192142857Y-30690476D01*
X192238095Y-30690476D01*
X192380952Y-30738095D01*
X192952381Y-31309524D01*
X192952381Y-30690476D01*
X192285714Y-29833333D02*
X192952381Y-29833333D01*
X191904762Y-30071429D02*
X192619048Y-30309524D01*
X192619048Y-29690476D01*
X160631143Y-71762857D02*
X160678762Y-71810476D01*
X160726381Y-71953333D01*
X160726381Y-72048571D01*
X160678762Y-72191429D01*
X160583524Y-72286667D01*
X160488286Y-72334286D01*
X160297810Y-72381905D01*
X160154952Y-72381905D01*
X159964476Y-72334286D01*
X159869238Y-72286667D01*
X159774000Y-72191429D01*
X159726381Y-72048571D01*
X159726381Y-71953333D01*
X159774000Y-71810476D01*
X159821619Y-71762857D01*
X159821619Y-71381905D02*
X159774000Y-71334286D01*
X159726381Y-71239048D01*
X159726381Y-71000952D01*
X159774000Y-70905714D01*
X159821619Y-70858095D01*
X159916857Y-70810476D01*
X160012095Y-70810476D01*
X160154952Y-70858095D01*
X160726381Y-71429524D01*
X160726381Y-70810476D01*
X159726381Y-69905714D02*
X159726381Y-70381905D01*
X160202571Y-70429524D01*
X160154952Y-70381905D01*
X160107333Y-70286667D01*
X160107333Y-70048571D01*
X160154952Y-69953333D01*
X160202571Y-69905714D01*
X160297810Y-69858095D01*
X160535905Y-69858095D01*
X160631143Y-69905714D01*
X160678762Y-69953333D01*
X160726381Y-70048571D01*
X160726381Y-70286667D01*
X160678762Y-70381905D01*
X160631143Y-70429524D01*
X127881143Y-68175143D02*
X127833524Y-68222762D01*
X127690667Y-68270381D01*
X127595429Y-68270381D01*
X127452571Y-68222762D01*
X127357333Y-68127524D01*
X127309714Y-68032286D01*
X127262095Y-67841810D01*
X127262095Y-67698952D01*
X127309714Y-67508476D01*
X127357333Y-67413238D01*
X127452571Y-67318000D01*
X127595429Y-67270381D01*
X127690667Y-67270381D01*
X127833524Y-67318000D01*
X127881143Y-67365619D01*
X128262095Y-67365619D02*
X128309714Y-67318000D01*
X128404952Y-67270381D01*
X128643048Y-67270381D01*
X128738286Y-67318000D01*
X128785905Y-67365619D01*
X128833524Y-67460857D01*
X128833524Y-67556095D01*
X128785905Y-67698952D01*
X128214476Y-68270381D01*
X128833524Y-68270381D01*
X129690667Y-67270381D02*
X129500190Y-67270381D01*
X129404952Y-67318000D01*
X129357333Y-67365619D01*
X129262095Y-67508476D01*
X129214476Y-67698952D01*
X129214476Y-68079905D01*
X129262095Y-68175143D01*
X129309714Y-68222762D01*
X129404952Y-68270381D01*
X129595429Y-68270381D01*
X129690667Y-68222762D01*
X129738286Y-68175143D01*
X129785905Y-68079905D01*
X129785905Y-67841810D01*
X129738286Y-67746571D01*
X129690667Y-67698952D01*
X129595429Y-67651333D01*
X129404952Y-67651333D01*
X129309714Y-67698952D01*
X129262095Y-67746571D01*
X129214476Y-67841810D01*
X125833143Y-56522857D02*
X125880762Y-56570476D01*
X125928381Y-56713333D01*
X125928381Y-56808571D01*
X125880762Y-56951429D01*
X125785524Y-57046667D01*
X125690286Y-57094286D01*
X125499810Y-57141905D01*
X125356952Y-57141905D01*
X125166476Y-57094286D01*
X125071238Y-57046667D01*
X124976000Y-56951429D01*
X124928381Y-56808571D01*
X124928381Y-56713333D01*
X124976000Y-56570476D01*
X125023619Y-56522857D01*
X125023619Y-56141905D02*
X124976000Y-56094286D01*
X124928381Y-55999048D01*
X124928381Y-55760952D01*
X124976000Y-55665714D01*
X125023619Y-55618095D01*
X125118857Y-55570476D01*
X125214095Y-55570476D01*
X125356952Y-55618095D01*
X125928381Y-56189524D01*
X125928381Y-55570476D01*
X124928381Y-55237143D02*
X124928381Y-54570476D01*
X125928381Y-54999048D01*
X131770381Y-23058191D02*
X130770381Y-23058191D01*
X130770381Y-22677238D01*
X130818000Y-22582000D01*
X130865619Y-22534381D01*
X130960857Y-22486762D01*
X131103714Y-22486762D01*
X131198952Y-22534381D01*
X131246571Y-22582000D01*
X131294190Y-22677238D01*
X131294190Y-23058191D01*
X131770381Y-21915334D02*
X131722762Y-22010572D01*
X131675143Y-22058191D01*
X131579905Y-22105810D01*
X131294190Y-22105810D01*
X131198952Y-22058191D01*
X131151333Y-22010572D01*
X131103714Y-21915334D01*
X131103714Y-21772476D01*
X131151333Y-21677238D01*
X131198952Y-21629619D01*
X131294190Y-21582000D01*
X131579905Y-21582000D01*
X131675143Y-21629619D01*
X131722762Y-21677238D01*
X131770381Y-21772476D01*
X131770381Y-21915334D01*
X131103714Y-21248667D02*
X131770381Y-21058191D01*
X131294190Y-20867714D01*
X131770381Y-20677238D01*
X131103714Y-20486762D01*
X131722762Y-19724857D02*
X131770381Y-19820095D01*
X131770381Y-20010572D01*
X131722762Y-20105810D01*
X131627524Y-20153429D01*
X131246571Y-20153429D01*
X131151333Y-20105810D01*
X131103714Y-20010572D01*
X131103714Y-19820095D01*
X131151333Y-19724857D01*
X131246571Y-19677238D01*
X131341810Y-19677238D01*
X131437048Y-20153429D01*
X131770381Y-19248667D02*
X131103714Y-19248667D01*
X131294190Y-19248667D02*
X131198952Y-19201048D01*
X131151333Y-19153429D01*
X131103714Y-19058191D01*
X131103714Y-18962952D01*
D15*
X184609619Y-75504524D02*
X184004857Y-75504524D01*
X184004857Y-74234524D01*
X185032952Y-74839286D02*
X185456285Y-74839286D01*
X185637714Y-75504524D02*
X185032952Y-75504524D01*
X185032952Y-74234524D01*
X185637714Y-74234524D01*
X186182000Y-75504524D02*
X186182000Y-74234524D01*
X186605333Y-75141667D01*
X187028667Y-74234524D01*
X187028667Y-75504524D01*
X187875334Y-74234524D02*
X188117238Y-74234524D01*
X188238191Y-74295000D01*
X188359143Y-74415952D01*
X188419619Y-74657857D01*
X188419619Y-75081190D01*
X188359143Y-75323095D01*
X188238191Y-75444048D01*
X188117238Y-75504524D01*
X187875334Y-75504524D01*
X187754381Y-75444048D01*
X187633429Y-75323095D01*
X187572953Y-75081190D01*
X187572953Y-74657857D01*
X187633429Y-74415952D01*
X187754381Y-74295000D01*
X187875334Y-74234524D01*
D13*
X167052667Y-48982381D02*
X167052667Y-49696667D01*
X167005047Y-49839524D01*
X166909809Y-49934762D01*
X166766952Y-49982381D01*
X166671714Y-49982381D01*
X167433619Y-48982381D02*
X168052667Y-48982381D01*
X167719333Y-49363333D01*
X167862191Y-49363333D01*
X167957429Y-49410952D01*
X168005048Y-49458571D01*
X168052667Y-49553810D01*
X168052667Y-49791905D01*
X168005048Y-49887143D01*
X167957429Y-49934762D01*
X167862191Y-49982381D01*
X167576476Y-49982381D01*
X167481238Y-49934762D01*
X167433619Y-49887143D01*
X159752381Y-51333333D02*
X160466667Y-51333333D01*
X160609524Y-51380953D01*
X160704762Y-51476191D01*
X160752381Y-51619048D01*
X160752381Y-51714286D01*
X160085714Y-50428571D02*
X160752381Y-50428571D01*
X159704762Y-50666667D02*
X160419048Y-50904762D01*
X160419048Y-50285714D01*
X178628524Y-34096476D02*
X178628524Y-34701238D01*
X177358524Y-34701238D01*
X178628524Y-33491714D02*
X178568048Y-33612667D01*
X178507571Y-33673143D01*
X178386619Y-33733619D01*
X178023762Y-33733619D01*
X177902810Y-33673143D01*
X177842333Y-33612667D01*
X177781857Y-33491714D01*
X177781857Y-33310286D01*
X177842333Y-33189334D01*
X177902810Y-33128857D01*
X178023762Y-33068381D01*
X178386619Y-33068381D01*
X178507571Y-33128857D01*
X178568048Y-33189334D01*
X178628524Y-33310286D01*
X178628524Y-33491714D01*
X178628524Y-31979809D02*
X177963286Y-31979809D01*
X177842333Y-32040286D01*
X177781857Y-32161238D01*
X177781857Y-32403143D01*
X177842333Y-32524095D01*
X178568048Y-31979809D02*
X178628524Y-32100762D01*
X178628524Y-32403143D01*
X178568048Y-32524095D01*
X178447095Y-32584571D01*
X178326143Y-32584571D01*
X178205190Y-32524095D01*
X178144714Y-32403143D01*
X178144714Y-32100762D01*
X178084238Y-31979809D01*
X178628524Y-30830761D02*
X177358524Y-30830761D01*
X178568048Y-30830761D02*
X178628524Y-30951714D01*
X178628524Y-31193618D01*
X178568048Y-31314571D01*
X178507571Y-31375047D01*
X178386619Y-31435523D01*
X178023762Y-31435523D01*
X177902810Y-31375047D01*
X177842333Y-31314571D01*
X177781857Y-31193618D01*
X177781857Y-30951714D01*
X177842333Y-30830761D01*
X118400286Y-37011429D02*
X118400286Y-35487429D01*
X119053429Y-35632571D02*
X119126000Y-35560000D01*
X119271143Y-35487429D01*
X119634000Y-35487429D01*
X119779143Y-35560000D01*
X119851714Y-35632571D01*
X119924286Y-35777714D01*
X119924286Y-35922857D01*
X119851714Y-36140571D01*
X118980857Y-37011429D01*
X119924286Y-37011429D01*
X121448286Y-36866286D02*
X121375715Y-36938857D01*
X121158001Y-37011429D01*
X121012858Y-37011429D01*
X120795143Y-36938857D01*
X120650001Y-36793714D01*
X120577429Y-36648571D01*
X120504858Y-36358286D01*
X120504858Y-36140571D01*
X120577429Y-35850286D01*
X120650001Y-35705143D01*
X120795143Y-35560000D01*
X121012858Y-35487429D01*
X121158001Y-35487429D01*
X121375715Y-35560000D01*
X121448286Y-35632571D01*
X149042762Y-32964381D02*
X149042762Y-31964381D01*
X149376096Y-32678667D01*
X149709429Y-31964381D01*
X149709429Y-32964381D01*
X150376095Y-31964381D02*
X150566572Y-31964381D01*
X150661810Y-32012000D01*
X150757048Y-32107238D01*
X150804667Y-32297714D01*
X150804667Y-32631048D01*
X150757048Y-32821524D01*
X150661810Y-32916762D01*
X150566572Y-32964381D01*
X150376095Y-32964381D01*
X150280857Y-32916762D01*
X150185619Y-32821524D01*
X150138000Y-32631048D01*
X150138000Y-32297714D01*
X150185619Y-32107238D01*
X150280857Y-32012000D01*
X150376095Y-31964381D01*
X151185619Y-32916762D02*
X151328476Y-32964381D01*
X151566572Y-32964381D01*
X151661810Y-32916762D01*
X151709429Y-32869143D01*
X151757048Y-32773905D01*
X151757048Y-32678667D01*
X151709429Y-32583429D01*
X151661810Y-32535810D01*
X151566572Y-32488190D01*
X151376095Y-32440571D01*
X151280857Y-32392952D01*
X151233238Y-32345333D01*
X151185619Y-32250095D01*
X151185619Y-32154857D01*
X151233238Y-32059619D01*
X151280857Y-32012000D01*
X151376095Y-31964381D01*
X151614191Y-31964381D01*
X151757048Y-32012000D01*
X152518953Y-32440571D02*
X152185619Y-32440571D01*
X152185619Y-32964381D02*
X152185619Y-31964381D01*
X152661810Y-31964381D01*
X153042762Y-32440571D02*
X153376096Y-32440571D01*
X153518953Y-32964381D02*
X153042762Y-32964381D01*
X153042762Y-31964381D01*
X153518953Y-31964381D01*
X153804667Y-31964381D02*
X154376096Y-31964381D01*
X154090381Y-32964381D02*
X154090381Y-31964381D01*
X171029334Y-75636381D02*
X170696000Y-75160190D01*
X170457905Y-75636381D02*
X170457905Y-74636381D01*
X170838858Y-74636381D01*
X170934096Y-74684000D01*
X170981715Y-74731619D01*
X171029334Y-74826857D01*
X171029334Y-74969714D01*
X170981715Y-75064952D01*
X170934096Y-75112571D01*
X170838858Y-75160190D01*
X170457905Y-75160190D01*
X171981715Y-75636381D02*
X171410286Y-75636381D01*
X171696000Y-75636381D02*
X171696000Y-74636381D01*
X171600762Y-74779238D01*
X171505524Y-74874476D01*
X171410286Y-74922095D01*
X159802381Y-56166666D02*
X159326190Y-56500000D01*
X159802381Y-56738095D02*
X158802381Y-56738095D01*
X158802381Y-56357142D01*
X158850000Y-56261904D01*
X158897619Y-56214285D01*
X158992857Y-56166666D01*
X159135714Y-56166666D01*
X159230952Y-56214285D01*
X159278571Y-56261904D01*
X159326190Y-56357142D01*
X159326190Y-56738095D01*
X158897619Y-55785714D02*
X158850000Y-55738095D01*
X158802381Y-55642857D01*
X158802381Y-55404761D01*
X158850000Y-55309523D01*
X158897619Y-55261904D01*
X158992857Y-55214285D01*
X159088095Y-55214285D01*
X159230952Y-55261904D01*
X159802381Y-55833333D01*
X159802381Y-55214285D01*
X173823334Y-75890381D02*
X173490000Y-75414190D01*
X173251905Y-75890381D02*
X173251905Y-74890381D01*
X173632858Y-74890381D01*
X173728096Y-74938000D01*
X173775715Y-74985619D01*
X173823334Y-75080857D01*
X173823334Y-75223714D01*
X173775715Y-75318952D01*
X173728096Y-75366571D01*
X173632858Y-75414190D01*
X173251905Y-75414190D01*
X174156667Y-74890381D02*
X174775715Y-74890381D01*
X174442381Y-75271333D01*
X174585239Y-75271333D01*
X174680477Y-75318952D01*
X174728096Y-75366571D01*
X174775715Y-75461810D01*
X174775715Y-75699905D01*
X174728096Y-75795143D01*
X174680477Y-75842762D01*
X174585239Y-75890381D01*
X174299524Y-75890381D01*
X174204286Y-75842762D01*
X174156667Y-75795143D01*
X170802381Y-66166666D02*
X170326190Y-66500000D01*
X170802381Y-66738095D02*
X169802381Y-66738095D01*
X169802381Y-66357142D01*
X169850000Y-66261904D01*
X169897619Y-66214285D01*
X169992857Y-66166666D01*
X170135714Y-66166666D01*
X170230952Y-66214285D01*
X170278571Y-66261904D01*
X170326190Y-66357142D01*
X170326190Y-66738095D01*
X170135714Y-65309523D02*
X170802381Y-65309523D01*
X169754762Y-65547619D02*
X170469048Y-65785714D01*
X170469048Y-65166666D01*
X173934381Y-68746666D02*
X173458190Y-69080000D01*
X173934381Y-69318095D02*
X172934381Y-69318095D01*
X172934381Y-68937142D01*
X172982000Y-68841904D01*
X173029619Y-68794285D01*
X173124857Y-68746666D01*
X173267714Y-68746666D01*
X173362952Y-68794285D01*
X173410571Y-68841904D01*
X173458190Y-68937142D01*
X173458190Y-69318095D01*
X172934381Y-67841904D02*
X172934381Y-68318095D01*
X173410571Y-68365714D01*
X173362952Y-68318095D01*
X173315333Y-68222857D01*
X173315333Y-67984761D01*
X173362952Y-67889523D01*
X173410571Y-67841904D01*
X173505810Y-67794285D01*
X173743905Y-67794285D01*
X173839143Y-67841904D01*
X173886762Y-67889523D01*
X173934381Y-67984761D01*
X173934381Y-68222857D01*
X173886762Y-68318095D01*
X173839143Y-68365714D01*
X173680381Y-63158666D02*
X173204190Y-63492000D01*
X173680381Y-63730095D02*
X172680381Y-63730095D01*
X172680381Y-63349142D01*
X172728000Y-63253904D01*
X172775619Y-63206285D01*
X172870857Y-63158666D01*
X173013714Y-63158666D01*
X173108952Y-63206285D01*
X173156571Y-63253904D01*
X173204190Y-63349142D01*
X173204190Y-63730095D01*
X172680381Y-62301523D02*
X172680381Y-62492000D01*
X172728000Y-62587238D01*
X172775619Y-62634857D01*
X172918476Y-62730095D01*
X173108952Y-62777714D01*
X173489905Y-62777714D01*
X173585143Y-62730095D01*
X173632762Y-62682476D01*
X173680381Y-62587238D01*
X173680381Y-62396761D01*
X173632762Y-62301523D01*
X173585143Y-62253904D01*
X173489905Y-62206285D01*
X173251810Y-62206285D01*
X173156571Y-62253904D01*
X173108952Y-62301523D01*
X173061333Y-62396761D01*
X173061333Y-62587238D01*
X173108952Y-62682476D01*
X173156571Y-62730095D01*
X173251810Y-62777714D01*
X181102381Y-61166666D02*
X180626190Y-61500000D01*
X181102381Y-61738095D02*
X180102381Y-61738095D01*
X180102381Y-61357142D01*
X180150000Y-61261904D01*
X180197619Y-61214285D01*
X180292857Y-61166666D01*
X180435714Y-61166666D01*
X180530952Y-61214285D01*
X180578571Y-61261904D01*
X180626190Y-61357142D01*
X180626190Y-61738095D01*
X180102381Y-60833333D02*
X180102381Y-60166666D01*
X181102381Y-60595238D01*
X192873334Y-57348381D02*
X192540000Y-56872190D01*
X192301905Y-57348381D02*
X192301905Y-56348381D01*
X192682858Y-56348381D01*
X192778096Y-56396000D01*
X192825715Y-56443619D01*
X192873334Y-56538857D01*
X192873334Y-56681714D01*
X192825715Y-56776952D01*
X192778096Y-56824571D01*
X192682858Y-56872190D01*
X192301905Y-56872190D01*
X193444762Y-56776952D02*
X193349524Y-56729333D01*
X193301905Y-56681714D01*
X193254286Y-56586476D01*
X193254286Y-56538857D01*
X193301905Y-56443619D01*
X193349524Y-56396000D01*
X193444762Y-56348381D01*
X193635239Y-56348381D01*
X193730477Y-56396000D01*
X193778096Y-56443619D01*
X193825715Y-56538857D01*
X193825715Y-56586476D01*
X193778096Y-56681714D01*
X193730477Y-56729333D01*
X193635239Y-56776952D01*
X193444762Y-56776952D01*
X193349524Y-56824571D01*
X193301905Y-56872190D01*
X193254286Y-56967429D01*
X193254286Y-57157905D01*
X193301905Y-57253143D01*
X193349524Y-57300762D01*
X193444762Y-57348381D01*
X193635239Y-57348381D01*
X193730477Y-57300762D01*
X193778096Y-57253143D01*
X193825715Y-57157905D01*
X193825715Y-56967429D01*
X193778096Y-56872190D01*
X193730477Y-56824571D01*
X193635239Y-56776952D01*
X181554381Y-53506666D02*
X181078190Y-53840000D01*
X181554381Y-54078095D02*
X180554381Y-54078095D01*
X180554381Y-53697142D01*
X180602000Y-53601904D01*
X180649619Y-53554285D01*
X180744857Y-53506666D01*
X180887714Y-53506666D01*
X180982952Y-53554285D01*
X181030571Y-53601904D01*
X181078190Y-53697142D01*
X181078190Y-54078095D01*
X181554381Y-53030476D02*
X181554381Y-52840000D01*
X181506762Y-52744761D01*
X181459143Y-52697142D01*
X181316286Y-52601904D01*
X181125810Y-52554285D01*
X180744857Y-52554285D01*
X180649619Y-52601904D01*
X180602000Y-52649523D01*
X180554381Y-52744761D01*
X180554381Y-52935238D01*
X180602000Y-53030476D01*
X180649619Y-53078095D01*
X180744857Y-53125714D01*
X180982952Y-53125714D01*
X181078190Y-53078095D01*
X181125810Y-53030476D01*
X181173429Y-52935238D01*
X181173429Y-52744761D01*
X181125810Y-52649523D01*
X181078190Y-52601904D01*
X180982952Y-52554285D01*
X189102381Y-55642857D02*
X188626190Y-55976191D01*
X189102381Y-56214286D02*
X188102381Y-56214286D01*
X188102381Y-55833333D01*
X188150000Y-55738095D01*
X188197619Y-55690476D01*
X188292857Y-55642857D01*
X188435714Y-55642857D01*
X188530952Y-55690476D01*
X188578571Y-55738095D01*
X188626190Y-55833333D01*
X188626190Y-56214286D01*
X189102381Y-54690476D02*
X189102381Y-55261905D01*
X189102381Y-54976191D02*
X188102381Y-54976191D01*
X188245238Y-55071429D01*
X188340476Y-55166667D01*
X188388095Y-55261905D01*
X188102381Y-54071429D02*
X188102381Y-53976190D01*
X188150000Y-53880952D01*
X188197619Y-53833333D01*
X188292857Y-53785714D01*
X188483333Y-53738095D01*
X188721429Y-53738095D01*
X188911905Y-53785714D01*
X189007143Y-53833333D01*
X189054762Y-53880952D01*
X189102381Y-53976190D01*
X189102381Y-54071429D01*
X189054762Y-54166667D01*
X189007143Y-54214286D01*
X188911905Y-54261905D01*
X188721429Y-54309524D01*
X188483333Y-54309524D01*
X188292857Y-54261905D01*
X188197619Y-54214286D01*
X188150000Y-54166667D01*
X188102381Y-54071429D01*
X191635143Y-53284381D02*
X191301809Y-52808190D01*
X191063714Y-53284381D02*
X191063714Y-52284381D01*
X191444667Y-52284381D01*
X191539905Y-52332000D01*
X191587524Y-52379619D01*
X191635143Y-52474857D01*
X191635143Y-52617714D01*
X191587524Y-52712952D01*
X191539905Y-52760571D01*
X191444667Y-52808190D01*
X191063714Y-52808190D01*
X192587524Y-53284381D02*
X192016095Y-53284381D01*
X192301809Y-53284381D02*
X192301809Y-52284381D01*
X192206571Y-52427238D01*
X192111333Y-52522476D01*
X192016095Y-52570095D01*
X193539905Y-53284381D02*
X192968476Y-53284381D01*
X193254190Y-53284381D02*
X193254190Y-52284381D01*
X193158952Y-52427238D01*
X193063714Y-52522476D01*
X192968476Y-52570095D01*
X174822381Y-57792857D02*
X174346190Y-58126191D01*
X174822381Y-58364286D02*
X173822381Y-58364286D01*
X173822381Y-57983333D01*
X173870000Y-57888095D01*
X173917619Y-57840476D01*
X174012857Y-57792857D01*
X174155714Y-57792857D01*
X174250952Y-57840476D01*
X174298571Y-57888095D01*
X174346190Y-57983333D01*
X174346190Y-58364286D01*
X174822381Y-56840476D02*
X174822381Y-57411905D01*
X174822381Y-57126191D02*
X173822381Y-57126191D01*
X173965238Y-57221429D01*
X174060476Y-57316667D01*
X174108095Y-57411905D01*
X173917619Y-56459524D02*
X173870000Y-56411905D01*
X173822381Y-56316667D01*
X173822381Y-56078571D01*
X173870000Y-55983333D01*
X173917619Y-55935714D01*
X174012857Y-55888095D01*
X174108095Y-55888095D01*
X174250952Y-55935714D01*
X174822381Y-56507143D01*
X174822381Y-55888095D01*
X196269429Y-45429715D02*
X195543714Y-45937715D01*
X196269429Y-46300572D02*
X194745429Y-46300572D01*
X194745429Y-45720000D01*
X194818000Y-45574858D01*
X194890571Y-45502286D01*
X195035714Y-45429715D01*
X195253429Y-45429715D01*
X195398571Y-45502286D01*
X195471143Y-45574858D01*
X195543714Y-45720000D01*
X195543714Y-46300572D01*
X196269429Y-43978286D02*
X196269429Y-44849143D01*
X196269429Y-44413715D02*
X194745429Y-44413715D01*
X194963143Y-44558858D01*
X195108286Y-44704000D01*
X195180857Y-44849143D01*
X194745429Y-43470286D02*
X194745429Y-42526857D01*
X195326000Y-43034857D01*
X195326000Y-42817143D01*
X195398571Y-42672000D01*
X195471143Y-42599429D01*
X195616286Y-42526857D01*
X195979143Y-42526857D01*
X196124286Y-42599429D01*
X196196857Y-42672000D01*
X196269429Y-42817143D01*
X196269429Y-43252571D01*
X196196857Y-43397714D01*
X196124286Y-43470286D01*
X198493143Y-53284381D02*
X198159809Y-52808190D01*
X197921714Y-53284381D02*
X197921714Y-52284381D01*
X198302667Y-52284381D01*
X198397905Y-52332000D01*
X198445524Y-52379619D01*
X198493143Y-52474857D01*
X198493143Y-52617714D01*
X198445524Y-52712952D01*
X198397905Y-52760571D01*
X198302667Y-52808190D01*
X197921714Y-52808190D01*
X199445524Y-53284381D02*
X198874095Y-53284381D01*
X199159809Y-53284381D02*
X199159809Y-52284381D01*
X199064571Y-52427238D01*
X198969333Y-52522476D01*
X198874095Y-52570095D01*
X200302667Y-52617714D02*
X200302667Y-53284381D01*
X200064571Y-52236762D02*
X199826476Y-52951048D01*
X200445524Y-52951048D01*
X153357143Y-56802381D02*
X153023809Y-56326190D01*
X152785714Y-56802381D02*
X152785714Y-55802381D01*
X153166667Y-55802381D01*
X153261905Y-55850000D01*
X153309524Y-55897619D01*
X153357143Y-55992857D01*
X153357143Y-56135714D01*
X153309524Y-56230952D01*
X153261905Y-56278571D01*
X153166667Y-56326190D01*
X152785714Y-56326190D01*
X154309524Y-56802381D02*
X153738095Y-56802381D01*
X154023809Y-56802381D02*
X154023809Y-55802381D01*
X153928571Y-55945238D01*
X153833333Y-56040476D01*
X153738095Y-56088095D01*
X155214286Y-55802381D02*
X154738095Y-55802381D01*
X154690476Y-56278571D01*
X154738095Y-56230952D01*
X154833333Y-56183333D01*
X155071429Y-56183333D01*
X155166667Y-56230952D01*
X155214286Y-56278571D01*
X155261905Y-56373810D01*
X155261905Y-56611905D01*
X155214286Y-56707143D01*
X155166667Y-56754762D01*
X155071429Y-56802381D01*
X154833333Y-56802381D01*
X154738095Y-56754762D01*
X154690476Y-56707143D01*
X149357143Y-60102381D02*
X149023809Y-59626190D01*
X148785714Y-60102381D02*
X148785714Y-59102381D01*
X149166667Y-59102381D01*
X149261905Y-59150000D01*
X149309524Y-59197619D01*
X149357143Y-59292857D01*
X149357143Y-59435714D01*
X149309524Y-59530952D01*
X149261905Y-59578571D01*
X149166667Y-59626190D01*
X148785714Y-59626190D01*
X150309524Y-60102381D02*
X149738095Y-60102381D01*
X150023809Y-60102381D02*
X150023809Y-59102381D01*
X149928571Y-59245238D01*
X149833333Y-59340476D01*
X149738095Y-59388095D01*
X151166667Y-59102381D02*
X150976190Y-59102381D01*
X150880952Y-59150000D01*
X150833333Y-59197619D01*
X150738095Y-59340476D01*
X150690476Y-59530952D01*
X150690476Y-59911905D01*
X150738095Y-60007143D01*
X150785714Y-60054762D01*
X150880952Y-60102381D01*
X151071429Y-60102381D01*
X151166667Y-60054762D01*
X151214286Y-60007143D01*
X151261905Y-59911905D01*
X151261905Y-59673810D01*
X151214286Y-59578571D01*
X151166667Y-59530952D01*
X151071429Y-59483333D01*
X150880952Y-59483333D01*
X150785714Y-59530952D01*
X150738095Y-59578571D01*
X150690476Y-59673810D01*
X167102381Y-71642857D02*
X166626190Y-71976191D01*
X167102381Y-72214286D02*
X166102381Y-72214286D01*
X166102381Y-71833333D01*
X166150000Y-71738095D01*
X166197619Y-71690476D01*
X166292857Y-71642857D01*
X166435714Y-71642857D01*
X166530952Y-71690476D01*
X166578571Y-71738095D01*
X166626190Y-71833333D01*
X166626190Y-72214286D01*
X167102381Y-70690476D02*
X167102381Y-71261905D01*
X167102381Y-70976191D02*
X166102381Y-70976191D01*
X166245238Y-71071429D01*
X166340476Y-71166667D01*
X166388095Y-71261905D01*
X166102381Y-70357143D02*
X166102381Y-69690476D01*
X167102381Y-70119048D01*
X167330381Y-67698857D02*
X166854190Y-68032191D01*
X167330381Y-68270286D02*
X166330381Y-68270286D01*
X166330381Y-67889333D01*
X166378000Y-67794095D01*
X166425619Y-67746476D01*
X166520857Y-67698857D01*
X166663714Y-67698857D01*
X166758952Y-67746476D01*
X166806571Y-67794095D01*
X166854190Y-67889333D01*
X166854190Y-68270286D01*
X167330381Y-66746476D02*
X167330381Y-67317905D01*
X167330381Y-67032191D02*
X166330381Y-67032191D01*
X166473238Y-67127429D01*
X166568476Y-67222667D01*
X166616095Y-67317905D01*
X166758952Y-66175048D02*
X166711333Y-66270286D01*
X166663714Y-66317905D01*
X166568476Y-66365524D01*
X166520857Y-66365524D01*
X166425619Y-66317905D01*
X166378000Y-66270286D01*
X166330381Y-66175048D01*
X166330381Y-65984571D01*
X166378000Y-65889333D01*
X166425619Y-65841714D01*
X166520857Y-65794095D01*
X166568476Y-65794095D01*
X166663714Y-65841714D01*
X166711333Y-65889333D01*
X166758952Y-65984571D01*
X166758952Y-66175048D01*
X166806571Y-66270286D01*
X166854190Y-66317905D01*
X166949429Y-66365524D01*
X167139905Y-66365524D01*
X167235143Y-66317905D01*
X167282762Y-66270286D01*
X167330381Y-66175048D01*
X167330381Y-65984571D01*
X167282762Y-65889333D01*
X167235143Y-65841714D01*
X167139905Y-65794095D01*
X166949429Y-65794095D01*
X166854190Y-65841714D01*
X166806571Y-65889333D01*
X166758952Y-65984571D01*
X160802381Y-67642857D02*
X160326190Y-67976191D01*
X160802381Y-68214286D02*
X159802381Y-68214286D01*
X159802381Y-67833333D01*
X159850000Y-67738095D01*
X159897619Y-67690476D01*
X159992857Y-67642857D01*
X160135714Y-67642857D01*
X160230952Y-67690476D01*
X160278571Y-67738095D01*
X160326190Y-67833333D01*
X160326190Y-68214286D01*
X160802381Y-66690476D02*
X160802381Y-67261905D01*
X160802381Y-66976191D02*
X159802381Y-66976191D01*
X159945238Y-67071429D01*
X160040476Y-67166667D01*
X160088095Y-67261905D01*
X160802381Y-66214286D02*
X160802381Y-66023810D01*
X160754762Y-65928571D01*
X160707143Y-65880952D01*
X160564286Y-65785714D01*
X160373810Y-65738095D01*
X159992857Y-65738095D01*
X159897619Y-65785714D01*
X159850000Y-65833333D01*
X159802381Y-65928571D01*
X159802381Y-66119048D01*
X159850000Y-66214286D01*
X159897619Y-66261905D01*
X159992857Y-66309524D01*
X160230952Y-66309524D01*
X160326190Y-66261905D01*
X160373810Y-66214286D01*
X160421429Y-66119048D01*
X160421429Y-65928571D01*
X160373810Y-65833333D01*
X160326190Y-65785714D01*
X160230952Y-65738095D01*
X127357143Y-51802381D02*
X127023809Y-51326190D01*
X126785714Y-51802381D02*
X126785714Y-50802381D01*
X127166667Y-50802381D01*
X127261905Y-50850000D01*
X127309524Y-50897619D01*
X127357143Y-50992857D01*
X127357143Y-51135714D01*
X127309524Y-51230952D01*
X127261905Y-51278571D01*
X127166667Y-51326190D01*
X126785714Y-51326190D01*
X127738095Y-50897619D02*
X127785714Y-50850000D01*
X127880952Y-50802381D01*
X128119048Y-50802381D01*
X128214286Y-50850000D01*
X128261905Y-50897619D01*
X128309524Y-50992857D01*
X128309524Y-51088095D01*
X128261905Y-51230952D01*
X127690476Y-51802381D01*
X128309524Y-51802381D01*
X128928571Y-50802381D02*
X129023810Y-50802381D01*
X129119048Y-50850000D01*
X129166667Y-50897619D01*
X129214286Y-50992857D01*
X129261905Y-51183333D01*
X129261905Y-51421429D01*
X129214286Y-51611905D01*
X129166667Y-51707143D01*
X129119048Y-51754762D01*
X129023810Y-51802381D01*
X128928571Y-51802381D01*
X128833333Y-51754762D01*
X128785714Y-51707143D01*
X128738095Y-51611905D01*
X128690476Y-51421429D01*
X128690476Y-51183333D01*
X128738095Y-50992857D01*
X128785714Y-50897619D01*
X128833333Y-50850000D01*
X128928571Y-50802381D01*
X134102381Y-54642857D02*
X133626190Y-54976191D01*
X134102381Y-55214286D02*
X133102381Y-55214286D01*
X133102381Y-54833333D01*
X133150000Y-54738095D01*
X133197619Y-54690476D01*
X133292857Y-54642857D01*
X133435714Y-54642857D01*
X133530952Y-54690476D01*
X133578571Y-54738095D01*
X133626190Y-54833333D01*
X133626190Y-55214286D01*
X133197619Y-54261905D02*
X133150000Y-54214286D01*
X133102381Y-54119048D01*
X133102381Y-53880952D01*
X133150000Y-53785714D01*
X133197619Y-53738095D01*
X133292857Y-53690476D01*
X133388095Y-53690476D01*
X133530952Y-53738095D01*
X134102381Y-54309524D01*
X134102381Y-53690476D01*
X134102381Y-52738095D02*
X134102381Y-53309524D01*
X134102381Y-53023810D02*
X133102381Y-53023810D01*
X133245238Y-53119048D01*
X133340476Y-53214286D01*
X133388095Y-53309524D01*
X160594524Y-62217904D02*
X159324524Y-62217904D01*
X159324524Y-61915523D01*
X159385000Y-61734095D01*
X159505952Y-61613142D01*
X159626905Y-61552666D01*
X159868810Y-61492190D01*
X160050238Y-61492190D01*
X160292143Y-61552666D01*
X160413095Y-61613142D01*
X160534048Y-61734095D01*
X160594524Y-61915523D01*
X160594524Y-62217904D01*
X160231667Y-61008380D02*
X160231667Y-60403618D01*
X160594524Y-61129333D02*
X159324524Y-60705999D01*
X160594524Y-60282666D01*
X160473571Y-59133619D02*
X160534048Y-59194095D01*
X160594524Y-59375524D01*
X160594524Y-59496476D01*
X160534048Y-59677904D01*
X160413095Y-59798857D01*
X160292143Y-59859333D01*
X160050238Y-59919809D01*
X159868810Y-59919809D01*
X159626905Y-59859333D01*
X159505952Y-59798857D01*
X159385000Y-59677904D01*
X159324524Y-59496476D01*
X159324524Y-59375524D01*
X159385000Y-59194095D01*
X159445476Y-59133619D01*
X184459905Y-56856381D02*
X184650382Y-56856381D01*
X184745620Y-56904000D01*
X184840858Y-56999238D01*
X184888477Y-57189714D01*
X184888477Y-57523048D01*
X184840858Y-57713524D01*
X184745620Y-57808762D01*
X184650382Y-57856381D01*
X184459905Y-57856381D01*
X184364667Y-57808762D01*
X184269429Y-57713524D01*
X184221810Y-57523048D01*
X184221810Y-57189714D01*
X184269429Y-56999238D01*
X184364667Y-56904000D01*
X184459905Y-56856381D01*
X185317048Y-57189714D02*
X185317048Y-58189714D01*
X185317048Y-57237333D02*
X185412286Y-57189714D01*
X185602763Y-57189714D01*
X185698001Y-57237333D01*
X185745620Y-57284952D01*
X185793239Y-57380190D01*
X185793239Y-57665905D01*
X185745620Y-57761143D01*
X185698001Y-57808762D01*
X185602763Y-57856381D01*
X185412286Y-57856381D01*
X185317048Y-57808762D01*
X186221810Y-57475429D02*
X186983715Y-57475429D01*
X187888477Y-57856381D02*
X187888477Y-57332571D01*
X187840858Y-57237333D01*
X187745620Y-57189714D01*
X187555143Y-57189714D01*
X187459905Y-57237333D01*
X187888477Y-57808762D02*
X187793239Y-57856381D01*
X187555143Y-57856381D01*
X187459905Y-57808762D01*
X187412286Y-57713524D01*
X187412286Y-57618286D01*
X187459905Y-57523048D01*
X187555143Y-57475429D01*
X187793239Y-57475429D01*
X187888477Y-57427810D01*
X188364667Y-57856381D02*
X188364667Y-57189714D01*
X188364667Y-57284952D02*
X188412286Y-57237333D01*
X188507524Y-57189714D01*
X188650382Y-57189714D01*
X188745620Y-57237333D01*
X188793239Y-57332571D01*
X188793239Y-57856381D01*
X188793239Y-57332571D02*
X188840858Y-57237333D01*
X188936096Y-57189714D01*
X189078953Y-57189714D01*
X189174191Y-57237333D01*
X189221810Y-57332571D01*
X189221810Y-57856381D01*
X189698000Y-57189714D02*
X189698000Y-58189714D01*
X189698000Y-57237333D02*
X189793238Y-57189714D01*
X189983715Y-57189714D01*
X190078953Y-57237333D01*
X190126572Y-57284952D01*
X190174191Y-57380190D01*
X190174191Y-57665905D01*
X190126572Y-57761143D01*
X190078953Y-57808762D01*
X189983715Y-57856381D01*
X189793238Y-57856381D01*
X189698000Y-57808762D01*
X154238095Y-38952381D02*
X154238095Y-39761905D01*
X154285714Y-39857143D01*
X154333333Y-39904762D01*
X154428571Y-39952381D01*
X154619048Y-39952381D01*
X154714286Y-39904762D01*
X154761905Y-39857143D01*
X154809524Y-39761905D01*
X154809524Y-38952381D01*
X155190476Y-38952381D02*
X155809524Y-38952381D01*
X155476190Y-39333333D01*
X155619048Y-39333333D01*
X155714286Y-39380952D01*
X155761905Y-39428571D01*
X155809524Y-39523810D01*
X155809524Y-39761905D01*
X155761905Y-39857143D01*
X155714286Y-39904762D01*
X155619048Y-39952381D01*
X155333333Y-39952381D01*
X155238095Y-39904762D01*
X155190476Y-39857143D01*
X157852381Y-65761905D02*
X158661905Y-65761905D01*
X158757143Y-65714286D01*
X158804762Y-65666667D01*
X158852381Y-65571429D01*
X158852381Y-65380952D01*
X158804762Y-65285714D01*
X158757143Y-65238095D01*
X158661905Y-65190476D01*
X157852381Y-65190476D01*
X158185714Y-64285714D02*
X158852381Y-64285714D01*
X157804762Y-64523810D02*
X158519048Y-64761905D01*
X158519048Y-64142857D01*
X136152095Y-74128381D02*
X136152095Y-74937905D01*
X136199714Y-75033143D01*
X136247333Y-75080762D01*
X136342571Y-75128381D01*
X136533048Y-75128381D01*
X136628286Y-75080762D01*
X136675905Y-75033143D01*
X136723524Y-74937905D01*
X136723524Y-74128381D01*
X137152095Y-75080762D02*
X137294952Y-75128381D01*
X137533048Y-75128381D01*
X137628286Y-75080762D01*
X137675905Y-75033143D01*
X137723524Y-74937905D01*
X137723524Y-74842667D01*
X137675905Y-74747429D01*
X137628286Y-74699810D01*
X137533048Y-74652190D01*
X137342571Y-74604571D01*
X137247333Y-74556952D01*
X137199714Y-74509333D01*
X137152095Y-74414095D01*
X137152095Y-74318857D01*
X137199714Y-74223619D01*
X137247333Y-74176000D01*
X137342571Y-74128381D01*
X137580667Y-74128381D01*
X137723524Y-74176000D01*
X138485429Y-74604571D02*
X138628286Y-74652190D01*
X138675905Y-74699810D01*
X138723524Y-74795048D01*
X138723524Y-74937905D01*
X138675905Y-75033143D01*
X138628286Y-75080762D01*
X138533048Y-75128381D01*
X138152095Y-75128381D01*
X138152095Y-74128381D01*
X138485429Y-74128381D01*
X138580667Y-74176000D01*
X138628286Y-74223619D01*
X138675905Y-74318857D01*
X138675905Y-74414095D01*
X138628286Y-74509333D01*
X138580667Y-74556952D01*
X138485429Y-74604571D01*
X138152095Y-74604571D01*
X122213334Y-54977143D02*
X122165715Y-55024762D01*
X122022858Y-55072381D01*
X121927620Y-55072381D01*
X121784762Y-55024762D01*
X121689524Y-54929524D01*
X121641905Y-54834286D01*
X121594286Y-54643810D01*
X121594286Y-54500952D01*
X121641905Y-54310476D01*
X121689524Y-54215238D01*
X121784762Y-54120000D01*
X121927620Y-54072381D01*
X122022858Y-54072381D01*
X122165715Y-54120000D01*
X122213334Y-54167619D01*
X122594286Y-54167619D02*
X122641905Y-54120000D01*
X122737143Y-54072381D01*
X122975239Y-54072381D01*
X123070477Y-54120000D01*
X123118096Y-54167619D01*
X123165715Y-54262857D01*
X123165715Y-54358095D01*
X123118096Y-54500952D01*
X122546667Y-55072381D01*
X123165715Y-55072381D01*
X122213334Y-52437143D02*
X122165715Y-52484762D01*
X122022858Y-52532381D01*
X121927620Y-52532381D01*
X121784762Y-52484762D01*
X121689524Y-52389524D01*
X121641905Y-52294286D01*
X121594286Y-52103810D01*
X121594286Y-51960952D01*
X121641905Y-51770476D01*
X121689524Y-51675238D01*
X121784762Y-51580000D01*
X121927620Y-51532381D01*
X122022858Y-51532381D01*
X122165715Y-51580000D01*
X122213334Y-51627619D01*
X123165715Y-52532381D02*
X122594286Y-52532381D01*
X122880000Y-52532381D02*
X122880000Y-51532381D01*
X122784762Y-51675238D01*
X122689524Y-51770476D01*
X122594286Y-51818095D01*
X122213334Y-49897143D02*
X122165715Y-49944762D01*
X122022858Y-49992381D01*
X121927620Y-49992381D01*
X121784762Y-49944762D01*
X121689524Y-49849524D01*
X121641905Y-49754286D01*
X121594286Y-49563810D01*
X121594286Y-49420952D01*
X121641905Y-49230476D01*
X121689524Y-49135238D01*
X121784762Y-49040000D01*
X121927620Y-48992381D01*
X122022858Y-48992381D01*
X122165715Y-49040000D01*
X122213334Y-49087619D01*
X122832381Y-48992381D02*
X122927620Y-48992381D01*
X123022858Y-49040000D01*
X123070477Y-49087619D01*
X123118096Y-49182857D01*
X123165715Y-49373333D01*
X123165715Y-49611429D01*
X123118096Y-49801905D01*
X123070477Y-49897143D01*
X123022858Y-49944762D01*
X122927620Y-49992381D01*
X122832381Y-49992381D01*
X122737143Y-49944762D01*
X122689524Y-49897143D01*
X122641905Y-49801905D01*
X122594286Y-49611429D01*
X122594286Y-49373333D01*
X122641905Y-49182857D01*
X122689524Y-49087619D01*
X122737143Y-49040000D01*
X122832381Y-48992381D01*
X122213334Y-57517143D02*
X122165715Y-57564762D01*
X122022858Y-57612381D01*
X121927620Y-57612381D01*
X121784762Y-57564762D01*
X121689524Y-57469524D01*
X121641905Y-57374286D01*
X121594286Y-57183810D01*
X121594286Y-57040952D01*
X121641905Y-56850476D01*
X121689524Y-56755238D01*
X121784762Y-56660000D01*
X121927620Y-56612381D01*
X122022858Y-56612381D01*
X122165715Y-56660000D01*
X122213334Y-56707619D01*
X122546667Y-56612381D02*
X123165715Y-56612381D01*
X122832381Y-56993333D01*
X122975239Y-56993333D01*
X123070477Y-57040952D01*
X123118096Y-57088571D01*
X123165715Y-57183810D01*
X123165715Y-57421905D01*
X123118096Y-57517143D01*
X123070477Y-57564762D01*
X122975239Y-57612381D01*
X122689524Y-57612381D01*
X122594286Y-57564762D01*
X122546667Y-57517143D01*
X122213334Y-60057143D02*
X122165715Y-60104762D01*
X122022858Y-60152381D01*
X121927620Y-60152381D01*
X121784762Y-60104762D01*
X121689524Y-60009524D01*
X121641905Y-59914286D01*
X121594286Y-59723810D01*
X121594286Y-59580952D01*
X121641905Y-59390476D01*
X121689524Y-59295238D01*
X121784762Y-59200000D01*
X121927620Y-59152381D01*
X122022858Y-59152381D01*
X122165715Y-59200000D01*
X122213334Y-59247619D01*
X123070477Y-59485714D02*
X123070477Y-60152381D01*
X122832381Y-59104762D02*
X122594286Y-59819048D01*
X123213334Y-59819048D01*
X122213334Y-62597143D02*
X122165715Y-62644762D01*
X122022858Y-62692381D01*
X121927620Y-62692381D01*
X121784762Y-62644762D01*
X121689524Y-62549524D01*
X121641905Y-62454286D01*
X121594286Y-62263810D01*
X121594286Y-62120952D01*
X121641905Y-61930476D01*
X121689524Y-61835238D01*
X121784762Y-61740000D01*
X121927620Y-61692381D01*
X122022858Y-61692381D01*
X122165715Y-61740000D01*
X122213334Y-61787619D01*
X123118096Y-61692381D02*
X122641905Y-61692381D01*
X122594286Y-62168571D01*
X122641905Y-62120952D01*
X122737143Y-62073333D01*
X122975239Y-62073333D01*
X123070477Y-62120952D01*
X123118096Y-62168571D01*
X123165715Y-62263810D01*
X123165715Y-62501905D01*
X123118096Y-62597143D01*
X123070477Y-62644762D01*
X122975239Y-62692381D01*
X122737143Y-62692381D01*
X122641905Y-62644762D01*
X122594286Y-62597143D01*
X122213334Y-65137143D02*
X122165715Y-65184762D01*
X122022858Y-65232381D01*
X121927620Y-65232381D01*
X121784762Y-65184762D01*
X121689524Y-65089524D01*
X121641905Y-64994286D01*
X121594286Y-64803810D01*
X121594286Y-64660952D01*
X121641905Y-64470476D01*
X121689524Y-64375238D01*
X121784762Y-64280000D01*
X121927620Y-64232381D01*
X122022858Y-64232381D01*
X122165715Y-64280000D01*
X122213334Y-64327619D01*
X123070477Y-64232381D02*
X122880000Y-64232381D01*
X122784762Y-64280000D01*
X122737143Y-64327619D01*
X122641905Y-64470476D01*
X122594286Y-64660952D01*
X122594286Y-65041905D01*
X122641905Y-65137143D01*
X122689524Y-65184762D01*
X122784762Y-65232381D01*
X122975239Y-65232381D01*
X123070477Y-65184762D01*
X123118096Y-65137143D01*
X123165715Y-65041905D01*
X123165715Y-64803810D01*
X123118096Y-64708571D01*
X123070477Y-64660952D01*
X122975239Y-64613333D01*
X122784762Y-64613333D01*
X122689524Y-64660952D01*
X122641905Y-64708571D01*
X122594286Y-64803810D01*
X122213334Y-67677143D02*
X122165715Y-67724762D01*
X122022858Y-67772381D01*
X121927620Y-67772381D01*
X121784762Y-67724762D01*
X121689524Y-67629524D01*
X121641905Y-67534286D01*
X121594286Y-67343810D01*
X121594286Y-67200952D01*
X121641905Y-67010476D01*
X121689524Y-66915238D01*
X121784762Y-66820000D01*
X121927620Y-66772381D01*
X122022858Y-66772381D01*
X122165715Y-66820000D01*
X122213334Y-66867619D01*
X122546667Y-66772381D02*
X123213334Y-66772381D01*
X122784762Y-67772381D01*
X122213334Y-70217143D02*
X122165715Y-70264762D01*
X122022858Y-70312381D01*
X121927620Y-70312381D01*
X121784762Y-70264762D01*
X121689524Y-70169524D01*
X121641905Y-70074286D01*
X121594286Y-69883810D01*
X121594286Y-69740952D01*
X121641905Y-69550476D01*
X121689524Y-69455238D01*
X121784762Y-69360000D01*
X121927620Y-69312381D01*
X122022858Y-69312381D01*
X122165715Y-69360000D01*
X122213334Y-69407619D01*
X122784762Y-69740952D02*
X122689524Y-69693333D01*
X122641905Y-69645714D01*
X122594286Y-69550476D01*
X122594286Y-69502857D01*
X122641905Y-69407619D01*
X122689524Y-69360000D01*
X122784762Y-69312381D01*
X122975239Y-69312381D01*
X123070477Y-69360000D01*
X123118096Y-69407619D01*
X123165715Y-69502857D01*
X123165715Y-69550476D01*
X123118096Y-69645714D01*
X123070477Y-69693333D01*
X122975239Y-69740952D01*
X122784762Y-69740952D01*
X122689524Y-69788571D01*
X122641905Y-69836190D01*
X122594286Y-69931429D01*
X122594286Y-70121905D01*
X122641905Y-70217143D01*
X122689524Y-70264762D01*
X122784762Y-70312381D01*
X122975239Y-70312381D01*
X123070477Y-70264762D01*
X123118096Y-70217143D01*
X123165715Y-70121905D01*
X123165715Y-69931429D01*
X123118096Y-69836190D01*
X123070477Y-69788571D01*
X122975239Y-69740952D01*
X122213334Y-72757143D02*
X122165715Y-72804762D01*
X122022858Y-72852381D01*
X121927620Y-72852381D01*
X121784762Y-72804762D01*
X121689524Y-72709524D01*
X121641905Y-72614286D01*
X121594286Y-72423810D01*
X121594286Y-72280952D01*
X121641905Y-72090476D01*
X121689524Y-71995238D01*
X121784762Y-71900000D01*
X121927620Y-71852381D01*
X122022858Y-71852381D01*
X122165715Y-71900000D01*
X122213334Y-71947619D01*
X122689524Y-72852381D02*
X122880000Y-72852381D01*
X122975239Y-72804762D01*
X123022858Y-72757143D01*
X123118096Y-72614286D01*
X123165715Y-72423810D01*
X123165715Y-72042857D01*
X123118096Y-71947619D01*
X123070477Y-71900000D01*
X122975239Y-71852381D01*
X122784762Y-71852381D01*
X122689524Y-71900000D01*
X122641905Y-71947619D01*
X122594286Y-72042857D01*
X122594286Y-72280952D01*
X122641905Y-72376190D01*
X122689524Y-72423810D01*
X122784762Y-72471429D01*
X122975239Y-72471429D01*
X123070477Y-72423810D01*
X123118096Y-72376190D01*
X123165715Y-72280952D01*
X136881905Y-49992381D02*
X136881905Y-48992381D01*
X137120000Y-48992381D01*
X137262858Y-49040000D01*
X137358096Y-49135238D01*
X137405715Y-49230476D01*
X137453334Y-49420952D01*
X137453334Y-49563810D01*
X137405715Y-49754286D01*
X137358096Y-49849524D01*
X137262858Y-49944762D01*
X137120000Y-49992381D01*
X136881905Y-49992381D01*
X137786667Y-48992381D02*
X138453334Y-48992381D01*
X138024762Y-49992381D01*
X136881905Y-52532381D02*
X136881905Y-51532381D01*
X137120000Y-51532381D01*
X137262858Y-51580000D01*
X137358096Y-51675238D01*
X137405715Y-51770476D01*
X137453334Y-51960952D01*
X137453334Y-52103810D01*
X137405715Y-52294286D01*
X137358096Y-52389524D01*
X137262858Y-52484762D01*
X137120000Y-52532381D01*
X136881905Y-52532381D01*
X138310477Y-51532381D02*
X138120000Y-51532381D01*
X138024762Y-51580000D01*
X137977143Y-51627619D01*
X137881905Y-51770476D01*
X137834286Y-51960952D01*
X137834286Y-52341905D01*
X137881905Y-52437143D01*
X137929524Y-52484762D01*
X138024762Y-52532381D01*
X138215239Y-52532381D01*
X138310477Y-52484762D01*
X138358096Y-52437143D01*
X138405715Y-52341905D01*
X138405715Y-52103810D01*
X138358096Y-52008571D01*
X138310477Y-51960952D01*
X138215239Y-51913333D01*
X138024762Y-51913333D01*
X137929524Y-51960952D01*
X137881905Y-52008571D01*
X137834286Y-52103810D01*
X136881905Y-55072381D02*
X136881905Y-54072381D01*
X137120000Y-54072381D01*
X137262858Y-54120000D01*
X137358096Y-54215238D01*
X137405715Y-54310476D01*
X137453334Y-54500952D01*
X137453334Y-54643810D01*
X137405715Y-54834286D01*
X137358096Y-54929524D01*
X137262858Y-55024762D01*
X137120000Y-55072381D01*
X136881905Y-55072381D01*
X138358096Y-54072381D02*
X137881905Y-54072381D01*
X137834286Y-54548571D01*
X137881905Y-54500952D01*
X137977143Y-54453333D01*
X138215239Y-54453333D01*
X138310477Y-54500952D01*
X138358096Y-54548571D01*
X138405715Y-54643810D01*
X138405715Y-54881905D01*
X138358096Y-54977143D01*
X138310477Y-55024762D01*
X138215239Y-55072381D01*
X137977143Y-55072381D01*
X137881905Y-55024762D01*
X137834286Y-54977143D01*
X136881905Y-57612381D02*
X136881905Y-56612381D01*
X137120000Y-56612381D01*
X137262858Y-56660000D01*
X137358096Y-56755238D01*
X137405715Y-56850476D01*
X137453334Y-57040952D01*
X137453334Y-57183810D01*
X137405715Y-57374286D01*
X137358096Y-57469524D01*
X137262858Y-57564762D01*
X137120000Y-57612381D01*
X136881905Y-57612381D01*
X138310477Y-56945714D02*
X138310477Y-57612381D01*
X138072381Y-56564762D02*
X137834286Y-57279048D01*
X138453334Y-57279048D01*
X136881905Y-60152381D02*
X136881905Y-59152381D01*
X137120000Y-59152381D01*
X137262858Y-59200000D01*
X137358096Y-59295238D01*
X137405715Y-59390476D01*
X137453334Y-59580952D01*
X137453334Y-59723810D01*
X137405715Y-59914286D01*
X137358096Y-60009524D01*
X137262858Y-60104762D01*
X137120000Y-60152381D01*
X136881905Y-60152381D01*
X137786667Y-59152381D02*
X138405715Y-59152381D01*
X138072381Y-59533333D01*
X138215239Y-59533333D01*
X138310477Y-59580952D01*
X138358096Y-59628571D01*
X138405715Y-59723810D01*
X138405715Y-59961905D01*
X138358096Y-60057143D01*
X138310477Y-60104762D01*
X138215239Y-60152381D01*
X137929524Y-60152381D01*
X137834286Y-60104762D01*
X137786667Y-60057143D01*
X136881905Y-62692381D02*
X136881905Y-61692381D01*
X137120000Y-61692381D01*
X137262858Y-61740000D01*
X137358096Y-61835238D01*
X137405715Y-61930476D01*
X137453334Y-62120952D01*
X137453334Y-62263810D01*
X137405715Y-62454286D01*
X137358096Y-62549524D01*
X137262858Y-62644762D01*
X137120000Y-62692381D01*
X136881905Y-62692381D01*
X137834286Y-61787619D02*
X137881905Y-61740000D01*
X137977143Y-61692381D01*
X138215239Y-61692381D01*
X138310477Y-61740000D01*
X138358096Y-61787619D01*
X138405715Y-61882857D01*
X138405715Y-61978095D01*
X138358096Y-62120952D01*
X137786667Y-62692381D01*
X138405715Y-62692381D01*
X136881905Y-65232381D02*
X136881905Y-64232381D01*
X137120000Y-64232381D01*
X137262858Y-64280000D01*
X137358096Y-64375238D01*
X137405715Y-64470476D01*
X137453334Y-64660952D01*
X137453334Y-64803810D01*
X137405715Y-64994286D01*
X137358096Y-65089524D01*
X137262858Y-65184762D01*
X137120000Y-65232381D01*
X136881905Y-65232381D01*
X138405715Y-65232381D02*
X137834286Y-65232381D01*
X138120000Y-65232381D02*
X138120000Y-64232381D01*
X138024762Y-64375238D01*
X137929524Y-64470476D01*
X137834286Y-64518095D01*
X136881905Y-67772381D02*
X136881905Y-66772381D01*
X137120000Y-66772381D01*
X137262858Y-66820000D01*
X137358096Y-66915238D01*
X137405715Y-67010476D01*
X137453334Y-67200952D01*
X137453334Y-67343810D01*
X137405715Y-67534286D01*
X137358096Y-67629524D01*
X137262858Y-67724762D01*
X137120000Y-67772381D01*
X136881905Y-67772381D01*
X138072381Y-66772381D02*
X138167620Y-66772381D01*
X138262858Y-66820000D01*
X138310477Y-66867619D01*
X138358096Y-66962857D01*
X138405715Y-67153333D01*
X138405715Y-67391429D01*
X138358096Y-67581905D01*
X138310477Y-67677143D01*
X138262858Y-67724762D01*
X138167620Y-67772381D01*
X138072381Y-67772381D01*
X137977143Y-67724762D01*
X137929524Y-67677143D01*
X137881905Y-67581905D01*
X137834286Y-67391429D01*
X137834286Y-67153333D01*
X137881905Y-66962857D01*
X137929524Y-66867619D01*
X137977143Y-66820000D01*
X138072381Y-66772381D01*
X136858096Y-69360000D02*
X136762858Y-69312381D01*
X136620001Y-69312381D01*
X136477143Y-69360000D01*
X136381905Y-69455238D01*
X136334286Y-69550476D01*
X136286667Y-69740952D01*
X136286667Y-69883810D01*
X136334286Y-70074286D01*
X136381905Y-70169524D01*
X136477143Y-70264762D01*
X136620001Y-70312381D01*
X136715239Y-70312381D01*
X136858096Y-70264762D01*
X136905715Y-70217143D01*
X136905715Y-69883810D01*
X136715239Y-69883810D01*
X137334286Y-70312381D02*
X137334286Y-69312381D01*
X137905715Y-70312381D01*
X137905715Y-69312381D01*
X138381905Y-70312381D02*
X138381905Y-69312381D01*
X138620000Y-69312381D01*
X138762858Y-69360000D01*
X138858096Y-69455238D01*
X138905715Y-69550476D01*
X138953334Y-69740952D01*
X138953334Y-69883810D01*
X138905715Y-70074286D01*
X138858096Y-70169524D01*
X138762858Y-70264762D01*
X138620000Y-70312381D01*
X138381905Y-70312381D01*
X137429524Y-71852381D02*
X136953333Y-71852381D01*
X136905714Y-72328571D01*
X136953333Y-72280952D01*
X137048571Y-72233333D01*
X137286667Y-72233333D01*
X137381905Y-72280952D01*
X137429524Y-72328571D01*
X137477143Y-72423810D01*
X137477143Y-72661905D01*
X137429524Y-72757143D01*
X137381905Y-72804762D01*
X137286667Y-72852381D01*
X137048571Y-72852381D01*
X136953333Y-72804762D01*
X136905714Y-72757143D01*
X137762857Y-71852381D02*
X138096190Y-72852381D01*
X138429524Y-71852381D01*
X126002381Y-61714285D02*
X126002381Y-62190476D01*
X125002381Y-62190476D01*
X126002381Y-61380952D02*
X125002381Y-61380952D01*
X125002381Y-61142857D01*
X125050000Y-60999999D01*
X125145238Y-60904761D01*
X125240476Y-60857142D01*
X125430952Y-60809523D01*
X125573810Y-60809523D01*
X125764286Y-60857142D01*
X125859524Y-60904761D01*
X125954762Y-60999999D01*
X126002381Y-61142857D01*
X126002381Y-61380952D01*
X125002381Y-60190476D02*
X125002381Y-59999999D01*
X125050000Y-59904761D01*
X125145238Y-59809523D01*
X125335714Y-59761904D01*
X125669048Y-59761904D01*
X125859524Y-59809523D01*
X125954762Y-59904761D01*
X126002381Y-59999999D01*
X126002381Y-60190476D01*
X125954762Y-60285714D01*
X125859524Y-60380952D01*
X125669048Y-60428571D01*
X125335714Y-60428571D01*
X125145238Y-60380952D01*
X125050000Y-60285714D01*
X125002381Y-60190476D01*
X143184667Y-39584381D02*
X143184667Y-40298667D01*
X143137047Y-40441524D01*
X143041809Y-40536762D01*
X142898952Y-40584381D01*
X142803714Y-40584381D01*
X143660857Y-40584381D02*
X143660857Y-39584381D01*
X144041810Y-39584381D01*
X144137048Y-39632000D01*
X144184667Y-39679619D01*
X144232286Y-39774857D01*
X144232286Y-39917714D01*
X144184667Y-40012952D01*
X144137048Y-40060571D01*
X144041810Y-40108190D01*
X143660857Y-40108190D01*
X145184667Y-40584381D02*
X144613238Y-40584381D01*
X144898952Y-40584381D02*
X144898952Y-39584381D01*
X144803714Y-39727238D01*
X144708476Y-39822476D01*
X144613238Y-39870095D01*
X143404762Y-54122381D02*
X143404762Y-54836667D01*
X143357142Y-54979524D01*
X143261904Y-55074762D01*
X143119047Y-55122381D01*
X143023809Y-55122381D01*
X143880952Y-55122381D02*
X143880952Y-54122381D01*
X144261905Y-54122381D01*
X144357143Y-54170000D01*
X144404762Y-54217619D01*
X144452381Y-54312857D01*
X144452381Y-54455714D01*
X144404762Y-54550952D01*
X144357143Y-54598571D01*
X144261905Y-54646190D01*
X143880952Y-54646190D01*
X144833333Y-54217619D02*
X144880952Y-54170000D01*
X144976190Y-54122381D01*
X145214286Y-54122381D01*
X145309524Y-54170000D01*
X145357143Y-54217619D01*
X145404762Y-54312857D01*
X145404762Y-54408095D01*
X145357143Y-54550952D01*
X144785714Y-55122381D01*
X145404762Y-55122381D01*
X146547619Y-55074762D02*
X146690476Y-55122381D01*
X146928572Y-55122381D01*
X147023810Y-55074762D01*
X147071429Y-55027143D01*
X147119048Y-54931905D01*
X147119048Y-54836667D01*
X147071429Y-54741429D01*
X147023810Y-54693810D01*
X146928572Y-54646190D01*
X146738095Y-54598571D01*
X146642857Y-54550952D01*
X146595238Y-54503333D01*
X146547619Y-54408095D01*
X146547619Y-54312857D01*
X146595238Y-54217619D01*
X146642857Y-54170000D01*
X146738095Y-54122381D01*
X146976191Y-54122381D01*
X147119048Y-54170000D01*
X148119048Y-55027143D02*
X148071429Y-55074762D01*
X147928572Y-55122381D01*
X147833334Y-55122381D01*
X147690476Y-55074762D01*
X147595238Y-54979524D01*
X147547619Y-54884286D01*
X147500000Y-54693810D01*
X147500000Y-54550952D01*
X147547619Y-54360476D01*
X147595238Y-54265238D01*
X147690476Y-54170000D01*
X147833334Y-54122381D01*
X147928572Y-54122381D01*
X148071429Y-54170000D01*
X148119048Y-54217619D01*
X149023810Y-55122381D02*
X148547619Y-55122381D01*
X148547619Y-54122381D01*
X145208953Y-69302381D02*
X145208953Y-70016667D01*
X145161333Y-70159524D01*
X145066095Y-70254762D01*
X144923238Y-70302381D01*
X144828000Y-70302381D01*
X145685143Y-70302381D02*
X145685143Y-69302381D01*
X146066096Y-69302381D01*
X146161334Y-69350000D01*
X146208953Y-69397619D01*
X146256572Y-69492857D01*
X146256572Y-69635714D01*
X146208953Y-69730952D01*
X146161334Y-69778571D01*
X146066096Y-69826190D01*
X145685143Y-69826190D01*
X146589905Y-69302381D02*
X147208953Y-69302381D01*
X146875619Y-69683333D01*
X147018477Y-69683333D01*
X147113715Y-69730952D01*
X147161334Y-69778571D01*
X147208953Y-69873810D01*
X147208953Y-70111905D01*
X147161334Y-70207143D01*
X147113715Y-70254762D01*
X147018477Y-70302381D01*
X146732762Y-70302381D01*
X146637524Y-70254762D01*
X146589905Y-70207143D01*
X148351810Y-70254762D02*
X148494667Y-70302381D01*
X148732763Y-70302381D01*
X148828001Y-70254762D01*
X148875620Y-70207143D01*
X148923239Y-70111905D01*
X148923239Y-70016667D01*
X148875620Y-69921429D01*
X148828001Y-69873810D01*
X148732763Y-69826190D01*
X148542286Y-69778571D01*
X148447048Y-69730952D01*
X148399429Y-69683333D01*
X148351810Y-69588095D01*
X148351810Y-69492857D01*
X148399429Y-69397619D01*
X148447048Y-69350000D01*
X148542286Y-69302381D01*
X148780382Y-69302381D01*
X148923239Y-69350000D01*
X149351810Y-70302381D02*
X149351810Y-69302381D01*
X149589905Y-69302381D01*
X149732763Y-69350000D01*
X149828001Y-69445238D01*
X149875620Y-69540476D01*
X149923239Y-69730952D01*
X149923239Y-69873810D01*
X149875620Y-70064286D01*
X149828001Y-70159524D01*
X149732763Y-70254762D01*
X149589905Y-70302381D01*
X149351810Y-70302381D01*
X150304191Y-70016667D02*
X150780382Y-70016667D01*
X150208953Y-70302381D02*
X150542286Y-69302381D01*
X150875620Y-70302381D01*
X199564667Y-35222381D02*
X199564667Y-35936667D01*
X199517047Y-36079524D01*
X199421809Y-36174762D01*
X199278952Y-36222381D01*
X199183714Y-36222381D01*
X199945619Y-35222381D02*
X200612286Y-35222381D01*
X200183714Y-36222381D01*
X199136096Y-47550000D02*
X199040858Y-47502381D01*
X198898001Y-47502381D01*
X198755143Y-47550000D01*
X198659905Y-47645238D01*
X198612286Y-47740476D01*
X198564667Y-47930952D01*
X198564667Y-48073810D01*
X198612286Y-48264286D01*
X198659905Y-48359524D01*
X198755143Y-48454762D01*
X198898001Y-48502381D01*
X198993239Y-48502381D01*
X199136096Y-48454762D01*
X199183715Y-48407143D01*
X199183715Y-48073810D01*
X198993239Y-48073810D01*
X199612286Y-48502381D02*
X199612286Y-47502381D01*
X200183715Y-48502381D01*
X200183715Y-47502381D01*
X200659905Y-48502381D02*
X200659905Y-47502381D01*
X200898000Y-47502381D01*
X201040858Y-47550000D01*
X201136096Y-47645238D01*
X201183715Y-47740476D01*
X201231334Y-47930952D01*
X201231334Y-48073810D01*
X201183715Y-48264286D01*
X201136096Y-48359524D01*
X201040858Y-48454762D01*
X200898000Y-48502381D01*
X200659905Y-48502381D01*
X124995215Y-41411071D02*
X124450929Y-41411071D01*
X124450929Y-40268071D01*
X125376215Y-40812357D02*
X125757215Y-40812357D01*
X125920501Y-41411071D02*
X125376215Y-41411071D01*
X125376215Y-40268071D01*
X125920501Y-40268071D01*
X126410358Y-41411071D02*
X126410358Y-40268071D01*
X126682501Y-40268071D01*
X126845786Y-40322500D01*
X126954644Y-40431357D01*
X127009072Y-40540214D01*
X127063501Y-40757929D01*
X127063501Y-40921214D01*
X127009072Y-41138929D01*
X126954644Y-41247786D01*
X126845786Y-41356643D01*
X126682501Y-41411071D01*
X126410358Y-41411071D01*
X200620381Y-55705333D02*
X201334667Y-55705333D01*
X201477524Y-55752953D01*
X201572762Y-55848191D01*
X201620381Y-55991048D01*
X201620381Y-56086286D01*
X201048952Y-55086286D02*
X201001333Y-55181524D01*
X200953714Y-55229143D01*
X200858476Y-55276762D01*
X200810857Y-55276762D01*
X200715619Y-55229143D01*
X200668000Y-55181524D01*
X200620381Y-55086286D01*
X200620381Y-54895809D01*
X200668000Y-54800571D01*
X200715619Y-54752952D01*
X200810857Y-54705333D01*
X200858476Y-54705333D01*
X200953714Y-54752952D01*
X201001333Y-54800571D01*
X201048952Y-54895809D01*
X201048952Y-55086286D01*
X201096571Y-55181524D01*
X201144190Y-55229143D01*
X201239429Y-55276762D01*
X201429905Y-55276762D01*
X201525143Y-55229143D01*
X201572762Y-55181524D01*
X201620381Y-55086286D01*
X201620381Y-54895809D01*
X201572762Y-54800571D01*
X201525143Y-54752952D01*
X201429905Y-54705333D01*
X201239429Y-54705333D01*
X201144190Y-54752952D01*
X201096571Y-54800571D01*
X201048952Y-54895809D01*
X134802381Y-44642857D02*
X134326190Y-44976191D01*
X134802381Y-45214286D02*
X133802381Y-45214286D01*
X133802381Y-44833333D01*
X133850000Y-44738095D01*
X133897619Y-44690476D01*
X133992857Y-44642857D01*
X134135714Y-44642857D01*
X134230952Y-44690476D01*
X134278571Y-44738095D01*
X134326190Y-44833333D01*
X134326190Y-45214286D01*
X133897619Y-44261905D02*
X133850000Y-44214286D01*
X133802381Y-44119048D01*
X133802381Y-43880952D01*
X133850000Y-43785714D01*
X133897619Y-43738095D01*
X133992857Y-43690476D01*
X134088095Y-43690476D01*
X134230952Y-43738095D01*
X134802381Y-44309524D01*
X134802381Y-43690476D01*
X133897619Y-43309524D02*
X133850000Y-43261905D01*
X133802381Y-43166667D01*
X133802381Y-42928571D01*
X133850000Y-42833333D01*
X133897619Y-42785714D01*
X133992857Y-42738095D01*
X134088095Y-42738095D01*
X134230952Y-42785714D01*
X134802381Y-43357143D01*
X134802381Y-42738095D01*
X198080381Y-32337333D02*
X198794667Y-32337333D01*
X198937524Y-32384953D01*
X199032762Y-32480191D01*
X199080381Y-32623048D01*
X199080381Y-32718286D01*
X199080381Y-31813524D02*
X199080381Y-31623048D01*
X199032762Y-31527809D01*
X198985143Y-31480190D01*
X198842286Y-31384952D01*
X198651810Y-31337333D01*
X198270857Y-31337333D01*
X198175619Y-31384952D01*
X198128000Y-31432571D01*
X198080381Y-31527809D01*
X198080381Y-31718286D01*
X198128000Y-31813524D01*
X198175619Y-31861143D01*
X198270857Y-31908762D01*
X198508952Y-31908762D01*
X198604190Y-31861143D01*
X198651810Y-31813524D01*
X198699429Y-31718286D01*
X198699429Y-31527809D01*
X198651810Y-31432571D01*
X198604190Y-31384952D01*
X198508952Y-31337333D01*
X170045143Y-63349143D02*
X169997524Y-63396762D01*
X169854667Y-63444381D01*
X169759429Y-63444381D01*
X169616571Y-63396762D01*
X169521333Y-63301524D01*
X169473714Y-63206286D01*
X169426095Y-63015810D01*
X169426095Y-62872952D01*
X169473714Y-62682476D01*
X169521333Y-62587238D01*
X169616571Y-62492000D01*
X169759429Y-62444381D01*
X169854667Y-62444381D01*
X169997524Y-62492000D01*
X170045143Y-62539619D01*
X170997524Y-63444381D02*
X170426095Y-63444381D01*
X170711809Y-63444381D02*
X170711809Y-62444381D01*
X170616571Y-62587238D01*
X170521333Y-62682476D01*
X170426095Y-62730095D01*
X171854667Y-62444381D02*
X171664190Y-62444381D01*
X171568952Y-62492000D01*
X171521333Y-62539619D01*
X171426095Y-62682476D01*
X171378476Y-62872952D01*
X171378476Y-63253905D01*
X171426095Y-63349143D01*
X171473714Y-63396762D01*
X171568952Y-63444381D01*
X171759429Y-63444381D01*
X171854667Y-63396762D01*
X171902286Y-63349143D01*
X171949905Y-63253905D01*
X171949905Y-63015810D01*
X171902286Y-62920571D01*
X171854667Y-62872952D01*
X171759429Y-62825333D01*
X171568952Y-62825333D01*
X171473714Y-62872952D01*
X171426095Y-62920571D01*
X171378476Y-63015810D01*
X173688477Y-47668381D02*
X173688477Y-48382667D01*
X173640857Y-48525524D01*
X173545619Y-48620762D01*
X173402762Y-48668381D01*
X173307524Y-48668381D01*
X174688477Y-48668381D02*
X174117048Y-48668381D01*
X174402762Y-48668381D02*
X174402762Y-47668381D01*
X174307524Y-47811238D01*
X174212286Y-47906476D01*
X174117048Y-47954095D01*
X175307524Y-47668381D02*
X175402763Y-47668381D01*
X175498001Y-47716000D01*
X175545620Y-47763619D01*
X175593239Y-47858857D01*
X175640858Y-48049333D01*
X175640858Y-48287429D01*
X175593239Y-48477905D01*
X175545620Y-48573143D01*
X175498001Y-48620762D01*
X175402763Y-48668381D01*
X175307524Y-48668381D01*
X175212286Y-48620762D01*
X175164667Y-48573143D01*
X175117048Y-48477905D01*
X175069429Y-48287429D01*
X175069429Y-48049333D01*
X175117048Y-47858857D01*
X175164667Y-47763619D01*
X175212286Y-47716000D01*
X175307524Y-47668381D01*
M02*
